G75*
G70*
%OFA0B0*%
%FSLAX24Y24*%
%IPPOS*%
%LPD*%
%AMOC8*
5,1,8,0,0,1.08239X$1,22.5*
%
%ADD10C,0.0100*%
%ADD11C,0.0080*%
%ADD12R,0.0150X0.1300*%
%ADD13C,0.0060*%
%ADD14C,0.0050*%
%ADD15C,0.0110*%
D10*
X002657Y004893D02*
X006077Y004893D01*
X006077Y012893D01*
X002657Y012893D01*
X002657Y025893D01*
X006077Y025893D01*
X006077Y012893D01*
X002657Y012893D01*
X002657Y004893D01*
X003327Y006243D02*
X003927Y006843D01*
X003327Y007443D01*
X003327Y006243D01*
X003327Y006313D02*
X003396Y006313D01*
X003327Y006411D02*
X003495Y006411D01*
X003594Y006510D02*
X003327Y006510D01*
X003327Y006608D02*
X003692Y006608D01*
X003791Y006707D02*
X003327Y006707D01*
X003327Y006805D02*
X003889Y006805D01*
X003866Y006904D02*
X003327Y006904D01*
X003327Y007002D02*
X003768Y007002D01*
X003669Y007101D02*
X003327Y007101D01*
X003327Y007199D02*
X003571Y007199D01*
X003472Y007298D02*
X003327Y007298D01*
X003327Y007397D02*
X003374Y007397D01*
X002677Y008093D02*
X004777Y008093D01*
X004777Y009693D01*
X002677Y009693D01*
X002827Y008893D02*
X004577Y008893D01*
X004577Y009643D01*
X004577Y008893D02*
X004577Y008143D01*
X006767Y006310D02*
X006900Y006443D01*
X006900Y006043D01*
X006767Y006043D02*
X007034Y006043D01*
X008590Y007103D02*
X010164Y007103D01*
X010164Y007221D01*
X010777Y007793D02*
X011277Y007793D01*
X011577Y007793D02*
X012027Y007793D01*
X012027Y008393D01*
X011577Y008393D01*
X011277Y008393D02*
X010777Y008393D01*
X010777Y007793D01*
X010164Y008166D02*
X010164Y008284D01*
X008590Y008284D01*
X008590Y008166D01*
X008590Y007221D02*
X008590Y007103D01*
X010777Y009393D02*
X011277Y009393D01*
X011577Y009393D02*
X012027Y009393D01*
X012027Y009993D01*
X011577Y009993D01*
X011277Y009993D02*
X010777Y009993D01*
X010777Y009393D01*
X012027Y009393D02*
X012077Y009443D01*
X012127Y009493D01*
X012127Y009893D01*
X012077Y009943D01*
X012027Y009993D01*
X012077Y009943D02*
X012077Y009443D01*
X012027Y008393D02*
X012077Y008343D01*
X012127Y008293D01*
X012127Y007893D01*
X012077Y007843D01*
X012027Y007793D01*
X012077Y007843D02*
X012077Y008343D01*
X014033Y008040D02*
X014821Y008040D01*
X014427Y007449D01*
X014033Y008040D01*
X013977Y007443D02*
X014877Y007443D01*
X014277Y009193D02*
X013927Y009193D01*
X014277Y009193D02*
X014277Y009493D01*
X014277Y009993D02*
X014277Y010293D01*
X013927Y010293D01*
X013777Y009843D02*
X013777Y009643D01*
X014548Y010753D02*
X014706Y010753D01*
X014666Y010910D02*
X014666Y010989D01*
X014611Y011044D01*
X014588Y011100D02*
X014588Y011114D01*
X014611Y011169D02*
X014666Y011225D01*
X014611Y011281D01*
X014588Y011336D02*
X014588Y011350D01*
X014611Y011406D02*
X014666Y011461D01*
X014611Y011517D01*
X014588Y011573D02*
X014588Y011586D01*
X014611Y011642D02*
X014666Y011697D01*
X014666Y011776D01*
X014706Y011934D02*
X014548Y011934D01*
X014610Y011642D02*
X014600Y011630D01*
X014593Y011616D01*
X014589Y011601D01*
X014587Y011586D01*
X014587Y011573D02*
X014589Y011558D01*
X014593Y011543D01*
X014600Y011529D01*
X014610Y011517D01*
X014610Y011406D02*
X014600Y011394D01*
X014593Y011380D01*
X014589Y011365D01*
X014587Y011350D01*
X014587Y011336D02*
X014589Y011321D01*
X014593Y011306D01*
X014600Y011292D01*
X014610Y011280D01*
X014610Y011170D02*
X014600Y011158D01*
X014593Y011144D01*
X014589Y011129D01*
X014587Y011114D01*
X014587Y011100D02*
X014589Y011085D01*
X014593Y011070D01*
X014600Y011056D01*
X014610Y011044D01*
X015696Y010825D02*
X015696Y004762D01*
X023255Y004762D01*
X023255Y010825D01*
X015696Y010825D01*
X017877Y012393D02*
X018027Y012393D01*
X018027Y012543D01*
X018027Y012393D02*
X018177Y012393D01*
X018027Y012393D02*
X018027Y012243D01*
X017307Y013043D02*
X017312Y013154D01*
X017327Y013264D01*
X017352Y013372D01*
X017387Y013478D01*
X017431Y013579D01*
X017485Y013677D01*
X017547Y013769D01*
X017617Y013855D01*
X017694Y013935D01*
X017779Y014007D01*
X017870Y014071D01*
X017966Y014126D01*
X018067Y014173D01*
X018171Y014210D01*
X018279Y014237D01*
X018388Y014255D01*
X018499Y014263D01*
X018610Y014260D01*
X018721Y014248D01*
X018829Y014225D01*
X018936Y014193D01*
X019038Y014151D01*
X019137Y014100D01*
X019231Y014040D01*
X019318Y013972D01*
X019399Y013896D01*
X019473Y013813D01*
X019539Y013724D01*
X019597Y013629D01*
X019646Y013529D01*
X019686Y013425D01*
X019716Y013318D01*
X019736Y013209D01*
X019746Y013099D01*
X019746Y012987D01*
X019736Y012877D01*
X019716Y012768D01*
X019686Y012661D01*
X019646Y012557D01*
X019597Y012457D01*
X019539Y012362D01*
X019473Y012273D01*
X019399Y012190D01*
X019318Y012114D01*
X019231Y012046D01*
X019137Y011986D01*
X019038Y011935D01*
X018936Y011893D01*
X018829Y011861D01*
X018721Y011838D01*
X018610Y011826D01*
X018499Y011823D01*
X018388Y011831D01*
X018279Y011849D01*
X018171Y011876D01*
X018067Y011913D01*
X017966Y011960D01*
X017870Y012015D01*
X017779Y012079D01*
X017694Y012151D01*
X017617Y012231D01*
X017547Y012317D01*
X017485Y012409D01*
X017431Y012507D01*
X017387Y012608D01*
X017352Y012714D01*
X017327Y012822D01*
X017312Y012932D01*
X017307Y013043D01*
X014946Y013137D02*
X014946Y013549D01*
X014946Y013866D02*
X014946Y013903D01*
X014308Y013903D01*
X014308Y013866D01*
X014308Y013549D02*
X014308Y013511D01*
X014308Y013175D02*
X014308Y013137D01*
X014308Y012820D02*
X014308Y012783D01*
X014946Y012783D01*
X014946Y012820D01*
X012127Y012693D02*
X012127Y013093D01*
X012077Y013143D01*
X012027Y013193D01*
X012027Y012593D01*
X012077Y012643D01*
X012127Y012693D01*
X012077Y012643D02*
X012077Y013143D01*
X012027Y013193D02*
X011577Y013193D01*
X011277Y013193D02*
X010777Y013193D01*
X010777Y012593D01*
X011277Y012593D01*
X011577Y012593D02*
X012027Y012593D01*
X012027Y011593D02*
X011577Y011593D01*
X011277Y011593D02*
X010777Y011593D01*
X010777Y010993D01*
X011277Y010993D01*
X011577Y010993D02*
X012027Y010993D01*
X012027Y011593D01*
X012077Y011543D01*
X012127Y011493D01*
X012127Y011093D01*
X012077Y011043D01*
X012027Y010993D01*
X012077Y011043D02*
X012077Y011543D01*
X008577Y014693D02*
X021577Y014693D01*
X021577Y023793D01*
X008577Y023793D01*
X008577Y014693D01*
X006967Y011743D02*
X006833Y011743D01*
X006767Y011677D01*
X006767Y011610D01*
X006833Y011543D01*
X007034Y011543D01*
X007034Y011410D02*
X007034Y011677D01*
X006967Y011743D01*
X007034Y011410D02*
X006967Y011343D01*
X006833Y011343D01*
X006767Y011410D01*
X003424Y014590D02*
X003327Y014590D01*
X003327Y014593D02*
X003327Y014493D01*
X003927Y015093D01*
X003327Y015693D01*
X003327Y014593D01*
X003327Y014689D02*
X003523Y014689D01*
X003621Y014787D02*
X003327Y014787D01*
X003327Y014886D02*
X003720Y014886D01*
X003818Y014984D02*
X003327Y014984D01*
X003327Y015083D02*
X003917Y015083D01*
X003839Y015181D02*
X003327Y015181D01*
X003327Y015280D02*
X003740Y015280D01*
X003642Y015379D02*
X003327Y015379D01*
X003327Y015477D02*
X003543Y015477D01*
X003445Y015576D02*
X003327Y015576D01*
X003327Y015674D02*
X003346Y015674D01*
X002677Y018593D02*
X004777Y018593D01*
X004777Y020193D01*
X002677Y020193D01*
X002827Y019393D02*
X004577Y019393D01*
X004577Y020143D01*
X004577Y019393D02*
X004577Y018643D01*
X015630Y018599D02*
X015630Y019387D01*
X016221Y018993D01*
X015630Y018599D01*
X016227Y018543D02*
X016227Y019443D01*
X017948Y019284D02*
X018106Y019284D01*
X018066Y019126D02*
X018066Y019047D01*
X018011Y018992D01*
X017988Y018936D02*
X017988Y018923D01*
X018011Y018867D02*
X018066Y018811D01*
X018011Y018756D01*
X017988Y018700D02*
X017988Y018686D01*
X018011Y018631D02*
X018066Y018575D01*
X018011Y018519D01*
X017988Y018464D02*
X017988Y018450D01*
X018011Y018394D02*
X018066Y018339D01*
X018066Y018260D01*
X018106Y018103D02*
X017948Y018103D01*
X018010Y018394D02*
X018000Y018406D01*
X017993Y018420D01*
X017989Y018435D01*
X017987Y018450D01*
X017987Y018464D02*
X017989Y018479D01*
X017993Y018494D01*
X018000Y018508D01*
X018010Y018520D01*
X018010Y018630D02*
X018000Y018642D01*
X017993Y018656D01*
X017989Y018671D01*
X017987Y018686D01*
X017987Y018700D02*
X017989Y018715D01*
X017993Y018730D01*
X018000Y018744D01*
X018010Y018756D01*
X018010Y018867D02*
X018000Y018879D01*
X017993Y018893D01*
X017989Y018908D01*
X017987Y018923D01*
X017987Y018936D02*
X017989Y018951D01*
X017993Y018966D01*
X018000Y018980D01*
X018010Y018992D01*
X019930Y018599D02*
X019930Y019387D01*
X020521Y018993D01*
X019930Y018599D01*
X020527Y018543D02*
X020527Y019443D01*
X023843Y017675D02*
X025811Y017675D01*
X025077Y017293D02*
X025077Y016793D01*
X024677Y017043D01*
X025077Y017293D01*
X024677Y017293D02*
X024677Y016793D01*
X023843Y016412D02*
X025811Y016412D01*
X027042Y015875D02*
X023877Y015875D01*
X022177Y015875D02*
X021727Y015875D01*
X021727Y014993D01*
X021727Y013193D02*
X021727Y012311D01*
X027042Y012311D01*
X027042Y015875D01*
X027188Y010793D02*
X023788Y010793D01*
X023788Y010352D01*
X023788Y009230D02*
X023788Y008384D01*
X023788Y007203D02*
X023788Y006376D01*
X023788Y005234D02*
X023788Y004793D01*
X027188Y004793D01*
X028488Y004793D01*
X029838Y004793D01*
X029838Y005475D01*
X029838Y006175D01*
X029838Y007443D01*
X029838Y008143D01*
X029838Y009412D01*
X029838Y010112D01*
X029838Y010793D01*
X030088Y010793D01*
X032238Y010793D01*
X032488Y010793D01*
X032488Y004793D01*
X032238Y004793D01*
X030088Y004793D01*
X029838Y004793D01*
X030088Y004793D02*
X030088Y010793D01*
X029838Y010793D02*
X028488Y010793D01*
X027188Y010793D01*
X027188Y009277D01*
X028488Y009277D01*
X029588Y009277D01*
X029588Y008277D01*
X028488Y008277D01*
X028488Y007309D01*
X029588Y007309D01*
X029588Y006309D01*
X028488Y006309D01*
X027188Y006309D01*
X027088Y006309D01*
X026838Y006309D01*
X026838Y007309D01*
X027088Y007309D01*
X027188Y007309D01*
X028488Y007309D01*
X028988Y006809D02*
X027588Y006809D01*
X027188Y007309D02*
X027188Y008277D01*
X027088Y008277D01*
X026838Y008277D01*
X026838Y009277D01*
X027088Y009277D01*
X027188Y009277D01*
X027088Y009277D02*
X027088Y008277D01*
X027188Y008277D02*
X028488Y008277D01*
X028988Y008777D02*
X027538Y008777D01*
X028488Y009277D02*
X028488Y010793D01*
X029338Y009962D02*
X029338Y009562D01*
X029838Y009412D01*
X029838Y010112D02*
X029338Y009962D01*
X030688Y010162D02*
X031588Y009362D01*
X030538Y009762D02*
X030540Y009817D01*
X030548Y009871D01*
X030560Y009924D01*
X030577Y009976D01*
X030599Y010026D01*
X030625Y010074D01*
X030656Y010119D01*
X030690Y010161D01*
X030728Y010201D01*
X030770Y010236D01*
X030815Y010267D01*
X030862Y010295D01*
X030912Y010318D01*
X030963Y010336D01*
X031016Y010349D01*
X031070Y010358D01*
X031124Y010362D01*
X031179Y010361D01*
X031233Y010354D01*
X031287Y010343D01*
X031339Y010327D01*
X031390Y010307D01*
X031438Y010282D01*
X031484Y010252D01*
X031527Y010219D01*
X031567Y010181D01*
X031603Y010141D01*
X031636Y010097D01*
X031664Y010050D01*
X031688Y010001D01*
X031708Y009950D01*
X031723Y009897D01*
X031732Y009844D01*
X031737Y009789D01*
X031737Y009735D01*
X031732Y009680D01*
X031723Y009627D01*
X031708Y009574D01*
X031688Y009523D01*
X031664Y009474D01*
X031636Y009427D01*
X031603Y009383D01*
X031567Y009343D01*
X031527Y009305D01*
X031484Y009272D01*
X031438Y009242D01*
X031390Y009217D01*
X031339Y009197D01*
X031287Y009181D01*
X031233Y009170D01*
X031179Y009163D01*
X031124Y009162D01*
X031070Y009166D01*
X031016Y009175D01*
X030963Y009188D01*
X030912Y009206D01*
X030862Y009229D01*
X030815Y009257D01*
X030770Y009288D01*
X030728Y009323D01*
X030690Y009363D01*
X030656Y009405D01*
X030625Y009450D01*
X030599Y009498D01*
X030577Y009548D01*
X030560Y009600D01*
X030548Y009653D01*
X030540Y009707D01*
X030538Y009762D01*
X032238Y010793D02*
X032238Y004793D01*
X031588Y005425D02*
X030688Y006225D01*
X030538Y005825D02*
X030540Y005880D01*
X030548Y005934D01*
X030560Y005987D01*
X030577Y006039D01*
X030599Y006089D01*
X030625Y006137D01*
X030656Y006182D01*
X030690Y006224D01*
X030728Y006264D01*
X030770Y006299D01*
X030815Y006330D01*
X030862Y006358D01*
X030912Y006381D01*
X030963Y006399D01*
X031016Y006412D01*
X031070Y006421D01*
X031124Y006425D01*
X031179Y006424D01*
X031233Y006417D01*
X031287Y006406D01*
X031339Y006390D01*
X031390Y006370D01*
X031438Y006345D01*
X031484Y006315D01*
X031527Y006282D01*
X031567Y006244D01*
X031603Y006204D01*
X031636Y006160D01*
X031664Y006113D01*
X031688Y006064D01*
X031708Y006013D01*
X031723Y005960D01*
X031732Y005907D01*
X031737Y005852D01*
X031737Y005798D01*
X031732Y005743D01*
X031723Y005690D01*
X031708Y005637D01*
X031688Y005586D01*
X031664Y005537D01*
X031636Y005490D01*
X031603Y005446D01*
X031567Y005406D01*
X031527Y005368D01*
X031484Y005335D01*
X031438Y005305D01*
X031390Y005280D01*
X031339Y005260D01*
X031287Y005244D01*
X031233Y005233D01*
X031179Y005226D01*
X031124Y005225D01*
X031070Y005229D01*
X031016Y005238D01*
X030963Y005251D01*
X030912Y005269D01*
X030862Y005292D01*
X030815Y005320D01*
X030770Y005351D01*
X030728Y005386D01*
X030690Y005426D01*
X030656Y005468D01*
X030625Y005513D01*
X030599Y005561D01*
X030577Y005611D01*
X030560Y005663D01*
X030548Y005716D01*
X030540Y005770D01*
X030538Y005825D01*
X029838Y006175D02*
X029338Y006025D01*
X029338Y005625D01*
X029838Y005475D01*
X028488Y004793D02*
X028488Y006309D01*
X027188Y006309D02*
X027188Y004793D01*
X027088Y006309D02*
X027088Y007309D01*
X029338Y007593D02*
X029838Y007443D01*
X029338Y007593D02*
X029338Y007993D01*
X029838Y008143D01*
X030688Y008193D02*
X031588Y007393D01*
X030538Y007793D02*
X030540Y007848D01*
X030548Y007902D01*
X030560Y007955D01*
X030577Y008007D01*
X030599Y008057D01*
X030625Y008105D01*
X030656Y008150D01*
X030690Y008192D01*
X030728Y008232D01*
X030770Y008267D01*
X030815Y008298D01*
X030862Y008326D01*
X030912Y008349D01*
X030963Y008367D01*
X031016Y008380D01*
X031070Y008389D01*
X031124Y008393D01*
X031179Y008392D01*
X031233Y008385D01*
X031287Y008374D01*
X031339Y008358D01*
X031390Y008338D01*
X031438Y008313D01*
X031484Y008283D01*
X031527Y008250D01*
X031567Y008212D01*
X031603Y008172D01*
X031636Y008128D01*
X031664Y008081D01*
X031688Y008032D01*
X031708Y007981D01*
X031723Y007928D01*
X031732Y007875D01*
X031737Y007820D01*
X031737Y007766D01*
X031732Y007711D01*
X031723Y007658D01*
X031708Y007605D01*
X031688Y007554D01*
X031664Y007505D01*
X031636Y007458D01*
X031603Y007414D01*
X031567Y007374D01*
X031527Y007336D01*
X031484Y007303D01*
X031438Y007273D01*
X031390Y007248D01*
X031339Y007228D01*
X031287Y007212D01*
X031233Y007201D01*
X031179Y007194D01*
X031124Y007193D01*
X031070Y007197D01*
X031016Y007206D01*
X030963Y007219D01*
X030912Y007237D01*
X030862Y007260D01*
X030815Y007288D01*
X030770Y007319D01*
X030728Y007354D01*
X030690Y007394D01*
X030656Y007436D01*
X030625Y007481D01*
X030599Y007529D01*
X030577Y007579D01*
X030560Y007631D01*
X030548Y007684D01*
X030540Y007738D01*
X030538Y007793D01*
X022007Y008163D02*
X021877Y008043D01*
X021877Y009263D01*
X021877Y008043D02*
X021627Y007793D01*
X019027Y007793D01*
X018777Y007543D02*
X018277Y007543D01*
X018277Y005443D01*
X018027Y005443D01*
X017777Y007543D02*
X018777Y008043D01*
X018277Y008043D01*
X017777Y008043D01*
X017777Y007543D01*
X018277Y007543D01*
X019027Y007793D02*
X019025Y007847D01*
X019019Y007900D01*
X019010Y007952D01*
X018997Y008004D01*
X018980Y008055D01*
X018959Y008105D01*
X018935Y008152D01*
X018908Y008198D01*
X018877Y008242D01*
X018844Y008284D01*
X018807Y008323D01*
X018768Y008360D01*
X018726Y008393D01*
X018682Y008424D01*
X018636Y008451D01*
X018589Y008475D01*
X018539Y008496D01*
X018488Y008513D01*
X018436Y008526D01*
X018384Y008535D01*
X018331Y008541D01*
X018277Y008543D01*
X018223Y008541D01*
X018170Y008535D01*
X018118Y008526D01*
X018066Y008513D01*
X018015Y008496D01*
X017965Y008475D01*
X017918Y008451D01*
X017872Y008424D01*
X017828Y008393D01*
X017786Y008360D01*
X017747Y008323D01*
X017710Y008284D01*
X017677Y008242D01*
X017646Y008198D01*
X017619Y008152D01*
X017595Y008105D01*
X017574Y008055D01*
X017557Y008004D01*
X017544Y007952D01*
X017535Y007900D01*
X017529Y007847D01*
X017527Y007793D01*
X017127Y007793D01*
X018277Y008043D02*
X018277Y010143D01*
X018027Y010143D01*
X018777Y008043D02*
X018777Y007543D01*
X021877Y007543D02*
X021877Y006313D01*
X022207Y022693D02*
X022212Y022804D01*
X022227Y022914D01*
X022252Y023022D01*
X022287Y023128D01*
X022331Y023229D01*
X022385Y023327D01*
X022447Y023419D01*
X022517Y023505D01*
X022594Y023585D01*
X022679Y023657D01*
X022770Y023721D01*
X022866Y023776D01*
X022967Y023823D01*
X023071Y023860D01*
X023179Y023887D01*
X023288Y023905D01*
X023399Y023913D01*
X023510Y023910D01*
X023621Y023898D01*
X023729Y023875D01*
X023836Y023843D01*
X023938Y023801D01*
X024037Y023750D01*
X024131Y023690D01*
X024218Y023622D01*
X024299Y023546D01*
X024373Y023463D01*
X024439Y023374D01*
X024497Y023279D01*
X024546Y023179D01*
X024586Y023075D01*
X024616Y022968D01*
X024636Y022859D01*
X024646Y022749D01*
X024646Y022637D01*
X024636Y022527D01*
X024616Y022418D01*
X024586Y022311D01*
X024546Y022207D01*
X024497Y022107D01*
X024439Y022012D01*
X024373Y021923D01*
X024299Y021840D01*
X024218Y021764D01*
X024131Y021696D01*
X024037Y021636D01*
X023938Y021585D01*
X023836Y021543D01*
X023729Y021511D01*
X023621Y021488D01*
X023510Y021476D01*
X023399Y021473D01*
X023288Y021481D01*
X023179Y021499D01*
X023071Y021526D01*
X022967Y021563D01*
X022866Y021610D01*
X022770Y021665D01*
X022679Y021729D01*
X022594Y021801D01*
X022517Y021881D01*
X022447Y021967D01*
X022385Y022059D01*
X022331Y022157D01*
X022287Y022258D01*
X022252Y022364D01*
X022227Y022472D01*
X022212Y022582D01*
X022207Y022693D01*
X023777Y023343D02*
X023927Y023343D01*
X024077Y023343D01*
X023927Y023343D02*
X023927Y023193D01*
X023927Y023343D02*
X023927Y023493D01*
X024577Y023612D02*
X024577Y024025D01*
X024577Y023612D02*
X027057Y023612D01*
X027057Y025974D01*
X024577Y025974D01*
X024577Y025561D01*
X024277Y025493D02*
X024277Y025760D01*
X025013Y025240D02*
X025013Y025107D01*
X025079Y025040D01*
X025013Y025240D02*
X025079Y025307D01*
X025146Y025307D01*
X025413Y025040D01*
X025413Y025307D01*
X024577Y024813D02*
X024577Y024773D01*
X024210Y024427D02*
X023944Y024427D01*
X024077Y024293D02*
X024077Y024560D01*
X025013Y024386D02*
X025413Y024386D01*
X025413Y024253D02*
X025413Y024519D01*
X025146Y024253D02*
X025013Y024386D01*
D11*
X003781Y000283D02*
X003567Y000283D01*
X003674Y000283D02*
X003674Y000603D01*
X003567Y000497D01*
X003935Y000497D02*
X003935Y000550D01*
X003989Y000603D01*
X004096Y000603D01*
X004149Y000550D01*
X004149Y000497D01*
X004096Y000443D01*
X003989Y000443D01*
X003935Y000497D01*
X003989Y000443D02*
X003935Y000390D01*
X003935Y000336D01*
X003989Y000283D01*
X004096Y000283D01*
X004149Y000336D01*
X004149Y000390D01*
X004096Y000443D01*
X004304Y000390D02*
X004357Y000443D01*
X004464Y000443D01*
X004517Y000390D01*
X004517Y000336D01*
X004464Y000283D01*
X004357Y000283D01*
X004304Y000336D01*
X004304Y000390D01*
X004357Y000443D02*
X004304Y000497D01*
X004304Y000550D01*
X004357Y000603D01*
X004464Y000603D01*
X004517Y000550D01*
X004517Y000497D01*
X004464Y000443D01*
X005040Y000443D02*
X005147Y000443D01*
X005040Y000283D02*
X005254Y000283D01*
X005409Y000283D02*
X005409Y000497D01*
X005515Y000497D02*
X005569Y000497D01*
X005515Y000497D02*
X005409Y000390D01*
X005254Y000603D02*
X005040Y000603D01*
X005040Y000283D01*
X005716Y000283D02*
X005716Y000497D01*
X005822Y000497D02*
X005876Y000497D01*
X005822Y000497D02*
X005716Y000390D01*
X006022Y000443D02*
X006022Y000336D01*
X006076Y000283D01*
X006183Y000283D01*
X006236Y000336D01*
X006236Y000443D01*
X006183Y000497D01*
X006076Y000497D01*
X006022Y000443D01*
X006391Y000390D02*
X006497Y000497D01*
X006551Y000497D01*
X006698Y000443D02*
X006751Y000497D01*
X006911Y000497D01*
X006858Y000390D02*
X006751Y000390D01*
X006698Y000443D01*
X006698Y000283D02*
X006858Y000283D01*
X006911Y000336D01*
X006858Y000390D01*
X007434Y000497D02*
X007541Y000497D01*
X007488Y000550D02*
X007488Y000336D01*
X007541Y000283D01*
X007680Y000336D02*
X007733Y000283D01*
X007840Y000283D01*
X007893Y000336D01*
X007893Y000443D01*
X007840Y000497D01*
X007733Y000497D01*
X007680Y000443D01*
X007680Y000336D01*
X008048Y000497D02*
X008155Y000497D01*
X008101Y000550D02*
X008101Y000336D01*
X008155Y000283D01*
X008294Y000336D02*
X008347Y000283D01*
X008507Y000283D01*
X008507Y000443D01*
X008454Y000497D01*
X008347Y000497D01*
X008347Y000390D02*
X008507Y000390D01*
X008347Y000390D02*
X008294Y000336D01*
X008662Y000283D02*
X008769Y000283D01*
X008715Y000283D02*
X008715Y000603D01*
X008662Y000603D01*
X006391Y000497D02*
X006391Y000283D01*
X007420Y004433D02*
X007527Y004433D01*
X007581Y004486D01*
X007581Y004593D01*
X007474Y004593D01*
X007367Y004700D02*
X007367Y004486D01*
X007420Y004433D01*
X007367Y004700D02*
X007420Y004753D01*
X007527Y004753D01*
X007581Y004700D01*
X007735Y004753D02*
X007949Y004433D01*
X007949Y004753D01*
X008104Y004753D02*
X008264Y004753D01*
X008317Y004700D01*
X008317Y004486D01*
X008264Y004433D01*
X008104Y004433D01*
X008104Y004753D01*
X007735Y004753D02*
X007735Y004433D01*
X007209Y005433D02*
X007209Y005753D01*
X007049Y005593D01*
X007262Y005593D01*
X006894Y005647D02*
X006894Y005700D01*
X006841Y005753D01*
X006734Y005753D01*
X006680Y005700D01*
X006526Y005700D02*
X006472Y005753D01*
X006312Y005753D01*
X006312Y005433D01*
X006312Y005540D02*
X006472Y005540D01*
X006526Y005593D01*
X006526Y005700D01*
X006419Y005540D02*
X006526Y005433D01*
X006680Y005433D02*
X006894Y005647D01*
X006894Y005433D02*
X006680Y005433D01*
X008217Y006733D02*
X008431Y006733D01*
X008324Y006733D02*
X008324Y007053D01*
X008217Y006947D01*
X008270Y008083D02*
X008217Y008136D01*
X008270Y008083D02*
X008377Y008083D01*
X008431Y008136D01*
X008431Y008190D01*
X008377Y008243D01*
X008324Y008243D01*
X008377Y008243D02*
X008431Y008297D01*
X008431Y008350D01*
X008377Y008403D01*
X008270Y008403D01*
X008217Y008350D01*
X008270Y008733D02*
X008217Y008786D01*
X008270Y008733D02*
X008377Y008733D01*
X008431Y008786D01*
X008431Y008893D01*
X008377Y008947D01*
X008324Y008947D01*
X008217Y008893D01*
X008217Y009053D01*
X008431Y009053D01*
X008217Y009733D02*
X008217Y009786D01*
X008431Y010000D01*
X008431Y010053D01*
X008217Y010053D01*
X008270Y010733D02*
X008377Y010733D01*
X008431Y010786D01*
X008431Y011000D01*
X008377Y011053D01*
X008270Y011053D01*
X008217Y011000D01*
X008217Y010947D01*
X008270Y010893D01*
X008431Y010893D01*
X008270Y010733D02*
X008217Y010786D01*
X008530Y011483D02*
X008530Y011803D01*
X008691Y011803D01*
X008744Y011750D01*
X008744Y011643D01*
X008691Y011590D01*
X008530Y011590D01*
X008637Y011590D02*
X008744Y011483D01*
X008899Y011536D02*
X008952Y011483D01*
X009059Y011483D01*
X009112Y011536D01*
X009112Y011590D01*
X009059Y011643D01*
X009006Y011643D01*
X009059Y011643D02*
X009112Y011697D01*
X009112Y011750D01*
X009059Y011803D01*
X008952Y011803D01*
X008899Y011750D01*
X008862Y012083D02*
X008649Y012083D01*
X008862Y012297D01*
X008862Y012350D01*
X008809Y012403D01*
X008702Y012403D01*
X008649Y012350D01*
X008494Y012350D02*
X008494Y012243D01*
X008441Y012190D01*
X008280Y012190D01*
X008280Y012083D02*
X008280Y012403D01*
X008441Y012403D01*
X008494Y012350D01*
X008387Y012190D02*
X008494Y012083D01*
X008494Y012683D02*
X008387Y012790D01*
X008441Y012790D02*
X008280Y012790D01*
X008280Y012683D02*
X008280Y013003D01*
X008441Y013003D01*
X008494Y012950D01*
X008494Y012843D01*
X008441Y012790D01*
X008649Y012897D02*
X008756Y013003D01*
X008756Y012683D01*
X008862Y012683D02*
X008649Y012683D01*
X008660Y013533D02*
X008767Y013747D01*
X008554Y013747D02*
X008660Y013533D01*
X008922Y013533D02*
X008975Y013533D01*
X008975Y013586D01*
X008922Y013586D01*
X008922Y013533D01*
X009106Y013533D02*
X009266Y013533D01*
X009320Y013586D01*
X009320Y013640D01*
X009266Y013693D01*
X009106Y013693D01*
X009106Y013533D02*
X009106Y013853D01*
X009266Y013853D01*
X009320Y013800D01*
X009320Y013747D01*
X009266Y013693D01*
X009290Y014083D02*
X009504Y014297D01*
X009504Y014350D01*
X009450Y014403D01*
X009344Y014403D01*
X009290Y014350D01*
X009136Y014350D02*
X009136Y014297D01*
X009082Y014243D01*
X008975Y014243D01*
X008922Y014297D01*
X008922Y014350D01*
X008975Y014403D01*
X009082Y014403D01*
X009136Y014350D01*
X009082Y014243D02*
X009136Y014190D01*
X009136Y014136D01*
X009082Y014083D01*
X008975Y014083D01*
X008922Y014136D01*
X008922Y014190D01*
X008975Y014243D01*
X008767Y014243D02*
X008767Y014350D01*
X008714Y014403D01*
X008554Y014403D01*
X008554Y014083D01*
X008554Y014190D02*
X008714Y014190D01*
X008767Y014243D01*
X008399Y014190D02*
X008399Y014136D01*
X008346Y014083D01*
X008239Y014083D01*
X008185Y014136D01*
X008239Y014243D02*
X008346Y014243D01*
X008399Y014190D01*
X008399Y014350D02*
X008346Y014403D01*
X008239Y014403D01*
X008185Y014350D01*
X008185Y014297D01*
X008239Y014243D01*
X008031Y014083D02*
X007817Y014083D01*
X007817Y014403D01*
X008031Y014403D01*
X007924Y014243D02*
X007817Y014243D01*
X007817Y013853D02*
X007977Y013853D01*
X008031Y013800D01*
X008031Y013693D01*
X007977Y013640D01*
X007817Y013640D01*
X007924Y013640D02*
X008031Y013533D01*
X008185Y013586D02*
X008185Y013693D01*
X008239Y013747D01*
X008346Y013747D01*
X008399Y013693D01*
X008399Y013640D01*
X008185Y013640D01*
X008185Y013586D02*
X008239Y013533D01*
X008346Y013533D01*
X007817Y013533D02*
X007817Y013853D01*
X008167Y014733D02*
X008381Y014733D01*
X008274Y014733D02*
X008274Y015053D01*
X008167Y014947D01*
X008220Y015733D02*
X008167Y015786D01*
X008220Y015733D02*
X008327Y015733D01*
X008381Y015786D01*
X008381Y015840D01*
X008327Y015893D01*
X008274Y015893D01*
X008327Y015893D02*
X008381Y015947D01*
X008381Y016000D01*
X008327Y016053D01*
X008220Y016053D01*
X008167Y016000D01*
X008220Y016733D02*
X008167Y016786D01*
X008220Y016733D02*
X008327Y016733D01*
X008381Y016786D01*
X008381Y016893D01*
X008327Y016947D01*
X008274Y016947D01*
X008167Y016893D01*
X008167Y017053D01*
X008381Y017053D01*
X008167Y017733D02*
X008167Y017786D01*
X008381Y018000D01*
X008381Y018053D01*
X008167Y018053D01*
X008220Y018733D02*
X008327Y018733D01*
X008381Y018786D01*
X008381Y019000D01*
X008327Y019053D01*
X008220Y019053D01*
X008167Y019000D01*
X008167Y018947D01*
X008220Y018893D01*
X008381Y018893D01*
X008220Y018733D02*
X008167Y018786D01*
X008235Y020033D02*
X008449Y020033D01*
X008342Y020033D02*
X008342Y020353D01*
X008235Y020247D01*
X008081Y020033D02*
X007867Y020033D01*
X007974Y020033D02*
X007974Y020353D01*
X007867Y020247D01*
X007867Y021133D02*
X008081Y021133D01*
X007974Y021133D02*
X007974Y021453D01*
X007867Y021347D01*
X008235Y021400D02*
X008289Y021453D01*
X008396Y021453D01*
X008449Y021400D01*
X008449Y021347D01*
X008396Y021293D01*
X008449Y021240D01*
X008449Y021186D01*
X008396Y021133D01*
X008289Y021133D01*
X008235Y021186D01*
X008342Y021293D02*
X008396Y021293D01*
X008396Y021733D02*
X008289Y021733D01*
X008235Y021786D01*
X008235Y021893D02*
X008342Y021947D01*
X008396Y021947D01*
X008449Y021893D01*
X008449Y021786D01*
X008396Y021733D01*
X008235Y021893D02*
X008235Y022053D01*
X008449Y022053D01*
X007974Y022053D02*
X007974Y021733D01*
X007867Y021733D02*
X008081Y021733D01*
X007867Y021947D02*
X007974Y022053D01*
X007974Y022733D02*
X007974Y023053D01*
X007867Y022947D01*
X007867Y022733D02*
X008081Y022733D01*
X008235Y022733D02*
X008235Y022786D01*
X008449Y023000D01*
X008449Y023053D01*
X008235Y023053D01*
X008289Y023733D02*
X008396Y023733D01*
X008449Y023786D01*
X008449Y024000D01*
X008396Y024053D01*
X008289Y024053D01*
X008235Y024000D01*
X008235Y023947D01*
X008289Y023893D01*
X008449Y023893D01*
X008289Y023733D02*
X008235Y023786D01*
X008081Y023733D02*
X007867Y023733D01*
X007974Y023733D02*
X007974Y024053D01*
X007867Y023947D01*
X007636Y024383D02*
X007422Y024383D01*
X007529Y024383D02*
X007529Y024703D01*
X007422Y024597D01*
X007267Y024703D02*
X007267Y024383D01*
X007054Y024703D01*
X007054Y024383D01*
X006899Y024436D02*
X006899Y024650D01*
X006846Y024703D01*
X006739Y024703D01*
X006685Y024650D01*
X006685Y024436D01*
X006739Y024383D01*
X006846Y024383D01*
X006899Y024436D01*
X006531Y024436D02*
X006477Y024383D01*
X006370Y024383D01*
X006317Y024436D01*
X006317Y024650D01*
X006370Y024703D01*
X006477Y024703D01*
X006531Y024650D01*
X010730Y022247D02*
X010837Y022353D01*
X010837Y022033D01*
X010730Y022033D02*
X010944Y022033D01*
X011099Y022033D02*
X011312Y022033D01*
X011206Y022033D02*
X011206Y022353D01*
X011099Y022247D01*
X011730Y022247D02*
X011837Y022353D01*
X011837Y022033D01*
X011730Y022033D02*
X011944Y022033D01*
X012099Y022086D02*
X012312Y022300D01*
X012312Y022086D01*
X012259Y022033D01*
X012152Y022033D01*
X012099Y022086D01*
X012099Y022300D01*
X012152Y022353D01*
X012259Y022353D01*
X012312Y022300D01*
X012899Y022300D02*
X012899Y022247D01*
X012952Y022193D01*
X013112Y022193D01*
X013112Y022086D02*
X013112Y022300D01*
X013059Y022353D01*
X012952Y022353D01*
X012899Y022300D01*
X012899Y022086D02*
X012952Y022033D01*
X013059Y022033D01*
X013112Y022086D01*
X013899Y022086D02*
X013899Y022140D01*
X013952Y022193D01*
X014059Y022193D01*
X014112Y022140D01*
X014112Y022086D01*
X014059Y022033D01*
X013952Y022033D01*
X013899Y022086D01*
X013952Y022193D02*
X013899Y022247D01*
X013899Y022300D01*
X013952Y022353D01*
X014059Y022353D01*
X014112Y022300D01*
X014112Y022247D01*
X014059Y022193D01*
X014899Y022086D02*
X014899Y022033D01*
X014899Y022086D02*
X015112Y022300D01*
X015112Y022353D01*
X014899Y022353D01*
X015899Y022193D02*
X015899Y022086D01*
X015952Y022033D01*
X016059Y022033D01*
X016112Y022086D01*
X016112Y022140D01*
X016059Y022193D01*
X015899Y022193D01*
X016006Y022300D01*
X016112Y022353D01*
X016899Y022353D02*
X016899Y022193D01*
X017006Y022247D01*
X017059Y022247D01*
X017112Y022193D01*
X017112Y022086D01*
X017059Y022033D01*
X016952Y022033D01*
X016899Y022086D01*
X016899Y022353D02*
X017112Y022353D01*
X017899Y022143D02*
X018112Y022143D01*
X018059Y021983D02*
X018059Y022303D01*
X017899Y022143D01*
X018899Y022086D02*
X018952Y022033D01*
X019059Y022033D01*
X019112Y022086D01*
X019112Y022140D01*
X019059Y022193D01*
X019006Y022193D01*
X019059Y022193D02*
X019112Y022247D01*
X019112Y022300D01*
X019059Y022353D01*
X018952Y022353D01*
X018899Y022300D01*
X019899Y022300D02*
X019952Y022353D01*
X020059Y022353D01*
X020112Y022300D01*
X020112Y022247D01*
X019899Y022033D01*
X020112Y022033D01*
X020899Y022033D02*
X021112Y022033D01*
X021006Y022033D02*
X021006Y022353D01*
X020899Y022247D01*
X021717Y022628D02*
X021717Y022788D01*
X021770Y022842D01*
X021877Y022842D01*
X021930Y022788D01*
X021930Y022628D01*
X021930Y022735D02*
X022037Y022842D01*
X022037Y022997D02*
X022037Y023210D01*
X022037Y023103D02*
X021717Y023103D01*
X021824Y022997D01*
X021824Y023365D02*
X021717Y023472D01*
X022037Y023472D01*
X022037Y023578D02*
X022037Y023365D01*
X022367Y023793D02*
X022581Y023793D01*
X022474Y023900D02*
X022474Y023686D01*
X022037Y022628D02*
X021717Y022628D01*
X021816Y021653D02*
X021762Y021600D01*
X021762Y021386D01*
X021816Y021333D01*
X021922Y021333D01*
X021976Y021386D01*
X022130Y021333D02*
X022344Y021333D01*
X022237Y021333D02*
X022237Y021653D01*
X022130Y021547D01*
X021976Y021600D02*
X021922Y021653D01*
X021816Y021653D01*
X022499Y021547D02*
X022606Y021653D01*
X022606Y021333D01*
X022712Y021333D02*
X022499Y021333D01*
X023217Y020065D02*
X023270Y020065D01*
X023484Y019851D01*
X023537Y019851D01*
X023537Y019697D02*
X023430Y019590D01*
X023430Y019643D02*
X023430Y019483D01*
X023537Y019483D02*
X023217Y019483D01*
X023217Y019643D01*
X023270Y019697D01*
X023377Y019697D01*
X023430Y019643D01*
X023217Y019851D02*
X023217Y020065D01*
X025062Y021333D02*
X025222Y021333D01*
X025276Y021386D01*
X025276Y021440D01*
X025222Y021493D01*
X025062Y021493D01*
X025062Y021333D02*
X025062Y021653D01*
X025222Y021653D01*
X025276Y021600D01*
X025276Y021547D01*
X025222Y021493D01*
X025430Y021386D02*
X025484Y021333D01*
X025591Y021333D01*
X025644Y021386D01*
X025644Y021653D01*
X025799Y021653D02*
X026012Y021653D01*
X025906Y021653D02*
X025906Y021333D01*
X025430Y021386D02*
X025430Y021653D01*
X025430Y023133D02*
X025430Y023347D01*
X025537Y023453D01*
X025644Y023347D01*
X025644Y023133D01*
X025644Y023293D02*
X025430Y023293D01*
X025276Y023240D02*
X025222Y023293D01*
X025062Y023293D01*
X025062Y023133D02*
X025062Y023453D01*
X025222Y023453D01*
X025276Y023400D01*
X025276Y023347D01*
X025222Y023293D01*
X025276Y023240D02*
X025276Y023186D01*
X025222Y023133D01*
X025062Y023133D01*
X025799Y023453D02*
X026012Y023453D01*
X025906Y023453D02*
X025906Y023133D01*
X024364Y025933D02*
X024257Y025933D01*
X024204Y025986D01*
X024204Y026040D01*
X024257Y026093D01*
X024364Y026093D01*
X024417Y026040D01*
X024417Y025986D01*
X024364Y025933D01*
X024364Y026093D02*
X024417Y026147D01*
X024417Y026200D01*
X024364Y026253D01*
X024257Y026253D01*
X024204Y026200D01*
X024204Y026147D01*
X024257Y026093D01*
X024049Y025933D02*
X023835Y025933D01*
X023942Y025933D02*
X023942Y026253D01*
X023835Y026147D01*
X023681Y026200D02*
X023681Y026093D01*
X023627Y026040D01*
X023467Y026040D01*
X023574Y026040D02*
X023681Y025933D01*
X023467Y025933D02*
X023467Y026253D01*
X023627Y026253D01*
X023681Y026200D01*
X023187Y026255D02*
X023134Y026201D01*
X023080Y026201D01*
X023027Y026255D01*
X023027Y026362D01*
X023080Y026415D01*
X023134Y026415D01*
X023187Y026362D01*
X023187Y026255D01*
X023027Y026255D02*
X022974Y026201D01*
X022920Y026201D01*
X022867Y026255D01*
X022867Y026362D01*
X022920Y026415D01*
X022974Y026415D01*
X023027Y026362D01*
X023134Y026047D02*
X023187Y025993D01*
X023187Y025886D01*
X023134Y025833D01*
X022920Y025833D01*
X022867Y025886D01*
X022867Y025993D01*
X022920Y026047D01*
X022499Y026300D02*
X022285Y026086D01*
X022285Y026033D01*
X022131Y026086D02*
X022077Y026033D01*
X021970Y026033D01*
X021917Y026086D01*
X021917Y026300D01*
X021970Y026353D01*
X022077Y026353D01*
X022131Y026300D01*
X022285Y026353D02*
X022499Y026353D01*
X022499Y026300D01*
X020306Y026007D02*
X020306Y025954D01*
X020252Y025900D01*
X020306Y025847D01*
X020306Y025794D01*
X020252Y025740D01*
X020145Y025740D01*
X020092Y025794D01*
X020199Y025900D02*
X020252Y025900D01*
X020306Y026007D02*
X020252Y026060D01*
X020145Y026060D01*
X020092Y026007D01*
X019937Y026060D02*
X019937Y025794D01*
X019884Y025740D01*
X019777Y025740D01*
X019724Y025794D01*
X019724Y026060D01*
X019784Y025383D02*
X019570Y025383D01*
X019784Y025170D01*
X019837Y025223D01*
X019837Y025330D01*
X019784Y025383D01*
X019784Y025170D02*
X019570Y025170D01*
X019517Y025223D01*
X019517Y025330D01*
X019570Y025383D01*
X019837Y025015D02*
X019837Y024801D01*
X019837Y024908D02*
X019517Y024908D01*
X019624Y024801D01*
X019677Y024647D02*
X019570Y024647D01*
X019517Y024593D01*
X019517Y024433D01*
X019837Y024433D01*
X019730Y024433D02*
X019730Y024593D01*
X019677Y024647D01*
X019730Y024540D02*
X019837Y024647D01*
X018062Y024743D02*
X017849Y024743D01*
X018009Y024903D01*
X018009Y024583D01*
X018062Y024303D02*
X017956Y024250D01*
X017849Y024143D01*
X018009Y024143D01*
X018062Y024090D01*
X018062Y024036D01*
X018009Y023983D01*
X017902Y023983D01*
X017849Y024036D01*
X017849Y024143D01*
X017694Y023983D02*
X017480Y023983D01*
X017587Y023983D02*
X017587Y024303D01*
X017480Y024197D01*
X017326Y024250D02*
X017326Y024143D01*
X017272Y024090D01*
X017112Y024090D01*
X017112Y023983D02*
X017112Y024303D01*
X017272Y024303D01*
X017326Y024250D01*
X017219Y024090D02*
X017326Y023983D01*
X017326Y024583D02*
X017219Y024690D01*
X017272Y024690D02*
X017112Y024690D01*
X017112Y024583D02*
X017112Y024903D01*
X017272Y024903D01*
X017326Y024850D01*
X017326Y024743D01*
X017272Y024690D01*
X017480Y024797D02*
X017587Y024903D01*
X017587Y024583D01*
X017480Y024583D02*
X017694Y024583D01*
X017694Y025183D02*
X017480Y025183D01*
X017587Y025183D02*
X017587Y025503D01*
X017480Y025397D01*
X017326Y025450D02*
X017326Y025343D01*
X017272Y025290D01*
X017112Y025290D01*
X017112Y025183D02*
X017112Y025503D01*
X017272Y025503D01*
X017326Y025450D01*
X017219Y025290D02*
X017326Y025183D01*
X017849Y025236D02*
X017902Y025183D01*
X018009Y025183D01*
X018062Y025236D01*
X018062Y025343D01*
X018009Y025397D01*
X017956Y025397D01*
X017849Y025343D01*
X017849Y025503D01*
X018062Y025503D01*
X014864Y020753D02*
X014917Y020700D01*
X014704Y020486D01*
X014757Y020433D01*
X014864Y020433D01*
X014917Y020486D01*
X014917Y020700D01*
X014864Y020753D02*
X014757Y020753D01*
X014704Y020700D01*
X014704Y020486D01*
X014549Y020433D02*
X014335Y020433D01*
X014549Y020647D01*
X014549Y020700D01*
X014496Y020753D01*
X014389Y020753D01*
X014335Y020700D01*
X014181Y020700D02*
X014181Y020593D01*
X014127Y020540D01*
X013967Y020540D01*
X014074Y020540D02*
X014181Y020433D01*
X013967Y020433D02*
X013967Y020753D01*
X014127Y020753D01*
X014181Y020700D01*
X013134Y019415D02*
X012920Y019415D01*
X012867Y019362D01*
X012867Y019255D01*
X012920Y019201D01*
X012974Y019201D01*
X013027Y019255D01*
X013027Y019415D01*
X013134Y019415D02*
X013187Y019362D01*
X013187Y019255D01*
X013134Y019201D01*
X013134Y019047D02*
X013187Y018993D01*
X013187Y018886D01*
X013134Y018833D01*
X012920Y018833D01*
X012867Y018886D01*
X012867Y018993D01*
X012920Y019047D01*
X012887Y018533D02*
X012887Y018320D01*
X012674Y018533D01*
X012620Y018533D01*
X012567Y018480D01*
X012567Y018373D01*
X012620Y018320D01*
X012620Y018165D02*
X012567Y018112D01*
X012567Y018005D01*
X012620Y017951D01*
X012620Y017797D02*
X012727Y017797D01*
X012780Y017743D01*
X012780Y017583D01*
X012780Y017690D02*
X012887Y017797D01*
X012887Y017951D02*
X012674Y018165D01*
X012620Y018165D01*
X012887Y018165D02*
X012887Y017951D01*
X012620Y017797D02*
X012567Y017743D01*
X012567Y017583D01*
X012887Y017583D01*
X013262Y017053D02*
X013422Y017053D01*
X013476Y017000D01*
X013476Y016893D01*
X013422Y016840D01*
X013262Y016840D01*
X013262Y016733D02*
X013262Y017053D01*
X013369Y016840D02*
X013476Y016733D01*
X013630Y016733D02*
X013844Y016947D01*
X013844Y017000D01*
X013791Y017053D01*
X013684Y017053D01*
X013630Y017000D01*
X013630Y016733D02*
X013844Y016733D01*
X013999Y016733D02*
X014212Y016733D01*
X014106Y016733D02*
X014106Y017053D01*
X013999Y016947D01*
X013874Y016553D02*
X013874Y016233D01*
X013767Y016233D02*
X013981Y016233D01*
X014135Y016286D02*
X014189Y016233D01*
X014296Y016233D01*
X014349Y016286D01*
X014349Y016393D01*
X014296Y016447D01*
X014242Y016447D01*
X014135Y016393D01*
X014135Y016553D01*
X014349Y016553D01*
X013874Y016553D02*
X013767Y016447D01*
X013349Y016393D02*
X013135Y016393D01*
X013296Y016553D01*
X013296Y016233D01*
X012981Y016233D02*
X012767Y016233D01*
X012874Y016233D02*
X012874Y016553D01*
X012767Y016447D01*
X012349Y016447D02*
X012296Y016393D01*
X012349Y016340D01*
X012349Y016286D01*
X012296Y016233D01*
X012189Y016233D01*
X012135Y016286D01*
X012242Y016393D02*
X012296Y016393D01*
X012349Y016447D02*
X012349Y016500D01*
X012296Y016553D01*
X012189Y016553D01*
X012135Y016500D01*
X011874Y016553D02*
X011874Y016233D01*
X011767Y016233D02*
X011981Y016233D01*
X011767Y016447D02*
X011874Y016553D01*
X011349Y016500D02*
X011296Y016553D01*
X011189Y016553D01*
X011135Y016500D01*
X011349Y016500D02*
X011349Y016447D01*
X011135Y016233D01*
X011349Y016233D01*
X010981Y016233D02*
X010767Y016233D01*
X010874Y016233D02*
X010874Y016553D01*
X010767Y016447D01*
X010764Y014403D02*
X010764Y014083D01*
X010977Y014083D01*
X011132Y014190D02*
X011132Y014403D01*
X010977Y014403D02*
X010764Y014403D01*
X010764Y014243D02*
X010870Y014243D01*
X010609Y014243D02*
X010395Y014243D01*
X010240Y014190D02*
X010187Y014243D01*
X010027Y014243D01*
X010027Y014136D01*
X010080Y014083D01*
X010187Y014083D01*
X010240Y014136D01*
X010240Y014190D01*
X010134Y014350D02*
X010027Y014243D01*
X010134Y014350D02*
X010240Y014403D01*
X009872Y014403D02*
X009765Y014350D01*
X009659Y014243D01*
X009819Y014243D01*
X009872Y014190D01*
X009872Y014136D01*
X009819Y014083D01*
X009712Y014083D01*
X009659Y014136D01*
X009659Y014243D01*
X009504Y014083D02*
X009290Y014083D01*
X011132Y014190D02*
X011239Y014083D01*
X011345Y014190D01*
X011345Y014403D01*
X011500Y014403D02*
X011500Y014083D01*
X011660Y014083D01*
X011714Y014136D01*
X011714Y014190D01*
X011660Y014243D01*
X011500Y014243D01*
X011660Y014243D02*
X011714Y014297D01*
X011714Y014350D01*
X011660Y014403D01*
X011500Y014403D01*
X011868Y014243D02*
X012082Y014243D01*
X012237Y014243D02*
X012397Y014243D01*
X012450Y014190D01*
X012450Y014136D01*
X012397Y014083D01*
X012237Y014083D01*
X012237Y014403D01*
X012397Y014403D01*
X012450Y014350D01*
X012450Y014297D01*
X012397Y014243D01*
X012605Y014243D02*
X012819Y014243D01*
X012819Y014297D02*
X012819Y014083D01*
X012819Y014297D02*
X012712Y014403D01*
X012605Y014297D01*
X012605Y014083D01*
X012973Y014403D02*
X013187Y014403D01*
X013080Y014403D02*
X013080Y014083D01*
X013417Y013558D02*
X013737Y013558D01*
X013737Y013451D02*
X013737Y013665D01*
X013524Y013451D02*
X013417Y013558D01*
X013417Y013297D02*
X013684Y013297D01*
X013737Y013243D01*
X013737Y013136D01*
X013684Y013083D01*
X013417Y013083D01*
X013484Y012553D02*
X013430Y012500D01*
X013430Y012286D01*
X013484Y012233D01*
X013591Y012233D01*
X013644Y012286D01*
X013799Y012233D02*
X014012Y012447D01*
X014012Y012500D01*
X013959Y012553D01*
X013852Y012553D01*
X013799Y012500D01*
X013644Y012500D02*
X013591Y012553D01*
X013484Y012553D01*
X013799Y012233D02*
X014012Y012233D01*
X013534Y011265D02*
X013587Y011212D01*
X013587Y011105D01*
X013534Y011051D01*
X013427Y011051D02*
X013374Y011158D01*
X013374Y011212D01*
X013427Y011265D01*
X013534Y011265D01*
X013427Y011051D02*
X013267Y011051D01*
X013267Y011265D01*
X013320Y010897D02*
X013427Y010897D01*
X013480Y010843D01*
X013480Y010683D01*
X013480Y010790D02*
X013587Y010897D01*
X013587Y010683D02*
X013267Y010683D01*
X013267Y010843D01*
X013320Y010897D01*
X012512Y010483D02*
X012299Y010483D01*
X012299Y010803D01*
X012144Y010750D02*
X012144Y010643D01*
X012091Y010590D01*
X011930Y010590D01*
X011930Y010483D02*
X011930Y010803D01*
X012091Y010803D01*
X012144Y010750D01*
X011776Y010803D02*
X011776Y010483D01*
X011562Y010483D02*
X011562Y010803D01*
X011669Y010697D01*
X011776Y010803D01*
X011527Y011143D02*
X011527Y011293D01*
X011327Y011443D01*
X011327Y011143D01*
X011527Y011293D01*
X011527Y011443D01*
X011457Y011663D02*
X011677Y011883D01*
X011537Y011813D01*
X011607Y011743D02*
X011677Y011883D01*
X011427Y011883D02*
X011357Y011743D01*
X011287Y011813D02*
X011427Y011883D01*
X011207Y011663D01*
X011126Y012030D02*
X011339Y012030D01*
X011494Y012083D02*
X011494Y012403D01*
X011654Y012403D01*
X011707Y012350D01*
X011707Y012243D01*
X011654Y012190D01*
X011494Y012190D01*
X011862Y012190D02*
X012022Y012190D01*
X012076Y012243D01*
X012076Y012350D01*
X012022Y012403D01*
X011862Y012403D01*
X011862Y012083D01*
X011969Y012190D02*
X012076Y012083D01*
X012230Y012136D02*
X012230Y012350D01*
X012284Y012403D01*
X012391Y012403D01*
X012444Y012350D01*
X012444Y012243D02*
X012337Y012243D01*
X012444Y012243D02*
X012444Y012136D01*
X012391Y012083D01*
X012284Y012083D01*
X012230Y012136D01*
X012599Y012083D02*
X012599Y012403D01*
X012759Y012403D01*
X012812Y012350D01*
X012812Y012243D01*
X012759Y012190D01*
X012599Y012190D01*
X012705Y012190D02*
X012812Y012083D01*
X011527Y012743D02*
X011527Y012893D01*
X011327Y013043D01*
X011327Y012743D01*
X011527Y012893D01*
X011527Y013043D01*
X011457Y013263D02*
X011677Y013483D01*
X011537Y013413D01*
X011607Y013343D02*
X011677Y013483D01*
X011427Y013483D02*
X011287Y013413D01*
X011357Y013343D02*
X011427Y013483D01*
X011207Y013263D01*
X010971Y012403D02*
X010971Y012083D01*
X010971Y012243D02*
X010757Y012243D01*
X010757Y012083D02*
X010757Y012403D01*
X010602Y012350D02*
X010549Y012403D01*
X010442Y012403D01*
X010389Y012350D01*
X010389Y012136D01*
X010442Y012083D01*
X010549Y012083D01*
X010602Y012136D01*
X010671Y010803D02*
X010671Y010483D01*
X010671Y010643D02*
X010457Y010643D01*
X010457Y010483D02*
X010457Y010803D01*
X010302Y010750D02*
X010249Y010803D01*
X010142Y010803D01*
X010089Y010750D01*
X010089Y010536D01*
X010142Y010483D01*
X010249Y010483D01*
X010302Y010536D01*
X010826Y010430D02*
X011039Y010430D01*
X011194Y010536D02*
X011194Y010750D01*
X011247Y010803D01*
X011354Y010803D01*
X011407Y010750D01*
X011407Y010536D02*
X011354Y010483D01*
X011247Y010483D01*
X011194Y010536D01*
X011287Y010213D02*
X011427Y010283D01*
X011357Y010143D01*
X011457Y010063D02*
X011677Y010283D01*
X011537Y010213D01*
X011607Y010143D02*
X011677Y010283D01*
X011427Y010283D02*
X011207Y010063D01*
X011327Y009843D02*
X011527Y009693D01*
X011327Y009543D01*
X011327Y009843D01*
X011527Y009843D02*
X011527Y009693D01*
X011527Y009543D01*
X011552Y009253D02*
X011499Y009200D01*
X011499Y008986D01*
X011552Y008933D01*
X011659Y008933D01*
X011712Y008986D01*
X011712Y009093D01*
X011606Y009093D01*
X011712Y009200D02*
X011659Y009253D01*
X011552Y009253D01*
X011344Y009200D02*
X011344Y009093D01*
X011291Y009040D01*
X011130Y009040D01*
X011130Y008933D02*
X011130Y009253D01*
X011291Y009253D01*
X011344Y009200D01*
X011427Y008683D02*
X011287Y008613D01*
X011357Y008543D02*
X011427Y008683D01*
X011207Y008463D01*
X011457Y008463D02*
X011677Y008683D01*
X011537Y008613D01*
X011607Y008543D02*
X011677Y008683D01*
X011527Y008243D02*
X011527Y008093D01*
X011327Y008243D01*
X011327Y007943D01*
X011527Y008093D01*
X011527Y007943D01*
X011435Y007653D02*
X011435Y007333D01*
X011649Y007333D01*
X011804Y007333D02*
X011804Y007653D01*
X011649Y007653D02*
X011435Y007653D01*
X011435Y007493D02*
X011542Y007493D01*
X011281Y007493D02*
X011227Y007440D01*
X011067Y007440D01*
X011174Y007440D02*
X011281Y007333D01*
X011281Y007493D02*
X011281Y007600D01*
X011227Y007653D01*
X011067Y007653D01*
X011067Y007333D01*
X011804Y007333D02*
X012017Y007333D01*
X012767Y007833D02*
X012767Y008153D01*
X012927Y008153D01*
X012981Y008100D01*
X012981Y007993D01*
X012927Y007940D01*
X012767Y007940D01*
X012874Y007940D02*
X012981Y007833D01*
X013135Y007993D02*
X013296Y008153D01*
X013296Y007833D01*
X013349Y007993D02*
X013135Y007993D01*
X013159Y008783D02*
X013052Y008783D01*
X012999Y008836D01*
X012999Y008943D01*
X013159Y008943D01*
X013212Y008890D01*
X013212Y008836D01*
X013159Y008783D01*
X012999Y008943D02*
X013106Y009050D01*
X013212Y009103D01*
X012844Y009050D02*
X012844Y008943D01*
X012791Y008890D01*
X012630Y008890D01*
X012630Y008783D02*
X012630Y009103D01*
X012791Y009103D01*
X012844Y009050D01*
X012737Y008890D02*
X012844Y008783D01*
X014924Y009583D02*
X014924Y009903D01*
X014817Y009903D02*
X015031Y009903D01*
X015185Y009797D02*
X015292Y009903D01*
X015292Y009583D01*
X015185Y009583D02*
X015399Y009583D01*
X015312Y010233D02*
X015099Y010233D01*
X015206Y010233D02*
X015206Y010553D01*
X015099Y010447D01*
X014944Y010233D02*
X014730Y010233D01*
X014730Y010553D01*
X015520Y011433D02*
X015734Y011433D01*
X015787Y011486D01*
X015787Y011593D01*
X015734Y011647D01*
X015627Y011801D02*
X015627Y012015D01*
X015787Y011962D02*
X015467Y011962D01*
X015627Y011801D01*
X015520Y011647D02*
X015467Y011593D01*
X015467Y011486D01*
X015520Y011433D01*
X016967Y011486D02*
X017020Y011433D01*
X017234Y011433D01*
X017287Y011486D01*
X017287Y011593D01*
X017234Y011647D01*
X017234Y011801D02*
X017287Y011855D01*
X017287Y011962D01*
X017234Y012015D01*
X017127Y012015D01*
X017074Y011962D01*
X017074Y011908D01*
X017127Y011801D01*
X016967Y011801D01*
X016967Y012015D01*
X017020Y011647D02*
X016967Y011593D01*
X016967Y011486D01*
X018230Y011386D02*
X018284Y011333D01*
X018391Y011333D01*
X018444Y011386D01*
X018599Y011333D02*
X018812Y011333D01*
X018706Y011333D02*
X018706Y011653D01*
X018599Y011547D01*
X018444Y011600D02*
X018391Y011653D01*
X018284Y011653D01*
X018230Y011600D01*
X018230Y011386D01*
X019367Y011893D02*
X019581Y011893D01*
X019474Y012000D02*
X019474Y011786D01*
X020417Y012668D02*
X020470Y012614D01*
X020684Y012614D01*
X020737Y012668D01*
X020737Y012774D01*
X020684Y012828D01*
X020470Y012828D01*
X020417Y012774D01*
X020417Y012668D01*
X020524Y012983D02*
X020524Y013143D01*
X020577Y013196D01*
X020737Y013196D01*
X020737Y013351D02*
X020737Y013458D01*
X020737Y013404D02*
X020417Y013404D01*
X020417Y013351D01*
X020524Y013596D02*
X020684Y013596D01*
X020737Y013650D01*
X020737Y013810D01*
X020790Y013810D02*
X020844Y013757D01*
X020844Y013703D01*
X020790Y013810D02*
X020524Y013810D01*
X020577Y013965D02*
X020363Y013965D01*
X020363Y014088D02*
X020577Y014088D01*
X020684Y014088D02*
X020737Y014088D01*
X020737Y014210D02*
X020684Y014210D01*
X020577Y014210D02*
X020363Y014210D01*
X020684Y013965D02*
X020737Y013965D01*
X020967Y013975D02*
X020967Y013868D01*
X021020Y013815D01*
X021234Y013815D01*
X021287Y013868D01*
X021287Y013975D01*
X021234Y014028D01*
X021020Y014028D02*
X020967Y013975D01*
X021020Y013660D02*
X020967Y013607D01*
X020967Y013447D01*
X021287Y013447D01*
X021287Y013607D01*
X021234Y013660D01*
X021020Y013660D01*
X020967Y013292D02*
X021180Y013292D01*
X021287Y013185D01*
X021180Y013078D01*
X020967Y013078D01*
X020967Y012923D02*
X020967Y012710D01*
X021127Y012710D01*
X021074Y012817D01*
X021074Y012870D01*
X021127Y012923D01*
X021234Y012923D01*
X021287Y012870D01*
X021287Y012763D01*
X021234Y012710D01*
X020737Y012983D02*
X020524Y012983D01*
X021567Y011303D02*
X021727Y011303D01*
X021781Y011250D01*
X021781Y011143D01*
X021727Y011090D01*
X021567Y011090D01*
X021674Y011090D02*
X021781Y010983D01*
X021935Y010983D02*
X021935Y011303D01*
X022149Y011303D01*
X022304Y011303D02*
X022304Y010983D01*
X022517Y010983D01*
X022672Y010983D02*
X022672Y011197D01*
X022779Y011303D01*
X022886Y011197D01*
X022886Y010983D01*
X022886Y011143D02*
X022672Y011143D01*
X023040Y011250D02*
X023147Y011143D01*
X023147Y010983D01*
X023147Y011143D02*
X023254Y011250D01*
X023254Y011303D01*
X023040Y011303D02*
X023040Y011250D01*
X023767Y011250D02*
X023767Y011036D01*
X023820Y010983D01*
X023927Y010983D01*
X023981Y011036D01*
X024135Y011036D02*
X024189Y010983D01*
X024296Y010983D01*
X024349Y011036D01*
X024349Y011250D01*
X024296Y011303D01*
X024189Y011303D01*
X024135Y011250D01*
X024135Y011036D01*
X023981Y011250D02*
X023927Y011303D01*
X023820Y011303D01*
X023767Y011250D01*
X024504Y011303D02*
X024717Y010983D01*
X024717Y011303D01*
X024872Y011250D02*
X024925Y011303D01*
X025032Y011303D01*
X025086Y011250D01*
X025086Y011197D01*
X024872Y010983D01*
X025086Y010983D01*
X024504Y010983D02*
X024504Y011303D01*
X025062Y011783D02*
X025062Y012103D01*
X025222Y012103D01*
X025276Y012050D01*
X025276Y011943D01*
X025222Y011890D01*
X025062Y011890D01*
X025430Y011783D02*
X025430Y012103D01*
X025644Y012103D02*
X025644Y011783D01*
X025537Y011890D01*
X025430Y011783D01*
X025799Y011783D02*
X025799Y012103D01*
X025959Y012103D01*
X026012Y012050D01*
X026012Y011943D01*
X025959Y011890D01*
X025799Y011890D01*
X025906Y011890D02*
X026012Y011783D01*
X022149Y010983D02*
X021935Y010983D01*
X021935Y011143D02*
X022042Y011143D01*
X021567Y010983D02*
X021567Y011303D01*
X016787Y013586D02*
X016787Y013693D01*
X016734Y013747D01*
X016734Y013901D02*
X016787Y013955D01*
X016787Y014062D01*
X016734Y014115D01*
X016680Y014115D01*
X016627Y014062D01*
X016627Y014008D01*
X016627Y014062D02*
X016574Y014115D01*
X016520Y014115D01*
X016467Y014062D01*
X016467Y013955D01*
X016520Y013901D01*
X016520Y013747D02*
X016467Y013693D01*
X016467Y013586D01*
X016520Y013533D01*
X016734Y013533D01*
X016787Y013586D01*
X016187Y013533D02*
X015867Y013533D01*
X015867Y013693D01*
X015920Y013747D01*
X016027Y013747D01*
X016080Y013693D01*
X016080Y013533D01*
X016080Y013640D02*
X016187Y013747D01*
X016134Y013901D02*
X016080Y013901D01*
X016027Y013955D01*
X016027Y014062D01*
X016080Y014115D01*
X016134Y014115D01*
X016187Y014062D01*
X016187Y013955D01*
X016134Y013901D01*
X016027Y013955D02*
X015974Y013901D01*
X015920Y013901D01*
X015867Y013955D01*
X015867Y014062D01*
X015920Y014115D01*
X015974Y014115D01*
X016027Y014062D01*
X015587Y013983D02*
X015267Y013983D01*
X015267Y014143D01*
X015320Y014197D01*
X015427Y014197D01*
X015480Y014143D01*
X015480Y013983D01*
X015480Y014090D02*
X015587Y014197D01*
X015534Y014351D02*
X015587Y014405D01*
X015587Y014512D01*
X015534Y014565D01*
X015320Y014565D01*
X015267Y014512D01*
X015267Y014405D01*
X015320Y014351D01*
X015374Y014351D01*
X015427Y014405D01*
X015427Y014565D01*
X015296Y016233D02*
X015349Y016286D01*
X015349Y016340D01*
X015296Y016393D01*
X015135Y016393D01*
X015135Y016286D01*
X015189Y016233D01*
X015296Y016233D01*
X015135Y016393D02*
X015242Y016500D01*
X015349Y016553D01*
X015767Y016447D02*
X015874Y016553D01*
X015874Y016233D01*
X015767Y016233D02*
X015981Y016233D01*
X016135Y016233D02*
X016135Y016286D01*
X016349Y016500D01*
X016349Y016553D01*
X016135Y016553D01*
X016767Y016447D02*
X016874Y016553D01*
X016874Y016233D01*
X016767Y016233D02*
X016981Y016233D01*
X017135Y016286D02*
X017135Y016340D01*
X017189Y016393D01*
X017296Y016393D01*
X017349Y016340D01*
X017349Y016286D01*
X017296Y016233D01*
X017189Y016233D01*
X017135Y016286D01*
X017189Y016393D02*
X017135Y016447D01*
X017135Y016500D01*
X017189Y016553D01*
X017296Y016553D01*
X017349Y016500D01*
X017349Y016447D01*
X017296Y016393D01*
X017767Y016447D02*
X017874Y016553D01*
X017874Y016233D01*
X017767Y016233D02*
X017981Y016233D01*
X018135Y016286D02*
X018189Y016233D01*
X018296Y016233D01*
X018349Y016286D01*
X018349Y016500D01*
X018296Y016553D01*
X018189Y016553D01*
X018135Y016500D01*
X018135Y016447D01*
X018189Y016393D01*
X018349Y016393D01*
X018409Y016632D02*
X018411Y016645D01*
X018417Y016656D01*
X018427Y016665D01*
X018438Y016670D01*
X018451Y016671D01*
X018464Y016668D01*
X018474Y016661D01*
X018482Y016651D01*
X018486Y016638D01*
X018486Y016626D01*
X018482Y016613D01*
X018474Y016603D01*
X018464Y016596D01*
X018451Y016593D01*
X018438Y016594D01*
X018427Y016599D01*
X018417Y016608D01*
X018411Y016619D01*
X018409Y016632D01*
X018346Y016733D02*
X018346Y016770D01*
X018346Y016733D02*
X017708Y016733D01*
X017708Y016770D01*
X017708Y017087D02*
X017708Y017125D01*
X017708Y017461D02*
X017708Y017499D01*
X018038Y016929D02*
X018040Y016948D01*
X018046Y016966D01*
X018056Y016982D01*
X018069Y016996D01*
X018085Y017007D01*
X018102Y017014D01*
X018121Y017017D01*
X018140Y017016D01*
X018159Y017011D01*
X018175Y017002D01*
X018190Y016990D01*
X018201Y016974D01*
X018209Y016957D01*
X018213Y016939D01*
X018213Y016919D01*
X018209Y016901D01*
X018201Y016884D01*
X018190Y016868D01*
X018175Y016856D01*
X018159Y016847D01*
X018140Y016842D01*
X018121Y016841D01*
X018102Y016844D01*
X018085Y016851D01*
X018069Y016862D01*
X018056Y016876D01*
X018046Y016892D01*
X018040Y016910D01*
X018038Y016929D01*
X018346Y017087D02*
X018346Y017125D01*
X018346Y017461D02*
X018346Y017499D01*
X018346Y017816D02*
X018346Y017853D01*
X017708Y017853D01*
X017708Y017816D01*
X019517Y017053D02*
X019517Y016733D01*
X019517Y016840D02*
X019677Y016840D01*
X019731Y016893D01*
X019731Y017000D01*
X019677Y017053D01*
X019517Y017053D01*
X019624Y016840D02*
X019731Y016733D01*
X019885Y016733D02*
X020099Y016733D01*
X019992Y016733D02*
X019992Y017053D01*
X019885Y016947D01*
X020254Y017000D02*
X020307Y017053D01*
X020414Y017053D01*
X020467Y017000D01*
X020467Y016947D01*
X020414Y016893D01*
X020467Y016840D01*
X020467Y016786D01*
X020414Y016733D01*
X020307Y016733D01*
X020254Y016786D01*
X020360Y016893D02*
X020414Y016893D01*
X020242Y016553D02*
X020242Y016233D01*
X020135Y016233D02*
X020349Y016233D01*
X020135Y016447D02*
X020242Y016553D01*
X019981Y016500D02*
X019927Y016553D01*
X019820Y016553D01*
X019767Y016500D01*
X019981Y016500D02*
X019981Y016447D01*
X019767Y016233D01*
X019981Y016233D01*
X020767Y016233D02*
X020981Y016447D01*
X020981Y016500D01*
X020927Y016553D01*
X020820Y016553D01*
X020767Y016500D01*
X020767Y016233D02*
X020981Y016233D01*
X021135Y016233D02*
X021349Y016447D01*
X021349Y016500D01*
X021296Y016553D01*
X021189Y016553D01*
X021135Y016500D01*
X021135Y016233D02*
X021349Y016233D01*
X023167Y016783D02*
X023167Y016943D01*
X023220Y016997D01*
X023434Y016997D01*
X023487Y016943D01*
X023487Y016783D01*
X023167Y016783D01*
X023220Y017151D02*
X023167Y017205D01*
X023167Y017312D01*
X023220Y017365D01*
X023274Y017365D01*
X023327Y017312D01*
X023380Y017365D01*
X023434Y017365D01*
X023487Y017312D01*
X023487Y017205D01*
X023434Y017151D01*
X023327Y017258D02*
X023327Y017312D01*
X021449Y018186D02*
X021449Y018240D01*
X021396Y018293D01*
X021235Y018293D01*
X021235Y018186D01*
X021289Y018133D01*
X021396Y018133D01*
X021449Y018186D01*
X021342Y018400D02*
X021235Y018293D01*
X021342Y018400D02*
X021449Y018453D01*
X021081Y018400D02*
X021027Y018453D01*
X020920Y018453D01*
X020867Y018400D01*
X020867Y018186D01*
X020920Y018133D01*
X021027Y018133D01*
X021081Y018186D01*
X020567Y018133D02*
X020354Y018133D01*
X020567Y018347D01*
X020567Y018400D01*
X020514Y018453D01*
X020407Y018453D01*
X020354Y018400D01*
X020092Y018453D02*
X020092Y018133D01*
X019985Y018133D02*
X020199Y018133D01*
X019985Y018347D02*
X020092Y018453D01*
X019831Y018400D02*
X019831Y018293D01*
X019777Y018240D01*
X019617Y018240D01*
X019724Y018240D02*
X019831Y018133D01*
X019617Y018133D02*
X019617Y018453D01*
X019777Y018453D01*
X019831Y018400D01*
X020767Y019533D02*
X020927Y019533D01*
X020981Y019586D01*
X020981Y019800D01*
X020927Y019853D01*
X020767Y019853D01*
X020767Y019533D01*
X021135Y019533D02*
X021349Y019747D01*
X021349Y019800D01*
X021296Y019853D01*
X021189Y019853D01*
X021135Y019800D01*
X021135Y019533D02*
X021349Y019533D01*
X018299Y019533D02*
X018085Y019533D01*
X018299Y019747D01*
X018299Y019800D01*
X018246Y019853D01*
X018139Y019853D01*
X018085Y019800D01*
X017931Y019533D02*
X017717Y019533D01*
X017717Y019853D01*
X017049Y019693D02*
X016835Y019693D01*
X016996Y019853D01*
X016996Y019533D01*
X016681Y019586D02*
X016681Y019800D01*
X016627Y019853D01*
X016467Y019853D01*
X016467Y019533D01*
X016627Y019533D01*
X016681Y019586D01*
X014874Y016553D02*
X014874Y016233D01*
X014767Y016233D02*
X014981Y016233D01*
X014767Y016447D02*
X014874Y016553D01*
X007636Y012253D02*
X007422Y012253D01*
X007529Y012253D02*
X007529Y011933D01*
X007267Y011933D02*
X007054Y012253D01*
X006899Y012253D02*
X006685Y012253D01*
X006685Y011933D01*
X006899Y011933D01*
X007054Y011933D02*
X007267Y012253D01*
X006792Y012093D02*
X006685Y012093D01*
X006531Y011986D02*
X006531Y012253D01*
X006317Y012253D02*
X006317Y011986D01*
X006370Y011933D01*
X006477Y011933D01*
X006531Y011986D01*
X010017Y009433D02*
X010017Y009220D01*
X010017Y009326D02*
X010337Y009326D01*
X010284Y009065D02*
X010337Y009012D01*
X010337Y008905D01*
X010284Y008851D01*
X010177Y008905D02*
X010124Y008851D01*
X010070Y008851D01*
X010017Y008905D01*
X010017Y009012D01*
X010070Y009065D01*
X010177Y009012D02*
X010230Y009065D01*
X010284Y009065D01*
X010177Y009012D02*
X010177Y008905D01*
X010177Y008697D02*
X010070Y008697D01*
X010017Y008643D01*
X010017Y008483D01*
X010337Y008483D01*
X010230Y008483D02*
X010230Y008643D01*
X010177Y008697D01*
X010230Y008590D02*
X010337Y008697D01*
X014167Y006453D02*
X014167Y006133D01*
X014327Y006133D01*
X014381Y006186D01*
X014381Y006400D01*
X014327Y006453D01*
X014167Y006453D01*
X014535Y006347D02*
X014642Y006453D01*
X014642Y006133D01*
X014535Y006133D02*
X014749Y006133D01*
D12*
X024452Y017043D03*
D13*
X024777Y018293D02*
X026177Y018293D01*
X026177Y020743D01*
X026277Y020743D01*
X026277Y020243D01*
X027510Y020243D01*
X027510Y019243D01*
X026277Y019243D01*
X026277Y020243D01*
X026077Y019993D02*
X026077Y021093D01*
X025577Y021093D01*
X024977Y021093D02*
X024777Y021093D01*
X024777Y020793D01*
X024677Y020793D01*
X024677Y020443D01*
X024777Y020443D01*
X024777Y020043D01*
X024877Y020043D01*
X024877Y019443D01*
X024777Y019443D01*
X024777Y018993D01*
X024677Y018993D01*
X024677Y018693D01*
X024777Y018693D01*
X024777Y018393D01*
X024977Y018393D01*
X025577Y018393D02*
X026077Y018393D01*
X026077Y019493D01*
X026077Y019993D01*
X025677Y019993D01*
X025677Y019493D01*
X026077Y019493D01*
X026277Y019243D02*
X026277Y018743D01*
X026177Y018743D01*
X026177Y020743D02*
X026177Y021193D01*
X024777Y021193D01*
X023560Y024373D02*
X023560Y024413D01*
X023720Y024573D01*
X023720Y024613D01*
X023560Y024613D01*
X023363Y024613D02*
X023363Y024373D01*
X023283Y024373D02*
X023443Y024373D01*
X023283Y024533D02*
X023363Y024613D01*
X023167Y024573D02*
X023167Y024493D01*
X023127Y024453D01*
X023007Y024453D01*
X023007Y024373D02*
X023007Y024613D01*
X023127Y024613D01*
X023167Y024573D01*
X023087Y024453D02*
X023167Y024373D01*
X015997Y017846D02*
X015997Y017766D01*
X015957Y017726D01*
X015877Y017806D02*
X015877Y017846D01*
X015917Y017886D01*
X015957Y017886D01*
X015997Y017846D01*
X015877Y017846D02*
X015837Y017886D01*
X015797Y017886D01*
X015757Y017846D01*
X015757Y017766D01*
X015797Y017726D01*
X015797Y017609D02*
X015757Y017569D01*
X015757Y017489D01*
X015797Y017449D01*
X015797Y017333D02*
X015877Y017333D01*
X015917Y017293D01*
X015917Y017173D01*
X015997Y017173D02*
X015757Y017173D01*
X015757Y017293D01*
X015797Y017333D01*
X015917Y017253D02*
X015997Y017333D01*
X015997Y017449D02*
X015837Y017609D01*
X015797Y017609D01*
X015997Y017609D02*
X015997Y017449D01*
X016257Y017379D02*
X016497Y017379D01*
X016497Y017299D02*
X016497Y017459D01*
X016457Y017576D02*
X016297Y017736D01*
X016457Y017736D01*
X016497Y017696D01*
X016497Y017616D01*
X016457Y017576D01*
X016297Y017576D01*
X016257Y017616D01*
X016257Y017696D01*
X016297Y017736D01*
X016257Y017379D02*
X016337Y017299D01*
X016297Y017183D02*
X016257Y017143D01*
X016257Y017063D01*
X016297Y017023D01*
X016457Y017023D01*
X016497Y017063D01*
X016497Y017143D01*
X016457Y017183D01*
X015416Y016963D02*
X015416Y016723D01*
X015336Y016723D02*
X015496Y016723D01*
X015336Y016883D02*
X015416Y016963D01*
X015220Y016963D02*
X015060Y016963D01*
X015140Y016963D02*
X015140Y016723D01*
X014943Y016723D02*
X014783Y016723D01*
X014783Y016963D01*
X014943Y016963D01*
X014863Y016843D02*
X014783Y016843D01*
X014667Y016963D02*
X014507Y016963D01*
X014507Y016723D01*
X014507Y016843D02*
X014587Y016843D01*
X014617Y019523D02*
X014537Y019603D01*
X014577Y019603D02*
X014457Y019603D01*
X014457Y019523D02*
X014457Y019763D01*
X014577Y019763D01*
X014617Y019723D01*
X014617Y019643D01*
X014577Y019603D01*
X014733Y019523D02*
X014893Y019523D01*
X014813Y019523D02*
X014813Y019763D01*
X014733Y019683D01*
X015010Y019683D02*
X015050Y019643D01*
X015170Y019643D01*
X015170Y019563D02*
X015170Y019723D01*
X015130Y019763D01*
X015050Y019763D01*
X015010Y019723D01*
X015010Y019683D01*
X015010Y019563D02*
X015050Y019523D01*
X015130Y019523D01*
X015170Y019563D01*
X018857Y016863D02*
X018857Y016663D01*
X018897Y016623D01*
X018977Y016623D01*
X019017Y016663D01*
X019017Y016863D01*
X019133Y016823D02*
X019173Y016863D01*
X019253Y016863D01*
X019293Y016823D01*
X019293Y016783D01*
X019133Y016623D01*
X019293Y016623D01*
X019253Y016463D02*
X019293Y016423D01*
X019133Y016263D01*
X019173Y016223D01*
X019253Y016223D01*
X019293Y016263D01*
X019293Y016423D01*
X019253Y016463D02*
X019173Y016463D01*
X019133Y016423D01*
X019133Y016263D01*
X019017Y016223D02*
X018857Y016223D01*
X019017Y016383D01*
X019017Y016423D01*
X018977Y016463D01*
X018897Y016463D01*
X018857Y016423D01*
D14*
X023119Y024018D02*
X023119Y024218D01*
X023052Y024218D02*
X023186Y024218D01*
X023282Y024218D02*
X023282Y024018D01*
X023282Y024118D02*
X023416Y024118D01*
X023512Y024118D02*
X023579Y024118D01*
X023512Y024218D02*
X023512Y024018D01*
X023646Y024018D01*
X023743Y024018D02*
X023743Y024218D01*
X023843Y024218D01*
X023876Y024185D01*
X023876Y024118D01*
X023843Y024085D01*
X023743Y024085D01*
X023809Y024085D02*
X023876Y024018D01*
X023973Y024018D02*
X023973Y024218D01*
X024039Y024152D01*
X024106Y024218D01*
X024106Y024018D01*
X023646Y024218D02*
X023512Y024218D01*
X023416Y024218D02*
X023416Y024018D01*
X021631Y024559D02*
X021631Y025759D01*
X020540Y025759D01*
X020431Y025649D01*
X020431Y024559D01*
X021631Y024559D01*
X020531Y025559D02*
X020533Y025579D01*
X020539Y025598D01*
X020549Y025616D01*
X020562Y025631D01*
X020578Y025644D01*
X020596Y025653D01*
X020616Y025658D01*
X020636Y025659D01*
X020656Y025656D01*
X020675Y025649D01*
X020692Y025638D01*
X020707Y025624D01*
X020718Y025608D01*
X020726Y025589D01*
X020730Y025569D01*
X020730Y025549D01*
X020726Y025529D01*
X020718Y025510D01*
X020707Y025494D01*
X020692Y025480D01*
X020675Y025469D01*
X020656Y025462D01*
X020636Y025459D01*
X020616Y025460D01*
X020596Y025465D01*
X020578Y025474D01*
X020562Y025487D01*
X020549Y025502D01*
X020539Y025520D01*
X020533Y025539D01*
X020531Y025559D01*
D15*
X007122Y014313D02*
X007122Y014053D01*
X007122Y014183D02*
X006732Y014183D01*
X006862Y014053D01*
M02*
