G75*
G70*
%OFA0B0*%
%FSLAX24Y24*%
%IPPOS*%
%LPD*%
%AMOC8*
5,1,8,0,0,1.08239X$1,22.5*
%
%ADD10C,0.0080*%
%ADD11C,0.1250*%
%ADD12C,0.1000*%
%ADD13O,0.1890X0.0945*%
%ADD14R,0.1450X0.0650*%
%ADD15C,0.0591*%
%ADD16R,0.0700X0.0700*%
%ADD17R,0.0600X0.0600*%
%ADD18C,0.0600*%
%ADD19R,0.0660X0.0660*%
%ADD20C,0.0660*%
%ADD21R,0.0531X0.0531*%
%ADD22C,0.0531*%
%ADD23R,0.0200X0.0300*%
%ADD24C,0.0100*%
%ADD25R,0.0300X0.0200*%
%ADD26R,0.1420X0.0650*%
%ADD27C,0.0600*%
%ADD28C,0.0885*%
%ADD29C,0.0356*%
%ADD30C,0.0400*%
%ADD31C,0.0200*%
%ADD32C,0.2480*%
%ADD33C,0.0300*%
%ADD34C,0.1200*%
D10*
X003567Y000783D02*
X003781Y000783D01*
X003674Y000783D02*
X003674Y001103D01*
X003567Y000997D01*
X003935Y001050D02*
X003935Y000836D01*
X004149Y001050D01*
X004149Y000836D01*
X004096Y000783D01*
X003989Y000783D01*
X003935Y000836D01*
X003935Y001050D02*
X003989Y001103D01*
X004096Y001103D01*
X004149Y001050D01*
X004304Y000943D02*
X004304Y000836D01*
X004357Y000783D01*
X004464Y000783D01*
X004517Y000836D01*
X004517Y000890D01*
X004464Y000943D01*
X004304Y000943D01*
X004410Y001050D01*
X004517Y001103D01*
X005040Y001103D02*
X005040Y000783D01*
X005254Y000783D01*
X005409Y000783D02*
X005409Y000997D01*
X005515Y000997D02*
X005569Y000997D01*
X005515Y000997D02*
X005409Y000890D01*
X005254Y001103D02*
X005040Y001103D01*
X005040Y000943D02*
X005147Y000943D01*
X005716Y000890D02*
X005822Y000997D01*
X005876Y000997D01*
X006022Y000943D02*
X006022Y000836D01*
X006076Y000783D01*
X006183Y000783D01*
X006236Y000836D01*
X006236Y000943D01*
X006183Y000997D01*
X006076Y000997D01*
X006022Y000943D01*
X005716Y000997D02*
X005716Y000783D01*
X006391Y000783D02*
X006391Y000997D01*
X006497Y000997D02*
X006551Y000997D01*
X006497Y000997D02*
X006391Y000890D01*
X006698Y000943D02*
X006751Y000997D01*
X006911Y000997D01*
X006858Y000890D02*
X006751Y000890D01*
X006698Y000943D01*
X006698Y000783D02*
X006858Y000783D01*
X006911Y000836D01*
X006858Y000890D01*
D11*
X016277Y007793D03*
D12*
X017077Y010143D03*
X021877Y010143D03*
X021877Y005443D03*
X017077Y005443D03*
D13*
X024379Y005793D03*
X024379Y007793D03*
X024379Y009793D03*
D14*
X007017Y009893D03*
X007017Y010893D03*
X007017Y008893D03*
X007017Y007893D03*
X007017Y006893D03*
D15*
X021727Y013533D03*
X021727Y013729D03*
X021727Y013926D03*
X021727Y014123D03*
X021727Y014320D03*
X021727Y014517D03*
X021727Y014714D03*
X022436Y015875D03*
X022633Y015875D03*
X022829Y015875D03*
X023026Y015875D03*
X023223Y015875D03*
X023420Y015875D03*
X023617Y015875D03*
X024286Y014714D03*
X024286Y014517D03*
X024286Y014320D03*
X024286Y014123D03*
X024286Y013926D03*
X024286Y013729D03*
X024286Y013533D03*
D16*
X006877Y004843D03*
D17*
X018527Y013543D03*
X023427Y022193D03*
D18*
X023427Y023193D03*
X022677Y024243D03*
X018527Y012543D03*
D19*
X021077Y022793D03*
D20*
X020077Y022793D03*
X019077Y022793D03*
X018077Y022793D03*
X017077Y022793D03*
X016077Y022793D03*
X015077Y022793D03*
X014077Y022793D03*
X013077Y022793D03*
X012077Y022793D03*
X011077Y022793D03*
X011077Y015793D03*
X012077Y015793D03*
X013077Y015793D03*
X014077Y015793D03*
X015077Y015793D03*
X016077Y015793D03*
X017077Y015793D03*
X018077Y015793D03*
X019077Y015793D03*
X020077Y015793D03*
X021077Y015793D03*
D21*
X024577Y024399D03*
D22*
X024577Y025187D03*
D23*
X021827Y024143D03*
X021527Y024143D03*
D24*
X021327Y023943D01*
X021327Y023643D01*
X021424Y023543D02*
X020681Y023543D01*
X020474Y023543D01*
X020181Y023543D01*
X019831Y023893D01*
X019812Y023893D01*
X019848Y023929D01*
X019905Y024068D01*
X019905Y024143D01*
X020981Y024143D01*
X021127Y024290D01*
X021402Y024565D01*
X021502Y024565D01*
X021641Y024623D01*
X021748Y024729D01*
X021805Y024868D01*
X021805Y025018D01*
X021748Y025157D01*
X021641Y025264D01*
X021502Y025321D01*
X021352Y025321D01*
X021213Y025264D01*
X021107Y025157D01*
X021049Y025018D01*
X021049Y024919D01*
X020774Y024643D01*
X019895Y024643D01*
X019905Y024668D01*
X019905Y024818D01*
X019848Y024957D01*
X019741Y025064D01*
X019602Y025121D01*
X019452Y025121D01*
X019313Y025064D01*
X019207Y024957D01*
X019149Y024818D01*
X019149Y024719D01*
X018724Y024293D01*
X017331Y024293D01*
X017124Y024293D01*
X016774Y023943D01*
X012872Y023943D01*
X012973Y024014D01*
X013129Y024160D01*
X013263Y024325D01*
X013374Y024506D01*
X013374Y024506D01*
X013458Y024701D01*
X013458Y024701D01*
X013516Y024906D01*
X013516Y024906D01*
X013545Y025117D01*
X013545Y025223D01*
X013545Y025327D01*
X013545Y026281D01*
X022449Y026281D01*
X022227Y026059D01*
X022227Y026038D01*
X022222Y026043D01*
X021932Y026043D01*
X020912Y026043D01*
X020891Y026064D01*
X020823Y026092D01*
X020822Y026093D01*
X020820Y026093D01*
X020752Y026121D01*
X020602Y026121D01*
X020534Y026093D01*
X020532Y026093D01*
X020531Y026092D01*
X020463Y026064D01*
X020357Y025957D01*
X020328Y025889D01*
X020327Y025888D01*
X020327Y025886D01*
X020299Y025818D01*
X020299Y025668D01*
X020327Y025600D01*
X020327Y025598D01*
X020328Y025597D01*
X020357Y025529D01*
X020463Y025423D01*
X020531Y025394D01*
X020582Y025343D01*
X020872Y025343D01*
X021932Y025343D01*
X022546Y024730D01*
X022394Y024667D01*
X022253Y024526D01*
X022177Y024343D01*
X022177Y024147D01*
X022131Y024193D01*
X022127Y024197D01*
X022127Y024376D01*
X022010Y024493D01*
X021644Y024493D01*
X021594Y024443D01*
X021527Y024443D01*
X021365Y024443D01*
X021277Y024355D01*
X021277Y024247D01*
X021277Y024040D01*
X021277Y023931D01*
X021365Y023843D01*
X021527Y023843D01*
X021527Y023893D01*
X021527Y023893D01*
X021527Y023843D01*
X021594Y023843D01*
X021644Y023793D01*
X021680Y023793D01*
X021649Y023718D01*
X021649Y023568D01*
X021680Y023494D01*
X021631Y023543D01*
X021424Y023543D01*
X021653Y023558D02*
X020166Y023558D01*
X020068Y023656D02*
X021649Y023656D01*
X021664Y023755D02*
X019969Y023755D01*
X019870Y023853D02*
X021355Y023853D01*
X021277Y023952D02*
X019857Y023952D01*
X019898Y024050D02*
X021277Y024050D01*
X021277Y024149D02*
X020986Y024149D01*
X021085Y024247D02*
X021277Y024247D01*
X021277Y024346D02*
X021183Y024346D01*
X021282Y024445D02*
X021596Y024445D01*
X021527Y024443D02*
X021527Y024393D01*
X021527Y024443D01*
X021527Y024393D02*
X021527Y024393D01*
X021381Y024543D02*
X022270Y024543D01*
X022219Y024445D02*
X022059Y024445D01*
X022127Y024346D02*
X022179Y024346D01*
X022177Y024247D02*
X022127Y024247D01*
X022175Y024149D02*
X022177Y024149D01*
X022027Y023943D02*
X022027Y023643D01*
X022027Y023943D02*
X021827Y024143D01*
X021527Y024143D01*
X021527Y023853D02*
X021527Y023853D01*
X021527Y023293D02*
X020577Y023293D01*
X020577Y022593D01*
X020277Y022293D01*
X019577Y022293D01*
X019377Y022093D01*
X018677Y022093D01*
X018527Y021943D01*
X018527Y021593D01*
X018227Y021293D01*
X018227Y017643D01*
X019927Y015943D01*
X019881Y016343D02*
X018477Y017747D01*
X018477Y021190D01*
X018777Y021490D01*
X018777Y021697D01*
X018777Y021840D01*
X018781Y021843D01*
X019481Y021843D01*
X019627Y021990D01*
X019681Y022043D01*
X019926Y022043D01*
X019872Y022021D01*
X019772Y021969D01*
X019678Y021909D01*
X019678Y021909D01*
X019589Y021840D01*
X019589Y021840D01*
X019507Y021763D01*
X019432Y021680D01*
X019432Y021679D01*
X019365Y021589D01*
X019307Y021493D01*
X019257Y021392D01*
X019217Y021287D01*
X019187Y021179D01*
X019167Y021069D01*
X019156Y020957D01*
X019156Y020844D01*
X019167Y020733D01*
X019187Y020622D01*
X019209Y020543D01*
X019061Y020543D01*
X018827Y020309D01*
X018827Y019977D01*
X019327Y019477D01*
X019561Y019243D01*
X019777Y019243D01*
X019777Y019077D01*
X019827Y019028D01*
X019827Y019026D01*
X019827Y018959D01*
X019777Y018909D01*
X019777Y018377D01*
X020011Y018143D01*
X020343Y018143D01*
X020577Y018377D01*
X020577Y018909D01*
X020527Y018959D01*
X020527Y019026D01*
X020527Y019028D01*
X020577Y019077D01*
X020577Y019243D01*
X021693Y019243D01*
X021777Y019328D01*
X021777Y018211D01*
X021752Y018221D01*
X021602Y018221D01*
X021534Y018193D01*
X021532Y018193D01*
X021531Y018192D01*
X021463Y018164D01*
X021357Y018057D01*
X021328Y017989D01*
X021327Y017988D01*
X021327Y017986D01*
X021299Y017918D01*
X021299Y017768D01*
X021327Y017700D01*
X021327Y016263D01*
X021183Y016323D01*
X020972Y016323D01*
X020777Y016242D01*
X020628Y016093D01*
X020577Y015971D01*
X020526Y016093D01*
X020377Y016242D01*
X020183Y016323D01*
X020113Y016323D01*
X020093Y016343D01*
X019881Y016343D01*
X019860Y016364D02*
X021327Y016364D01*
X021327Y016463D02*
X019761Y016463D01*
X019663Y016561D02*
X021327Y016561D01*
X021327Y016660D02*
X019564Y016660D01*
X019466Y016758D02*
X021327Y016758D01*
X021327Y016857D02*
X019367Y016857D01*
X019268Y016955D02*
X021327Y016955D01*
X021327Y017054D02*
X019170Y017054D01*
X019071Y017152D02*
X021327Y017152D01*
X021327Y017251D02*
X018973Y017251D01*
X018874Y017349D02*
X021327Y017349D01*
X021327Y017448D02*
X018776Y017448D01*
X018677Y017546D02*
X021327Y017546D01*
X021327Y017645D02*
X018579Y017645D01*
X018480Y017744D02*
X021309Y017744D01*
X021299Y017842D02*
X018477Y017842D01*
X018477Y017941D02*
X021308Y017941D01*
X021349Y018039D02*
X018477Y018039D01*
X018477Y018138D02*
X021437Y018138D01*
X021777Y018236D02*
X020436Y018236D01*
X020534Y018335D02*
X021777Y018335D01*
X021777Y018433D02*
X020577Y018433D01*
X020577Y018532D02*
X021777Y018532D01*
X021777Y018630D02*
X020577Y018630D01*
X020577Y018729D02*
X021777Y018729D01*
X021777Y018828D02*
X020577Y018828D01*
X020560Y018926D02*
X021777Y018926D01*
X021777Y019025D02*
X020527Y019025D01*
X020577Y019123D02*
X021777Y019123D01*
X021777Y019222D02*
X020577Y019222D01*
X019827Y019025D02*
X018477Y019025D01*
X018477Y019123D02*
X019777Y019123D01*
X019777Y019222D02*
X018477Y019222D01*
X018477Y019320D02*
X019484Y019320D01*
X019386Y019419D02*
X018477Y019419D01*
X018477Y019517D02*
X019287Y019517D01*
X019189Y019616D02*
X018477Y019616D01*
X018477Y019714D02*
X019090Y019714D01*
X018992Y019813D02*
X018477Y019813D01*
X018477Y019912D02*
X018893Y019912D01*
X018827Y020010D02*
X018477Y020010D01*
X018477Y020109D02*
X018827Y020109D01*
X018827Y020207D02*
X018477Y020207D01*
X018477Y020306D02*
X018827Y020306D01*
X018923Y020404D02*
X018477Y020404D01*
X018477Y020503D02*
X019021Y020503D01*
X019193Y020601D02*
X018477Y020601D01*
X018477Y020700D02*
X019173Y020700D01*
X019160Y020798D02*
X018477Y020798D01*
X018477Y020897D02*
X019156Y020897D01*
X019160Y020996D02*
X018477Y020996D01*
X018477Y021094D02*
X019171Y021094D01*
X019191Y021193D02*
X018480Y021193D01*
X018579Y021291D02*
X019219Y021291D01*
X019256Y021390D02*
X018677Y021390D01*
X018776Y021488D02*
X019304Y021488D01*
X019307Y021493D02*
X019307Y021493D01*
X019364Y021587D02*
X018777Y021587D01*
X018777Y021685D02*
X019437Y021685D01*
X019507Y021763D02*
X019507Y021763D01*
X019529Y021784D02*
X018777Y021784D01*
X018377Y022093D02*
X018577Y022293D01*
X019277Y022293D01*
X019577Y022593D01*
X019577Y023293D01*
X019727Y023643D02*
X020077Y023293D01*
X020577Y023293D01*
X021527Y023293D02*
X022477Y022343D01*
X022477Y021493D01*
X023477Y020493D01*
X024727Y020493D01*
X024447Y020207D02*
X022477Y020207D01*
X022477Y020109D02*
X024546Y020109D01*
X024561Y020093D02*
X024961Y020093D01*
X025293Y020093D01*
X025333Y020133D01*
X025474Y020133D01*
X025767Y020426D01*
X025767Y020840D01*
X025474Y021133D01*
X025060Y021133D01*
X024930Y021003D01*
X024930Y021251D01*
X024832Y021487D01*
X024651Y021668D01*
X024415Y021766D01*
X024159Y021766D01*
X023923Y021668D01*
X023742Y021487D01*
X023645Y021251D01*
X023645Y020995D01*
X023742Y020759D01*
X023758Y020743D01*
X023581Y020743D01*
X023163Y021161D01*
X023191Y021173D01*
X023298Y021279D01*
X023326Y021347D01*
X023327Y021348D01*
X023327Y021350D01*
X023355Y021418D01*
X023355Y021568D01*
X023327Y021636D01*
X023327Y021638D01*
X023326Y021639D01*
X023298Y021707D01*
X023262Y021743D01*
X023392Y021743D01*
X023392Y022158D01*
X023462Y022158D01*
X023462Y021743D01*
X023789Y021743D01*
X023877Y021831D01*
X023877Y022158D01*
X023462Y022158D01*
X023462Y022228D01*
X023877Y022228D01*
X023877Y022555D01*
X023789Y022643D01*
X023462Y022643D01*
X023462Y022228D01*
X023392Y022228D01*
X023392Y022643D01*
X023177Y022643D01*
X023177Y022756D01*
X023328Y022693D01*
X023527Y022693D01*
X023710Y022769D01*
X023851Y022910D01*
X023927Y023094D01*
X023927Y023293D01*
X023851Y023476D01*
X023710Y023617D01*
X023559Y023680D01*
X023677Y023798D01*
X023677Y024088D01*
X023677Y024278D01*
X023955Y023999D01*
X024163Y023999D01*
X024228Y023934D01*
X024926Y023934D01*
X025043Y024051D01*
X025043Y024748D01*
X024926Y024865D01*
X024843Y024865D01*
X024929Y024951D01*
X024993Y025104D01*
X024993Y025148D01*
X024616Y025148D01*
X024616Y025225D01*
X024993Y025225D01*
X024993Y025270D01*
X024929Y025422D01*
X024813Y025539D01*
X024660Y025603D01*
X024616Y025603D01*
X024616Y025226D01*
X024538Y025226D01*
X024538Y025603D01*
X024494Y025603D01*
X024342Y025539D01*
X024225Y025422D01*
X024161Y025270D01*
X024161Y025225D01*
X024538Y025225D01*
X024538Y025148D01*
X024161Y025148D01*
X024161Y025104D01*
X024225Y024951D01*
X024311Y024865D01*
X024228Y024865D01*
X024225Y024861D01*
X022805Y026281D01*
X025978Y026281D01*
X025978Y011993D01*
X020331Y011993D01*
X020124Y011993D01*
X019174Y011043D01*
X016831Y011043D01*
X016624Y011043D01*
X015174Y009593D01*
X014943Y009593D01*
X014993Y009643D01*
X015227Y009877D01*
X015227Y011527D01*
X015227Y011528D01*
X015693Y011993D01*
X018211Y011993D01*
X018543Y011993D01*
X018593Y012043D01*
X018627Y012043D01*
X018810Y012119D01*
X018884Y012193D01*
X019082Y012193D01*
X019372Y012193D01*
X021232Y014053D01*
X021232Y014025D01*
X021232Y013828D01*
X021232Y013631D01*
X021232Y013434D01*
X021307Y013252D01*
X021447Y013113D01*
X021629Y013037D01*
X021826Y013037D01*
X022008Y013113D01*
X022147Y013252D01*
X022222Y013434D01*
X022222Y013631D01*
X022222Y013828D01*
X022222Y014025D01*
X022222Y014221D01*
X022222Y014418D01*
X022222Y014615D01*
X022222Y014812D01*
X022147Y014994D01*
X022008Y015133D01*
X021834Y015205D01*
X022027Y015398D01*
X022027Y015583D01*
X022155Y015455D01*
X022337Y015380D01*
X022534Y015380D01*
X022731Y015380D01*
X022928Y015380D01*
X023026Y015421D01*
X023125Y015380D01*
X023321Y015380D01*
X023518Y015380D01*
X023715Y015380D01*
X023897Y015455D01*
X024037Y015594D01*
X024112Y015776D01*
X024112Y015974D01*
X024037Y016156D01*
X023897Y016295D01*
X023715Y016370D01*
X023518Y016370D01*
X023321Y016370D01*
X023125Y016370D01*
X023026Y016330D01*
X022928Y016370D01*
X022731Y016370D01*
X022534Y016370D01*
X022485Y016370D01*
X022505Y016418D01*
X022505Y016568D01*
X022477Y016636D01*
X022477Y021140D01*
X023227Y020390D01*
X023374Y020243D01*
X024411Y020243D01*
X024561Y020093D01*
X025308Y020109D02*
X025978Y020109D01*
X025978Y020207D02*
X025548Y020207D01*
X025647Y020306D02*
X025978Y020306D01*
X025978Y020404D02*
X025745Y020404D01*
X025767Y020503D02*
X025978Y020503D01*
X025978Y020601D02*
X025767Y020601D01*
X025767Y020700D02*
X025978Y020700D01*
X025978Y020798D02*
X025767Y020798D01*
X025710Y020897D02*
X025978Y020897D01*
X025978Y020996D02*
X025612Y020996D01*
X025513Y021094D02*
X025978Y021094D01*
X025978Y021193D02*
X024930Y021193D01*
X024930Y021094D02*
X025021Y021094D01*
X024913Y021291D02*
X025978Y021291D01*
X025978Y021390D02*
X024872Y021390D01*
X024831Y021488D02*
X025978Y021488D01*
X025978Y021587D02*
X024732Y021587D01*
X024609Y021685D02*
X025978Y021685D01*
X025978Y021784D02*
X023830Y021784D01*
X023877Y021882D02*
X025978Y021882D01*
X025978Y021981D02*
X023877Y021981D01*
X023877Y022079D02*
X025978Y022079D01*
X025978Y022178D02*
X023462Y022178D01*
X023462Y022079D02*
X023392Y022079D01*
X023392Y021981D02*
X023462Y021981D01*
X023462Y021882D02*
X023392Y021882D01*
X023392Y021784D02*
X023462Y021784D01*
X023307Y021685D02*
X023965Y021685D01*
X023842Y021587D02*
X023348Y021587D01*
X023355Y021488D02*
X023744Y021488D01*
X023702Y021390D02*
X023343Y021390D01*
X023303Y021291D02*
X023661Y021291D01*
X023645Y021193D02*
X023211Y021193D01*
X023230Y021094D02*
X023645Y021094D01*
X023645Y020996D02*
X023328Y020996D01*
X023427Y020897D02*
X023685Y020897D01*
X023726Y020798D02*
X023525Y020798D01*
X023212Y020404D02*
X022477Y020404D01*
X022477Y020306D02*
X023311Y020306D01*
X023114Y020503D02*
X022477Y020503D01*
X022477Y020601D02*
X023015Y020601D01*
X022917Y020700D02*
X022477Y020700D01*
X022477Y020798D02*
X022818Y020798D01*
X022720Y020897D02*
X022477Y020897D01*
X022477Y020996D02*
X022621Y020996D01*
X022523Y021094D02*
X022477Y021094D01*
X022477Y020010D02*
X025978Y020010D01*
X025978Y019912D02*
X022477Y019912D01*
X022477Y019813D02*
X025978Y019813D01*
X025978Y019714D02*
X022477Y019714D01*
X022477Y019616D02*
X025978Y019616D01*
X025978Y019517D02*
X022477Y019517D01*
X022477Y019419D02*
X025978Y019419D01*
X025978Y019320D02*
X025507Y019320D01*
X025474Y019353D02*
X025060Y019353D01*
X024767Y019060D01*
X024767Y018792D01*
X024651Y018908D01*
X024415Y019006D01*
X024159Y019006D01*
X023923Y018908D01*
X023742Y018727D01*
X023645Y018491D01*
X023645Y018235D01*
X023742Y017999D01*
X023923Y017818D01*
X024159Y017721D01*
X024415Y017721D01*
X024651Y017818D01*
X024832Y017999D01*
X024930Y018235D01*
X024930Y018484D01*
X025060Y018353D01*
X025474Y018353D01*
X025767Y018646D01*
X025767Y019060D01*
X025474Y019353D01*
X025606Y019222D02*
X025978Y019222D01*
X025978Y019123D02*
X025704Y019123D01*
X025767Y019025D02*
X025978Y019025D01*
X025978Y018926D02*
X025767Y018926D01*
X025767Y018828D02*
X025978Y018828D01*
X025978Y018729D02*
X025767Y018729D01*
X025751Y018630D02*
X025978Y018630D01*
X025978Y018532D02*
X025653Y018532D01*
X025554Y018433D02*
X025978Y018433D01*
X025978Y018335D02*
X024930Y018335D01*
X024930Y018433D02*
X024980Y018433D01*
X024930Y018236D02*
X025978Y018236D01*
X025978Y018138D02*
X024889Y018138D01*
X024848Y018039D02*
X025978Y018039D01*
X025978Y017941D02*
X024773Y017941D01*
X024675Y017842D02*
X025978Y017842D01*
X025978Y017744D02*
X024470Y017744D01*
X024104Y017744D02*
X022477Y017744D01*
X022477Y017842D02*
X023899Y017842D01*
X023801Y017941D02*
X022477Y017941D01*
X022477Y018039D02*
X023726Y018039D01*
X023685Y018138D02*
X022477Y018138D01*
X022477Y018236D02*
X023645Y018236D01*
X023645Y018335D02*
X022477Y018335D01*
X022477Y018433D02*
X023645Y018433D01*
X023662Y018532D02*
X022477Y018532D01*
X022477Y018630D02*
X023702Y018630D01*
X023744Y018729D02*
X022477Y018729D01*
X022477Y018828D02*
X023843Y018828D01*
X023967Y018926D02*
X022477Y018926D01*
X022477Y019025D02*
X024767Y019025D01*
X024767Y018926D02*
X024607Y018926D01*
X024731Y018828D02*
X024767Y018828D01*
X024830Y019123D02*
X022477Y019123D01*
X022477Y019222D02*
X024929Y019222D01*
X025027Y019320D02*
X022477Y019320D01*
X021777Y019320D02*
X021770Y019320D01*
X022477Y017645D02*
X025978Y017645D01*
X025978Y017546D02*
X022477Y017546D01*
X022477Y017448D02*
X025978Y017448D01*
X025978Y017349D02*
X022477Y017349D01*
X022477Y017251D02*
X025978Y017251D01*
X025978Y017152D02*
X022477Y017152D01*
X022477Y017054D02*
X025978Y017054D01*
X025978Y016955D02*
X022477Y016955D01*
X022477Y016857D02*
X025978Y016857D01*
X025978Y016758D02*
X022477Y016758D01*
X022477Y016660D02*
X025978Y016660D01*
X025978Y016561D02*
X022505Y016561D01*
X022505Y016463D02*
X025978Y016463D01*
X025978Y016364D02*
X023731Y016364D01*
X023927Y016265D02*
X025978Y016265D01*
X025978Y016167D02*
X024025Y016167D01*
X024073Y016068D02*
X025978Y016068D01*
X025978Y015970D02*
X024112Y015970D01*
X024112Y015871D02*
X025978Y015871D01*
X025978Y015773D02*
X024111Y015773D01*
X024070Y015674D02*
X025978Y015674D01*
X025978Y015576D02*
X024018Y015576D01*
X023919Y015477D02*
X025978Y015477D01*
X025978Y015379D02*
X022007Y015379D01*
X022027Y015477D02*
X022133Y015477D01*
X022035Y015576D02*
X022027Y015576D01*
X021909Y015280D02*
X025978Y015280D01*
X025978Y015181D02*
X024451Y015181D01*
X024385Y015209D02*
X024188Y015209D01*
X024006Y015133D01*
X023866Y014994D01*
X023791Y014812D01*
X023791Y014615D01*
X023791Y014418D01*
X023791Y014221D01*
X023832Y014123D01*
X023791Y014025D01*
X023791Y013828D01*
X023791Y013631D01*
X023791Y013434D01*
X023866Y013252D01*
X024006Y013113D01*
X024188Y013037D01*
X024385Y013037D01*
X024567Y013113D01*
X024706Y013252D01*
X024781Y013434D01*
X024781Y013631D01*
X024781Y013828D01*
X024781Y014025D01*
X024741Y014123D01*
X024781Y014221D01*
X024781Y014418D01*
X024781Y014615D01*
X024781Y014812D01*
X024706Y014994D01*
X024567Y015133D01*
X024385Y015209D01*
X024617Y015083D02*
X025978Y015083D01*
X025978Y014984D02*
X024710Y014984D01*
X024751Y014886D02*
X025978Y014886D01*
X025978Y014787D02*
X024781Y014787D01*
X024781Y014689D02*
X025978Y014689D01*
X025978Y014590D02*
X024781Y014590D01*
X024781Y014492D02*
X025978Y014492D01*
X025978Y014393D02*
X024781Y014393D01*
X024781Y014295D02*
X025978Y014295D01*
X025978Y014196D02*
X024771Y014196D01*
X024751Y014097D02*
X025978Y014097D01*
X025978Y013999D02*
X024781Y013999D01*
X024781Y013900D02*
X025978Y013900D01*
X025978Y013802D02*
X024781Y013802D01*
X024781Y013703D02*
X025978Y013703D01*
X025978Y013605D02*
X024781Y013605D01*
X024781Y013506D02*
X025978Y013506D01*
X025978Y013408D02*
X024770Y013408D01*
X024730Y013309D02*
X025978Y013309D01*
X025978Y013211D02*
X024665Y013211D01*
X024565Y013112D02*
X025978Y013112D01*
X025978Y013014D02*
X020192Y013014D01*
X020291Y013112D02*
X021448Y013112D01*
X021349Y013211D02*
X020389Y013211D01*
X020488Y013309D02*
X021284Y013309D01*
X021243Y013408D02*
X020586Y013408D01*
X020685Y013506D02*
X021232Y013506D01*
X021232Y013605D02*
X020784Y013605D01*
X020882Y013703D02*
X021232Y013703D01*
X021232Y013802D02*
X020981Y013802D01*
X021079Y013900D02*
X021232Y013900D01*
X021232Y013999D02*
X021178Y013999D01*
X020681Y014492D02*
X019327Y014492D01*
X019327Y014590D02*
X020777Y014590D01*
X020777Y014588D02*
X019412Y013223D01*
X019398Y013257D01*
X019327Y013328D01*
X019327Y015197D01*
X019238Y015286D01*
X019377Y015344D01*
X019526Y015493D01*
X019577Y015615D01*
X019628Y015493D01*
X019777Y015344D01*
X019972Y015263D01*
X020183Y015263D01*
X020377Y015344D01*
X020526Y015493D01*
X020577Y015615D01*
X020628Y015493D01*
X020777Y015344D01*
X020923Y015284D01*
X020777Y015138D01*
X020777Y014848D01*
X020777Y014588D01*
X020777Y014689D02*
X019327Y014689D01*
X019327Y014787D02*
X020777Y014787D01*
X020777Y014886D02*
X019327Y014886D01*
X019327Y014984D02*
X020777Y014984D01*
X020777Y015083D02*
X019327Y015083D01*
X019327Y015181D02*
X020821Y015181D01*
X020919Y015280D02*
X020223Y015280D01*
X020412Y015379D02*
X020742Y015379D01*
X020644Y015477D02*
X020511Y015477D01*
X020561Y015576D02*
X020593Y015576D01*
X020617Y016068D02*
X020537Y016068D01*
X020453Y016167D02*
X020701Y016167D01*
X020832Y016265D02*
X020322Y016265D01*
X019593Y015576D02*
X019561Y015576D01*
X019511Y015477D02*
X019644Y015477D01*
X019742Y015379D02*
X019412Y015379D01*
X019244Y015280D02*
X019931Y015280D01*
X019077Y015093D02*
X019077Y013043D01*
X019346Y013309D02*
X019498Y013309D01*
X019597Y013408D02*
X019327Y013408D01*
X019327Y013506D02*
X019695Y013506D01*
X019794Y013605D02*
X019327Y013605D01*
X019327Y013703D02*
X019892Y013703D01*
X019991Y013802D02*
X019327Y013802D01*
X019327Y013900D02*
X020089Y013900D01*
X020188Y013999D02*
X019327Y013999D01*
X019327Y014097D02*
X020287Y014097D01*
X020385Y014196D02*
X019327Y014196D01*
X019327Y014295D02*
X020484Y014295D01*
X020582Y014393D02*
X019327Y014393D01*
X018827Y014393D02*
X018055Y014393D01*
X018055Y014418D02*
X017998Y014557D01*
X017891Y014664D01*
X017752Y014721D01*
X017602Y014721D01*
X017463Y014664D01*
X017392Y014593D01*
X017374Y014593D01*
X016824Y014043D01*
X014781Y014043D01*
X015381Y014643D01*
X015581Y014643D01*
X015781Y014843D01*
X016274Y014843D01*
X016481Y014843D01*
X016681Y015043D01*
X017381Y015043D01*
X017527Y015190D01*
X017729Y015392D01*
X017777Y015344D01*
X017972Y015263D01*
X018183Y015263D01*
X018377Y015344D01*
X018425Y015392D01*
X018827Y014990D01*
X018827Y013993D01*
X018562Y013993D01*
X018562Y013578D01*
X018492Y013578D01*
X018492Y013508D01*
X018562Y013508D01*
X018562Y013093D01*
X018699Y013093D01*
X018699Y013013D01*
X018627Y013043D01*
X018428Y013043D01*
X018244Y012967D01*
X018103Y012826D01*
X018089Y012793D01*
X015361Y012793D01*
X015127Y012559D01*
X015127Y012559D01*
X014661Y012093D01*
X013722Y012093D01*
X014772Y013143D01*
X016982Y013143D01*
X017272Y013143D01*
X017323Y013194D01*
X017391Y013223D01*
X017498Y013329D01*
X017526Y013397D01*
X017527Y013398D01*
X017527Y013400D01*
X017555Y013468D01*
X017555Y013618D01*
X017527Y013686D01*
X017527Y013688D01*
X017526Y013689D01*
X017498Y013757D01*
X017391Y013864D01*
X017363Y013875D01*
X017496Y014009D01*
X017602Y013965D01*
X017752Y013965D01*
X017891Y014023D01*
X017998Y014129D01*
X018055Y014268D01*
X018055Y014418D01*
X018025Y014492D02*
X018827Y014492D01*
X018827Y014590D02*
X017965Y014590D01*
X017831Y014689D02*
X018827Y014689D01*
X018827Y014787D02*
X015725Y014787D01*
X015626Y014689D02*
X017523Y014689D01*
X017371Y014590D02*
X015328Y014590D01*
X015229Y014492D02*
X017272Y014492D01*
X017174Y014393D02*
X015131Y014393D01*
X015032Y014295D02*
X017075Y014295D01*
X016976Y014196D02*
X014933Y014196D01*
X014835Y014097D02*
X016878Y014097D01*
X016927Y013793D02*
X014477Y013793D01*
X012427Y011743D01*
X012427Y011293D01*
X012127Y011743D02*
X012127Y010443D01*
X011777Y010093D01*
X011377Y009593D02*
X011377Y011793D01*
X011777Y012193D01*
X011777Y012993D01*
X012427Y013643D01*
X012427Y015143D01*
X012077Y015493D01*
X011823Y015181D02*
X011627Y015181D01*
X011627Y015083D02*
X012134Y015083D01*
X012124Y015093D02*
X012177Y015040D01*
X012177Y014143D01*
X007943Y014143D01*
X007668Y014418D01*
X007789Y014418D01*
X007877Y014506D01*
X007877Y014843D01*
X007067Y014843D01*
X007067Y014943D01*
X007877Y014943D01*
X007877Y015280D01*
X008075Y015280D01*
X008173Y015181D02*
X007877Y015181D01*
X007877Y015083D02*
X008272Y015083D01*
X008370Y014984D02*
X007877Y014984D01*
X007877Y014787D02*
X008567Y014787D01*
X008666Y014689D02*
X007877Y014689D01*
X007877Y014590D02*
X008764Y014590D01*
X008863Y014492D02*
X007863Y014492D01*
X007693Y014393D02*
X008961Y014393D01*
X009011Y014343D02*
X009343Y014343D01*
X011393Y014343D01*
X011627Y014577D01*
X011627Y014909D01*
X011612Y014924D01*
X011627Y014940D01*
X011627Y015290D01*
X011627Y015495D01*
X011628Y015493D01*
X011677Y015444D01*
X011677Y015327D01*
X011911Y015093D01*
X012124Y015093D01*
X012177Y014984D02*
X011627Y014984D01*
X011627Y014886D02*
X012177Y014886D01*
X012177Y014787D02*
X011627Y014787D01*
X011627Y014689D02*
X012177Y014689D01*
X012177Y014590D02*
X011627Y014590D01*
X011541Y014492D02*
X012177Y014492D01*
X012177Y014393D02*
X011443Y014393D01*
X012177Y014295D02*
X007791Y014295D01*
X007890Y014196D02*
X012177Y014196D01*
X012677Y014196D02*
X013326Y014196D01*
X013277Y014243D02*
X013577Y014543D01*
X013577Y016193D01*
X013477Y016209D02*
X013243Y016443D01*
X013081Y016443D01*
X011781Y017743D01*
X012224Y017743D01*
X012443Y017524D01*
X012399Y017418D01*
X012399Y017268D01*
X012457Y017129D01*
X012563Y017023D01*
X012702Y016965D01*
X012852Y016965D01*
X012958Y017009D01*
X013718Y016249D01*
X013677Y016209D01*
X013677Y016143D01*
X013628Y016093D01*
X013577Y015971D01*
X013526Y016093D01*
X013477Y016143D01*
X013477Y016209D01*
X013477Y016167D02*
X013677Y016167D01*
X013701Y016265D02*
X013420Y016265D01*
X013322Y016364D02*
X013603Y016364D01*
X013504Y016463D02*
X013061Y016463D01*
X012963Y016561D02*
X013406Y016561D01*
X013307Y016660D02*
X012864Y016660D01*
X012766Y016758D02*
X013209Y016758D01*
X013110Y016857D02*
X012667Y016857D01*
X012568Y016955D02*
X013011Y016955D01*
X012977Y017343D02*
X014077Y016243D01*
X014077Y016043D01*
X014577Y016043D02*
X012427Y018193D01*
X011727Y018193D01*
X011227Y018693D01*
X011227Y019071D02*
X011227Y019147D01*
X011106Y019268D01*
X013281Y021443D01*
X013774Y021443D01*
X013981Y021443D01*
X014181Y021643D01*
X014674Y021643D01*
X014881Y021643D01*
X015081Y021843D01*
X015574Y021843D01*
X015781Y021843D01*
X015981Y022043D01*
X016474Y022043D01*
X016681Y022043D01*
X016881Y022243D01*
X017093Y022243D01*
X017113Y022263D01*
X017183Y022263D01*
X017287Y022306D01*
X017177Y022197D01*
X017177Y021990D01*
X017177Y017247D01*
X016474Y016543D01*
X015774Y016543D01*
X015627Y016397D01*
X015425Y016195D01*
X015377Y016242D01*
X015183Y016323D01*
X014972Y016323D01*
X014777Y016242D01*
X014754Y016220D01*
X012677Y018297D01*
X012531Y018443D01*
X011831Y018443D01*
X011605Y018669D01*
X011605Y018768D01*
X011548Y018907D01*
X011441Y019014D01*
X011302Y019071D01*
X011227Y019071D01*
X011227Y019123D02*
X015699Y019123D01*
X015699Y019118D02*
X015727Y019050D01*
X015727Y019048D01*
X015728Y019047D01*
X015757Y018979D01*
X015863Y018873D01*
X015931Y018844D01*
X015932Y018843D01*
X015934Y018843D01*
X016002Y018815D01*
X016152Y018815D01*
X016220Y018843D01*
X016222Y018843D01*
X016223Y018844D01*
X016291Y018873D01*
X016398Y018979D01*
X016426Y019047D01*
X016427Y019048D01*
X016427Y019050D01*
X016455Y019118D01*
X016455Y019268D01*
X016427Y019336D01*
X016427Y020025D01*
X016455Y020093D01*
X016455Y020243D01*
X016427Y020311D01*
X016427Y020313D01*
X016426Y020314D01*
X016398Y020382D01*
X016291Y020489D01*
X016223Y020517D01*
X016222Y020518D01*
X016220Y020518D01*
X016152Y020546D01*
X016002Y020546D01*
X015934Y020518D01*
X015932Y020518D01*
X015931Y020517D01*
X015863Y020489D01*
X015757Y020382D01*
X015728Y020314D01*
X015727Y020313D01*
X015727Y020311D01*
X015699Y020243D01*
X015699Y020093D01*
X015727Y020025D01*
X015727Y019336D01*
X015699Y019268D01*
X015699Y019118D01*
X015738Y019025D02*
X011415Y019025D01*
X011529Y018926D02*
X015809Y018926D01*
X015972Y018828D02*
X011581Y018828D01*
X011605Y018729D02*
X017177Y018729D01*
X017177Y018828D02*
X016182Y018828D01*
X016345Y018926D02*
X017177Y018926D01*
X017177Y019025D02*
X016416Y019025D01*
X016455Y019123D02*
X017177Y019123D01*
X017177Y019222D02*
X016455Y019222D01*
X016434Y019320D02*
X017177Y019320D01*
X017177Y019419D02*
X016427Y019419D01*
X016427Y019517D02*
X017177Y019517D01*
X017177Y019616D02*
X016427Y019616D01*
X016427Y019714D02*
X017177Y019714D01*
X017177Y019813D02*
X016427Y019813D01*
X016427Y019912D02*
X017177Y019912D01*
X017177Y020010D02*
X016427Y020010D01*
X016455Y020109D02*
X017177Y020109D01*
X017177Y020207D02*
X016455Y020207D01*
X016429Y020306D02*
X017177Y020306D01*
X017177Y020404D02*
X016376Y020404D01*
X016257Y020503D02*
X017177Y020503D01*
X017177Y020601D02*
X012439Y020601D01*
X012340Y020503D02*
X015897Y020503D01*
X015778Y020404D02*
X012242Y020404D01*
X012143Y020306D02*
X015725Y020306D01*
X015699Y020207D02*
X012045Y020207D01*
X011946Y020109D02*
X015699Y020109D01*
X015727Y020010D02*
X011848Y020010D01*
X011749Y019912D02*
X015727Y019912D01*
X015727Y019813D02*
X011650Y019813D01*
X011552Y019714D02*
X015727Y019714D01*
X015727Y019616D02*
X011453Y019616D01*
X011355Y019517D02*
X015727Y019517D01*
X015727Y019419D02*
X011256Y019419D01*
X011158Y019320D02*
X015721Y019320D01*
X015699Y019222D02*
X011152Y019222D01*
X010677Y019193D02*
X008327Y019193D01*
X008027Y018893D01*
X007877Y019393D02*
X010577Y019393D01*
X013077Y021893D01*
X013777Y021893D01*
X013977Y022093D01*
X014677Y022093D01*
X014877Y022293D01*
X015577Y022293D01*
X015927Y022643D01*
X015877Y022293D02*
X016577Y022293D01*
X016927Y022643D01*
X017215Y022277D02*
X017257Y022277D01*
X017177Y022178D02*
X016815Y022178D01*
X016717Y022079D02*
X017177Y022079D01*
X017177Y021981D02*
X015918Y021981D01*
X015820Y021882D02*
X017177Y021882D01*
X017177Y021784D02*
X015021Y021784D01*
X014923Y021685D02*
X017177Y021685D01*
X017177Y021587D02*
X014124Y021587D01*
X014026Y021488D02*
X017177Y021488D01*
X017177Y021390D02*
X013227Y021390D01*
X013129Y021291D02*
X017177Y021291D01*
X017177Y021193D02*
X013030Y021193D01*
X012931Y021094D02*
X017177Y021094D01*
X017177Y020996D02*
X012833Y020996D01*
X012734Y020897D02*
X017177Y020897D01*
X017177Y020798D02*
X012636Y020798D01*
X012537Y020700D02*
X017177Y020700D01*
X018027Y021593D02*
X018027Y016543D01*
X018577Y015993D01*
X018577Y015593D01*
X019077Y015093D01*
X018827Y014984D02*
X016622Y014984D01*
X016523Y014886D02*
X018827Y014886D01*
X018734Y015083D02*
X017420Y015083D01*
X017519Y015181D02*
X018635Y015181D01*
X018537Y015280D02*
X018223Y015280D01*
X018412Y015379D02*
X018438Y015379D01*
X017931Y015280D02*
X017617Y015280D01*
X017716Y015379D02*
X017742Y015379D01*
X017577Y015593D02*
X017277Y015293D01*
X016577Y015293D01*
X016377Y015093D01*
X015677Y015093D01*
X015477Y014893D01*
X015277Y014893D01*
X012127Y011743D01*
X011777Y011693D02*
X015177Y015093D01*
X015377Y015093D01*
X015577Y015293D01*
X016277Y015293D01*
X016627Y015643D01*
X016627Y016043D01*
X017627Y017043D01*
X017627Y021993D01*
X017927Y022293D01*
X018277Y022293D01*
X018577Y022593D01*
X018577Y023293D01*
X018827Y024043D02*
X017227Y024043D01*
X016877Y023693D01*
X007827Y023693D01*
X008027Y023493D02*
X007777Y023243D01*
X008027Y023493D02*
X016977Y023493D01*
X017327Y023843D01*
X019227Y023843D01*
X019527Y024143D01*
X019777Y024393D01*
X020877Y024393D01*
X021427Y024943D01*
X021049Y024937D02*
X019856Y024937D01*
X019897Y024839D02*
X020969Y024839D01*
X020871Y024740D02*
X019905Y024740D01*
X019769Y025036D02*
X021056Y025036D01*
X021097Y025134D02*
X013545Y025134D01*
X013545Y025117D02*
X013545Y025117D01*
X013534Y025036D02*
X019285Y025036D01*
X019198Y024937D02*
X013520Y024937D01*
X013497Y024839D02*
X019157Y024839D01*
X019149Y024740D02*
X013469Y024740D01*
X013432Y024642D02*
X019072Y024642D01*
X018974Y024543D02*
X013390Y024543D01*
X013336Y024445D02*
X018875Y024445D01*
X018776Y024346D02*
X013276Y024346D01*
X013263Y024325D02*
X013263Y024325D01*
X013200Y024247D02*
X017078Y024247D01*
X016979Y024149D02*
X013117Y024149D01*
X013129Y024160D02*
X013129Y024160D01*
X013012Y024050D02*
X016881Y024050D01*
X016782Y023952D02*
X012885Y023952D01*
X013545Y025233D02*
X021182Y025233D01*
X021672Y025233D02*
X022042Y025233D01*
X021944Y025331D02*
X013545Y025331D01*
X013545Y025430D02*
X020456Y025430D01*
X020357Y025529D02*
X013545Y025529D01*
X013545Y025627D02*
X020316Y025627D01*
X020299Y025726D02*
X013545Y025726D01*
X013545Y025824D02*
X020301Y025824D01*
X020342Y025923D02*
X013545Y025923D01*
X013545Y026021D02*
X020420Y026021D01*
X020598Y026120D02*
X013545Y026120D01*
X013545Y026218D02*
X022387Y026218D01*
X022288Y026120D02*
X020756Y026120D01*
X021757Y025134D02*
X022141Y025134D01*
X022239Y025036D02*
X021798Y025036D01*
X021805Y024937D02*
X022338Y024937D01*
X022437Y024839D02*
X021793Y024839D01*
X021752Y024740D02*
X022535Y024740D01*
X022368Y024642D02*
X021660Y024642D01*
X023065Y026021D02*
X025978Y026021D01*
X025978Y025923D02*
X023163Y025923D01*
X023262Y025824D02*
X025978Y025824D01*
X025978Y025726D02*
X023360Y025726D01*
X023459Y025627D02*
X025978Y025627D01*
X025978Y025529D02*
X024823Y025529D01*
X024922Y025430D02*
X025978Y025430D01*
X025978Y025331D02*
X024967Y025331D01*
X024993Y025233D02*
X025978Y025233D01*
X025978Y025134D02*
X024993Y025134D01*
X024964Y025036D02*
X025978Y025036D01*
X025978Y024937D02*
X024915Y024937D01*
X024952Y024839D02*
X025978Y024839D01*
X025978Y024740D02*
X025043Y024740D01*
X025043Y024642D02*
X025978Y024642D01*
X025978Y024543D02*
X025043Y024543D01*
X025043Y024445D02*
X025978Y024445D01*
X025978Y024346D02*
X025043Y024346D01*
X025043Y024247D02*
X025978Y024247D01*
X025978Y024149D02*
X025043Y024149D01*
X025042Y024050D02*
X025978Y024050D01*
X025978Y023952D02*
X024944Y023952D01*
X024210Y023952D02*
X023677Y023952D01*
X023677Y024050D02*
X023904Y024050D01*
X023806Y024149D02*
X023677Y024149D01*
X023677Y024247D02*
X023707Y024247D01*
X023677Y023853D02*
X025978Y023853D01*
X025978Y023755D02*
X023634Y023755D01*
X023616Y023656D02*
X025978Y023656D01*
X025978Y023558D02*
X023770Y023558D01*
X023858Y023459D02*
X025978Y023459D01*
X025978Y023361D02*
X023899Y023361D01*
X023927Y023262D02*
X025978Y023262D01*
X025978Y023163D02*
X023927Y023163D01*
X023915Y023065D02*
X025978Y023065D01*
X025978Y022966D02*
X023874Y022966D01*
X023809Y022868D02*
X025978Y022868D01*
X025978Y022769D02*
X023710Y022769D01*
X023860Y022572D02*
X025978Y022572D01*
X025978Y022474D02*
X023877Y022474D01*
X023877Y022375D02*
X025978Y022375D01*
X025978Y022277D02*
X023877Y022277D01*
X023462Y022277D02*
X023392Y022277D01*
X023392Y022375D02*
X023462Y022375D01*
X023462Y022474D02*
X023392Y022474D01*
X023392Y022572D02*
X023462Y022572D01*
X023177Y022671D02*
X025978Y022671D01*
X024239Y024937D02*
X024149Y024937D01*
X024190Y025036D02*
X024050Y025036D01*
X023951Y025134D02*
X024161Y025134D01*
X024161Y025233D02*
X023853Y025233D01*
X023754Y025331D02*
X024187Y025331D01*
X024232Y025430D02*
X023656Y025430D01*
X023557Y025529D02*
X024331Y025529D01*
X024538Y025529D02*
X024616Y025529D01*
X024616Y025430D02*
X024538Y025430D01*
X024538Y025331D02*
X024616Y025331D01*
X024616Y025233D02*
X024538Y025233D01*
X025978Y026120D02*
X022966Y026120D01*
X022867Y026218D02*
X025978Y026218D01*
X019727Y023643D02*
X017427Y023643D01*
X017077Y023293D01*
X008827Y023293D01*
X007777Y022243D01*
X007427Y021893D02*
X007017Y021893D01*
X007777Y021243D02*
X008827Y022293D01*
X011577Y022293D01*
X011927Y022643D01*
X012377Y022093D02*
X008927Y022093D01*
X008027Y021193D01*
X008027Y020893D01*
X008177Y020243D02*
X007727Y020243D01*
X008027Y019893D02*
X008327Y019593D01*
X010477Y019593D01*
X012977Y022093D01*
X013677Y022093D01*
X013877Y022293D01*
X014577Y022293D01*
X014927Y022643D01*
X014977Y022093D02*
X015677Y022093D01*
X015877Y022293D01*
X014977Y022093D02*
X014777Y021893D01*
X014077Y021893D01*
X013877Y021693D01*
X013177Y021693D01*
X010677Y019193D01*
X010377Y019793D02*
X012877Y022293D01*
X013577Y022293D01*
X013927Y022643D01*
X012927Y022643D02*
X012377Y022093D01*
X010927Y022643D02*
X010777Y022493D01*
X008527Y022493D01*
X008377Y022343D01*
X008177Y020243D02*
X008627Y019793D01*
X010377Y019793D01*
X011643Y018630D02*
X017177Y018630D01*
X017177Y018532D02*
X011742Y018532D01*
X012327Y017993D02*
X012777Y017543D01*
X012777Y017343D01*
X012977Y017343D01*
X013329Y017645D02*
X017177Y017645D01*
X017177Y017546D02*
X013427Y017546D01*
X013526Y017448D02*
X017177Y017448D01*
X017177Y017349D02*
X013624Y017349D01*
X013723Y017251D02*
X017177Y017251D01*
X017083Y017152D02*
X013821Y017152D01*
X013920Y017054D02*
X016984Y017054D01*
X016886Y016955D02*
X014018Y016955D01*
X014117Y016857D02*
X016787Y016857D01*
X016689Y016758D02*
X014216Y016758D01*
X014314Y016660D02*
X016590Y016660D01*
X016491Y016561D02*
X014413Y016561D01*
X014511Y016463D02*
X015693Y016463D01*
X015594Y016364D02*
X014610Y016364D01*
X014708Y016265D02*
X014832Y016265D01*
X014577Y016043D02*
X014577Y015093D01*
X012727Y013243D01*
X012477Y013243D01*
X012677Y013570D02*
X012677Y013747D01*
X012677Y015247D01*
X012531Y015393D01*
X012479Y015445D01*
X012526Y015493D01*
X012577Y015615D01*
X012628Y015493D01*
X012777Y015344D01*
X012972Y015263D01*
X013183Y015263D01*
X013377Y015344D01*
X013526Y015493D01*
X013577Y015615D01*
X013628Y015493D01*
X013777Y015344D01*
X013972Y015263D01*
X014183Y015263D01*
X014327Y015323D01*
X014327Y015197D01*
X012693Y013562D01*
X012691Y013564D01*
X012677Y013570D01*
X012677Y013605D02*
X012735Y013605D01*
X012677Y013703D02*
X012834Y013703D01*
X012932Y013802D02*
X012677Y013802D01*
X012677Y013900D02*
X013031Y013900D01*
X013129Y013999D02*
X012677Y013999D01*
X012677Y014097D02*
X013228Y014097D01*
X013425Y014295D02*
X012677Y014295D01*
X012677Y014393D02*
X013524Y014393D01*
X013622Y014492D02*
X012677Y014492D01*
X012677Y014590D02*
X013721Y014590D01*
X013819Y014689D02*
X012677Y014689D01*
X012677Y014787D02*
X013918Y014787D01*
X014016Y014886D02*
X012677Y014886D01*
X012677Y014984D02*
X014115Y014984D01*
X014213Y015083D02*
X012677Y015083D01*
X012677Y015181D02*
X014312Y015181D01*
X014327Y015280D02*
X014223Y015280D01*
X013931Y015280D02*
X013223Y015280D01*
X013412Y015379D02*
X013742Y015379D01*
X013644Y015477D02*
X013511Y015477D01*
X013561Y015576D02*
X013593Y015576D01*
X013077Y016043D02*
X013077Y016093D01*
X011377Y017793D01*
X008427Y017793D01*
X008177Y017543D01*
X007727Y017543D01*
X008027Y017893D02*
X008127Y017993D01*
X012327Y017993D01*
X012322Y017645D02*
X011879Y017645D01*
X011977Y017546D02*
X012420Y017546D01*
X012411Y017448D02*
X012076Y017448D01*
X012174Y017349D02*
X012399Y017349D01*
X012406Y017251D02*
X012273Y017251D01*
X012371Y017152D02*
X012447Y017152D01*
X012470Y017054D02*
X012532Y017054D01*
X012077Y016793D02*
X012077Y016043D01*
X012561Y015576D02*
X012594Y015576D01*
X012644Y015477D02*
X012511Y015477D01*
X012545Y015379D02*
X012742Y015379D01*
X012644Y015280D02*
X012931Y015280D01*
X013537Y016068D02*
X013617Y016068D01*
X015077Y015293D02*
X012677Y012893D01*
X012177Y012893D01*
X011740Y013309D02*
X010505Y013309D01*
X010505Y013318D02*
X010495Y013343D01*
X011774Y013343D01*
X011674Y013243D01*
X011527Y013097D01*
X011527Y012297D01*
X011127Y011897D01*
X011127Y011690D01*
X011127Y009697D01*
X010927Y009497D01*
X010927Y010547D01*
X010781Y010693D01*
X009977Y011497D01*
X009977Y012896D01*
X010052Y012865D01*
X010202Y012865D01*
X010341Y012923D01*
X010448Y013029D01*
X010505Y013168D01*
X010505Y013318D01*
X010505Y013211D02*
X011641Y013211D01*
X011542Y013112D02*
X010482Y013112D01*
X010432Y013014D02*
X011527Y013014D01*
X011527Y012915D02*
X010323Y012915D01*
X009977Y012816D02*
X011527Y012816D01*
X011527Y012718D02*
X009977Y012718D01*
X009977Y012619D02*
X011527Y012619D01*
X011527Y012521D02*
X009977Y012521D01*
X009977Y012422D02*
X011527Y012422D01*
X011527Y012324D02*
X009977Y012324D01*
X009977Y012225D02*
X011456Y012225D01*
X011357Y012127D02*
X009977Y012127D01*
X009977Y012028D02*
X011259Y012028D01*
X011160Y011930D02*
X009977Y011930D01*
X009977Y011831D02*
X011127Y011831D01*
X011127Y011732D02*
X009977Y011732D01*
X009977Y011634D02*
X011127Y011634D01*
X011127Y011535D02*
X009977Y011535D01*
X010037Y011437D02*
X011127Y011437D01*
X011127Y011338D02*
X010135Y011338D01*
X010234Y011240D02*
X011127Y011240D01*
X011127Y011141D02*
X010333Y011141D01*
X010431Y011043D02*
X011127Y011043D01*
X011127Y010944D02*
X010530Y010944D01*
X010628Y010846D02*
X011127Y010846D01*
X011127Y010747D02*
X010727Y010747D01*
X010825Y010648D02*
X011127Y010648D01*
X011127Y010550D02*
X010924Y010550D01*
X010927Y010451D02*
X011127Y010451D01*
X011127Y010353D02*
X010927Y010353D01*
X010927Y010254D02*
X011127Y010254D01*
X011127Y010156D02*
X010927Y010156D01*
X010927Y010057D02*
X011127Y010057D01*
X011127Y009959D02*
X010927Y009959D01*
X010927Y009860D02*
X011127Y009860D01*
X011127Y009762D02*
X010927Y009762D01*
X010927Y009663D02*
X011094Y009663D01*
X010995Y009564D02*
X010927Y009564D01*
X010677Y009343D02*
X009877Y008543D01*
X008827Y008543D01*
X008177Y007893D01*
X007677Y007893D01*
X007943Y007594D02*
X008283Y007594D01*
X008281Y007643D02*
X008931Y008293D01*
X009145Y008293D01*
X009091Y008239D01*
X009039Y008115D01*
X009039Y008043D01*
X008732Y008043D01*
X008527Y007838D01*
X007931Y007242D01*
X007892Y007226D01*
X007892Y007280D01*
X007804Y007368D01*
X007067Y007368D01*
X007067Y006943D01*
X007699Y006943D01*
X007699Y006843D01*
X007067Y006843D01*
X007067Y006418D01*
X007804Y006418D01*
X007892Y006506D01*
X007892Y006561D01*
X007931Y006544D01*
X007932Y006543D01*
X007934Y006543D01*
X008002Y006515D01*
X008152Y006515D01*
X008220Y006543D01*
X008222Y006543D01*
X008223Y006544D01*
X008291Y006573D01*
X008398Y006679D01*
X008426Y006747D01*
X009022Y007343D01*
X009039Y007343D01*
X009039Y007272D01*
X009091Y007147D01*
X009186Y007052D01*
X009310Y007001D01*
X009444Y007001D01*
X009568Y007052D01*
X009663Y007147D01*
X009715Y007272D01*
X009715Y007343D01*
X009932Y007343D01*
X010222Y007343D01*
X013022Y010143D01*
X013227Y010348D01*
X013227Y011378D01*
X013311Y011293D01*
X014427Y011293D01*
X014427Y010209D01*
X014027Y009809D01*
X014027Y009477D01*
X014027Y007327D01*
X014261Y007093D01*
X014577Y007093D01*
X014577Y006190D01*
X014724Y006043D01*
X015427Y005340D01*
X015427Y004493D01*
X013545Y004493D01*
X013545Y005654D01*
X013545Y005657D01*
X013516Y005867D01*
X013458Y006072D01*
X013374Y006267D01*
X013263Y006449D01*
X013129Y006614D01*
X012973Y006759D01*
X012800Y006882D01*
X012611Y006980D01*
X012410Y007051D01*
X012202Y007094D01*
X011990Y007109D01*
X011990Y007109D01*
X011777Y007094D01*
X011569Y007051D01*
X011369Y006980D01*
X011369Y006980D01*
X011180Y006882D01*
X011180Y006882D01*
X011006Y006759D01*
X010850Y006614D01*
X010716Y006449D01*
X010606Y006267D01*
X010521Y006072D01*
X010464Y005867D01*
X010435Y005657D01*
X010435Y005657D01*
X010435Y005550D01*
X010435Y005447D01*
X010435Y004493D01*
X007377Y004493D01*
X007377Y004793D01*
X006927Y004793D01*
X006927Y004893D01*
X007377Y004893D01*
X007377Y005255D01*
X007289Y005343D01*
X006927Y005343D01*
X006927Y004893D01*
X006827Y004893D01*
X006827Y004793D01*
X006377Y004793D01*
X006377Y004493D01*
X006277Y004493D01*
X006277Y006418D01*
X006967Y006418D01*
X006967Y006843D01*
X007067Y006843D01*
X007067Y006943D01*
X006967Y006943D01*
X006967Y007368D01*
X006277Y007368D01*
X006277Y007368D01*
X007825Y007368D01*
X007942Y007485D01*
X007942Y007592D01*
X007993Y007643D01*
X008074Y007643D01*
X008281Y007643D01*
X008330Y007692D02*
X008381Y007692D01*
X008428Y007791D02*
X008480Y007791D01*
X008527Y007889D02*
X008578Y007889D01*
X008625Y007988D02*
X008677Y007988D01*
X008724Y008086D02*
X009039Y008086D01*
X009068Y008185D02*
X008822Y008185D01*
X008921Y008283D02*
X009135Y008283D01*
X008977Y008343D02*
X010077Y008343D01*
X010069Y008382D02*
X010271Y008382D01*
X010362Y008473D02*
X009932Y008043D01*
X009715Y008043D01*
X009715Y008115D01*
X009663Y008239D01*
X009609Y008293D01*
X009774Y008293D01*
X009981Y008293D01*
X010261Y008574D01*
X010362Y008473D01*
X010355Y008481D02*
X010168Y008481D01*
X010172Y008283D02*
X009619Y008283D01*
X009686Y008185D02*
X010074Y008185D01*
X009975Y008086D02*
X009715Y008086D01*
X009777Y008743D02*
X010477Y009443D01*
X010477Y010343D01*
X009527Y011293D01*
X009527Y012793D01*
X009127Y013193D01*
X007527Y013193D01*
X007377Y013043D01*
X007427Y013393D02*
X009227Y013393D01*
X009727Y012893D01*
X009727Y011393D01*
X010677Y010443D01*
X010677Y009343D01*
X010577Y008793D02*
X011377Y009593D01*
X011951Y009072D02*
X014027Y009072D01*
X014027Y009170D02*
X012049Y009170D01*
X012148Y009269D02*
X014027Y009269D01*
X014027Y009367D02*
X012246Y009367D01*
X012345Y009466D02*
X014027Y009466D01*
X014027Y009564D02*
X012443Y009564D01*
X012542Y009663D02*
X014027Y009663D01*
X014027Y009762D02*
X012640Y009762D01*
X012739Y009860D02*
X014078Y009860D01*
X014177Y009959D02*
X012838Y009959D01*
X012936Y010057D02*
X014276Y010057D01*
X014374Y010156D02*
X013035Y010156D01*
X013133Y010254D02*
X014427Y010254D01*
X014427Y010353D02*
X013227Y010353D01*
X013227Y010451D02*
X014427Y010451D01*
X014427Y010550D02*
X013227Y010550D01*
X013227Y010648D02*
X014427Y010648D01*
X014427Y010747D02*
X013227Y010747D01*
X013227Y010846D02*
X014427Y010846D01*
X014427Y010944D02*
X013227Y010944D01*
X013227Y011043D02*
X014427Y011043D01*
X014427Y011141D02*
X013227Y011141D01*
X013227Y011240D02*
X014427Y011240D01*
X015227Y011240D02*
X019370Y011240D01*
X019469Y011338D02*
X015227Y011338D01*
X015227Y011437D02*
X019567Y011437D01*
X019666Y011535D02*
X015235Y011535D01*
X015333Y011634D02*
X019764Y011634D01*
X019863Y011732D02*
X015432Y011732D01*
X015531Y011831D02*
X019961Y011831D01*
X020060Y011930D02*
X015629Y011930D01*
X015089Y012521D02*
X014150Y012521D01*
X014248Y012619D02*
X015188Y012619D01*
X015286Y012718D02*
X014347Y012718D01*
X014445Y012816D02*
X018099Y012816D01*
X018192Y012915D02*
X014544Y012915D01*
X014642Y013014D02*
X018356Y013014D01*
X018492Y013093D02*
X018492Y013508D01*
X018077Y013508D01*
X018077Y013181D01*
X018165Y013093D01*
X018492Y013093D01*
X018492Y013112D02*
X018562Y013112D01*
X018562Y013211D02*
X018492Y013211D01*
X018492Y013309D02*
X018562Y013309D01*
X018562Y013408D02*
X018492Y013408D01*
X018492Y013506D02*
X018562Y013506D01*
X018562Y013605D02*
X018492Y013605D01*
X018492Y013578D02*
X018492Y013993D01*
X018165Y013993D01*
X018077Y013905D01*
X018077Y013578D01*
X018492Y013578D01*
X018492Y013703D02*
X018562Y013703D01*
X018562Y013802D02*
X018492Y013802D01*
X018492Y013900D02*
X018562Y013900D01*
X018827Y013999D02*
X017834Y013999D01*
X017966Y014097D02*
X018827Y014097D01*
X018827Y014196D02*
X018025Y014196D01*
X018055Y014295D02*
X018827Y014295D01*
X018077Y013900D02*
X017388Y013900D01*
X017453Y013802D02*
X018077Y013802D01*
X018077Y013703D02*
X017520Y013703D01*
X017555Y013605D02*
X018077Y013605D01*
X018077Y013506D02*
X017555Y013506D01*
X017530Y013408D02*
X018077Y013408D01*
X018077Y013309D02*
X017478Y013309D01*
X017362Y013211D02*
X018077Y013211D01*
X018146Y013112D02*
X014741Y013112D01*
X014991Y012422D02*
X014051Y012422D01*
X013953Y012324D02*
X014892Y012324D01*
X014794Y012225D02*
X013854Y012225D01*
X013755Y012127D02*
X014695Y012127D01*
X015227Y011141D02*
X019272Y011141D01*
X018578Y012028D02*
X025978Y012028D01*
X025978Y012127D02*
X018818Y012127D01*
X019404Y012225D02*
X025978Y012225D01*
X025978Y012324D02*
X019503Y012324D01*
X019601Y012422D02*
X025978Y012422D01*
X025978Y012521D02*
X019700Y012521D01*
X019798Y012619D02*
X025978Y012619D01*
X025978Y012718D02*
X019897Y012718D01*
X019995Y012816D02*
X025978Y012816D01*
X025978Y012915D02*
X020094Y012915D01*
X018699Y013014D02*
X018698Y013014D01*
X017520Y013999D02*
X017486Y013999D01*
X017477Y014343D02*
X016927Y013793D01*
X017477Y014343D02*
X017677Y014343D01*
X017577Y015593D02*
X017577Y016693D01*
X017827Y016943D01*
X017827Y021893D01*
X018027Y022093D01*
X018377Y022093D01*
X018177Y021743D02*
X018027Y021593D01*
X017427Y022093D02*
X017577Y022243D01*
X017577Y023293D01*
X018827Y024043D02*
X019527Y024743D01*
X019872Y022021D02*
X019872Y022021D01*
X019794Y021981D02*
X019618Y021981D01*
X019643Y021882D02*
X019520Y021882D01*
X019772Y021969D02*
X019772Y021969D01*
X019365Y021589D02*
X019365Y021589D01*
X019257Y021392D02*
X019257Y021392D01*
X017427Y022093D02*
X017427Y017143D01*
X016577Y016293D01*
X015877Y016293D01*
X015577Y015993D01*
X015577Y015593D01*
X015277Y015293D01*
X015077Y015293D01*
X015322Y016265D02*
X015496Y016265D01*
X017177Y017744D02*
X013230Y017744D01*
X013132Y017842D02*
X017177Y017842D01*
X017177Y017941D02*
X013033Y017941D01*
X012934Y018039D02*
X017177Y018039D01*
X017177Y018138D02*
X012836Y018138D01*
X012737Y018236D02*
X017177Y018236D01*
X017177Y018335D02*
X012639Y018335D01*
X012540Y018433D02*
X017177Y018433D01*
X018477Y018433D02*
X019777Y018433D01*
X019777Y018532D02*
X018477Y018532D01*
X018477Y018630D02*
X019777Y018630D01*
X019777Y018729D02*
X018477Y018729D01*
X018477Y018828D02*
X019777Y018828D01*
X019794Y018926D02*
X018477Y018926D01*
X018477Y018335D02*
X019820Y018335D01*
X019918Y018236D02*
X018477Y018236D01*
X021322Y016265D02*
X021327Y016265D01*
X021892Y015181D02*
X024121Y015181D01*
X023955Y015083D02*
X022058Y015083D01*
X022151Y014984D02*
X023862Y014984D01*
X023821Y014886D02*
X022192Y014886D01*
X022222Y014787D02*
X023791Y014787D01*
X023791Y014689D02*
X022222Y014689D01*
X022222Y014590D02*
X023791Y014590D01*
X023791Y014492D02*
X022222Y014492D01*
X022222Y014393D02*
X023791Y014393D01*
X023791Y014295D02*
X022222Y014295D01*
X022222Y014196D02*
X023801Y014196D01*
X023821Y014097D02*
X022222Y014097D01*
X022222Y013999D02*
X023791Y013999D01*
X023791Y013900D02*
X022222Y013900D01*
X022222Y013802D02*
X023791Y013802D01*
X023791Y013703D02*
X022222Y013703D01*
X022222Y013605D02*
X023791Y013605D01*
X023791Y013506D02*
X022222Y013506D01*
X022211Y013408D02*
X023802Y013408D01*
X023843Y013309D02*
X022171Y013309D01*
X022106Y013211D02*
X023908Y013211D01*
X024007Y013112D02*
X022006Y013112D01*
X022943Y016364D02*
X023109Y016364D01*
X016623Y011043D02*
X015227Y011043D01*
X015227Y010944D02*
X016525Y010944D01*
X016426Y010846D02*
X015227Y010846D01*
X015227Y010747D02*
X016327Y010747D01*
X016229Y010648D02*
X015227Y010648D01*
X015227Y010550D02*
X016130Y010550D01*
X016032Y010451D02*
X015227Y010451D01*
X015227Y010353D02*
X015933Y010353D01*
X015835Y010254D02*
X015227Y010254D01*
X015227Y010156D02*
X015736Y010156D01*
X015638Y010057D02*
X015227Y010057D01*
X015227Y009959D02*
X015539Y009959D01*
X015441Y009860D02*
X015210Y009860D01*
X015111Y009762D02*
X015342Y009762D01*
X015243Y009663D02*
X015013Y009663D01*
X014027Y008973D02*
X011852Y008973D01*
X011754Y008875D02*
X014027Y008875D01*
X014027Y008776D02*
X011655Y008776D01*
X011556Y008678D02*
X014027Y008678D01*
X014027Y008579D02*
X011458Y008579D01*
X011359Y008481D02*
X014027Y008481D01*
X014027Y008382D02*
X011261Y008382D01*
X011162Y008283D02*
X014027Y008283D01*
X014027Y008185D02*
X011064Y008185D01*
X010965Y008086D02*
X014027Y008086D01*
X014027Y007988D02*
X010867Y007988D01*
X010768Y007889D02*
X014027Y007889D01*
X014027Y007791D02*
X010670Y007791D01*
X010571Y007692D02*
X014027Y007692D01*
X014027Y007594D02*
X010472Y007594D01*
X010374Y007495D02*
X014027Y007495D01*
X014027Y007397D02*
X010275Y007397D01*
X009715Y007298D02*
X014057Y007298D01*
X014155Y007199D02*
X009685Y007199D01*
X009617Y007101D02*
X011872Y007101D01*
X011777Y007094D02*
X011777Y007094D01*
X011569Y007051D02*
X011569Y007051D01*
X011432Y007002D02*
X009447Y007002D01*
X009307Y007002D02*
X008681Y007002D01*
X008583Y006904D02*
X011222Y006904D01*
X011071Y006805D02*
X008484Y006805D01*
X008409Y006707D02*
X010950Y006707D01*
X011006Y006759D02*
X011006Y006759D01*
X010850Y006614D02*
X010850Y006614D01*
X010846Y006608D02*
X008327Y006608D01*
X007892Y006510D02*
X010766Y006510D01*
X010716Y006449D02*
X010716Y006449D01*
X010693Y006411D02*
X006277Y006411D01*
X006277Y006313D02*
X010633Y006313D01*
X010606Y006267D02*
X010606Y006267D01*
X010583Y006214D02*
X006277Y006214D01*
X006277Y006115D02*
X010540Y006115D01*
X010521Y006072D02*
X010521Y006072D01*
X010505Y006017D02*
X006277Y006017D01*
X006277Y005918D02*
X010478Y005918D01*
X010464Y005867D02*
X010464Y005867D01*
X010457Y005820D02*
X006277Y005820D01*
X006277Y005721D02*
X010443Y005721D01*
X010435Y005623D02*
X006277Y005623D01*
X006277Y005524D02*
X010435Y005524D01*
X010435Y005426D02*
X006277Y005426D01*
X006277Y005327D02*
X006449Y005327D01*
X006465Y005343D02*
X006377Y005255D01*
X006377Y004893D01*
X006827Y004893D01*
X006827Y005343D01*
X006465Y005343D01*
X006377Y005229D02*
X006277Y005229D01*
X006277Y005130D02*
X006377Y005130D01*
X006377Y005031D02*
X006277Y005031D01*
X006277Y004933D02*
X006377Y004933D01*
X006277Y004834D02*
X006827Y004834D01*
X006827Y004933D02*
X006927Y004933D01*
X006927Y005031D02*
X006827Y005031D01*
X006827Y005130D02*
X006927Y005130D01*
X006927Y005229D02*
X006827Y005229D01*
X006827Y005327D02*
X006927Y005327D01*
X007305Y005327D02*
X010435Y005327D01*
X010435Y005229D02*
X007377Y005229D01*
X007377Y005130D02*
X010435Y005130D01*
X010435Y005031D02*
X007377Y005031D01*
X007377Y004933D02*
X010435Y004933D01*
X010435Y004834D02*
X006927Y004834D01*
X007377Y004736D02*
X010435Y004736D01*
X010435Y004637D02*
X007377Y004637D01*
X007377Y004539D02*
X010435Y004539D01*
X012908Y006805D02*
X014577Y006805D01*
X014577Y006707D02*
X013030Y006707D01*
X013129Y006614D02*
X013129Y006614D01*
X013134Y006608D02*
X014577Y006608D01*
X014577Y006510D02*
X013214Y006510D01*
X013286Y006411D02*
X014577Y006411D01*
X014577Y006313D02*
X013346Y006313D01*
X013397Y006214D02*
X014577Y006214D01*
X014651Y006115D02*
X013440Y006115D01*
X013474Y006017D02*
X014750Y006017D01*
X014848Y005918D02*
X013501Y005918D01*
X013522Y005820D02*
X014947Y005820D01*
X015045Y005721D02*
X013536Y005721D01*
X013545Y005657D02*
X013545Y005657D01*
X013545Y005623D02*
X015144Y005623D01*
X015242Y005524D02*
X013545Y005524D01*
X013545Y005426D02*
X015341Y005426D01*
X015427Y005327D02*
X013545Y005327D01*
X013545Y005229D02*
X015427Y005229D01*
X015427Y005130D02*
X013545Y005130D01*
X013545Y005031D02*
X015427Y005031D01*
X015427Y004933D02*
X013545Y004933D01*
X013545Y004834D02*
X015427Y004834D01*
X015427Y004736D02*
X013545Y004736D01*
X013545Y004637D02*
X015427Y004637D01*
X015427Y004539D02*
X013545Y004539D01*
X012757Y006904D02*
X014577Y006904D01*
X014577Y007002D02*
X012547Y007002D01*
X012611Y006980D02*
X012611Y006980D01*
X012410Y007051D02*
X012410Y007051D01*
X012202Y007094D02*
X012202Y007094D01*
X012107Y007101D02*
X014254Y007101D01*
X009777Y008743D02*
X008727Y008743D01*
X008227Y008243D01*
X008027Y008243D01*
X008027Y008893D02*
X008127Y008993D01*
X008127Y010043D01*
X008327Y010243D01*
X008327Y010593D01*
X009027Y011293D01*
X009027Y011793D01*
X009327Y012093D01*
X009327Y012493D01*
X008977Y012843D01*
X008977Y012243D02*
X008827Y012093D01*
X008827Y011393D01*
X008127Y010693D01*
X008127Y010343D01*
X007927Y010143D01*
X007927Y009393D01*
X007877Y009343D01*
X007377Y009893D02*
X007927Y010443D01*
X007927Y010793D01*
X008627Y011493D01*
X008627Y011793D01*
X007877Y012543D01*
X007532Y012698D02*
X007499Y012618D01*
X007499Y012468D01*
X007557Y012329D01*
X007663Y012223D01*
X007802Y012165D01*
X007902Y012165D01*
X008091Y011975D01*
X008063Y011964D01*
X008042Y011943D01*
X007662Y011943D01*
X007641Y011964D01*
X007502Y012021D01*
X007352Y012021D01*
X007213Y011964D01*
X007107Y011857D01*
X007049Y011718D01*
X007049Y011568D01*
X007107Y011429D01*
X007117Y011418D01*
X006277Y011418D01*
X006277Y014418D01*
X006886Y014418D01*
X006877Y014409D01*
X006877Y014077D01*
X007033Y013922D01*
X007013Y013914D01*
X006907Y013807D01*
X006849Y013668D01*
X006849Y013518D01*
X006907Y013379D01*
X007013Y013273D01*
X007056Y013255D01*
X006999Y013118D01*
X006999Y012968D01*
X007057Y012829D01*
X007163Y012723D01*
X007302Y012665D01*
X007452Y012665D01*
X007532Y012698D01*
X007499Y012619D02*
X006277Y012619D01*
X006277Y012521D02*
X007499Y012521D01*
X007518Y012422D02*
X006277Y012422D01*
X006277Y012324D02*
X007562Y012324D01*
X007660Y012225D02*
X006277Y012225D01*
X006277Y012127D02*
X007940Y012127D01*
X008039Y012028D02*
X006277Y012028D01*
X006277Y011930D02*
X007179Y011930D01*
X007096Y011831D02*
X006277Y011831D01*
X006277Y011732D02*
X007055Y011732D01*
X007049Y011634D02*
X006277Y011634D01*
X006277Y011535D02*
X007062Y011535D01*
X007103Y011437D02*
X006277Y011437D01*
X007017Y010893D02*
X007427Y010893D01*
X007377Y009893D02*
X007017Y009893D01*
X008977Y008343D02*
X008227Y007593D01*
X008177Y007593D01*
X008184Y007495D02*
X007942Y007495D01*
X007853Y007397D02*
X008086Y007397D01*
X007987Y007298D02*
X007874Y007298D01*
X007699Y006904D02*
X007067Y006904D01*
X007067Y007002D02*
X006967Y007002D01*
X006967Y007101D02*
X007067Y007101D01*
X007067Y007199D02*
X006967Y007199D01*
X006967Y007298D02*
X007067Y007298D01*
X007067Y006805D02*
X006967Y006805D01*
X006967Y006707D02*
X007067Y006707D01*
X007067Y006608D02*
X006967Y006608D01*
X006967Y006510D02*
X007067Y006510D01*
X008780Y007101D02*
X009137Y007101D01*
X009069Y007199D02*
X008878Y007199D01*
X008977Y007298D02*
X009039Y007298D01*
X006377Y004736D02*
X006277Y004736D01*
X006277Y004637D02*
X006377Y004637D01*
X006377Y004539D02*
X006277Y004539D01*
X013227Y011338D02*
X013266Y011338D01*
X009011Y014343D02*
X007863Y015492D01*
X007789Y015418D01*
X007067Y015418D01*
X007067Y015843D01*
X006967Y015843D01*
X006967Y015418D01*
X006277Y015418D01*
X006277Y015368D01*
X006967Y015368D01*
X006967Y014943D01*
X006277Y014943D01*
X006277Y014843D01*
X006967Y014843D01*
X006967Y014943D01*
X007067Y014943D01*
X007067Y015368D01*
X007789Y015368D01*
X007877Y015280D01*
X007976Y015379D02*
X006277Y015379D01*
X006277Y014886D02*
X006967Y014886D01*
X006967Y014984D02*
X007067Y014984D01*
X007067Y014886D02*
X008469Y014886D01*
X007877Y015477D02*
X007848Y015477D01*
X007067Y015477D02*
X006967Y015477D01*
X006967Y015576D02*
X007067Y015576D01*
X007067Y015674D02*
X006967Y015674D01*
X006967Y015773D02*
X007067Y015773D01*
X007067Y015943D02*
X006967Y015943D01*
X006967Y016368D01*
X006277Y016368D01*
X006277Y016368D01*
X007478Y016368D01*
X007067Y016368D01*
X007067Y015943D01*
X007067Y015970D02*
X006967Y015970D01*
X006967Y016068D02*
X007067Y016068D01*
X007067Y016167D02*
X006967Y016167D01*
X006967Y016265D02*
X007067Y016265D01*
X007067Y016364D02*
X006967Y016364D01*
X007478Y016368D02*
X007478Y016368D01*
X007727Y016543D02*
X008177Y016543D01*
X009027Y017393D01*
X010927Y017393D01*
X011077Y017243D01*
X011077Y016043D01*
X011627Y015477D02*
X011644Y015477D01*
X011627Y015379D02*
X011677Y015379D01*
X011627Y015280D02*
X011725Y015280D01*
X012077Y016793D02*
X011277Y017593D01*
X008727Y017593D01*
X008027Y016893D01*
X007377Y016893D02*
X007017Y016893D01*
X007017Y017893D02*
X007377Y017893D01*
X007377Y018893D02*
X007017Y018893D01*
X007017Y019893D02*
X007377Y019893D01*
X007067Y015280D02*
X006967Y015280D01*
X006967Y015181D02*
X007067Y015181D01*
X007067Y015083D02*
X006967Y015083D01*
X006877Y014393D02*
X006277Y014393D01*
X006277Y014295D02*
X006877Y014295D01*
X006877Y014196D02*
X006277Y014196D01*
X006277Y014097D02*
X006877Y014097D01*
X006956Y013999D02*
X006277Y013999D01*
X006277Y013900D02*
X007000Y013900D01*
X006904Y013802D02*
X006277Y013802D01*
X006277Y013703D02*
X006863Y013703D01*
X006849Y013605D02*
X006277Y013605D01*
X006277Y013506D02*
X006854Y013506D01*
X006895Y013408D02*
X006277Y013408D01*
X006277Y013309D02*
X006976Y013309D01*
X007037Y013211D02*
X006277Y013211D01*
X006277Y013112D02*
X006999Y013112D01*
X006999Y013014D02*
X006277Y013014D01*
X006277Y012915D02*
X007021Y012915D01*
X007069Y012816D02*
X006277Y012816D01*
X006277Y012718D02*
X007174Y012718D01*
X007427Y013393D02*
X007227Y013593D01*
D25*
X020177Y018843D03*
X020177Y019143D03*
D26*
X007017Y018893D03*
X007017Y017893D03*
X007017Y016893D03*
X007017Y015893D03*
X007017Y014893D03*
X007017Y019893D03*
X007017Y020893D03*
X007017Y021893D03*
X007017Y022893D03*
X007017Y023893D03*
D27*
X025267Y020633D03*
X025267Y018853D03*
D28*
X024287Y018363D03*
X024287Y021123D03*
D29*
X022977Y021493D03*
X021527Y019643D03*
X020177Y018543D03*
X019827Y017143D03*
X020527Y017143D03*
X021677Y017843D03*
X022127Y016493D03*
X022777Y015243D03*
X019677Y014143D03*
X018527Y014143D03*
X017677Y014343D03*
X017177Y013543D03*
X015727Y014193D03*
X014627Y012843D03*
X015527Y012393D03*
X017027Y011243D03*
X019077Y013043D03*
X022427Y012193D03*
X023577Y012193D03*
X025527Y017743D03*
X019227Y020143D03*
X018977Y020643D03*
X018177Y021743D03*
X016727Y021243D03*
X015727Y021243D03*
X016077Y020168D03*
X016077Y019193D03*
X016377Y016843D03*
X013177Y018443D03*
X012127Y017593D03*
X012777Y017343D03*
X011227Y018693D03*
X011777Y019293D03*
X012677Y020193D03*
X014527Y021243D03*
X017577Y023293D03*
X018577Y023293D03*
X019577Y023293D03*
X019527Y024143D03*
X019527Y024743D03*
X020577Y024743D03*
X021427Y024943D03*
X020677Y025743D03*
X021777Y026143D03*
X022627Y025893D03*
X022027Y023643D03*
X021327Y023643D03*
X015587Y025183D03*
X015309Y024511D03*
X014637Y024233D03*
X013965Y024511D03*
X013687Y025183D03*
X013965Y025855D03*
X014637Y026133D03*
X015309Y025855D03*
X008377Y022343D03*
X008027Y020893D03*
X008027Y019893D03*
X008027Y018893D03*
X008027Y017893D03*
X008027Y016893D03*
X008027Y015893D03*
X007277Y014243D03*
X007227Y013593D03*
X007377Y013043D03*
X007877Y012543D03*
X008277Y011643D03*
X008977Y012243D03*
X008977Y012843D03*
X010127Y013243D03*
X011227Y014743D03*
X012077Y014243D03*
X012027Y013743D03*
X012477Y013243D03*
X012177Y012893D03*
X011777Y011693D03*
X012427Y011293D03*
X013477Y011693D03*
X014327Y010293D03*
X012477Y009393D03*
X011777Y010093D03*
X010527Y011193D03*
X010577Y008793D03*
X008027Y008893D03*
X008027Y008243D03*
X008077Y006893D03*
X008655Y006265D03*
X008377Y005593D03*
X008655Y004921D03*
X009327Y004643D03*
X009999Y004921D03*
X010277Y005593D03*
X009999Y006265D03*
X009327Y006543D03*
X013677Y004643D03*
X014427Y007493D03*
X007427Y011643D03*
X006527Y012893D03*
X011077Y017243D03*
X013277Y014243D03*
D30*
X012077Y014243D02*
X008027Y014243D01*
X007377Y014893D01*
X007017Y014893D01*
X006527Y014893D01*
X006527Y012893D01*
X007777Y013743D02*
X007277Y014243D01*
X007017Y014893D02*
X007017Y015893D01*
X008027Y015893D02*
X009177Y014743D01*
X011227Y014743D01*
X012077Y015493D02*
X012077Y015793D01*
X012077Y016043D01*
X011077Y016043D02*
X011077Y015793D01*
X013077Y015793D02*
X013077Y016043D01*
X014077Y016043D02*
X014077Y015793D01*
X014777Y016843D02*
X016377Y016843D01*
X014777Y016843D02*
X013177Y018443D01*
X012927Y022643D02*
X013077Y022793D01*
X013927Y022643D02*
X014077Y022793D01*
X014927Y022643D02*
X015077Y022793D01*
X015927Y022643D02*
X016077Y022793D01*
X016927Y022643D02*
X017077Y022793D01*
X019227Y020143D02*
X019727Y019643D01*
X020177Y019643D01*
X021527Y019643D01*
X020177Y019643D02*
X020177Y019243D01*
X020177Y018743D02*
X020177Y018543D01*
X019927Y015943D02*
X020077Y015793D01*
X018527Y013543D02*
X018027Y013043D01*
X014827Y013043D01*
X014627Y012843D01*
X015527Y012393D02*
X018377Y012393D01*
X018527Y012543D01*
X015527Y012393D02*
X014827Y011693D01*
X013477Y011693D01*
X014827Y011693D02*
X014827Y010043D01*
X014427Y009643D01*
X014427Y007493D01*
X012477Y009393D02*
X009477Y006393D01*
X007827Y006393D01*
X007327Y006893D01*
X007017Y006893D01*
X007017Y007893D02*
X007677Y007893D01*
X012477Y009393D02*
X013377Y010293D01*
X014327Y010293D01*
X012027Y013743D02*
X007777Y013743D01*
X010927Y022643D02*
X011077Y022793D01*
X011927Y022643D02*
X012077Y022793D01*
X022627Y025893D02*
X024121Y024399D01*
X024577Y024399D01*
X025267Y020633D02*
X025127Y020493D01*
X024727Y020493D01*
X023645Y015875D02*
X023026Y015875D01*
X023645Y015875D02*
X024286Y015234D01*
X024286Y014123D01*
D31*
X020177Y018743D02*
X020177Y018843D01*
X020177Y019143D02*
X020177Y019243D01*
X024577Y025187D02*
X023471Y026293D01*
X021927Y026293D01*
X021777Y026143D01*
X007877Y019393D02*
X007377Y018893D01*
X007377Y017893D02*
X007727Y017543D01*
X007377Y016893D02*
X007727Y016543D01*
X007377Y019893D02*
X007727Y020243D01*
X007017Y020893D02*
X007217Y021093D01*
X007627Y021093D01*
X007777Y021243D01*
X007427Y021893D02*
X007777Y022243D01*
X007427Y022893D02*
X007017Y022893D01*
X007427Y022893D02*
X007777Y023243D01*
X007827Y023693D02*
X007217Y023693D01*
X007017Y023893D01*
X007427Y011643D02*
X008277Y011643D01*
X007427Y011643D02*
X007427Y010893D01*
X007877Y009343D02*
X007427Y008893D01*
X007017Y008893D01*
X008177Y007593D02*
X007477Y006893D01*
X007327Y006893D01*
D32*
X009327Y005593D03*
X014637Y025183D03*
D33*
X016077Y020168D02*
X016077Y019193D01*
X021077Y022793D02*
X022127Y021743D01*
X022127Y016493D01*
X021677Y015543D02*
X021677Y017843D01*
X021677Y015543D02*
X021127Y014993D01*
X021127Y014443D01*
X019227Y012543D01*
X018527Y012543D01*
X017177Y013543D02*
X017127Y013493D01*
X014627Y013493D01*
X012877Y011743D01*
X012877Y010493D01*
X010077Y007693D01*
X008877Y007693D01*
X008077Y006893D01*
X022827Y021643D02*
X022977Y021493D01*
X022827Y021643D02*
X022827Y023443D01*
X023327Y023943D01*
X023327Y024443D01*
X022077Y025693D01*
X020727Y025693D01*
X020677Y025743D01*
D34*
X021877Y010143D02*
X022227Y009793D01*
X024379Y009793D01*
X024379Y007793D02*
X016277Y007793D01*
X021877Y005443D02*
X022227Y005793D01*
X024379Y005793D01*
M02*
