G75*
G70*
%OFA0B0*%
%FSLAX24Y24*%
%IPPOS*%
%LPD*%
%AMOC8*
5,1,8,0,0,1.08239X$1,22.5*
%
%ADD10C,0.0100*%
%ADD11C,0.0000*%
D10*
X006027Y004243D02*
X006027Y026531D01*
X010685Y026531D01*
X010685Y025223D01*
X010687Y025151D01*
X010693Y025079D01*
X010703Y025008D01*
X010717Y024938D01*
X010734Y024868D01*
X010756Y024799D01*
X010781Y024732D01*
X010810Y024666D01*
X010842Y024602D01*
X010878Y024540D01*
X010918Y024479D01*
X010960Y024421D01*
X011006Y024366D01*
X011055Y024313D01*
X011106Y024263D01*
X011160Y024216D01*
X011217Y024171D01*
X011276Y024130D01*
X011337Y024093D01*
X011401Y024059D01*
X011466Y024028D01*
X011532Y024001D01*
X011600Y023978D01*
X011670Y023958D01*
X011740Y023942D01*
X011811Y023930D01*
X011882Y023922D01*
X011954Y023918D01*
X012026Y023918D01*
X012098Y023922D01*
X012169Y023930D01*
X012240Y023942D01*
X012310Y023958D01*
X012380Y023978D01*
X012448Y024001D01*
X012514Y024028D01*
X012579Y024059D01*
X012642Y024093D01*
X012704Y024130D01*
X012763Y024171D01*
X012820Y024216D01*
X012874Y024263D01*
X012925Y024313D01*
X012974Y024366D01*
X013020Y024421D01*
X013062Y024479D01*
X013102Y024540D01*
X013138Y024602D01*
X013170Y024666D01*
X013199Y024732D01*
X013224Y024799D01*
X013246Y024868D01*
X013263Y024938D01*
X013277Y025008D01*
X013287Y025079D01*
X013293Y025151D01*
X013295Y025223D01*
X013295Y026531D01*
X026228Y026531D01*
X026228Y004243D01*
X013295Y004243D01*
X013295Y005550D01*
X013293Y005622D01*
X013287Y005694D01*
X013277Y005765D01*
X013263Y005835D01*
X013246Y005905D01*
X013224Y005974D01*
X013199Y006041D01*
X013170Y006107D01*
X013138Y006171D01*
X013102Y006233D01*
X013062Y006294D01*
X013020Y006352D01*
X012974Y006407D01*
X012925Y006460D01*
X012874Y006510D01*
X012820Y006557D01*
X012763Y006602D01*
X012704Y006643D01*
X012643Y006680D01*
X012579Y006714D01*
X012514Y006745D01*
X012448Y006772D01*
X012380Y006795D01*
X012310Y006815D01*
X012240Y006831D01*
X012169Y006843D01*
X012098Y006851D01*
X012026Y006855D01*
X011954Y006855D01*
X011882Y006851D01*
X011811Y006843D01*
X011740Y006831D01*
X011670Y006815D01*
X011600Y006795D01*
X011532Y006772D01*
X011466Y006745D01*
X011401Y006714D01*
X011338Y006680D01*
X011276Y006643D01*
X011217Y006602D01*
X011160Y006557D01*
X011106Y006510D01*
X011055Y006460D01*
X011006Y006407D01*
X010960Y006352D01*
X010918Y006294D01*
X010878Y006233D01*
X010842Y006171D01*
X010810Y006107D01*
X010781Y006041D01*
X010756Y005974D01*
X010734Y005905D01*
X010717Y005835D01*
X010703Y005765D01*
X010693Y005694D01*
X010687Y005622D01*
X010685Y005550D01*
X010685Y004243D01*
X006027Y004243D01*
D11*
X009239Y007339D02*
X009241Y007363D01*
X009247Y007386D01*
X009257Y007408D01*
X009271Y007428D01*
X009288Y007445D01*
X009308Y007459D01*
X009330Y007469D01*
X009353Y007475D01*
X009377Y007477D01*
X009401Y007475D01*
X009424Y007469D01*
X009446Y007459D01*
X009466Y007445D01*
X009483Y007428D01*
X009497Y007408D01*
X009507Y007386D01*
X009513Y007363D01*
X009515Y007339D01*
X009513Y007315D01*
X009507Y007292D01*
X009497Y007270D01*
X009483Y007250D01*
X009466Y007233D01*
X009446Y007219D01*
X009424Y007209D01*
X009401Y007203D01*
X009377Y007201D01*
X009353Y007203D01*
X009330Y007209D01*
X009308Y007219D01*
X009288Y007233D01*
X009271Y007250D01*
X009257Y007270D01*
X009247Y007292D01*
X009241Y007315D01*
X009239Y007339D01*
X009239Y008047D02*
X009241Y008071D01*
X009247Y008094D01*
X009257Y008116D01*
X009271Y008136D01*
X009288Y008153D01*
X009308Y008167D01*
X009330Y008177D01*
X009353Y008183D01*
X009377Y008185D01*
X009401Y008183D01*
X009424Y008177D01*
X009446Y008167D01*
X009466Y008153D01*
X009483Y008136D01*
X009497Y008116D01*
X009507Y008094D01*
X009513Y008071D01*
X009515Y008047D01*
X009513Y008023D01*
X009507Y008000D01*
X009497Y007978D01*
X009483Y007958D01*
X009466Y007941D01*
X009446Y007927D01*
X009424Y007917D01*
X009401Y007911D01*
X009377Y007909D01*
X009353Y007911D01*
X009330Y007917D01*
X009308Y007927D01*
X009288Y007941D01*
X009271Y007958D01*
X009257Y007978D01*
X009247Y008000D01*
X009241Y008023D01*
X009239Y008047D01*
X008716Y009877D02*
X008719Y009936D01*
X008727Y009995D01*
X008740Y010052D01*
X008759Y010109D01*
X008782Y010163D01*
X008811Y010215D01*
X008844Y010264D01*
X008881Y010310D01*
X008922Y010352D01*
X008967Y010390D01*
X009016Y010425D01*
X009067Y010454D01*
X009121Y010479D01*
X009176Y010499D01*
X009234Y010513D01*
X009292Y010523D01*
X009351Y010527D01*
X009410Y010525D01*
X009469Y010519D01*
X009527Y010507D01*
X009584Y010489D01*
X009638Y010467D01*
X009691Y010440D01*
X009741Y010408D01*
X009788Y010372D01*
X009831Y010331D01*
X009870Y010287D01*
X009905Y010240D01*
X009936Y010189D01*
X009962Y010136D01*
X009983Y010081D01*
X009999Y010024D01*
X010010Y009966D01*
X010015Y009907D01*
X010015Y009847D01*
X010010Y009788D01*
X009999Y009730D01*
X009983Y009673D01*
X009962Y009618D01*
X009936Y009565D01*
X009905Y009514D01*
X009870Y009467D01*
X009831Y009423D01*
X009788Y009382D01*
X009741Y009346D01*
X009691Y009314D01*
X009638Y009287D01*
X009584Y009265D01*
X009527Y009247D01*
X009469Y009235D01*
X009410Y009229D01*
X009351Y009227D01*
X009292Y009231D01*
X009234Y009241D01*
X009176Y009255D01*
X009121Y009275D01*
X009067Y009300D01*
X009016Y009329D01*
X008967Y009364D01*
X008922Y009402D01*
X008881Y009444D01*
X008844Y009490D01*
X008811Y009539D01*
X008782Y009591D01*
X008759Y009645D01*
X008740Y009702D01*
X008727Y009759D01*
X008719Y009818D01*
X008716Y009877D01*
X010693Y005542D02*
X010698Y005660D01*
X010714Y005777D01*
X010741Y005892D01*
X010778Y006005D01*
X010825Y006113D01*
X010882Y006217D01*
X010948Y006315D01*
X011023Y006407D01*
X011105Y006491D01*
X011195Y006568D01*
X011292Y006636D01*
X011394Y006695D01*
X011502Y006745D01*
X011613Y006785D01*
X011728Y006814D01*
X011844Y006833D01*
X011962Y006841D01*
X012081Y006838D01*
X012198Y006825D01*
X012314Y006800D01*
X012427Y006766D01*
X012537Y006721D01*
X012641Y006667D01*
X012741Y006603D01*
X012835Y006531D01*
X012921Y006450D01*
X013000Y006362D01*
X013070Y006267D01*
X013131Y006166D01*
X013183Y006060D01*
X013226Y005949D01*
X013257Y005835D01*
X013279Y005719D01*
X013290Y005601D01*
X013290Y005483D01*
X013279Y005365D01*
X013257Y005249D01*
X013226Y005135D01*
X013183Y005024D01*
X013131Y004918D01*
X013070Y004817D01*
X013000Y004722D01*
X012921Y004634D01*
X012835Y004553D01*
X012741Y004481D01*
X012642Y004417D01*
X012537Y004363D01*
X012427Y004318D01*
X012314Y004284D01*
X012198Y004259D01*
X012081Y004246D01*
X011962Y004243D01*
X011844Y004251D01*
X011728Y004270D01*
X011613Y004299D01*
X011502Y004339D01*
X011394Y004389D01*
X011292Y004448D01*
X011195Y004516D01*
X011105Y004593D01*
X011023Y004677D01*
X010948Y004769D01*
X010882Y004867D01*
X010825Y004971D01*
X010778Y005079D01*
X010741Y005192D01*
X010714Y005307D01*
X010698Y005424D01*
X010693Y005542D01*
X008716Y020901D02*
X008719Y020960D01*
X008727Y021019D01*
X008740Y021076D01*
X008759Y021133D01*
X008782Y021187D01*
X008811Y021239D01*
X008844Y021288D01*
X008881Y021334D01*
X008922Y021376D01*
X008967Y021414D01*
X009016Y021449D01*
X009067Y021478D01*
X009121Y021503D01*
X009176Y021523D01*
X009234Y021537D01*
X009292Y021547D01*
X009351Y021551D01*
X009410Y021549D01*
X009469Y021543D01*
X009527Y021531D01*
X009584Y021513D01*
X009638Y021491D01*
X009691Y021464D01*
X009741Y021432D01*
X009788Y021396D01*
X009831Y021355D01*
X009870Y021311D01*
X009905Y021264D01*
X009936Y021213D01*
X009962Y021160D01*
X009983Y021105D01*
X009999Y021048D01*
X010010Y020990D01*
X010015Y020931D01*
X010015Y020871D01*
X010010Y020812D01*
X009999Y020754D01*
X009983Y020697D01*
X009962Y020642D01*
X009936Y020589D01*
X009905Y020538D01*
X009870Y020491D01*
X009831Y020447D01*
X009788Y020406D01*
X009741Y020370D01*
X009691Y020338D01*
X009638Y020311D01*
X009584Y020289D01*
X009527Y020271D01*
X009469Y020259D01*
X009410Y020253D01*
X009351Y020251D01*
X009292Y020255D01*
X009234Y020265D01*
X009176Y020279D01*
X009121Y020299D01*
X009067Y020324D01*
X009016Y020353D01*
X008967Y020388D01*
X008922Y020426D01*
X008881Y020468D01*
X008844Y020514D01*
X008811Y020563D01*
X008782Y020615D01*
X008759Y020669D01*
X008740Y020726D01*
X008727Y020783D01*
X008719Y020842D01*
X008716Y020901D01*
X010693Y025227D02*
X010698Y025345D01*
X010714Y025462D01*
X010741Y025577D01*
X010778Y025690D01*
X010825Y025798D01*
X010882Y025902D01*
X010948Y026000D01*
X011023Y026092D01*
X011105Y026176D01*
X011195Y026253D01*
X011292Y026321D01*
X011394Y026380D01*
X011502Y026430D01*
X011613Y026470D01*
X011728Y026499D01*
X011844Y026518D01*
X011962Y026526D01*
X012081Y026523D01*
X012198Y026510D01*
X012314Y026485D01*
X012427Y026451D01*
X012537Y026406D01*
X012641Y026352D01*
X012741Y026288D01*
X012835Y026216D01*
X012921Y026135D01*
X013000Y026047D01*
X013070Y025952D01*
X013131Y025851D01*
X013183Y025745D01*
X013226Y025634D01*
X013257Y025520D01*
X013279Y025404D01*
X013290Y025286D01*
X013290Y025168D01*
X013279Y025050D01*
X013257Y024934D01*
X013226Y024820D01*
X013183Y024709D01*
X013131Y024603D01*
X013070Y024502D01*
X013000Y024407D01*
X012921Y024319D01*
X012835Y024238D01*
X012741Y024166D01*
X012642Y024102D01*
X012537Y024048D01*
X012427Y024003D01*
X012314Y023969D01*
X012198Y023944D01*
X012081Y023931D01*
X011962Y023928D01*
X011844Y023936D01*
X011728Y023955D01*
X011613Y023984D01*
X011502Y024024D01*
X011394Y024074D01*
X011292Y024133D01*
X011195Y024201D01*
X011105Y024278D01*
X011023Y024362D01*
X010948Y024454D01*
X010882Y024552D01*
X010825Y024656D01*
X010778Y024764D01*
X010741Y024877D01*
X010714Y024992D01*
X010698Y025109D01*
X010693Y025227D01*
X019739Y020901D02*
X019742Y020960D01*
X019750Y021019D01*
X019763Y021076D01*
X019782Y021133D01*
X019805Y021187D01*
X019834Y021239D01*
X019867Y021288D01*
X019904Y021334D01*
X019945Y021376D01*
X019990Y021414D01*
X020039Y021449D01*
X020090Y021478D01*
X020144Y021503D01*
X020199Y021523D01*
X020257Y021537D01*
X020315Y021547D01*
X020374Y021551D01*
X020433Y021549D01*
X020492Y021543D01*
X020550Y021531D01*
X020607Y021513D01*
X020661Y021491D01*
X020714Y021464D01*
X020764Y021432D01*
X020811Y021396D01*
X020854Y021355D01*
X020893Y021311D01*
X020928Y021264D01*
X020959Y021213D01*
X020985Y021160D01*
X021006Y021105D01*
X021022Y021048D01*
X021033Y020990D01*
X021038Y020931D01*
X021038Y020871D01*
X021033Y020812D01*
X021022Y020754D01*
X021006Y020697D01*
X020985Y020642D01*
X020959Y020589D01*
X020928Y020538D01*
X020893Y020491D01*
X020854Y020447D01*
X020811Y020406D01*
X020764Y020370D01*
X020714Y020338D01*
X020661Y020311D01*
X020607Y020289D01*
X020550Y020271D01*
X020492Y020259D01*
X020433Y020253D01*
X020374Y020251D01*
X020315Y020255D01*
X020257Y020265D01*
X020199Y020279D01*
X020144Y020299D01*
X020090Y020324D01*
X020039Y020353D01*
X019990Y020388D01*
X019945Y020426D01*
X019904Y020468D01*
X019867Y020514D01*
X019834Y020563D01*
X019805Y020615D01*
X019782Y020669D01*
X019763Y020726D01*
X019750Y020783D01*
X019742Y020842D01*
X019739Y020901D01*
M02*
