G75*
G70*
%OFA0B0*%
%FSLAX24Y24*%
%IPPOS*%
%LPD*%
%AMOC8*
5,1,8,0,0,1.08239X$1,22.5*
%
%ADD10C,0.0434*%
%ADD11C,0.0500*%
%ADD12R,0.1490X0.0690*%
%ADD13R,0.0270X0.0280*%
%ADD14R,0.0131X0.0355*%
%ADD15R,0.0355X0.0131*%
%ADD16R,0.1457X0.1457*%
%ADD17R,0.0749X0.0749*%
%ADD18R,0.0278X0.0278*%
%ADD19R,0.0790X0.0290*%
%ADD20C,0.0317*%
%ADD21C,0.0300*%
%ADD22R,0.0280X0.0270*%
%ADD23R,0.0440X0.0440*%
%ADD24R,0.1040X0.0340*%
%ADD25R,0.0512X0.0591*%
%ADD26R,0.0355X0.0355*%
%ADD27C,0.0600*%
%ADD28R,0.0650X0.0631*%
%ADD29C,0.0316*%
D10*
X021535Y006829D03*
X020335Y012779D03*
D11*
X020000Y012779D02*
X020002Y012816D01*
X020008Y012852D01*
X020018Y012888D01*
X020032Y012922D01*
X020050Y012954D01*
X020071Y012985D01*
X020095Y013013D01*
X020122Y013038D01*
X020152Y013059D01*
X020184Y013078D01*
X020218Y013093D01*
X020253Y013104D01*
X020289Y013111D01*
X020326Y013114D01*
X020363Y013113D01*
X020399Y013108D01*
X020435Y013099D01*
X020470Y013086D01*
X020502Y013069D01*
X020533Y013049D01*
X020562Y013025D01*
X020588Y012999D01*
X020610Y012970D01*
X020630Y012938D01*
X020645Y012905D01*
X020657Y012870D01*
X020665Y012834D01*
X020669Y012797D01*
X020669Y012761D01*
X020665Y012724D01*
X020657Y012688D01*
X020645Y012653D01*
X020630Y012620D01*
X020610Y012588D01*
X020588Y012559D01*
X020562Y012533D01*
X020533Y012509D01*
X020503Y012489D01*
X020470Y012472D01*
X020435Y012459D01*
X020399Y012450D01*
X020363Y012445D01*
X020326Y012444D01*
X020289Y012447D01*
X020253Y012454D01*
X020218Y012465D01*
X020184Y012480D01*
X020152Y012499D01*
X020122Y012520D01*
X020095Y012545D01*
X020071Y012573D01*
X020050Y012604D01*
X020032Y012636D01*
X020018Y012670D01*
X020008Y012706D01*
X020002Y012742D01*
X020000Y012779D01*
X021200Y006829D02*
X021202Y006866D01*
X021208Y006902D01*
X021218Y006938D01*
X021232Y006972D01*
X021250Y007004D01*
X021271Y007035D01*
X021295Y007063D01*
X021322Y007088D01*
X021352Y007109D01*
X021384Y007128D01*
X021418Y007143D01*
X021453Y007154D01*
X021489Y007161D01*
X021526Y007164D01*
X021563Y007163D01*
X021599Y007158D01*
X021635Y007149D01*
X021670Y007136D01*
X021702Y007119D01*
X021733Y007099D01*
X021762Y007075D01*
X021788Y007049D01*
X021810Y007020D01*
X021830Y006988D01*
X021845Y006955D01*
X021857Y006920D01*
X021865Y006884D01*
X021869Y006847D01*
X021869Y006811D01*
X021865Y006774D01*
X021857Y006738D01*
X021845Y006703D01*
X021830Y006670D01*
X021810Y006638D01*
X021788Y006609D01*
X021762Y006583D01*
X021733Y006559D01*
X021703Y006539D01*
X021670Y006522D01*
X021635Y006509D01*
X021599Y006500D01*
X021563Y006495D01*
X021526Y006494D01*
X021489Y006497D01*
X021453Y006504D01*
X021418Y006515D01*
X021384Y006530D01*
X021352Y006549D01*
X021322Y006570D01*
X021295Y006595D01*
X021271Y006623D01*
X021250Y006654D01*
X021232Y006686D01*
X021218Y006720D01*
X021208Y006756D01*
X021202Y006792D01*
X021200Y006829D01*
D12*
X014435Y007679D03*
X014435Y008679D03*
X014435Y009679D03*
X014435Y010679D03*
X014435Y011679D03*
D13*
X015535Y011779D03*
X015535Y012179D03*
X015535Y011379D03*
X015535Y010979D03*
X016935Y011879D03*
X016935Y012279D03*
X019535Y011779D03*
X019535Y011379D03*
X015535Y009079D03*
X015535Y008679D03*
X015535Y008279D03*
X015535Y007879D03*
X015585Y007479D03*
X015585Y007079D03*
X016735Y006929D03*
X016735Y006529D03*
X016735Y007879D03*
X016735Y008279D03*
D14*
X017446Y009464D03*
X017643Y009464D03*
X017840Y009464D03*
X018037Y009464D03*
X018234Y009464D03*
X018431Y009464D03*
X018627Y009464D03*
X018824Y009464D03*
X018824Y011393D03*
X018627Y011393D03*
X018431Y011393D03*
X018234Y011393D03*
X018037Y011393D03*
X017840Y011393D03*
X017643Y011393D03*
X017446Y011393D03*
D15*
X017171Y011118D03*
X017171Y010921D03*
X017171Y010724D03*
X017171Y010527D03*
X017171Y010330D03*
X017171Y010133D03*
X017171Y009937D03*
X017171Y009740D03*
X019100Y009740D03*
X019100Y009937D03*
X019100Y010133D03*
X019100Y010330D03*
X019100Y010527D03*
X019100Y010724D03*
X019100Y010921D03*
X019100Y011118D03*
D16*
X018135Y010429D03*
D17*
X018135Y010429D03*
D18*
X017624Y010626D03*
X017624Y010232D03*
X017939Y009917D03*
X018332Y009917D03*
X018647Y010232D03*
X018647Y010626D03*
X018332Y010940D03*
X017939Y010940D03*
D19*
X021035Y011779D03*
D20*
X021285Y009029D03*
D21*
X021285Y011779D01*
X023685Y011779D01*
X023685Y011329D01*
X022135Y011329D01*
X022135Y010879D01*
X023685Y010879D01*
X023685Y010429D01*
X022135Y010429D01*
X022135Y009979D01*
X023685Y009979D01*
X023685Y009529D01*
X022135Y009529D01*
X022135Y009079D01*
X023685Y009079D01*
X023685Y007529D01*
D22*
X020635Y008879D03*
X020235Y008879D03*
X020335Y010804D03*
X020735Y010804D03*
X019935Y011004D03*
X019535Y011004D03*
X019935Y011429D03*
X020335Y011429D03*
X020335Y011779D03*
X019935Y011779D03*
X016985Y012829D03*
X016585Y012829D03*
X015585Y012829D03*
X015185Y012829D03*
X016285Y010479D03*
X016685Y010479D03*
X016485Y010129D03*
X016085Y010129D03*
X016285Y009779D03*
X016685Y009779D03*
X016685Y009429D03*
X016285Y009429D03*
X015635Y006529D03*
X015235Y006529D03*
D23*
X016435Y011629D03*
X016435Y012329D03*
D24*
X017535Y008329D03*
X017535Y007829D03*
X017535Y007329D03*
X017535Y006829D03*
X020035Y006829D03*
X020035Y007329D03*
X020035Y007829D03*
X020035Y008329D03*
D25*
X019870Y009446D03*
X020500Y009446D03*
X020500Y010312D03*
X019870Y010312D03*
D26*
X013935Y006629D03*
X014535Y006629D03*
X014535Y012729D03*
X013935Y012729D03*
D27*
X016135Y008629D03*
X016135Y007829D03*
X016135Y007029D03*
D28*
X017550Y012429D03*
X019321Y012429D03*
D29*
X018435Y012783D03*
X018435Y012074D03*
M02*
