G75*
G70*
%OFA0B0*%
%FSLAX24Y24*%
%IPPOS*%
%LPD*%
%AMOC8*
5,1,8,0,0,1.08239X$1,22.5*
%
%ADD10C,0.0100*%
%ADD11C,0.0000*%
D10*
X013485Y006229D02*
X013485Y013129D01*
X023985Y013129D01*
X023985Y006229D01*
X013485Y006229D01*
D11*
X018297Y012074D02*
X018299Y012098D01*
X018305Y012121D01*
X018315Y012143D01*
X018329Y012163D01*
X018346Y012180D01*
X018366Y012194D01*
X018388Y012204D01*
X018411Y012210D01*
X018435Y012212D01*
X018459Y012210D01*
X018482Y012204D01*
X018504Y012194D01*
X018524Y012180D01*
X018541Y012163D01*
X018555Y012143D01*
X018565Y012121D01*
X018571Y012098D01*
X018573Y012074D01*
X018571Y012050D01*
X018565Y012027D01*
X018555Y012005D01*
X018541Y011985D01*
X018524Y011968D01*
X018504Y011954D01*
X018482Y011944D01*
X018459Y011938D01*
X018435Y011936D01*
X018411Y011938D01*
X018388Y011944D01*
X018366Y011954D01*
X018346Y011968D01*
X018329Y011985D01*
X018315Y012005D01*
X018305Y012027D01*
X018299Y012050D01*
X018297Y012074D01*
X018297Y012783D02*
X018299Y012807D01*
X018305Y012830D01*
X018315Y012852D01*
X018329Y012872D01*
X018346Y012889D01*
X018366Y012903D01*
X018388Y012913D01*
X018411Y012919D01*
X018435Y012921D01*
X018459Y012919D01*
X018482Y012913D01*
X018504Y012903D01*
X018524Y012889D01*
X018541Y012872D01*
X018555Y012852D01*
X018565Y012830D01*
X018571Y012807D01*
X018573Y012783D01*
X018571Y012759D01*
X018565Y012736D01*
X018555Y012714D01*
X018541Y012694D01*
X018524Y012677D01*
X018504Y012663D01*
X018482Y012653D01*
X018459Y012647D01*
X018435Y012645D01*
X018411Y012647D01*
X018388Y012653D01*
X018366Y012663D01*
X018346Y012677D01*
X018329Y012694D01*
X018315Y012714D01*
X018305Y012736D01*
X018299Y012759D01*
X018297Y012783D01*
M02*
