G75*
G70*
%OFA0B0*%
%FSLAX24Y24*%
%IPPOS*%
%LPD*%
%AMOC8*
5,1,8,0,0,1.08239X$1,22.5*
%
%ADD10C,0.0100*%
%ADD11C,0.0060*%
%ADD12C,0.0050*%
%ADD13C,0.0080*%
D10*
X010186Y006234D02*
X013485Y006234D01*
X013485Y013124D01*
X010186Y013124D01*
X010186Y006234D01*
X013685Y006379D02*
X014035Y006379D01*
X013685Y006379D02*
X013685Y006879D01*
X014035Y006879D01*
X014435Y006879D02*
X014785Y006879D01*
X014785Y006379D01*
X014835Y006429D01*
X014835Y006829D01*
X014785Y006879D01*
X014785Y006379D02*
X014435Y006379D01*
X016485Y007329D02*
X016485Y008429D01*
X016685Y008629D01*
X016685Y008529D01*
X016585Y008629D01*
X016685Y008629D01*
X016885Y009429D02*
X016885Y010629D01*
X017151Y011255D02*
X017151Y011413D01*
X017309Y011413D01*
X017648Y011838D02*
X017648Y011956D01*
X017648Y011838D02*
X019223Y011838D01*
X019223Y011956D01*
X019179Y011570D02*
X019181Y011590D01*
X019187Y011609D01*
X019197Y011626D01*
X019209Y011641D01*
X019225Y011653D01*
X019243Y011662D01*
X019262Y011667D01*
X019282Y011668D01*
X019302Y011665D01*
X019320Y011658D01*
X019337Y011647D01*
X019351Y011634D01*
X019363Y011618D01*
X019371Y011599D01*
X019374Y011580D01*
X019374Y011560D01*
X019371Y011541D01*
X019363Y011522D01*
X019351Y011506D01*
X019337Y011493D01*
X019320Y011482D01*
X019302Y011475D01*
X019282Y011472D01*
X019262Y011473D01*
X019243Y011478D01*
X019225Y011487D01*
X019209Y011499D01*
X019197Y011514D01*
X019187Y011531D01*
X019181Y011550D01*
X019179Y011570D01*
X019051Y011413D02*
X018962Y011413D01*
X019051Y011413D02*
X019120Y011344D01*
X019120Y011255D01*
X019323Y010779D02*
X019325Y010800D01*
X019331Y010821D01*
X019341Y010840D01*
X019354Y010856D01*
X019370Y010870D01*
X019388Y010881D01*
X019409Y010888D01*
X019430Y010891D01*
X019451Y010890D01*
X019472Y010885D01*
X019491Y010876D01*
X019508Y010864D01*
X019523Y010848D01*
X019535Y010830D01*
X019542Y010811D01*
X019546Y010790D01*
X019546Y010768D01*
X019542Y010747D01*
X019535Y010728D01*
X019523Y010710D01*
X019508Y010694D01*
X019491Y010682D01*
X019472Y010673D01*
X019451Y010668D01*
X019430Y010667D01*
X019409Y010670D01*
X019388Y010677D01*
X019370Y010688D01*
X019354Y010702D01*
X019341Y010718D01*
X019331Y010737D01*
X019325Y010758D01*
X019323Y010779D01*
X020117Y010509D02*
X020253Y010509D01*
X020185Y010233D02*
X020185Y010036D01*
X019931Y010036D01*
X019949Y009879D02*
X020422Y009879D01*
X020440Y010036D02*
X020185Y010036D01*
X020697Y010026D02*
X020697Y009732D01*
X020440Y009721D02*
X020185Y009721D01*
X020185Y009524D01*
X020185Y009721D02*
X019931Y009721D01*
X019674Y009732D02*
X019674Y010016D01*
X019120Y009602D02*
X019120Y009444D01*
X018962Y009444D01*
X020117Y009249D02*
X020253Y009249D01*
X017309Y009444D02*
X017151Y009444D01*
X017151Y009602D01*
X019635Y012029D02*
X020685Y012029D01*
X020785Y012129D01*
X019223Y012901D02*
X019223Y013019D01*
X017648Y013019D01*
X017648Y012901D01*
X014835Y012929D02*
X014835Y012529D01*
X014785Y012479D01*
X014785Y012979D01*
X014435Y012979D01*
X014785Y012979D02*
X014835Y012929D01*
X014585Y012596D02*
X014585Y012329D01*
X014585Y012462D02*
X014185Y012462D01*
X014318Y012329D01*
X014435Y012479D02*
X014785Y012479D01*
X014035Y012479D02*
X013685Y012479D01*
X013685Y012979D01*
X014035Y012979D01*
X010642Y012435D02*
X010644Y012469D01*
X010650Y012502D01*
X010660Y012534D01*
X010674Y012564D01*
X010691Y012593D01*
X010712Y012619D01*
X010736Y012643D01*
X010762Y012664D01*
X010791Y012681D01*
X010821Y012695D01*
X010853Y012705D01*
X010886Y012711D01*
X010920Y012713D01*
X010954Y012711D01*
X010987Y012705D01*
X011019Y012695D01*
X011049Y012681D01*
X011078Y012664D01*
X011104Y012643D01*
X011128Y012619D01*
X011149Y012593D01*
X011166Y012564D01*
X011180Y012534D01*
X011190Y012502D01*
X011196Y012469D01*
X011198Y012435D01*
X011196Y012401D01*
X011190Y012368D01*
X011180Y012336D01*
X011166Y012306D01*
X011149Y012277D01*
X011128Y012251D01*
X011104Y012227D01*
X011078Y012206D01*
X011049Y012189D01*
X011019Y012175D01*
X010987Y012165D01*
X010954Y012159D01*
X010920Y012157D01*
X010886Y012159D01*
X010853Y012165D01*
X010821Y012175D01*
X010791Y012189D01*
X010762Y012206D01*
X010736Y012227D01*
X010712Y012251D01*
X010691Y012277D01*
X010674Y012306D01*
X010660Y012336D01*
X010650Y012368D01*
X010644Y012401D01*
X010642Y012435D01*
X010206Y010479D02*
X012306Y010479D01*
X012306Y008879D01*
X010206Y008879D01*
D11*
X013865Y007249D02*
X013865Y007009D01*
X013865Y007089D02*
X013985Y007089D01*
X014025Y007129D01*
X014025Y007209D01*
X013985Y007249D01*
X013865Y007249D01*
X014142Y007249D02*
X014142Y007009D01*
X014222Y007089D01*
X014302Y007009D01*
X014302Y007249D01*
X014418Y007249D02*
X014538Y007249D01*
X014578Y007209D01*
X014578Y007129D01*
X014538Y007089D01*
X014418Y007089D01*
X014498Y007089D02*
X014578Y007009D01*
X014418Y007009D02*
X014418Y007249D01*
X016615Y007209D02*
X016615Y007329D01*
X016655Y007369D01*
X016735Y007369D01*
X016775Y007329D01*
X016775Y007209D01*
X016775Y007289D02*
X016855Y007369D01*
X016855Y007485D02*
X016695Y007645D01*
X016655Y007645D01*
X016615Y007605D01*
X016615Y007525D01*
X016655Y007485D01*
X016855Y007485D02*
X016855Y007645D01*
X016855Y007209D02*
X016615Y007209D01*
X017005Y006599D02*
X016965Y006559D01*
X016965Y006399D01*
X017005Y006359D01*
X017085Y006359D01*
X017125Y006399D01*
X017242Y006399D02*
X017402Y006559D01*
X017402Y006599D01*
X017242Y006599D01*
X017125Y006559D02*
X017085Y006599D01*
X017005Y006599D01*
X017242Y006399D02*
X017242Y006359D01*
X020515Y006424D02*
X020555Y006384D01*
X020635Y006384D01*
X020675Y006424D01*
X020675Y006624D01*
X020792Y006584D02*
X020832Y006624D01*
X020912Y006624D01*
X020952Y006584D01*
X020952Y006544D01*
X020792Y006384D01*
X020952Y006384D01*
X020515Y006424D02*
X020515Y006624D01*
X020049Y008634D02*
X019889Y008634D01*
X020049Y008794D01*
X020049Y008834D01*
X020009Y008874D01*
X019929Y008874D01*
X019889Y008834D01*
X019773Y008834D02*
X019733Y008874D01*
X019653Y008874D01*
X019613Y008834D01*
X019613Y008674D01*
X019653Y008634D01*
X019733Y008634D01*
X019773Y008674D01*
X019549Y009059D02*
X019389Y009059D01*
X019469Y009059D02*
X019469Y009299D01*
X019389Y009219D01*
X019273Y009259D02*
X019273Y009099D01*
X019233Y009059D01*
X019153Y009059D01*
X019113Y009099D01*
X019113Y009259D01*
X019153Y009299D01*
X019233Y009299D01*
X019273Y009259D01*
X019193Y009139D02*
X019273Y009059D01*
X020205Y011009D02*
X020285Y011009D01*
X020325Y011049D01*
X020442Y011009D02*
X020602Y011009D01*
X020522Y011009D02*
X020522Y011249D01*
X020442Y011169D01*
X020325Y011209D02*
X020285Y011249D01*
X020205Y011249D01*
X020165Y011209D01*
X020165Y011049D01*
X020205Y011009D01*
X021065Y012109D02*
X021065Y012349D01*
X021185Y012349D01*
X021225Y012309D01*
X021225Y012229D01*
X021185Y012189D01*
X021065Y012189D01*
X021145Y012189D02*
X021225Y012109D01*
X021342Y012109D02*
X021502Y012109D01*
X021422Y012109D02*
X021422Y012349D01*
X021342Y012269D01*
X021255Y012509D02*
X021015Y012509D01*
X021255Y012509D02*
X021255Y012669D01*
X021255Y012785D02*
X021095Y012945D01*
X021055Y012945D01*
X021015Y012905D01*
X021015Y012825D01*
X021055Y012785D01*
X021255Y012785D02*
X021255Y012945D01*
X021565Y012909D02*
X021565Y012749D01*
X021605Y012709D01*
X021685Y012709D01*
X021725Y012749D01*
X021842Y012749D02*
X021882Y012709D01*
X021962Y012709D01*
X022002Y012749D01*
X022002Y012829D01*
X021962Y012869D01*
X021922Y012869D01*
X021842Y012829D01*
X021842Y012949D01*
X022002Y012949D01*
X021725Y012909D02*
X021685Y012949D01*
X021605Y012949D01*
X021565Y012909D01*
X021615Y012499D02*
X021615Y012259D01*
X021775Y012259D01*
X021892Y012259D02*
X022052Y012259D01*
X021972Y012259D02*
X021972Y012499D01*
X021892Y012419D01*
X017602Y011879D02*
X017442Y011879D01*
X017562Y011999D01*
X017562Y011759D01*
X017325Y011799D02*
X017285Y011759D01*
X017205Y011759D01*
X017165Y011799D01*
X017165Y011959D01*
X017205Y011999D01*
X017285Y011999D01*
X017325Y011959D01*
X016599Y011259D02*
X016599Y011219D01*
X016559Y011179D01*
X016599Y011139D01*
X016599Y011099D01*
X016559Y011059D01*
X016479Y011059D01*
X016439Y011099D01*
X016519Y011179D02*
X016559Y011179D01*
X016599Y011259D02*
X016559Y011299D01*
X016479Y011299D01*
X016439Y011259D01*
X016323Y011259D02*
X016283Y011299D01*
X016203Y011299D01*
X016163Y011259D01*
X016163Y011099D01*
X016203Y011059D01*
X016283Y011059D01*
X016323Y011099D01*
X016005Y011175D02*
X015965Y011135D01*
X016005Y011175D02*
X016005Y011255D01*
X015965Y011295D01*
X015925Y011295D01*
X015885Y011255D01*
X015885Y011215D01*
X015885Y011255D02*
X015845Y011295D01*
X015805Y011295D01*
X015765Y011255D01*
X015765Y011175D01*
X015805Y011135D01*
X015805Y011019D02*
X015885Y011019D01*
X015925Y010979D01*
X015925Y010859D01*
X015925Y010939D02*
X016005Y011019D01*
X016005Y010859D02*
X015765Y010859D01*
X015765Y010979D01*
X015805Y011019D01*
X015779Y010649D02*
X015739Y010609D01*
X015739Y010569D01*
X015779Y010529D01*
X015899Y010529D01*
X015899Y010609D02*
X015859Y010649D01*
X015779Y010649D01*
X015899Y010609D02*
X015899Y010449D01*
X015859Y010409D01*
X015779Y010409D01*
X015739Y010449D01*
X015623Y010409D02*
X015543Y010489D01*
X015583Y010489D02*
X015463Y010489D01*
X015463Y010409D02*
X015463Y010649D01*
X015583Y010649D01*
X015623Y010609D01*
X015623Y010529D01*
X015583Y010489D01*
X015579Y010249D02*
X015659Y010249D01*
X015699Y010209D01*
X015699Y010169D01*
X015659Y010129D01*
X015579Y010129D01*
X015539Y010169D01*
X015539Y010209D01*
X015579Y010249D01*
X015579Y010129D02*
X015539Y010089D01*
X015539Y010049D01*
X015579Y010009D01*
X015659Y010009D01*
X015699Y010049D01*
X015699Y010089D01*
X015659Y010129D01*
X015423Y010129D02*
X015423Y010209D01*
X015383Y010249D01*
X015263Y010249D01*
X015263Y010009D01*
X015263Y010089D02*
X015383Y010089D01*
X015423Y010129D01*
X015343Y010089D02*
X015423Y010009D01*
X015463Y009849D02*
X015583Y009849D01*
X015623Y009809D01*
X015623Y009729D01*
X015583Y009689D01*
X015463Y009689D01*
X015543Y009689D02*
X015623Y009609D01*
X015739Y009609D02*
X015739Y009649D01*
X015899Y009809D01*
X015899Y009849D01*
X015739Y009849D01*
X015463Y009849D02*
X015463Y009609D01*
X015765Y011509D02*
X015765Y011629D01*
X015805Y011669D01*
X015885Y011669D01*
X015925Y011629D01*
X015925Y011509D01*
X015925Y011589D02*
X016005Y011669D01*
X016005Y011509D02*
X015765Y011509D01*
X015885Y011785D02*
X015885Y011945D01*
X015765Y011905D02*
X015885Y011785D01*
X016005Y011905D02*
X015765Y011905D01*
X015612Y012409D02*
X015532Y012409D01*
X015492Y012449D01*
X015492Y012529D02*
X015572Y012569D01*
X015612Y012569D01*
X015652Y012529D01*
X015652Y012449D01*
X015612Y012409D01*
X015492Y012529D02*
X015492Y012649D01*
X015652Y012649D01*
X015863Y012699D02*
X015903Y012659D01*
X015983Y012659D01*
X016023Y012699D01*
X016139Y012699D02*
X016179Y012659D01*
X016259Y012659D01*
X016299Y012699D01*
X016299Y012739D01*
X016259Y012779D01*
X016139Y012779D01*
X016139Y012699D01*
X016139Y012779D02*
X016219Y012859D01*
X016299Y012899D01*
X016023Y012859D02*
X015983Y012899D01*
X015903Y012899D01*
X015863Y012859D01*
X015863Y012699D01*
X015375Y012609D02*
X015375Y012529D01*
X015335Y012489D01*
X015215Y012489D01*
X015215Y012409D02*
X015215Y012649D01*
X015335Y012649D01*
X015375Y012609D01*
X015295Y012489D02*
X015375Y012409D01*
X014378Y012259D02*
X014378Y012099D01*
X014338Y012059D01*
X014218Y012059D01*
X014218Y012299D01*
X014338Y012299D01*
X014378Y012259D01*
X014102Y012299D02*
X013942Y012059D01*
X014102Y012059D02*
X013942Y012299D01*
X013825Y012299D02*
X013665Y012299D01*
X013745Y012299D02*
X013745Y012059D01*
D12*
X014145Y012449D02*
X014195Y012449D01*
X014195Y012499D01*
X014195Y012449D02*
X014125Y012519D01*
X014265Y012519D02*
X014335Y012449D01*
X014285Y012449D01*
X014335Y012449D02*
X014335Y012499D01*
X016724Y011299D02*
X016757Y011332D01*
X016791Y011332D01*
X016824Y011299D01*
X016857Y011332D01*
X016891Y011332D01*
X016924Y011299D01*
X016924Y011232D01*
X016891Y011199D01*
X016824Y011266D02*
X016824Y011299D01*
X016724Y011299D02*
X016724Y011232D01*
X016757Y011199D01*
X016724Y011036D02*
X016924Y011036D01*
X016924Y011102D02*
X016924Y010969D01*
X016924Y010872D02*
X016857Y010805D01*
X016857Y010839D02*
X016857Y010739D01*
X016924Y010739D02*
X016724Y010739D01*
X016724Y010839D01*
X016757Y010872D01*
X016824Y010872D01*
X016857Y010839D01*
X016791Y010969D02*
X016724Y011036D01*
X018705Y011642D02*
X018739Y011609D01*
X018805Y011609D01*
X018839Y011642D01*
X018839Y011809D01*
X018936Y011742D02*
X019002Y011809D01*
X019002Y011609D01*
X018936Y011609D02*
X019069Y011609D01*
X018705Y011642D02*
X018705Y011809D01*
X019394Y012804D02*
X019360Y012837D01*
X019394Y012804D02*
X019460Y012804D01*
X019494Y012837D01*
X019494Y012870D01*
X019460Y012904D01*
X019394Y012904D01*
X019360Y012937D01*
X019360Y012970D01*
X019394Y013004D01*
X019460Y013004D01*
X019494Y012970D01*
X019591Y013004D02*
X019591Y012804D01*
X019657Y012870D01*
X019724Y012804D01*
X019724Y013004D01*
X015837Y009504D02*
X015837Y009304D01*
X015771Y009304D02*
X015904Y009304D01*
X015910Y009154D02*
X015944Y009120D01*
X015944Y009054D01*
X015910Y009020D01*
X015810Y009020D01*
X015810Y008954D02*
X015810Y009154D01*
X015910Y009154D01*
X016041Y009154D02*
X016174Y009154D01*
X016107Y009154D02*
X016107Y008954D01*
X015944Y008954D02*
X015877Y009020D01*
X015674Y009304D02*
X015541Y009304D01*
X015607Y009304D02*
X015607Y009504D01*
X015541Y009437D01*
X015444Y009404D02*
X015410Y009370D01*
X015310Y009370D01*
X015310Y009304D02*
X015310Y009504D01*
X015410Y009504D01*
X015444Y009470D01*
X015444Y009404D01*
X015377Y009370D02*
X015444Y009304D01*
X015771Y009437D02*
X015837Y009504D01*
X016271Y009120D02*
X016271Y008987D01*
X016304Y008954D01*
X016371Y008954D01*
X016404Y008987D01*
X016404Y009120D02*
X016371Y009154D01*
X016304Y009154D01*
X016271Y009120D01*
X016860Y009120D02*
X016860Y008987D01*
X016894Y008954D01*
X016960Y008954D01*
X016994Y008987D01*
X016994Y009054D01*
X016927Y009054D01*
X016860Y009120D02*
X016894Y009154D01*
X016960Y009154D01*
X016994Y009120D01*
X017091Y009154D02*
X017191Y009154D01*
X017224Y009120D01*
X017224Y009054D01*
X017191Y009020D01*
X017091Y009020D01*
X017091Y008954D02*
X017091Y009154D01*
X017321Y009154D02*
X017387Y009154D01*
X017354Y009154D02*
X017354Y008954D01*
X017321Y008954D02*
X017387Y008954D01*
X017474Y008987D02*
X017507Y008954D01*
X017574Y008954D01*
X017608Y008987D01*
X017608Y009120D01*
X017574Y009154D01*
X017507Y009154D01*
X017474Y009120D01*
X017474Y008987D01*
X017507Y008804D02*
X017474Y008770D01*
X017474Y008637D01*
X017507Y008604D01*
X017574Y008604D01*
X017608Y008637D01*
X017608Y008770D01*
X017574Y008804D01*
X017507Y008804D01*
X017387Y008804D02*
X017321Y008804D01*
X017354Y008804D02*
X017354Y008604D01*
X017321Y008604D02*
X017387Y008604D01*
X017224Y008704D02*
X017191Y008670D01*
X017091Y008670D01*
X017091Y008604D02*
X017091Y008804D01*
X017191Y008804D01*
X017224Y008770D01*
X017224Y008704D01*
X016994Y008704D02*
X016994Y008637D01*
X016960Y008604D01*
X016894Y008604D01*
X016860Y008637D01*
X016860Y008770D01*
X016894Y008804D01*
X016960Y008804D01*
X016994Y008770D01*
X016994Y008704D02*
X016927Y008704D01*
X016339Y008307D02*
X016306Y008340D01*
X016239Y008340D01*
X016206Y008307D01*
X016339Y008307D02*
X016339Y008273D01*
X016206Y008140D01*
X016339Y008140D01*
X016109Y008140D02*
X015976Y008140D01*
X016042Y008140D02*
X016042Y008340D01*
X015976Y008273D01*
X015879Y008240D02*
X015845Y008207D01*
X015745Y008207D01*
X015812Y008207D02*
X015879Y008140D01*
X015879Y008240D02*
X015879Y008307D01*
X015845Y008340D01*
X015745Y008340D01*
X015745Y008140D01*
X015327Y007297D02*
X015194Y007297D01*
X015327Y007164D01*
X015360Y007197D01*
X015360Y007264D01*
X015327Y007297D01*
X015327Y007164D02*
X015194Y007164D01*
X015160Y007197D01*
X015160Y007264D01*
X015194Y007297D01*
X015360Y007067D02*
X015360Y006934D01*
X015360Y007001D02*
X015160Y007001D01*
X015227Y006934D01*
X015260Y006837D02*
X015294Y006804D01*
X015294Y006704D01*
X015294Y006770D02*
X015360Y006837D01*
X015260Y006837D02*
X015194Y006837D01*
X015160Y006804D01*
X015160Y006704D01*
X015360Y006704D01*
X015910Y006604D02*
X016010Y006604D01*
X016044Y006570D01*
X016044Y006504D01*
X016010Y006470D01*
X015910Y006470D01*
X015910Y006404D02*
X015910Y006604D01*
X015977Y006470D02*
X016044Y006404D01*
X016141Y006437D02*
X016174Y006404D01*
X016241Y006404D01*
X016274Y006437D01*
X016274Y006470D01*
X016241Y006504D01*
X016141Y006504D01*
X016141Y006437D01*
X016141Y006504D02*
X016207Y006570D01*
X016274Y006604D01*
X018035Y006329D02*
X018035Y008829D01*
X019535Y008829D01*
X019535Y006329D01*
X018035Y006329D01*
X018535Y006329D02*
X018537Y006360D01*
X018543Y006391D01*
X018553Y006421D01*
X018566Y006449D01*
X018583Y006476D01*
X018603Y006500D01*
X018626Y006522D01*
X018651Y006540D01*
X018679Y006555D01*
X018708Y006567D01*
X018738Y006575D01*
X018769Y006579D01*
X018801Y006579D01*
X018832Y006575D01*
X018862Y006567D01*
X018891Y006555D01*
X018919Y006540D01*
X018944Y006522D01*
X018967Y006500D01*
X018987Y006476D01*
X019004Y006449D01*
X019017Y006421D01*
X019027Y006391D01*
X019033Y006360D01*
X019035Y006329D01*
X017804Y008604D02*
X017738Y008604D01*
X017704Y008637D01*
X017704Y008704D02*
X017771Y008737D01*
X017804Y008737D01*
X017838Y008704D01*
X017838Y008637D01*
X017804Y008604D01*
X017704Y008704D02*
X017704Y008804D01*
X017838Y008804D01*
X017804Y008954D02*
X017804Y009154D01*
X017704Y009054D01*
X017838Y009054D01*
X014335Y006399D02*
X014335Y006349D01*
X014285Y006349D01*
X014335Y006349D02*
X014265Y006419D01*
X014195Y006399D02*
X014195Y006349D01*
X014145Y006349D01*
X014195Y006349D02*
X014125Y006419D01*
D13*
X014135Y006479D02*
X014135Y006779D01*
X014335Y006629D01*
X014135Y006479D01*
X014335Y006479D02*
X014335Y006629D01*
X014335Y006779D01*
X022720Y012269D02*
X022720Y012482D01*
X022827Y012589D01*
X022934Y012482D01*
X022934Y012269D01*
X023089Y012269D02*
X023089Y012589D01*
X023302Y012269D01*
X023302Y012589D01*
X023457Y012589D02*
X023671Y012589D01*
X023564Y012589D02*
X023564Y012269D01*
X022934Y012429D02*
X022720Y012429D01*
X014335Y012579D02*
X014335Y012729D01*
X014135Y012879D01*
X014135Y012579D01*
X014335Y012729D01*
X014335Y012879D01*
M02*
