%
M48
M72
T01C0.0236
T02C0.0340
T03C0.0394
T04C0.0400
T05C0.0433
T06C0.0500
T07C0.0510
T08C0.0512
T09C0.0710
T10C0.1299
%
T01
X36569Y47931
X29851Y50714
X27069Y57431
X29851Y64149
X36569Y66931
X43286Y64149
X46069Y57431
X43286Y50714
X64069Y66431
X111069Y106931
X115569Y118431
X121569Y118431
X127069Y100931
X134569Y96431
X145569Y90431
X142569Y81931
X149069Y98931
X159069Y98931
X169069Y98931
X179069Y98931
X189069Y98931
X199069Y98931
X231569Y66931
X224851Y64149
X222069Y57431
X224851Y50714
X231569Y47931
X238286Y50714
X241069Y57431
X238286Y64149
X220069Y138931
X220069Y158931
X220069Y178931
X220069Y198931
X231569Y212931
X224851Y215714
X222069Y222431
X224851Y229149
X231569Y231931
X238286Y229149
X241069Y222431
X238286Y215714
X178569Y202431
X162069Y208931
X166569Y187431
X175569Y174431
X169069Y167431
X174069Y154931
X169569Y150431
X164069Y148931
X154069Y145431
X181569Y143931
X189069Y143931
X148069Y181431
X46069Y222431
X43286Y215714
X36569Y212931
X29851Y215714
X27069Y222431
X29851Y229149
X36569Y231931
X43286Y229149
T02
X90069Y96931
X90069Y86931
T03
X74569Y87695
X74569Y85727
X74569Y89664
X74569Y91632
X74569Y93601
X74569Y95569
X74569Y97538
X67482Y74113
X65513Y74113
X63545Y74113
X61576Y74113
X59608Y74113
X57639Y74113
X55671Y74113
X48978Y85727
X48978Y87695
X48978Y89664
X48978Y91632
X48978Y93601
X48978Y95569
X48978Y97538
X45069Y119431
T04
X109069Y134931
X119069Y134931
X129069Y134931
X139069Y134931
X149069Y134931
X159069Y134931
X169069Y134931
X179069Y134931
X189069Y134931
X199069Y134931
X209069Y134931
X209069Y64931
X199069Y64931
X189069Y64931
X179069Y64931
X169069Y64931
X159069Y64931
X149069Y64931
X139069Y64931
X129069Y64931
X119069Y64931
X109069Y64931
X109069Y47431
X99069Y47431
X89069Y47431
X79069Y47431
X69069Y47431
X59069Y47431
X119069Y47431
X129069Y47431
X139069Y47431
X149069Y47431
X159069Y47431
X169069Y47431
X179069Y47431
X189069Y47431
X199069Y47431
X209069Y47431
X104569Y224931
T05
X157069Y224931
X157069Y214931
X167069Y214931
X177069Y214931
X187069Y214931
X197069Y214931
X197069Y224931
X187069Y224931
X177069Y224931
X167069Y224931
T06
X190069Y188431
X190069Y168431
X240069Y168431
X240069Y188431
T07
X121569Y201931
X73569Y201931
X73569Y154931
X121569Y154931
T08
X38069Y158746
X38069Y178431
X38069Y198117
X38069Y101774
X38069Y82089
T09
X129569Y178431
T10
X36569Y222431
X36569Y57431
X231569Y57431
X231569Y222431
M30
