G75*
G70*
%OFA0B0*%
%FSLAX24Y24*%
%IPPOS*%
%LPD*%
%AMOC8*
5,1,8,0,0,1.08239X$1,22.5*
%
%ADD10C,0.0080*%
%ADD11C,0.1250*%
%ADD12C,0.1000*%
%ADD13R,0.1200X0.1200*%
%ADD14C,0.1200*%
%ADD15R,0.0660X0.0660*%
%ADD16C,0.0660*%
%ADD17C,0.0591*%
%ADD18R,0.0700X0.0700*%
%ADD19R,0.0600X0.0600*%
%ADD20C,0.0600*%
%ADD21C,0.0100*%
%ADD22C,0.0600*%
%ADD23C,0.0356*%
%ADD24C,0.0400*%
%ADD25C,0.2480*%
%ADD26C,0.0200*%
%ADD27C,0.1200*%
D10*
X002197Y000783D02*
X002410Y000783D01*
X002304Y000783D02*
X002304Y001103D01*
X002197Y000997D01*
X002565Y001050D02*
X002619Y001103D01*
X002725Y001103D01*
X002779Y001050D01*
X002779Y000997D01*
X002725Y000943D01*
X002779Y000890D01*
X002779Y000836D01*
X002725Y000783D01*
X002619Y000783D01*
X002565Y000836D01*
X002672Y000943D02*
X002725Y000943D01*
X002933Y000836D02*
X002933Y001050D01*
X002987Y001103D01*
X003094Y001103D01*
X003147Y001050D01*
X002933Y000836D01*
X002987Y000783D01*
X003094Y000783D01*
X003147Y000836D01*
X003147Y001050D01*
X003670Y001103D02*
X003670Y000783D01*
X003884Y000783D01*
X004038Y000783D02*
X004038Y000997D01*
X004145Y000997D02*
X004199Y000997D01*
X004145Y000997D02*
X004038Y000890D01*
X003884Y001103D02*
X003670Y001103D01*
X003670Y000943D02*
X003777Y000943D01*
X004345Y000890D02*
X004452Y000997D01*
X004505Y000997D01*
X004652Y000943D02*
X004652Y000836D01*
X004706Y000783D01*
X004812Y000783D01*
X004866Y000836D01*
X004866Y000943D01*
X004812Y000997D01*
X004706Y000997D01*
X004652Y000943D01*
X004345Y000997D02*
X004345Y000783D01*
X005020Y000783D02*
X005020Y000997D01*
X005020Y000890D02*
X005127Y000997D01*
X005181Y000997D01*
X005327Y000943D02*
X005381Y000997D01*
X005541Y000997D01*
X005487Y000890D02*
X005381Y000890D01*
X005327Y000943D01*
X005327Y000783D02*
X005487Y000783D01*
X005541Y000836D01*
X005487Y000890D01*
X006064Y000997D02*
X006224Y000997D01*
X006277Y000943D01*
X006277Y000836D01*
X006224Y000783D01*
X006064Y000783D01*
X006064Y001103D01*
X006432Y000943D02*
X006432Y000836D01*
X006486Y000783D01*
X006592Y000783D01*
X006646Y000836D01*
X006646Y000943D01*
X006592Y000997D01*
X006486Y000997D01*
X006432Y000943D01*
X006801Y000997D02*
X006907Y000997D01*
X006854Y001050D02*
X006854Y000836D01*
X006907Y000783D01*
X007099Y000836D02*
X007099Y001050D01*
X007046Y000997D02*
X007153Y000997D01*
X007292Y000943D02*
X007292Y000836D01*
X007345Y000783D01*
X007452Y000783D01*
X007505Y000836D01*
X007505Y000943D01*
X007452Y000997D01*
X007345Y000997D01*
X007292Y000943D01*
X007153Y000783D02*
X007099Y000836D01*
X007660Y000783D02*
X007660Y000997D01*
X007713Y000997D01*
X007767Y000943D01*
X007820Y000997D01*
X007873Y000943D01*
X007873Y000783D01*
X007767Y000783D02*
X007767Y000943D01*
D11*
X012957Y017843D03*
D12*
X012157Y015493D03*
X007357Y015493D03*
X007357Y020193D03*
X012157Y020193D03*
X019007Y018843D03*
X019007Y016843D03*
X024007Y016843D03*
X024007Y018843D03*
D13*
X003807Y019812D03*
X003807Y010177D03*
D14*
X003807Y008209D03*
X003807Y015875D03*
X003807Y017843D03*
D15*
X015707Y021493D03*
X010907Y006493D03*
X005907Y004743D03*
D16*
X006907Y004743D03*
X007907Y004743D03*
X008907Y004743D03*
X009907Y004743D03*
X010907Y004743D03*
X011907Y004743D03*
X012907Y004743D03*
X013907Y004743D03*
X014907Y004743D03*
X015907Y004743D03*
X016907Y004743D03*
X017907Y004743D03*
X018907Y004743D03*
X019907Y004743D03*
X020907Y004743D03*
X020907Y006493D03*
X019907Y006493D03*
X018907Y006493D03*
X017907Y006493D03*
X016907Y006493D03*
X015907Y006493D03*
X014907Y006493D03*
X013907Y006493D03*
X012907Y006493D03*
X011907Y006493D03*
X011907Y013493D03*
X012907Y013493D03*
X013907Y013493D03*
X014907Y013493D03*
X015907Y013493D03*
X016907Y013493D03*
X017907Y013493D03*
X018907Y013493D03*
X019907Y013493D03*
X020907Y013493D03*
X019707Y021493D03*
X018707Y021493D03*
X018707Y022493D03*
X019707Y022493D03*
X017707Y022493D03*
X016707Y022493D03*
X016707Y021493D03*
X017707Y021493D03*
X015707Y022493D03*
X010907Y013493D03*
D17*
X007457Y009754D03*
X007457Y009557D03*
X007457Y009360D03*
X007457Y009163D03*
X007457Y008966D03*
X007457Y008770D03*
X007457Y008573D03*
X006748Y007411D03*
X006551Y007411D03*
X006354Y007411D03*
X006158Y007411D03*
X005961Y007411D03*
X005764Y007411D03*
X005567Y007411D03*
X004898Y008573D03*
X004898Y008770D03*
X004898Y008966D03*
X004898Y009163D03*
X004898Y009360D03*
X004898Y009557D03*
X004898Y009754D03*
X004507Y011943D03*
D18*
X010457Y022493D03*
D19*
X009007Y008693D03*
D20*
X009007Y009693D03*
D21*
X008664Y010057D02*
X007854Y010057D01*
X007877Y010034D02*
X007737Y010174D01*
X007555Y010249D01*
X007358Y010249D01*
X007176Y010174D01*
X007037Y010034D01*
X006962Y009852D01*
X006962Y009655D01*
X006962Y009458D01*
X006962Y009262D01*
X006962Y009065D01*
X006962Y008868D01*
X006962Y008671D01*
X006962Y008474D01*
X007037Y008292D01*
X007176Y008153D01*
X007358Y008077D01*
X007555Y008077D01*
X007737Y008153D01*
X007877Y008292D01*
X007952Y008474D01*
X007952Y008671D01*
X007952Y008868D01*
X007952Y009065D01*
X007952Y009262D01*
X007952Y009458D01*
X007952Y009655D01*
X007952Y009852D01*
X007877Y010034D01*
X007908Y009959D02*
X008576Y009959D01*
X008583Y009976D02*
X008507Y009793D01*
X008507Y009594D01*
X008583Y009410D01*
X008724Y009269D01*
X008907Y009193D01*
X009106Y009193D01*
X009290Y009269D01*
X009314Y009293D01*
X009641Y009293D01*
X012141Y009293D01*
X012472Y009293D01*
X013107Y009927D01*
X013107Y010259D01*
X012872Y010493D01*
X012541Y010493D01*
X012141Y010093D01*
X010107Y010093D01*
X010107Y011128D01*
X010941Y010293D01*
X011272Y010293D01*
X011507Y010527D01*
X011507Y010859D01*
X010607Y011759D01*
X010607Y013044D01*
X010801Y012963D01*
X010871Y012963D01*
X011091Y012743D01*
X011303Y012743D01*
X013003Y012743D01*
X013210Y012743D01*
X013510Y013043D01*
X013559Y013092D01*
X013607Y013044D01*
X013801Y012963D01*
X014012Y012963D01*
X014207Y013044D01*
X014356Y013193D01*
X014407Y013315D01*
X014458Y013193D01*
X014607Y013044D01*
X014801Y012963D01*
X015012Y012963D01*
X015207Y013044D01*
X015356Y013193D01*
X015407Y013315D01*
X015458Y013193D01*
X015607Y013044D01*
X015801Y012963D01*
X016012Y012963D01*
X016207Y013044D01*
X016356Y013193D01*
X016407Y013315D01*
X016458Y013193D01*
X016607Y013044D01*
X016801Y012963D01*
X017012Y012963D01*
X017157Y013023D01*
X017157Y006963D01*
X017012Y007023D01*
X016801Y007023D01*
X016607Y006942D01*
X016458Y006793D01*
X016407Y006671D01*
X016356Y006793D01*
X016207Y006942D01*
X016012Y007023D01*
X015801Y007023D01*
X015607Y006942D01*
X015458Y006793D01*
X015407Y006671D01*
X015356Y006793D01*
X015207Y006942D01*
X015012Y007023D01*
X014801Y007023D01*
X014607Y006942D01*
X014458Y006793D01*
X014407Y006671D01*
X014356Y006793D01*
X014207Y006942D01*
X014012Y007023D01*
X013801Y007023D01*
X013607Y006942D01*
X013458Y006793D01*
X013407Y006671D01*
X013356Y006793D01*
X013207Y006942D01*
X013012Y007023D01*
X012801Y007023D01*
X012607Y006942D01*
X012458Y006793D01*
X012380Y006606D01*
X012314Y006765D01*
X012179Y006900D01*
X012002Y006973D01*
X011957Y006973D01*
X011957Y006543D01*
X011857Y006543D01*
X011857Y006973D01*
X011811Y006973D01*
X011635Y006900D01*
X011500Y006765D01*
X011437Y006613D01*
X011437Y006906D01*
X011320Y007023D01*
X010494Y007023D01*
X010377Y006906D01*
X010377Y006080D01*
X010494Y005963D01*
X011320Y005963D01*
X011437Y006080D01*
X011437Y006374D01*
X011500Y006221D01*
X011635Y006086D01*
X011811Y006013D01*
X011857Y006013D01*
X011857Y006443D01*
X011957Y006443D01*
X011957Y006013D01*
X012002Y006013D01*
X012179Y006086D01*
X012314Y006221D01*
X012380Y006381D01*
X012458Y006193D01*
X012607Y006044D01*
X012801Y005963D01*
X013012Y005963D01*
X013207Y006044D01*
X013356Y006193D01*
X013407Y006315D01*
X013458Y006193D01*
X013607Y006044D01*
X013801Y005963D01*
X014012Y005963D01*
X014031Y005971D01*
X013953Y005893D01*
X010703Y005893D01*
X010557Y005747D01*
X010303Y005493D01*
X010091Y005493D01*
X009871Y005273D01*
X009801Y005273D01*
X009607Y005192D01*
X009458Y005043D01*
X009407Y004921D01*
X009356Y005043D01*
X009207Y005192D01*
X009012Y005273D01*
X008801Y005273D01*
X008607Y005192D01*
X008458Y005043D01*
X008380Y004856D01*
X008314Y005015D01*
X008179Y005150D01*
X008002Y005223D01*
X007957Y005223D01*
X007957Y004793D01*
X007857Y004793D01*
X007857Y005223D01*
X007811Y005223D01*
X007635Y005150D01*
X007500Y005015D01*
X007427Y004839D01*
X007427Y004793D01*
X007857Y004793D01*
X007857Y004693D01*
X007427Y004693D01*
X007427Y004648D01*
X007491Y004493D01*
X007323Y004493D01*
X007387Y004648D01*
X007387Y004693D01*
X006957Y004693D01*
X006957Y004793D01*
X007387Y004793D01*
X007387Y004839D01*
X007314Y005015D01*
X007179Y005150D01*
X007002Y005223D01*
X006957Y005223D01*
X006957Y004793D01*
X006857Y004793D01*
X006857Y005223D01*
X006811Y005223D01*
X006635Y005150D01*
X006500Y005015D01*
X006437Y004863D01*
X006437Y005156D01*
X006320Y005273D01*
X005494Y005273D01*
X005377Y005156D01*
X005377Y004493D01*
X002407Y004493D01*
X002407Y013643D01*
X009060Y013643D01*
X009207Y013790D01*
X009507Y014090D01*
X009507Y010093D01*
X009314Y010093D01*
X009290Y010117D01*
X009106Y010193D01*
X008907Y010193D01*
X008724Y010117D01*
X008583Y009976D01*
X008535Y009860D02*
X007949Y009860D01*
X007952Y009762D02*
X008507Y009762D01*
X008507Y009663D02*
X007952Y009663D01*
X007952Y009564D02*
X008519Y009564D01*
X008560Y009466D02*
X007952Y009466D01*
X007952Y009367D02*
X008625Y009367D01*
X008725Y009269D02*
X007952Y009269D01*
X007952Y009170D02*
X017157Y009170D01*
X017157Y009072D02*
X009440Y009072D01*
X009457Y009055D02*
X009369Y009143D01*
X009042Y009143D01*
X009042Y008728D01*
X009457Y008728D01*
X009457Y009055D01*
X009457Y008973D02*
X017157Y008973D01*
X017157Y008875D02*
X009457Y008875D01*
X009457Y008776D02*
X017157Y008776D01*
X017157Y008678D02*
X009042Y008678D01*
X009042Y008658D02*
X009042Y008728D01*
X008972Y008728D01*
X008972Y008658D01*
X009042Y008658D01*
X009457Y008658D01*
X009457Y008331D01*
X009369Y008243D01*
X009042Y008243D01*
X009042Y008658D01*
X008972Y008658D02*
X008972Y008243D01*
X008645Y008243D01*
X008557Y008331D01*
X008557Y008658D01*
X008972Y008658D01*
X008972Y008678D02*
X007952Y008678D01*
X007952Y008776D02*
X008557Y008776D01*
X008557Y008728D02*
X008972Y008728D01*
X008972Y009143D01*
X008645Y009143D01*
X008557Y009055D01*
X008557Y008728D01*
X008557Y008875D02*
X007952Y008875D01*
X007952Y008973D02*
X008557Y008973D01*
X008573Y009072D02*
X007952Y009072D01*
X007952Y008579D02*
X008557Y008579D01*
X008557Y008481D02*
X007952Y008481D01*
X007914Y008382D02*
X008557Y008382D01*
X008604Y008283D02*
X007868Y008283D01*
X007769Y008185D02*
X017157Y008185D01*
X017157Y008283D02*
X009409Y008283D01*
X009457Y008382D02*
X017157Y008382D01*
X017157Y008481D02*
X009457Y008481D01*
X009457Y008579D02*
X017157Y008579D01*
X017157Y008086D02*
X007577Y008086D01*
X007337Y008086D02*
X005018Y008086D01*
X004996Y008077D02*
X005178Y008153D01*
X005318Y008292D01*
X005393Y008474D01*
X005393Y008671D01*
X005393Y008868D01*
X005393Y009065D01*
X005352Y009163D01*
X005393Y009262D01*
X005393Y009459D01*
X005393Y009655D01*
X005393Y009852D01*
X005318Y010034D01*
X005178Y010174D01*
X004996Y010249D01*
X004799Y010249D01*
X004617Y010174D01*
X004607Y010163D01*
X004607Y010860D01*
X004490Y010977D01*
X003124Y010977D01*
X003007Y010860D01*
X003007Y009495D01*
X003124Y009377D01*
X004403Y009377D01*
X004403Y009262D01*
X004443Y009163D01*
X004403Y009065D01*
X004403Y008868D01*
X004403Y008674D01*
X004232Y008845D01*
X003956Y008959D01*
X003857Y008959D01*
X003857Y008259D01*
X004511Y008259D01*
X004617Y008153D01*
X004799Y008077D01*
X004996Y008077D01*
X004778Y008086D02*
X004557Y008086D01*
X004557Y008060D02*
X004557Y008159D01*
X003857Y008159D01*
X003857Y008259D01*
X003757Y008259D01*
X003757Y008959D01*
X003658Y008959D01*
X003382Y008845D01*
X003171Y008634D01*
X003057Y008358D01*
X003057Y008259D01*
X003757Y008259D01*
X003757Y008159D01*
X003857Y008159D01*
X003857Y007459D01*
X003956Y007459D01*
X004232Y007573D01*
X004443Y007784D01*
X004557Y008060D01*
X004527Y007988D02*
X017157Y007988D01*
X017157Y007889D02*
X006888Y007889D01*
X006847Y007906D02*
X006650Y007906D01*
X006453Y007906D01*
X006256Y007906D01*
X006158Y007866D01*
X006059Y007906D01*
X005862Y007906D01*
X005666Y007906D01*
X005469Y007906D01*
X005287Y007831D01*
X005147Y007692D01*
X005072Y007510D01*
X005072Y007313D01*
X005147Y007131D01*
X005287Y006991D01*
X005469Y006916D01*
X005666Y006916D01*
X005862Y006916D01*
X006059Y006916D01*
X006158Y006957D01*
X006256Y006916D01*
X006453Y006916D01*
X006650Y006916D01*
X006847Y006916D01*
X007029Y006991D01*
X007168Y007131D01*
X007243Y007313D01*
X007243Y007510D01*
X007168Y007692D01*
X007029Y007831D01*
X006847Y007906D01*
X007069Y007791D02*
X017157Y007791D01*
X017157Y007692D02*
X007168Y007692D01*
X007209Y007594D02*
X017157Y007594D01*
X017157Y007495D02*
X007243Y007495D01*
X007243Y007397D02*
X017157Y007397D01*
X017157Y007298D02*
X007237Y007298D01*
X007196Y007199D02*
X017157Y007199D01*
X017157Y007101D02*
X007138Y007101D01*
X007040Y007002D02*
X010473Y007002D01*
X010377Y006904D02*
X002407Y006904D01*
X002407Y007002D02*
X005276Y007002D01*
X005177Y007101D02*
X002407Y007101D01*
X002407Y007199D02*
X005119Y007199D01*
X005078Y007298D02*
X002407Y007298D01*
X002407Y007397D02*
X005072Y007397D01*
X005072Y007495D02*
X004043Y007495D01*
X003857Y007495D02*
X003757Y007495D01*
X003757Y007459D02*
X003757Y008159D01*
X003057Y008159D01*
X003057Y008060D01*
X003171Y007784D01*
X003382Y007573D01*
X003658Y007459D01*
X003757Y007459D01*
X003757Y007594D02*
X003857Y007594D01*
X003857Y007692D02*
X003757Y007692D01*
X003757Y007791D02*
X003857Y007791D01*
X003857Y007889D02*
X003757Y007889D01*
X003757Y007988D02*
X003857Y007988D01*
X003857Y008086D02*
X003757Y008086D01*
X003757Y008185D02*
X002407Y008185D01*
X002407Y008283D02*
X003057Y008283D01*
X003067Y008382D02*
X002407Y008382D01*
X002407Y008481D02*
X003108Y008481D01*
X003148Y008579D02*
X002407Y008579D01*
X002407Y008678D02*
X003215Y008678D01*
X003313Y008776D02*
X002407Y008776D01*
X002407Y008875D02*
X003454Y008875D01*
X003757Y008875D02*
X003857Y008875D01*
X003857Y008776D02*
X003757Y008776D01*
X003757Y008678D02*
X003857Y008678D01*
X003857Y008579D02*
X003757Y008579D01*
X003757Y008481D02*
X003857Y008481D01*
X003857Y008382D02*
X003757Y008382D01*
X003757Y008283D02*
X003857Y008283D01*
X003857Y008185D02*
X004585Y008185D01*
X004486Y007889D02*
X005427Y007889D01*
X005246Y007791D02*
X004445Y007791D01*
X004351Y007692D02*
X005148Y007692D01*
X005107Y007594D02*
X004252Y007594D01*
X003570Y007495D02*
X002407Y007495D01*
X002407Y007594D02*
X003361Y007594D01*
X003263Y007692D02*
X002407Y007692D01*
X002407Y007791D02*
X003168Y007791D01*
X003127Y007889D02*
X002407Y007889D01*
X002407Y007988D02*
X003087Y007988D01*
X003057Y008086D02*
X002407Y008086D01*
X002407Y008973D02*
X004403Y008973D01*
X004403Y008875D02*
X004159Y008875D01*
X004300Y008776D02*
X004403Y008776D01*
X004399Y008678D02*
X004403Y008678D01*
X004405Y009072D02*
X002407Y009072D01*
X002407Y009170D02*
X004440Y009170D01*
X004403Y009269D02*
X002407Y009269D01*
X002407Y009367D02*
X004403Y009367D01*
X004607Y010254D02*
X009507Y010254D01*
X009507Y010156D02*
X009197Y010156D01*
X009507Y010353D02*
X004607Y010353D01*
X004607Y010451D02*
X009507Y010451D01*
X009507Y010550D02*
X004607Y010550D01*
X004607Y010648D02*
X009507Y010648D01*
X009507Y010747D02*
X004607Y010747D01*
X004607Y010846D02*
X009507Y010846D01*
X009507Y010944D02*
X004523Y010944D01*
X005196Y010156D02*
X007158Y010156D01*
X007060Y010057D02*
X005295Y010057D01*
X005349Y009959D02*
X007006Y009959D01*
X006965Y009860D02*
X005390Y009860D01*
X005393Y009762D02*
X006962Y009762D01*
X006962Y009663D02*
X005393Y009663D01*
X005393Y009564D02*
X006962Y009564D01*
X006962Y009466D02*
X005393Y009466D01*
X005393Y009367D02*
X006962Y009367D01*
X006962Y009269D02*
X005393Y009269D01*
X005355Y009170D02*
X006962Y009170D01*
X006962Y009072D02*
X005390Y009072D01*
X005393Y008973D02*
X006962Y008973D01*
X006962Y008875D02*
X005393Y008875D01*
X005393Y008776D02*
X006962Y008776D01*
X006962Y008678D02*
X005393Y008678D01*
X005393Y008579D02*
X006962Y008579D01*
X006962Y008481D02*
X005393Y008481D01*
X005355Y008382D02*
X007000Y008382D01*
X007046Y008283D02*
X005309Y008283D01*
X005210Y008185D02*
X007144Y008185D01*
X006214Y007889D02*
X006101Y007889D01*
X007755Y010156D02*
X008817Y010156D01*
X009507Y011043D02*
X002407Y011043D01*
X002407Y011141D02*
X009507Y011141D01*
X009507Y011240D02*
X002407Y011240D01*
X002407Y011338D02*
X009507Y011338D01*
X009507Y011437D02*
X002407Y011437D01*
X002407Y011535D02*
X009507Y011535D01*
X009507Y011634D02*
X002407Y011634D01*
X002407Y011732D02*
X009507Y011732D01*
X009507Y011831D02*
X002407Y011831D01*
X002407Y011930D02*
X009507Y011930D01*
X009507Y012028D02*
X002407Y012028D01*
X002407Y012127D02*
X009507Y012127D01*
X009507Y012225D02*
X002407Y012225D01*
X002407Y012324D02*
X009507Y012324D01*
X009507Y012422D02*
X002407Y012422D01*
X002407Y012521D02*
X009507Y012521D01*
X009507Y012619D02*
X002407Y012619D01*
X002407Y012718D02*
X009507Y012718D01*
X009507Y012816D02*
X002407Y012816D01*
X002407Y012915D02*
X009507Y012915D01*
X009507Y013014D02*
X002407Y013014D01*
X002407Y013112D02*
X009507Y013112D01*
X009507Y013211D02*
X002407Y013211D01*
X002407Y013309D02*
X009507Y013309D01*
X009507Y013408D02*
X002407Y013408D01*
X002407Y013506D02*
X009507Y013506D01*
X009507Y013605D02*
X002407Y013605D01*
X002407Y010944D02*
X003091Y010944D01*
X003007Y010846D02*
X002407Y010846D01*
X002407Y010747D02*
X003007Y010747D01*
X003007Y010648D02*
X002407Y010648D01*
X002407Y010550D02*
X003007Y010550D01*
X003007Y010451D02*
X002407Y010451D01*
X002407Y010353D02*
X003007Y010353D01*
X003007Y010254D02*
X002407Y010254D01*
X002407Y010156D02*
X003007Y010156D01*
X003007Y010057D02*
X002407Y010057D01*
X002407Y009959D02*
X003007Y009959D01*
X003007Y009860D02*
X002407Y009860D01*
X002407Y009762D02*
X003007Y009762D01*
X003007Y009663D02*
X002407Y009663D01*
X002407Y009564D02*
X003007Y009564D01*
X003035Y009466D02*
X002407Y009466D01*
X002407Y006805D02*
X010377Y006805D01*
X010377Y006707D02*
X002407Y006707D01*
X002407Y006608D02*
X010377Y006608D01*
X010377Y006510D02*
X002407Y006510D01*
X002407Y006411D02*
X010377Y006411D01*
X010377Y006313D02*
X002407Y006313D01*
X002407Y006214D02*
X010377Y006214D01*
X010377Y006115D02*
X002407Y006115D01*
X002407Y006017D02*
X010440Y006017D01*
X010630Y005820D02*
X002407Y005820D01*
X002407Y005918D02*
X013979Y005918D01*
X014057Y005643D02*
X014557Y006143D01*
X014422Y006707D02*
X014392Y006707D01*
X014344Y006805D02*
X014469Y006805D01*
X014568Y006904D02*
X014246Y006904D01*
X014062Y007002D02*
X014751Y007002D01*
X015062Y007002D02*
X015751Y007002D01*
X015568Y006904D02*
X015246Y006904D01*
X015344Y006805D02*
X015469Y006805D01*
X015422Y006707D02*
X015392Y006707D01*
X015557Y006143D02*
X014857Y005443D01*
X011607Y005443D01*
X011257Y005093D01*
X010807Y005643D02*
X014057Y005643D01*
X013672Y006017D02*
X013142Y006017D01*
X013279Y006115D02*
X013535Y006115D01*
X013449Y006214D02*
X013365Y006214D01*
X013406Y006313D02*
X013408Y006313D01*
X013392Y006707D02*
X013422Y006707D01*
X013469Y006805D02*
X013344Y006805D01*
X013246Y006904D02*
X013568Y006904D01*
X013751Y007002D02*
X013062Y007002D01*
X012751Y007002D02*
X011340Y007002D01*
X011437Y006904D02*
X011644Y006904D01*
X011540Y006805D02*
X011437Y006805D01*
X011437Y006707D02*
X011476Y006707D01*
X011857Y006707D02*
X011957Y006707D01*
X011957Y006805D02*
X011857Y006805D01*
X011857Y006904D02*
X011957Y006904D01*
X012170Y006904D02*
X012568Y006904D01*
X012469Y006805D02*
X012274Y006805D01*
X012338Y006707D02*
X012422Y006707D01*
X012379Y006608D02*
X012381Y006608D01*
X012352Y006313D02*
X012408Y006313D01*
X012449Y006214D02*
X012307Y006214D01*
X012208Y006115D02*
X012535Y006115D01*
X012672Y006017D02*
X012011Y006017D01*
X011957Y006017D02*
X011857Y006017D01*
X011802Y006017D02*
X011373Y006017D01*
X011437Y006115D02*
X011606Y006115D01*
X011507Y006214D02*
X011437Y006214D01*
X011437Y006313D02*
X011462Y006313D01*
X011857Y006313D02*
X011957Y006313D01*
X011957Y006411D02*
X011857Y006411D01*
X011857Y006214D02*
X011957Y006214D01*
X011957Y006115D02*
X011857Y006115D01*
X011857Y006608D02*
X011957Y006608D01*
X010807Y005643D02*
X010257Y005093D01*
X009925Y005327D02*
X002407Y005327D01*
X002407Y005229D02*
X005449Y005229D01*
X005377Y005130D02*
X002407Y005130D01*
X002407Y005031D02*
X005377Y005031D01*
X005377Y004933D02*
X002407Y004933D01*
X002407Y004834D02*
X005377Y004834D01*
X005377Y004736D02*
X002407Y004736D01*
X002407Y004637D02*
X005377Y004637D01*
X005377Y004539D02*
X002407Y004539D01*
X002407Y005426D02*
X010024Y005426D01*
X010334Y005524D02*
X002407Y005524D01*
X002407Y005623D02*
X010433Y005623D01*
X010531Y005721D02*
X002407Y005721D01*
X006364Y005229D02*
X008694Y005229D01*
X008544Y005130D02*
X008199Y005130D01*
X008297Y005031D02*
X008453Y005031D01*
X008412Y004933D02*
X008348Y004933D01*
X007957Y004933D02*
X007857Y004933D01*
X007857Y005031D02*
X007957Y005031D01*
X007957Y005130D02*
X007857Y005130D01*
X007615Y005130D02*
X007199Y005130D01*
X007297Y005031D02*
X007516Y005031D01*
X007466Y004933D02*
X007348Y004933D01*
X007387Y004834D02*
X007427Y004834D01*
X007431Y004637D02*
X007383Y004637D01*
X007342Y004539D02*
X007472Y004539D01*
X007857Y004736D02*
X006957Y004736D01*
X006957Y004834D02*
X006857Y004834D01*
X006857Y004933D02*
X006957Y004933D01*
X006957Y005031D02*
X006857Y005031D01*
X006857Y005130D02*
X006957Y005130D01*
X006615Y005130D02*
X006437Y005130D01*
X006437Y005031D02*
X006516Y005031D01*
X006466Y004933D02*
X006437Y004933D01*
X007857Y004834D02*
X007957Y004834D01*
X009120Y005229D02*
X009694Y005229D01*
X009544Y005130D02*
X009269Y005130D01*
X009361Y005031D02*
X009453Y005031D01*
X009412Y004933D02*
X009402Y004933D01*
X012257Y005093D02*
X012407Y005243D01*
X015657Y005243D01*
X016557Y006143D01*
X016422Y006707D02*
X016392Y006707D01*
X016344Y006805D02*
X016469Y006805D01*
X016568Y006904D02*
X016246Y006904D01*
X016062Y007002D02*
X016751Y007002D01*
X017062Y007002D02*
X017157Y007002D01*
X017657Y007002D02*
X017751Y007002D01*
X017801Y007023D02*
X017657Y006963D01*
X017657Y013023D01*
X017801Y012963D01*
X017871Y012963D01*
X018091Y012743D01*
X018157Y012743D01*
X018157Y006963D01*
X018012Y007023D01*
X017801Y007023D01*
X017657Y007101D02*
X018157Y007101D01*
X018157Y007199D02*
X017657Y007199D01*
X017657Y007298D02*
X018157Y007298D01*
X018157Y007397D02*
X017657Y007397D01*
X017657Y007495D02*
X018157Y007495D01*
X018157Y007594D02*
X017657Y007594D01*
X017657Y007692D02*
X018157Y007692D01*
X018157Y007791D02*
X017657Y007791D01*
X017657Y007889D02*
X018157Y007889D01*
X018157Y007988D02*
X017657Y007988D01*
X017657Y008086D02*
X018157Y008086D01*
X018157Y008185D02*
X017657Y008185D01*
X017657Y008283D02*
X018157Y008283D01*
X018157Y008382D02*
X017657Y008382D01*
X017657Y008481D02*
X018157Y008481D01*
X018157Y008579D02*
X017657Y008579D01*
X017657Y008678D02*
X018157Y008678D01*
X018157Y008776D02*
X017657Y008776D01*
X017657Y008875D02*
X018157Y008875D01*
X018157Y008973D02*
X017657Y008973D01*
X017657Y009072D02*
X018157Y009072D01*
X018157Y009170D02*
X017657Y009170D01*
X017657Y009269D02*
X018157Y009269D01*
X018157Y009367D02*
X017657Y009367D01*
X017657Y009466D02*
X018157Y009466D01*
X018157Y009564D02*
X017657Y009564D01*
X017657Y009663D02*
X018157Y009663D01*
X018157Y009762D02*
X017657Y009762D01*
X017657Y009860D02*
X018157Y009860D01*
X018157Y009959D02*
X017657Y009959D01*
X017657Y010057D02*
X018157Y010057D01*
X018157Y010156D02*
X017657Y010156D01*
X017657Y010254D02*
X018157Y010254D01*
X018157Y010353D02*
X017657Y010353D01*
X017657Y010451D02*
X018157Y010451D01*
X018157Y010550D02*
X017657Y010550D01*
X017657Y010648D02*
X018157Y010648D01*
X018157Y010747D02*
X017657Y010747D01*
X017657Y010846D02*
X018157Y010846D01*
X018157Y010944D02*
X017657Y010944D01*
X017657Y011043D02*
X018157Y011043D01*
X018157Y011141D02*
X017657Y011141D01*
X017657Y011240D02*
X018157Y011240D01*
X018157Y011338D02*
X017657Y011338D01*
X017657Y011437D02*
X018157Y011437D01*
X018157Y011535D02*
X017657Y011535D01*
X017657Y011634D02*
X018157Y011634D01*
X018157Y011732D02*
X017657Y011732D01*
X017657Y011831D02*
X018157Y011831D01*
X018157Y011930D02*
X017657Y011930D01*
X017657Y012028D02*
X018157Y012028D01*
X018157Y012127D02*
X017657Y012127D01*
X017657Y012225D02*
X018157Y012225D01*
X018157Y012324D02*
X017657Y012324D01*
X017657Y012422D02*
X018157Y012422D01*
X018157Y012521D02*
X017657Y012521D01*
X017657Y012619D02*
X018157Y012619D01*
X018157Y012718D02*
X017657Y012718D01*
X017657Y012816D02*
X018018Y012816D01*
X017919Y012915D02*
X017657Y012915D01*
X017657Y013014D02*
X017680Y013014D01*
X017157Y013014D02*
X017134Y013014D01*
X017157Y012915D02*
X013382Y012915D01*
X013284Y012816D02*
X017157Y012816D01*
X017157Y012718D02*
X010607Y012718D01*
X010607Y012816D02*
X011018Y012816D01*
X010919Y012915D02*
X010607Y012915D01*
X010607Y013014D02*
X010680Y013014D01*
X010607Y012619D02*
X017157Y012619D01*
X017157Y012521D02*
X010607Y012521D01*
X010607Y012422D02*
X017157Y012422D01*
X017157Y012324D02*
X010607Y012324D01*
X010607Y012225D02*
X017157Y012225D01*
X017157Y012127D02*
X010607Y012127D01*
X010607Y012028D02*
X017157Y012028D01*
X017157Y011930D02*
X010607Y011930D01*
X010607Y011831D02*
X017157Y011831D01*
X017157Y011732D02*
X010633Y011732D01*
X010732Y011634D02*
X017157Y011634D01*
X017157Y011535D02*
X010830Y011535D01*
X010929Y011437D02*
X017157Y011437D01*
X017157Y011338D02*
X011027Y011338D01*
X011126Y011240D02*
X017157Y011240D01*
X017157Y011141D02*
X011224Y011141D01*
X011323Y011043D02*
X017157Y011043D01*
X017157Y010944D02*
X011421Y010944D01*
X011507Y010846D02*
X017157Y010846D01*
X017157Y010747D02*
X011507Y010747D01*
X011507Y010648D02*
X017157Y010648D01*
X017157Y010550D02*
X011507Y010550D01*
X011431Y010451D02*
X012499Y010451D01*
X012401Y010353D02*
X011332Y010353D01*
X010881Y010353D02*
X010107Y010353D01*
X010107Y010451D02*
X010783Y010451D01*
X010684Y010550D02*
X010107Y010550D01*
X010107Y010648D02*
X010586Y010648D01*
X010487Y010747D02*
X010107Y010747D01*
X010107Y010846D02*
X010389Y010846D01*
X010290Y010944D02*
X010107Y010944D01*
X010107Y011043D02*
X010192Y011043D01*
X010107Y010254D02*
X012302Y010254D01*
X012204Y010156D02*
X010107Y010156D01*
X009289Y009269D02*
X017157Y009269D01*
X017157Y009367D02*
X012547Y009367D01*
X012645Y009466D02*
X017157Y009466D01*
X017157Y009564D02*
X012744Y009564D01*
X012842Y009663D02*
X017157Y009663D01*
X017157Y009762D02*
X012941Y009762D01*
X013039Y009860D02*
X017157Y009860D01*
X017157Y009959D02*
X013107Y009959D01*
X013107Y010057D02*
X017157Y010057D01*
X017157Y010156D02*
X013107Y010156D01*
X013107Y010254D02*
X017157Y010254D01*
X017157Y010353D02*
X013013Y010353D01*
X012914Y010451D02*
X017157Y010451D01*
X018657Y010451D02*
X019157Y010451D01*
X019157Y010353D02*
X018657Y010353D01*
X018657Y010254D02*
X019157Y010254D01*
X019157Y010156D02*
X018657Y010156D01*
X018657Y010057D02*
X019157Y010057D01*
X019157Y009959D02*
X018657Y009959D01*
X018657Y009860D02*
X019157Y009860D01*
X019157Y009762D02*
X018657Y009762D01*
X018657Y009663D02*
X019157Y009663D01*
X019157Y009564D02*
X018657Y009564D01*
X018657Y009466D02*
X019157Y009466D01*
X019157Y009367D02*
X018657Y009367D01*
X018657Y009269D02*
X019157Y009269D01*
X019157Y009170D02*
X018657Y009170D01*
X018657Y009072D02*
X019157Y009072D01*
X019157Y008973D02*
X018657Y008973D01*
X018657Y008875D02*
X019157Y008875D01*
X019157Y008776D02*
X018657Y008776D01*
X018657Y008678D02*
X019157Y008678D01*
X019157Y008579D02*
X018657Y008579D01*
X018657Y008481D02*
X019157Y008481D01*
X019157Y008382D02*
X018657Y008382D01*
X018657Y008283D02*
X019157Y008283D01*
X019157Y008185D02*
X018657Y008185D01*
X018657Y008086D02*
X019157Y008086D01*
X019157Y007988D02*
X018657Y007988D01*
X018657Y007889D02*
X019157Y007889D01*
X019157Y007791D02*
X018657Y007791D01*
X018657Y007692D02*
X019157Y007692D01*
X019157Y007594D02*
X018657Y007594D01*
X018657Y007495D02*
X019157Y007495D01*
X019157Y007397D02*
X018657Y007397D01*
X018657Y007298D02*
X019157Y007298D01*
X019157Y007199D02*
X018657Y007199D01*
X018657Y007101D02*
X019157Y007101D01*
X019157Y007002D02*
X019062Y007002D01*
X019012Y007023D02*
X018801Y007023D01*
X018657Y006963D01*
X018657Y012890D01*
X018657Y012977D01*
X018657Y013023D01*
X018801Y012963D01*
X018871Y012963D01*
X019091Y012743D01*
X019157Y012743D01*
X019157Y006963D01*
X019012Y007023D01*
X018751Y007002D02*
X018657Y007002D01*
X018157Y007002D02*
X018062Y007002D01*
X017407Y006243D02*
X017407Y014593D01*
X016957Y015043D01*
X017057Y015143D01*
X017057Y015643D01*
X018257Y016843D01*
X017857Y016857D02*
X016824Y016857D01*
X016922Y016955D02*
X017857Y016955D01*
X017857Y017009D02*
X017857Y016797D01*
X016953Y015893D01*
X016807Y015747D01*
X016807Y015390D01*
X016743Y015364D01*
X016636Y015257D01*
X016579Y015118D01*
X016579Y014968D01*
X016636Y014829D01*
X016743Y014723D01*
X016882Y014665D01*
X016981Y014665D01*
X017157Y014490D01*
X017157Y013963D01*
X017012Y014023D01*
X016801Y014023D01*
X016607Y013942D01*
X016458Y013793D01*
X016407Y013671D01*
X016356Y013793D01*
X016307Y013843D01*
X016307Y014059D01*
X016157Y014209D01*
X016157Y015190D01*
X016360Y015393D01*
X016507Y015540D01*
X016507Y016540D01*
X017910Y017943D01*
X018057Y018090D01*
X018057Y018990D01*
X019660Y020593D01*
X019872Y020593D01*
X020107Y020827D01*
X020107Y021144D01*
X020156Y021193D01*
X020237Y021388D01*
X020237Y021599D01*
X020156Y021793D01*
X020007Y021942D01*
X019885Y021993D01*
X020007Y022044D01*
X020156Y022193D01*
X020237Y022388D01*
X020237Y022599D01*
X020156Y022793D01*
X020007Y022942D01*
X019812Y023023D01*
X019742Y023023D01*
X019372Y023393D01*
X019041Y023393D01*
X018891Y023243D01*
X018403Y023243D01*
X018257Y023097D01*
X018055Y022895D01*
X018007Y022942D01*
X017812Y023023D01*
X017601Y023023D01*
X017407Y022942D01*
X017258Y022793D01*
X017207Y022671D01*
X017156Y022793D01*
X017007Y022942D01*
X016812Y023023D01*
X016601Y023023D01*
X016407Y022942D01*
X016258Y022793D01*
X016180Y022606D01*
X016114Y022765D01*
X015979Y022900D01*
X015802Y022973D01*
X015757Y022973D01*
X015757Y022543D01*
X015657Y022543D01*
X015657Y022973D01*
X015611Y022973D01*
X015435Y022900D01*
X015300Y022765D01*
X015227Y022589D01*
X015227Y022543D01*
X015657Y022543D01*
X015657Y022443D01*
X015227Y022443D01*
X015227Y022398D01*
X015300Y022221D01*
X015435Y022086D01*
X015587Y022023D01*
X015294Y022023D01*
X015177Y021906D01*
X015177Y021080D01*
X015294Y020963D01*
X015307Y020963D01*
X015307Y018577D01*
X015307Y018009D01*
X015007Y017709D01*
X015007Y017817D01*
X015021Y017823D01*
X015127Y017929D01*
X015185Y018068D01*
X015185Y018218D01*
X015127Y018357D01*
X015021Y018464D01*
X014882Y018521D01*
X014732Y018521D01*
X014607Y018469D01*
X014607Y018527D01*
X014402Y018732D01*
X014377Y018792D01*
X013906Y019263D01*
X013845Y019288D01*
X013757Y019377D01*
X013757Y019690D01*
X013757Y019897D01*
X012707Y020947D01*
X012560Y021093D01*
X010010Y021093D01*
X009257Y021847D01*
X009110Y021993D01*
X005810Y021993D01*
X005707Y022097D01*
X005707Y023493D01*
X024407Y023493D01*
X024407Y019433D01*
X024403Y019437D01*
X024146Y019543D01*
X023868Y019543D01*
X023610Y019437D01*
X023413Y019240D01*
X023307Y018982D01*
X023307Y018704D01*
X023413Y018447D01*
X023610Y018250D01*
X023868Y018143D01*
X024146Y018143D01*
X024403Y018250D01*
X024407Y018253D01*
X024407Y017693D01*
X023703Y017693D01*
X023557Y017547D01*
X023157Y017147D01*
X023157Y016940D01*
X023157Y014847D01*
X021357Y013047D01*
X021357Y013195D01*
X021437Y013388D01*
X021437Y013599D01*
X021356Y013793D01*
X021207Y013942D01*
X021012Y014023D01*
X020801Y014023D01*
X020607Y013942D01*
X020559Y013895D01*
X018857Y015597D01*
X018710Y015743D01*
X017692Y015743D01*
X017621Y015814D01*
X017593Y015825D01*
X018210Y016443D01*
X018417Y016443D01*
X018610Y016250D01*
X018868Y016143D01*
X019146Y016143D01*
X019403Y016250D01*
X019600Y016447D01*
X019707Y016704D01*
X019707Y016982D01*
X019600Y017240D01*
X019403Y017437D01*
X019146Y017543D01*
X018868Y017543D01*
X018610Y017437D01*
X018417Y017243D01*
X018091Y017243D01*
X017857Y017009D01*
X017902Y017054D02*
X017021Y017054D01*
X017120Y017152D02*
X018000Y017152D01*
X017818Y016758D02*
X016725Y016758D01*
X016627Y016660D02*
X017720Y016660D01*
X017621Y016561D02*
X016528Y016561D01*
X016507Y016463D02*
X017523Y016463D01*
X017424Y016364D02*
X016507Y016364D01*
X016507Y016265D02*
X017326Y016265D01*
X017227Y016167D02*
X016507Y016167D01*
X016507Y016068D02*
X017129Y016068D01*
X017030Y015970D02*
X016507Y015970D01*
X016507Y015871D02*
X016931Y015871D01*
X016953Y015893D02*
X016953Y015893D01*
X016833Y015773D02*
X016507Y015773D01*
X016507Y015674D02*
X016807Y015674D01*
X016807Y015576D02*
X016507Y015576D01*
X016444Y015477D02*
X016807Y015477D01*
X016779Y015379D02*
X016346Y015379D01*
X016247Y015280D02*
X016659Y015280D01*
X016605Y015181D02*
X016157Y015181D01*
X016157Y015083D02*
X016579Y015083D01*
X016579Y014984D02*
X016157Y014984D01*
X016157Y014886D02*
X016613Y014886D01*
X016678Y014787D02*
X016157Y014787D01*
X016157Y014689D02*
X016824Y014689D01*
X017056Y014590D02*
X016157Y014590D01*
X016157Y014492D02*
X017155Y014492D01*
X017157Y014393D02*
X016157Y014393D01*
X016157Y014295D02*
X017157Y014295D01*
X017157Y014196D02*
X016170Y014196D01*
X016268Y014097D02*
X017157Y014097D01*
X017157Y013999D02*
X017071Y013999D01*
X016743Y013999D02*
X016307Y013999D01*
X016307Y013900D02*
X016565Y013900D01*
X016466Y013802D02*
X016348Y013802D01*
X016393Y013703D02*
X016420Y013703D01*
X016404Y013309D02*
X016409Y013309D01*
X016450Y013211D02*
X016363Y013211D01*
X016275Y013112D02*
X016538Y013112D01*
X016680Y013014D02*
X016134Y013014D01*
X015680Y013014D02*
X015134Y013014D01*
X015275Y013112D02*
X015538Y013112D01*
X015450Y013211D02*
X015363Y013211D01*
X015404Y013309D02*
X015409Y013309D01*
X015407Y013671D02*
X015356Y013793D01*
X015307Y013843D01*
X015307Y014059D01*
X015157Y014209D01*
X015157Y014490D01*
X015657Y014990D01*
X015657Y014209D01*
X015507Y014059D01*
X015507Y013843D01*
X015458Y013793D01*
X015407Y013671D01*
X015393Y013703D02*
X015420Y013703D01*
X015466Y013802D02*
X015348Y013802D01*
X015307Y013900D02*
X015507Y013900D01*
X015507Y013999D02*
X015307Y013999D01*
X015268Y014097D02*
X015546Y014097D01*
X015644Y014196D02*
X015170Y014196D01*
X015157Y014295D02*
X015657Y014295D01*
X015657Y014393D02*
X015157Y014393D01*
X015159Y014492D02*
X015657Y014492D01*
X015657Y014590D02*
X015257Y014590D01*
X015356Y014689D02*
X015657Y014689D01*
X015657Y014787D02*
X015454Y014787D01*
X015553Y014886D02*
X015657Y014886D01*
X015652Y014984D02*
X015657Y014984D01*
X015407Y014543D02*
X015407Y012593D01*
X014680Y013014D02*
X014134Y013014D01*
X014275Y013112D02*
X014538Y013112D01*
X014450Y013211D02*
X014363Y013211D01*
X014404Y013309D02*
X014409Y013309D01*
X014107Y013893D02*
X014107Y014093D01*
X015857Y015843D01*
X015857Y016843D01*
X017407Y018393D01*
X017407Y019793D01*
X017857Y020243D01*
X018207Y020593D01*
X018207Y022693D01*
X018507Y022993D01*
X019207Y022993D01*
X019504Y023262D02*
X024407Y023262D01*
X024407Y023163D02*
X019602Y023163D01*
X019701Y023065D02*
X024407Y023065D01*
X024407Y022966D02*
X019949Y022966D01*
X020082Y022868D02*
X024407Y022868D01*
X024407Y022769D02*
X020166Y022769D01*
X020207Y022671D02*
X024407Y022671D01*
X024407Y022572D02*
X020237Y022572D01*
X020237Y022474D02*
X024407Y022474D01*
X024407Y022375D02*
X020232Y022375D01*
X020191Y022277D02*
X024407Y022277D01*
X024407Y022178D02*
X020141Y022178D01*
X020043Y022079D02*
X024407Y022079D01*
X024407Y021981D02*
X019914Y021981D01*
X020067Y021882D02*
X024407Y021882D01*
X024407Y021784D02*
X020160Y021784D01*
X020201Y021685D02*
X024407Y021685D01*
X024407Y021587D02*
X020237Y021587D01*
X020237Y021488D02*
X024407Y021488D01*
X024407Y021390D02*
X020237Y021390D01*
X020197Y021291D02*
X024407Y021291D01*
X024407Y021193D02*
X020156Y021193D01*
X020107Y021094D02*
X024407Y021094D01*
X024407Y020996D02*
X020107Y020996D01*
X020107Y020897D02*
X024407Y020897D01*
X024407Y020798D02*
X020078Y020798D01*
X019979Y020700D02*
X024407Y020700D01*
X024407Y020601D02*
X019881Y020601D01*
X019570Y020503D02*
X024407Y020503D01*
X024407Y020404D02*
X019471Y020404D01*
X019373Y020306D02*
X024407Y020306D01*
X024407Y020207D02*
X019274Y020207D01*
X019176Y020109D02*
X024407Y020109D01*
X024407Y020010D02*
X019077Y020010D01*
X018979Y019912D02*
X024407Y019912D01*
X024407Y019813D02*
X018880Y019813D01*
X018782Y019714D02*
X024407Y019714D01*
X024407Y019616D02*
X018683Y019616D01*
X018585Y019517D02*
X018805Y019517D01*
X018868Y019543D02*
X018610Y019437D01*
X018413Y019240D01*
X018307Y018982D01*
X018307Y018704D01*
X018413Y018447D01*
X018610Y018250D01*
X018868Y018143D01*
X019146Y018143D01*
X019403Y018250D01*
X019600Y018447D01*
X019707Y018704D01*
X019707Y018982D01*
X019600Y019240D01*
X019403Y019437D01*
X019146Y019543D01*
X018868Y019543D01*
X018593Y019419D02*
X018486Y019419D01*
X018494Y019320D02*
X018387Y019320D01*
X018406Y019222D02*
X018289Y019222D01*
X018365Y019123D02*
X018190Y019123D01*
X018092Y019025D02*
X018324Y019025D01*
X018307Y018926D02*
X018057Y018926D01*
X018057Y018828D02*
X018307Y018828D01*
X018307Y018729D02*
X018057Y018729D01*
X018057Y018630D02*
X018337Y018630D01*
X018378Y018532D02*
X018057Y018532D01*
X018057Y018433D02*
X018427Y018433D01*
X018525Y018335D02*
X018057Y018335D01*
X018057Y018236D02*
X018643Y018236D01*
X018057Y018138D02*
X024407Y018138D01*
X024407Y018236D02*
X024371Y018236D01*
X024407Y018039D02*
X018006Y018039D01*
X017908Y017941D02*
X024407Y017941D01*
X024407Y017842D02*
X017809Y017842D01*
X017711Y017744D02*
X024407Y017744D01*
X023655Y017645D02*
X017612Y017645D01*
X017514Y017546D02*
X023557Y017546D01*
X023458Y017448D02*
X019376Y017448D01*
X019490Y017349D02*
X023360Y017349D01*
X023261Y017251D02*
X019589Y017251D01*
X019636Y017152D02*
X023163Y017152D01*
X023157Y017054D02*
X019677Y017054D01*
X019707Y016955D02*
X023157Y016955D01*
X023157Y016857D02*
X019707Y016857D01*
X019707Y016758D02*
X023157Y016758D01*
X023157Y016660D02*
X019688Y016660D01*
X019648Y016561D02*
X023157Y016561D01*
X023157Y016463D02*
X019607Y016463D01*
X019518Y016364D02*
X023157Y016364D01*
X023157Y016265D02*
X019419Y016265D01*
X019203Y016167D02*
X023157Y016167D01*
X023157Y016068D02*
X017836Y016068D01*
X017934Y016167D02*
X018810Y016167D01*
X018595Y016265D02*
X018033Y016265D01*
X018131Y016364D02*
X018496Y016364D01*
X018779Y015674D02*
X023157Y015674D01*
X023157Y015576D02*
X018878Y015576D01*
X018976Y015477D02*
X023157Y015477D01*
X023157Y015379D02*
X019075Y015379D01*
X019173Y015280D02*
X023157Y015280D01*
X023157Y015181D02*
X019272Y015181D01*
X019371Y015083D02*
X023157Y015083D01*
X023157Y014984D02*
X019469Y014984D01*
X019568Y014886D02*
X023157Y014886D01*
X023098Y014787D02*
X019666Y014787D01*
X019765Y014689D02*
X022999Y014689D01*
X022900Y014590D02*
X019863Y014590D01*
X019962Y014492D02*
X022802Y014492D01*
X022703Y014393D02*
X020060Y014393D01*
X020159Y014295D02*
X022605Y014295D01*
X022506Y014196D02*
X020257Y014196D01*
X020356Y014097D02*
X022408Y014097D01*
X022309Y013999D02*
X021071Y013999D01*
X021249Y013900D02*
X022211Y013900D01*
X022112Y013802D02*
X021348Y013802D01*
X021393Y013703D02*
X022014Y013703D01*
X021915Y013605D02*
X021434Y013605D01*
X021437Y013506D02*
X021816Y013506D01*
X021718Y013408D02*
X021437Y013408D01*
X021404Y013309D02*
X021619Y013309D01*
X021521Y013211D02*
X021363Y013211D01*
X021357Y013112D02*
X021422Y013112D01*
X020957Y013143D02*
X020807Y012993D01*
X020807Y007293D01*
X021407Y006693D01*
X021407Y005243D01*
X021257Y005093D01*
X020407Y005243D02*
X020407Y012793D01*
X020257Y012943D01*
X020607Y013093D02*
X020407Y013293D01*
X020407Y013693D01*
X018607Y015493D01*
X017407Y015493D01*
X017662Y015773D02*
X023157Y015773D01*
X023157Y015871D02*
X017638Y015871D01*
X017737Y015970D02*
X023157Y015970D01*
X020743Y013999D02*
X020455Y013999D01*
X020553Y013900D02*
X020565Y013900D01*
X020607Y013093D02*
X020607Y006993D01*
X020757Y006843D01*
X020157Y006963D02*
X020012Y007023D01*
X019801Y007023D01*
X019657Y006963D01*
X019657Y012890D01*
X019657Y012977D01*
X019657Y012978D01*
X019741Y012893D01*
X020091Y012543D01*
X020157Y012543D01*
X020157Y006963D01*
X020157Y007002D02*
X020062Y007002D01*
X020157Y007101D02*
X019657Y007101D01*
X019657Y007199D02*
X020157Y007199D01*
X020157Y007298D02*
X019657Y007298D01*
X019657Y007397D02*
X020157Y007397D01*
X020157Y007495D02*
X019657Y007495D01*
X019657Y007594D02*
X020157Y007594D01*
X020157Y007692D02*
X019657Y007692D01*
X019657Y007791D02*
X020157Y007791D01*
X020157Y007889D02*
X019657Y007889D01*
X019657Y007988D02*
X020157Y007988D01*
X020157Y008086D02*
X019657Y008086D01*
X019657Y008185D02*
X020157Y008185D01*
X020157Y008283D02*
X019657Y008283D01*
X019657Y008382D02*
X020157Y008382D01*
X020157Y008481D02*
X019657Y008481D01*
X019657Y008579D02*
X020157Y008579D01*
X020157Y008678D02*
X019657Y008678D01*
X019657Y008776D02*
X020157Y008776D01*
X020157Y008875D02*
X019657Y008875D01*
X019657Y008973D02*
X020157Y008973D01*
X020157Y009072D02*
X019657Y009072D01*
X019657Y009170D02*
X020157Y009170D01*
X020157Y009269D02*
X019657Y009269D01*
X019657Y009367D02*
X020157Y009367D01*
X020157Y009466D02*
X019657Y009466D01*
X019657Y009564D02*
X020157Y009564D01*
X020157Y009663D02*
X019657Y009663D01*
X019657Y009762D02*
X020157Y009762D01*
X020157Y009860D02*
X019657Y009860D01*
X019657Y009959D02*
X020157Y009959D01*
X020157Y010057D02*
X019657Y010057D01*
X019657Y010156D02*
X020157Y010156D01*
X020157Y010254D02*
X019657Y010254D01*
X019657Y010353D02*
X020157Y010353D01*
X020157Y010451D02*
X019657Y010451D01*
X019657Y010550D02*
X020157Y010550D01*
X020157Y010648D02*
X019657Y010648D01*
X019657Y010747D02*
X020157Y010747D01*
X020157Y010846D02*
X019657Y010846D01*
X019657Y010944D02*
X020157Y010944D01*
X020157Y011043D02*
X019657Y011043D01*
X019657Y011141D02*
X020157Y011141D01*
X020157Y011240D02*
X019657Y011240D01*
X019657Y011338D02*
X020157Y011338D01*
X020157Y011437D02*
X019657Y011437D01*
X019657Y011535D02*
X020157Y011535D01*
X020157Y011634D02*
X019657Y011634D01*
X019657Y011732D02*
X020157Y011732D01*
X020157Y011831D02*
X019657Y011831D01*
X019657Y011930D02*
X020157Y011930D01*
X020157Y012028D02*
X019657Y012028D01*
X019657Y012127D02*
X020157Y012127D01*
X020157Y012225D02*
X019657Y012225D01*
X019657Y012324D02*
X020157Y012324D01*
X020157Y012422D02*
X019657Y012422D01*
X019657Y012521D02*
X020157Y012521D01*
X020015Y012619D02*
X019657Y012619D01*
X019657Y012718D02*
X019916Y012718D01*
X019818Y012816D02*
X019657Y012816D01*
X019657Y012915D02*
X019719Y012915D01*
X019407Y012993D02*
X019257Y013143D01*
X019407Y012993D02*
X019407Y005243D01*
X019257Y005093D01*
X018407Y005243D02*
X018407Y012993D01*
X018257Y013143D01*
X018657Y013014D02*
X018680Y013014D01*
X018657Y012915D02*
X018919Y012915D01*
X019018Y012816D02*
X018657Y012816D01*
X018657Y012718D02*
X019157Y012718D01*
X019157Y012619D02*
X018657Y012619D01*
X018657Y012521D02*
X019157Y012521D01*
X019157Y012422D02*
X018657Y012422D01*
X018657Y012324D02*
X019157Y012324D01*
X019157Y012225D02*
X018657Y012225D01*
X018657Y012127D02*
X019157Y012127D01*
X019157Y012028D02*
X018657Y012028D01*
X018657Y011930D02*
X019157Y011930D01*
X019157Y011831D02*
X018657Y011831D01*
X018657Y011732D02*
X019157Y011732D01*
X019157Y011634D02*
X018657Y011634D01*
X018657Y011535D02*
X019157Y011535D01*
X019157Y011437D02*
X018657Y011437D01*
X018657Y011338D02*
X019157Y011338D01*
X019157Y011240D02*
X018657Y011240D01*
X018657Y011141D02*
X019157Y011141D01*
X019157Y011043D02*
X018657Y011043D01*
X018657Y010944D02*
X019157Y010944D01*
X019157Y010846D02*
X018657Y010846D01*
X018657Y010747D02*
X019157Y010747D01*
X019157Y010648D02*
X018657Y010648D01*
X018657Y010550D02*
X019157Y010550D01*
X016407Y012593D02*
X016407Y014893D01*
X015907Y015293D02*
X016257Y015643D01*
X016257Y016643D01*
X017807Y018193D01*
X017807Y019093D01*
X019707Y020993D01*
X019207Y020943D02*
X017607Y019343D01*
X017607Y018293D01*
X016057Y016743D01*
X016057Y015743D01*
X014907Y014593D01*
X014907Y013893D01*
X015907Y013893D02*
X015907Y015293D01*
X015657Y015943D02*
X015657Y016943D01*
X017207Y018493D01*
X017207Y020493D01*
X017707Y020993D01*
X017207Y021293D02*
X017007Y021093D01*
X017007Y018593D01*
X015457Y017043D01*
X015457Y016043D01*
X013057Y013643D01*
X013407Y013693D02*
X013407Y013293D01*
X013107Y012993D01*
X011407Y012993D01*
X011257Y013143D01*
X009507Y013703D02*
X009121Y013703D01*
X009219Y013802D02*
X009507Y013802D01*
X009507Y013900D02*
X009318Y013900D01*
X009416Y013999D02*
X009507Y013999D01*
X013407Y013693D02*
X015657Y015943D01*
X017218Y017251D02*
X018425Y017251D01*
X018523Y017349D02*
X017317Y017349D01*
X017415Y017448D02*
X018638Y017448D01*
X019371Y018236D02*
X023643Y018236D01*
X023525Y018335D02*
X019488Y018335D01*
X019587Y018433D02*
X023427Y018433D01*
X023378Y018532D02*
X019636Y018532D01*
X019676Y018630D02*
X023337Y018630D01*
X023307Y018729D02*
X019707Y018729D01*
X019707Y018828D02*
X023307Y018828D01*
X023307Y018926D02*
X019707Y018926D01*
X019689Y019025D02*
X023324Y019025D01*
X023365Y019123D02*
X019649Y019123D01*
X019608Y019222D02*
X023406Y019222D01*
X023494Y019320D02*
X019520Y019320D01*
X019421Y019419D02*
X023593Y019419D01*
X023805Y019517D02*
X019208Y019517D01*
X019207Y020943D02*
X019207Y021993D01*
X018127Y022966D02*
X017949Y022966D01*
X018225Y023065D02*
X005707Y023065D01*
X005707Y023163D02*
X018324Y023163D01*
X018910Y023262D02*
X005707Y023262D01*
X005707Y023361D02*
X019009Y023361D01*
X019405Y023361D02*
X024407Y023361D01*
X024407Y023459D02*
X005707Y023459D01*
X005707Y022966D02*
X010018Y022966D01*
X010045Y022993D02*
X009957Y022905D01*
X009957Y022543D01*
X010407Y022543D01*
X010407Y022993D01*
X010045Y022993D01*
X009957Y022868D02*
X005707Y022868D01*
X005707Y022769D02*
X009957Y022769D01*
X009957Y022671D02*
X005707Y022671D01*
X005707Y022572D02*
X009957Y022572D01*
X009957Y022443D02*
X009957Y022081D01*
X010045Y021993D01*
X010407Y021993D01*
X010407Y022443D01*
X010507Y022443D01*
X010507Y022543D01*
X010957Y022543D01*
X010957Y022905D01*
X010869Y022993D01*
X010507Y022993D01*
X010507Y022543D01*
X010407Y022543D01*
X010407Y022443D01*
X009957Y022443D01*
X009957Y022375D02*
X005707Y022375D01*
X005707Y022277D02*
X009957Y022277D01*
X009957Y022178D02*
X005707Y022178D01*
X005724Y022079D02*
X009958Y022079D01*
X010407Y022079D02*
X010507Y022079D01*
X010507Y021993D02*
X010869Y021993D01*
X010957Y022081D01*
X010957Y022443D01*
X010507Y022443D01*
X010507Y021993D01*
X010507Y022178D02*
X010407Y022178D01*
X010407Y022277D02*
X010507Y022277D01*
X010507Y022375D02*
X010407Y022375D01*
X010407Y022474D02*
X005707Y022474D01*
X009123Y021981D02*
X015252Y021981D01*
X015177Y021882D02*
X009221Y021882D01*
X009320Y021784D02*
X015177Y021784D01*
X015177Y021685D02*
X009418Y021685D01*
X009517Y021587D02*
X015177Y021587D01*
X015177Y021488D02*
X009615Y021488D01*
X009714Y021390D02*
X015177Y021390D01*
X015177Y021291D02*
X009812Y021291D01*
X009911Y021193D02*
X015177Y021193D01*
X015177Y021094D02*
X010009Y021094D01*
X010955Y022079D02*
X015451Y022079D01*
X015343Y022178D02*
X010957Y022178D01*
X010957Y022277D02*
X015277Y022277D01*
X015236Y022375D02*
X010957Y022375D01*
X010957Y022572D02*
X015227Y022572D01*
X015261Y022671D02*
X010957Y022671D01*
X010957Y022769D02*
X015304Y022769D01*
X015403Y022868D02*
X010957Y022868D01*
X010896Y022966D02*
X015595Y022966D01*
X015657Y022966D02*
X015757Y022966D01*
X015819Y022966D02*
X016464Y022966D01*
X016332Y022868D02*
X016011Y022868D01*
X016109Y022769D02*
X016248Y022769D01*
X016207Y022671D02*
X016153Y022671D01*
X015757Y022671D02*
X015657Y022671D01*
X015657Y022769D02*
X015757Y022769D01*
X015757Y022868D02*
X015657Y022868D01*
X015657Y022572D02*
X015757Y022572D01*
X015657Y022474D02*
X010507Y022474D01*
X010507Y022572D02*
X010407Y022572D01*
X010407Y022671D02*
X010507Y022671D01*
X010507Y022769D02*
X010407Y022769D01*
X010407Y022868D02*
X010507Y022868D01*
X010507Y022966D02*
X010407Y022966D01*
X012658Y020996D02*
X015262Y020996D01*
X015307Y020897D02*
X012756Y020897D01*
X012855Y020798D02*
X015307Y020798D01*
X015307Y020700D02*
X012954Y020700D01*
X013052Y020601D02*
X015307Y020601D01*
X015307Y020503D02*
X013151Y020503D01*
X013249Y020404D02*
X015307Y020404D01*
X015307Y020306D02*
X013348Y020306D01*
X013446Y020207D02*
X015307Y020207D01*
X015307Y020109D02*
X013545Y020109D01*
X013643Y020010D02*
X015307Y020010D01*
X015307Y019912D02*
X013742Y019912D01*
X013757Y019813D02*
X015307Y019813D01*
X015307Y019714D02*
X013757Y019714D01*
X013757Y019616D02*
X015307Y019616D01*
X015307Y019517D02*
X013757Y019517D01*
X013757Y019419D02*
X015307Y019419D01*
X015307Y019320D02*
X013813Y019320D01*
X013947Y019222D02*
X015307Y019222D01*
X015307Y019123D02*
X014046Y019123D01*
X014144Y019025D02*
X015307Y019025D01*
X015307Y018926D02*
X014243Y018926D01*
X014341Y018828D02*
X015307Y018828D01*
X015307Y018729D02*
X014404Y018729D01*
X014503Y018630D02*
X015307Y018630D01*
X015307Y018532D02*
X014601Y018532D01*
X015051Y018433D02*
X015307Y018433D01*
X015307Y018335D02*
X015137Y018335D01*
X015178Y018236D02*
X015307Y018236D01*
X015307Y018138D02*
X015185Y018138D01*
X015173Y018039D02*
X015307Y018039D01*
X015239Y017941D02*
X015132Y017941D01*
X015140Y017842D02*
X015041Y017842D01*
X015042Y017744D02*
X015007Y017744D01*
X016107Y019043D02*
X016107Y020963D01*
X016120Y020963D01*
X016237Y021080D01*
X016237Y021243D01*
X016258Y021193D01*
X016237Y021193D01*
X016258Y021193D02*
X016407Y021044D01*
X016601Y020963D01*
X016757Y020963D01*
X016757Y019111D01*
X016732Y019121D01*
X016582Y019121D01*
X016443Y019064D01*
X016422Y019043D01*
X016107Y019043D01*
X016107Y019123D02*
X016757Y019123D01*
X016757Y019222D02*
X016107Y019222D01*
X016107Y019320D02*
X016757Y019320D01*
X016757Y019419D02*
X016107Y019419D01*
X016107Y019517D02*
X016757Y019517D01*
X016757Y019616D02*
X016107Y019616D01*
X016107Y019714D02*
X016757Y019714D01*
X016757Y019813D02*
X016107Y019813D01*
X016107Y019912D02*
X016757Y019912D01*
X016757Y020010D02*
X016107Y020010D01*
X016107Y020109D02*
X016757Y020109D01*
X016757Y020207D02*
X016107Y020207D01*
X016107Y020306D02*
X016757Y020306D01*
X016757Y020404D02*
X016107Y020404D01*
X016107Y020503D02*
X016757Y020503D01*
X016757Y020601D02*
X016107Y020601D01*
X016107Y020700D02*
X016757Y020700D01*
X016757Y020798D02*
X016107Y020798D01*
X016107Y020897D02*
X016757Y020897D01*
X016523Y020996D02*
X016152Y020996D01*
X016237Y021094D02*
X016356Y021094D01*
X017207Y021293D02*
X017207Y021993D01*
X017166Y022769D02*
X017248Y022769D01*
X017332Y022868D02*
X017082Y022868D01*
X016949Y022966D02*
X017464Y022966D01*
X024208Y019517D02*
X024407Y019517D01*
X019156Y014590D02*
X017657Y014590D01*
X017657Y014492D02*
X019255Y014492D01*
X019353Y014393D02*
X017657Y014393D01*
X017657Y014490D02*
X017657Y014697D01*
X017335Y015019D01*
X017335Y015115D01*
X017482Y015115D01*
X017621Y015173D01*
X017692Y015243D01*
X018503Y015243D01*
X019746Y014000D01*
X019607Y013942D01*
X019458Y013793D01*
X019407Y013671D01*
X019356Y013793D01*
X019207Y013942D01*
X019012Y014023D01*
X018801Y014023D01*
X018607Y013942D01*
X018458Y013793D01*
X018407Y013671D01*
X018356Y013793D01*
X018207Y013942D01*
X018012Y014023D01*
X017801Y014023D01*
X017657Y013963D01*
X017657Y014490D01*
X017657Y014295D02*
X019452Y014295D01*
X019550Y014196D02*
X017657Y014196D01*
X017657Y014097D02*
X019649Y014097D01*
X019743Y013999D02*
X019071Y013999D01*
X019249Y013900D02*
X019565Y013900D01*
X019466Y013802D02*
X019348Y013802D01*
X019393Y013703D02*
X019420Y013703D01*
X018743Y013999D02*
X018071Y013999D01*
X018249Y013900D02*
X018565Y013900D01*
X018466Y013802D02*
X018348Y013802D01*
X018393Y013703D02*
X018420Y013703D01*
X017743Y013999D02*
X017657Y013999D01*
X017657Y014689D02*
X019058Y014689D01*
X018959Y014787D02*
X017566Y014787D01*
X017468Y014886D02*
X018861Y014886D01*
X018762Y014984D02*
X017369Y014984D01*
X017335Y015083D02*
X018664Y015083D01*
X018565Y015181D02*
X017630Y015181D01*
X013680Y013014D02*
X013481Y013014D01*
X009042Y009072D02*
X008972Y009072D01*
X008972Y008973D02*
X009042Y008973D01*
X009042Y008875D02*
X008972Y008875D01*
X008972Y008776D02*
X009042Y008776D01*
X009042Y008579D02*
X008972Y008579D01*
X008972Y008481D02*
X009042Y008481D01*
X009042Y008382D02*
X008972Y008382D01*
X008972Y008283D02*
X009042Y008283D01*
X016257Y005093D02*
X017407Y006243D01*
X018407Y005243D02*
X018257Y005093D01*
X020257Y005093D02*
X020407Y005243D01*
X019751Y007002D02*
X019657Y007002D01*
D22*
X009007Y008693D02*
X007725Y007411D01*
X007407Y007411D01*
X007407Y004743D01*
X007907Y004743D01*
X007407Y004743D02*
X006907Y004743D01*
X007407Y007411D02*
X006158Y007411D01*
X005539Y007411D01*
X004898Y008052D01*
X004898Y009163D01*
X004898Y011552D01*
X004507Y011943D01*
X004898Y009163D02*
X004898Y008243D01*
X003807Y008243D01*
X003807Y008209D01*
D23*
X003657Y006693D03*
X002985Y006415D03*
X002707Y005743D03*
X002985Y005071D03*
X003657Y004793D03*
X004329Y005071D03*
X004607Y005743D03*
X004329Y006415D03*
X006407Y006643D03*
X011107Y010693D03*
X011557Y011843D03*
X012157Y011843D03*
X012707Y010093D03*
X013457Y009643D03*
X014557Y009043D03*
X014257Y008193D03*
X014907Y009893D03*
X015907Y009893D03*
X016907Y009893D03*
X017907Y009893D03*
X018907Y009893D03*
X019907Y009893D03*
X023157Y006693D03*
X022485Y006415D03*
X022207Y005743D03*
X022485Y005071D03*
X023157Y004793D03*
X023829Y005071D03*
X024107Y005743D03*
X023829Y006415D03*
X022007Y013893D03*
X022007Y015893D03*
X022007Y017893D03*
X022007Y019893D03*
X023157Y021293D03*
X022485Y021571D03*
X022207Y022243D03*
X022485Y022915D03*
X023157Y023193D03*
X023829Y022915D03*
X024107Y022243D03*
X023829Y021571D03*
X017857Y020243D03*
X016207Y020893D03*
X016657Y018743D03*
X017557Y017443D03*
X016907Y016743D03*
X017407Y015493D03*
X016957Y015043D03*
X016407Y014893D03*
X015407Y014543D03*
X018157Y014393D03*
X018907Y014393D03*
X014807Y018143D03*
X004607Y022243D03*
X004329Y021571D03*
X003657Y021293D03*
X002985Y021571D03*
X002707Y022243D03*
X002985Y022915D03*
X003657Y023193D03*
X004329Y022915D03*
D24*
X010457Y014193D02*
X010207Y013943D01*
X010207Y011593D01*
X011107Y010693D01*
X012307Y009693D02*
X012707Y010093D01*
X012307Y009693D02*
X009807Y009693D01*
X009007Y009693D01*
X009007Y008693D02*
X010007Y008693D01*
X011907Y006793D01*
X011907Y006493D01*
X012257Y005093D02*
X011907Y004743D01*
X011257Y005093D02*
X010907Y004743D01*
X010257Y005093D02*
X009907Y004743D01*
X014557Y006143D02*
X014907Y006493D01*
X015557Y006143D02*
X015907Y006493D01*
X016557Y006143D02*
X016907Y006493D01*
X016257Y005093D02*
X015907Y004743D01*
X017907Y004743D02*
X018257Y005093D01*
X018907Y004743D02*
X019257Y005093D01*
X019907Y004743D02*
X020257Y005093D01*
X020907Y004743D02*
X021257Y005093D01*
X020907Y006493D02*
X020757Y006643D01*
X020757Y006843D01*
X020257Y012943D02*
X019907Y013293D01*
X019907Y013493D01*
X019257Y013143D02*
X018907Y013493D01*
X018257Y013143D02*
X017907Y013493D01*
X015907Y013493D02*
X015907Y013893D01*
X014907Y013893D02*
X014907Y013493D01*
X014107Y013893D02*
X013907Y013693D01*
X013907Y013493D01*
X013057Y013643D02*
X012907Y013493D01*
X013057Y014193D02*
X010457Y014193D01*
X010907Y013493D02*
X011257Y013143D01*
X013057Y014193D02*
X015107Y016243D01*
X015107Y017243D01*
X015707Y017843D01*
X015707Y018743D01*
X015707Y021493D01*
X017207Y021993D02*
X017707Y022493D01*
X017707Y021493D02*
X017707Y020993D01*
X019207Y021993D02*
X018707Y022493D01*
X019207Y022993D02*
X019707Y022493D01*
X019707Y021493D02*
X019707Y020993D01*
X019007Y016843D02*
X018257Y016843D01*
X020907Y013493D02*
X020957Y013443D01*
X020957Y013143D01*
D25*
X023157Y005743D03*
X023157Y022243D03*
X003657Y022243D03*
X003657Y005743D03*
D26*
X009807Y009693D02*
X009807Y014143D01*
X010257Y014593D01*
X012857Y014593D01*
X014707Y016443D01*
X014707Y018043D01*
X014807Y018143D01*
X015707Y018743D02*
X016657Y018743D01*
D27*
X012957Y017843D02*
X003807Y017843D01*
X003807Y015875D02*
X006975Y015875D01*
X007357Y015493D01*
X006975Y019812D02*
X003807Y019812D01*
X006975Y019812D02*
X007357Y020193D01*
M02*
