G75*
G70*
%OFA0B0*%
%FSLAX24Y24*%
%IPPOS*%
%LPD*%
%AMOC8*
5,1,8,0,0,1.08239X$1,22.5*
%
%ADD10C,0.0060*%
%ADD11C,0.0050*%
%ADD12C,0.0080*%
%ADD13C,0.0100*%
%ADD14R,0.0709X0.0197*%
%ADD15C,0.0079*%
D10*
X008922Y004619D02*
X008842Y004699D01*
X009082Y004699D01*
X009082Y004619D02*
X009082Y004779D01*
X009542Y005391D02*
X009542Y005511D01*
X009582Y005551D01*
X009662Y005551D01*
X009702Y005511D01*
X009702Y005391D01*
X009782Y005391D02*
X009542Y005391D01*
X009542Y005667D02*
X009782Y005667D01*
X009702Y005747D01*
X009782Y005827D01*
X009542Y005827D01*
X009542Y005943D02*
X009542Y006063D01*
X009582Y006103D01*
X009662Y006103D01*
X009702Y006063D01*
X009702Y005943D01*
X009702Y006023D02*
X009782Y006103D01*
X009782Y005943D02*
X009542Y005943D01*
X009882Y004779D02*
X009842Y004739D01*
X009842Y004659D01*
X009882Y004619D01*
X009882Y004779D02*
X009922Y004779D01*
X010082Y004619D01*
X010082Y004779D01*
X010842Y004739D02*
X010842Y004659D01*
X010882Y004619D01*
X010962Y004699D02*
X010962Y004739D01*
X011002Y004779D01*
X011042Y004779D01*
X011082Y004739D01*
X011082Y004659D01*
X011042Y004619D01*
X010962Y004739D02*
X010922Y004779D01*
X010882Y004779D01*
X010842Y004739D01*
X011842Y004739D02*
X011962Y004619D01*
X011962Y004779D01*
X012082Y004739D02*
X011842Y004739D01*
X012082Y005419D02*
X012042Y005459D01*
X012082Y005419D02*
X012162Y005419D01*
X012202Y005459D01*
X012202Y005499D01*
X012162Y005539D01*
X012082Y005539D01*
X012042Y005579D01*
X012042Y005619D01*
X012082Y005659D01*
X012162Y005659D01*
X012202Y005619D01*
X012318Y005659D02*
X012318Y005419D01*
X012398Y005499D01*
X012479Y005419D01*
X012479Y005659D01*
X012595Y005579D02*
X012675Y005659D01*
X012675Y005419D01*
X012595Y005419D02*
X012755Y005419D01*
X012710Y005819D02*
X012750Y005859D01*
X012710Y005819D02*
X012630Y005819D01*
X012590Y005859D01*
X012590Y006019D01*
X012630Y006059D01*
X012710Y006059D01*
X012750Y006019D01*
X012866Y006059D02*
X013026Y006059D01*
X013026Y006019D01*
X012866Y005859D01*
X012866Y005819D01*
X012918Y006419D02*
X013079Y006419D01*
X012998Y006419D02*
X012998Y006659D01*
X012918Y006579D01*
X012802Y006619D02*
X012762Y006659D01*
X012642Y006659D01*
X012642Y006419D01*
X012762Y006419D01*
X012802Y006459D01*
X012802Y006619D01*
X012792Y006869D02*
X012792Y006989D01*
X012832Y007029D01*
X012912Y007029D01*
X012952Y006989D01*
X012952Y006869D01*
X013032Y006869D02*
X012792Y006869D01*
X012952Y006949D02*
X013032Y007029D01*
X013032Y007145D02*
X012872Y007306D01*
X012832Y007306D01*
X012792Y007266D01*
X012792Y007185D01*
X012832Y007145D01*
X013032Y007145D02*
X013032Y007306D01*
X012998Y007569D02*
X013039Y007609D01*
X013039Y007809D01*
X013079Y007809D02*
X012998Y007809D01*
X012802Y007769D02*
X012762Y007809D01*
X012682Y007809D01*
X012642Y007769D01*
X012642Y007729D01*
X012682Y007689D01*
X012762Y007689D01*
X012802Y007649D01*
X012802Y007609D01*
X012762Y007569D01*
X012682Y007569D01*
X012642Y007609D01*
X012462Y007589D02*
X012462Y007189D01*
X012460Y007169D01*
X012454Y007151D01*
X012445Y007133D01*
X012433Y007118D01*
X012418Y007106D01*
X012400Y007097D01*
X012382Y007091D01*
X012362Y007089D01*
X012162Y007089D01*
X012142Y007091D01*
X012124Y007097D01*
X012106Y007106D01*
X012091Y007118D01*
X012079Y007133D01*
X012070Y007151D01*
X012064Y007169D01*
X012062Y007189D01*
X012062Y007589D01*
X012064Y007609D01*
X012070Y007627D01*
X012079Y007645D01*
X012091Y007660D01*
X012106Y007672D01*
X012124Y007681D01*
X012142Y007687D01*
X012162Y007689D01*
X012362Y007689D01*
X012382Y007687D01*
X012400Y007681D01*
X012418Y007672D01*
X012433Y007660D01*
X012445Y007645D01*
X012454Y007627D01*
X012460Y007609D01*
X012462Y007589D01*
X012918Y007609D02*
X012958Y007569D01*
X012998Y007569D01*
X013195Y007569D02*
X013355Y007569D01*
X013275Y007569D02*
X013275Y007809D01*
X013195Y007729D01*
X013642Y007699D02*
X013762Y007699D01*
X013802Y007739D01*
X013802Y007819D01*
X013762Y007859D01*
X013642Y007859D01*
X013642Y007619D01*
X013722Y007699D02*
X013802Y007619D01*
X013918Y007659D02*
X013958Y007619D01*
X014039Y007619D01*
X014079Y007659D01*
X014079Y007739D01*
X014039Y007779D01*
X013998Y007779D01*
X013918Y007739D01*
X013918Y007859D01*
X014079Y007859D01*
X013905Y008469D02*
X013745Y008469D01*
X013905Y008629D01*
X013905Y008669D01*
X013865Y008709D01*
X013785Y008709D01*
X013745Y008669D01*
X013548Y008709D02*
X013548Y008469D01*
X013468Y008469D02*
X013629Y008469D01*
X013468Y008629D02*
X013548Y008709D01*
X013492Y008869D02*
X013492Y009109D01*
X013612Y009109D01*
X013652Y009069D01*
X013652Y008989D01*
X013612Y008949D01*
X013492Y008949D01*
X013572Y008949D02*
X013652Y008869D01*
X013768Y008869D02*
X013768Y008909D01*
X013929Y009069D01*
X013929Y009109D01*
X013768Y009109D01*
X013738Y009505D02*
X013738Y009626D01*
X013698Y009666D01*
X013618Y009666D01*
X013578Y009626D01*
X013578Y009505D01*
X013818Y009505D01*
X013738Y009586D02*
X013818Y009666D01*
X013818Y009782D02*
X013818Y009942D01*
X013818Y009862D02*
X013578Y009862D01*
X013658Y009782D01*
X013618Y010058D02*
X013578Y010098D01*
X013578Y010178D01*
X013618Y010218D01*
X013778Y010058D01*
X013818Y010098D01*
X013818Y010178D01*
X013778Y010218D01*
X013618Y010218D01*
X013618Y010058D02*
X013778Y010058D01*
X013405Y009559D02*
X013325Y009519D01*
X013245Y009439D01*
X013365Y009439D01*
X013405Y009399D01*
X013405Y009359D01*
X013365Y009319D01*
X013285Y009319D01*
X013245Y009359D01*
X013245Y009439D01*
X013129Y009319D02*
X012968Y009319D01*
X013048Y009319D02*
X013048Y009559D01*
X012968Y009479D01*
X012852Y009439D02*
X012812Y009399D01*
X012692Y009399D01*
X012692Y009319D02*
X012692Y009559D01*
X012812Y009559D01*
X012852Y009519D01*
X012852Y009439D01*
X012772Y009399D02*
X012852Y009319D01*
X012862Y009209D02*
X012902Y009169D01*
X012902Y009089D01*
X012862Y009049D01*
X012742Y009049D01*
X012742Y008969D02*
X012742Y009209D01*
X012862Y009209D01*
X013018Y009169D02*
X013018Y009129D01*
X013058Y009089D01*
X013139Y009089D01*
X013179Y009049D01*
X013179Y009009D01*
X013139Y008969D01*
X013058Y008969D01*
X013018Y009009D01*
X013018Y009049D01*
X013058Y009089D01*
X013139Y009089D02*
X013179Y009129D01*
X013179Y009169D01*
X013139Y009209D01*
X013058Y009209D01*
X013018Y009169D01*
X012822Y009049D02*
X012902Y008969D01*
X013192Y008709D02*
X013192Y008469D01*
X013192Y008549D02*
X013312Y008549D01*
X013352Y008589D01*
X013352Y008669D01*
X013312Y008709D01*
X013192Y008709D01*
X013272Y008549D02*
X013352Y008469D01*
X013089Y009669D02*
X013129Y009709D01*
X013129Y009869D01*
X013089Y009909D01*
X013008Y009909D01*
X012968Y009869D01*
X012968Y009829D01*
X013008Y009789D01*
X013129Y009789D01*
X013089Y009669D02*
X013008Y009669D01*
X012968Y009709D01*
X012852Y009669D02*
X012772Y009749D01*
X012812Y009749D02*
X012692Y009749D01*
X012692Y009669D02*
X012692Y009909D01*
X012812Y009909D01*
X012852Y009869D01*
X012852Y009789D01*
X012812Y009749D01*
X012480Y010305D02*
X012480Y010345D01*
X012640Y010506D01*
X012640Y010546D01*
X012480Y010546D01*
X012284Y010546D02*
X012284Y010305D01*
X012364Y010305D02*
X012203Y010305D01*
X012087Y010305D02*
X012007Y010385D01*
X012047Y010385D02*
X011927Y010385D01*
X011927Y010305D02*
X011927Y010546D01*
X012047Y010546D01*
X012087Y010506D01*
X012087Y010426D01*
X012047Y010385D01*
X012203Y010466D02*
X012284Y010546D01*
X012182Y010669D02*
X011942Y010669D01*
X011942Y010789D01*
X011982Y010829D01*
X012062Y010829D01*
X012102Y010789D01*
X012102Y010669D01*
X012102Y010749D02*
X012182Y010829D01*
X012182Y011025D02*
X011942Y011025D01*
X011942Y010945D02*
X011942Y011106D01*
X011982Y011222D02*
X012142Y011222D01*
X012182Y011262D01*
X012182Y011342D01*
X012142Y011382D01*
X011982Y011382D02*
X011942Y011342D01*
X011942Y011262D01*
X011982Y011222D01*
X011922Y011917D02*
X011842Y011997D01*
X012082Y011997D01*
X012082Y011917D02*
X012082Y012077D01*
X012042Y012193D02*
X012082Y012233D01*
X012082Y012313D01*
X012042Y012353D01*
X011882Y012353D01*
X011842Y012313D01*
X011842Y012233D01*
X011882Y012193D01*
X011922Y012193D01*
X011962Y012233D01*
X011962Y012353D01*
X011082Y012313D02*
X011082Y012233D01*
X011042Y012193D01*
X010882Y012353D01*
X011042Y012353D01*
X011082Y012313D01*
X011042Y012193D02*
X010882Y012193D01*
X010842Y012233D01*
X010842Y012313D01*
X010882Y012353D01*
X010882Y012077D02*
X010842Y012037D01*
X010842Y011957D01*
X010882Y011917D01*
X010882Y012077D02*
X010922Y012077D01*
X011082Y011917D01*
X011082Y012077D01*
X011082Y011208D02*
X011042Y011168D01*
X011042Y011088D01*
X011082Y011048D01*
X011242Y011048D01*
X011282Y011088D01*
X011282Y011168D01*
X011242Y011208D01*
X011082Y011208D01*
X011082Y010932D02*
X011042Y010892D01*
X011042Y010772D01*
X011282Y010772D01*
X011282Y010892D01*
X011242Y010932D01*
X011082Y010932D01*
X011042Y010656D02*
X011042Y010495D01*
X011042Y010575D02*
X011282Y010575D01*
X011282Y010379D02*
X011042Y010379D01*
X011122Y010299D01*
X011042Y010219D01*
X011282Y010219D01*
X011262Y010089D02*
X011062Y010089D01*
X011042Y010087D01*
X011024Y010081D01*
X011006Y010072D01*
X010991Y010060D01*
X010979Y010045D01*
X010970Y010027D01*
X010964Y010009D01*
X010962Y009989D01*
X010962Y009289D01*
X010964Y009269D01*
X010970Y009251D01*
X010979Y009233D01*
X010991Y009218D01*
X011006Y009206D01*
X011024Y009197D01*
X011042Y009191D01*
X011062Y009189D01*
X011262Y009189D01*
X011282Y009191D01*
X011300Y009197D01*
X011318Y009206D01*
X011333Y009218D01*
X011345Y009233D01*
X011354Y009251D01*
X011360Y009269D01*
X011362Y009289D01*
X011362Y009989D01*
X011360Y010009D01*
X011354Y010027D01*
X011345Y010045D01*
X011333Y010060D01*
X011318Y010072D01*
X011300Y010081D01*
X011282Y010087D01*
X011262Y010089D01*
X011532Y009292D02*
X011492Y009252D01*
X011492Y009172D01*
X011532Y009132D01*
X011532Y009016D02*
X011492Y008976D01*
X011492Y008896D01*
X011532Y008856D01*
X011692Y008856D01*
X011732Y008896D01*
X011732Y008976D01*
X011692Y009016D01*
X011532Y009016D01*
X011732Y009132D02*
X011572Y009292D01*
X011532Y009292D01*
X011732Y009292D02*
X011732Y009132D01*
X011732Y008752D02*
X011732Y008672D01*
X011732Y008712D02*
X011492Y008712D01*
X011492Y008672D02*
X011492Y008752D01*
X011362Y008839D02*
X011362Y008139D01*
X011360Y008119D01*
X011354Y008101D01*
X011345Y008083D01*
X011333Y008068D01*
X011318Y008056D01*
X011300Y008047D01*
X011282Y008041D01*
X011262Y008039D01*
X011062Y008039D01*
X011042Y008041D01*
X011024Y008047D01*
X011006Y008056D01*
X010991Y008068D01*
X010979Y008083D01*
X010970Y008101D01*
X010964Y008119D01*
X010962Y008139D01*
X010962Y008839D01*
X010964Y008859D01*
X010970Y008877D01*
X010979Y008895D01*
X010991Y008910D01*
X011006Y008922D01*
X011024Y008931D01*
X011042Y008937D01*
X011062Y008939D01*
X011262Y008939D01*
X011282Y008937D01*
X011300Y008931D01*
X011318Y008922D01*
X011333Y008910D01*
X011345Y008895D01*
X011354Y008877D01*
X011360Y008859D01*
X011362Y008839D01*
X011532Y008556D02*
X011612Y008556D01*
X011652Y008516D01*
X011652Y008395D01*
X011732Y008395D02*
X011492Y008395D01*
X011492Y008516D01*
X011532Y008556D01*
X011532Y008279D02*
X011492Y008239D01*
X011492Y008159D01*
X011532Y008119D01*
X011692Y008119D01*
X011732Y008159D01*
X011732Y008239D01*
X011692Y008279D01*
X011612Y008279D01*
X011612Y008199D01*
X011532Y007892D02*
X011692Y007732D01*
X011732Y007772D01*
X011732Y007852D01*
X011692Y007892D01*
X011532Y007892D01*
X011492Y007852D01*
X011492Y007772D01*
X011532Y007732D01*
X011692Y007732D01*
X011692Y007616D02*
X011532Y007616D01*
X011492Y007576D01*
X011492Y007496D01*
X011532Y007456D01*
X011692Y007456D01*
X011732Y007496D01*
X011732Y007576D01*
X011692Y007616D01*
X011732Y007352D02*
X011732Y007272D01*
X011732Y007312D02*
X011492Y007312D01*
X011492Y007272D02*
X011492Y007352D01*
X011532Y007156D02*
X011612Y007156D01*
X011652Y007116D01*
X011652Y006995D01*
X011732Y006995D02*
X011492Y006995D01*
X011492Y007116D01*
X011532Y007156D01*
X011362Y006989D02*
X011362Y007689D01*
X011360Y007709D01*
X011354Y007727D01*
X011345Y007745D01*
X011333Y007760D01*
X011318Y007772D01*
X011300Y007781D01*
X011282Y007787D01*
X011262Y007789D01*
X011062Y007789D01*
X011042Y007787D01*
X011024Y007781D01*
X011006Y007772D01*
X010991Y007760D01*
X010979Y007745D01*
X010970Y007727D01*
X010964Y007709D01*
X010962Y007689D01*
X010962Y006989D01*
X010964Y006969D01*
X010970Y006951D01*
X010979Y006933D01*
X010991Y006918D01*
X011006Y006906D01*
X011024Y006897D01*
X011042Y006891D01*
X011062Y006889D01*
X011262Y006889D01*
X011282Y006891D01*
X011300Y006897D01*
X011318Y006906D01*
X011333Y006918D01*
X011345Y006933D01*
X011354Y006951D01*
X011360Y006969D01*
X011362Y006989D01*
X011492Y006839D02*
X011492Y006759D01*
X011532Y006719D01*
X011692Y006719D01*
X011732Y006759D01*
X011732Y006839D01*
X011692Y006879D01*
X011612Y006879D01*
X011612Y006799D01*
X011532Y006879D02*
X011492Y006839D01*
X012842Y004779D02*
X012842Y004619D01*
X012962Y004619D01*
X012922Y004699D01*
X012922Y004739D01*
X012962Y004779D01*
X013042Y004779D01*
X013082Y004739D01*
X013082Y004659D01*
X013042Y004619D01*
X013842Y004779D02*
X013882Y004699D01*
X013962Y004619D01*
X013962Y004739D01*
X014002Y004779D01*
X014042Y004779D01*
X014082Y004739D01*
X014082Y004659D01*
X014042Y004619D01*
X013962Y004619D01*
X014842Y004619D02*
X014842Y004779D01*
X014882Y004779D01*
X015042Y004619D01*
X015082Y004619D01*
X015842Y004659D02*
X015842Y004739D01*
X015882Y004779D01*
X015922Y004779D01*
X015962Y004739D01*
X015962Y004659D01*
X015922Y004619D01*
X015882Y004619D01*
X015842Y004659D01*
X015962Y004659D02*
X016002Y004619D01*
X016042Y004619D01*
X016082Y004659D01*
X016082Y004739D01*
X016042Y004779D01*
X016002Y004779D01*
X015962Y004739D01*
X016842Y004739D02*
X016842Y004659D01*
X016882Y004619D01*
X016922Y004619D01*
X016962Y004659D01*
X016962Y004779D01*
X016882Y004779D02*
X016842Y004739D01*
X016882Y004779D02*
X017042Y004779D01*
X017082Y004739D01*
X017082Y004659D01*
X017042Y004619D01*
X017842Y004699D02*
X017922Y004619D01*
X017842Y004699D02*
X018082Y004699D01*
X018082Y004619D02*
X018082Y004779D01*
X018042Y004895D02*
X017882Y005056D01*
X018042Y005056D01*
X018082Y005016D01*
X018082Y004935D01*
X018042Y004895D01*
X017882Y004895D01*
X017842Y004935D01*
X017842Y005016D01*
X017882Y005056D01*
X017367Y005669D02*
X017407Y005709D01*
X017407Y005789D01*
X017367Y005829D01*
X017167Y005829D01*
X017207Y005945D02*
X017167Y005985D01*
X017167Y006066D01*
X017207Y006106D01*
X017247Y006106D01*
X017407Y005945D01*
X017407Y006106D01*
X017367Y005669D02*
X017167Y005669D01*
X018592Y005735D02*
X018632Y005695D01*
X018792Y005695D01*
X018832Y005735D01*
X018832Y005816D01*
X018792Y005856D01*
X018632Y005856D01*
X018592Y005816D01*
X018592Y005735D01*
X018592Y005579D02*
X018832Y005579D01*
X018832Y005419D02*
X018592Y005419D01*
X018672Y005499D01*
X018592Y005579D01*
X018592Y005972D02*
X018592Y006092D01*
X018632Y006132D01*
X018792Y006132D01*
X018832Y006092D01*
X018832Y005972D01*
X018592Y005972D01*
X018712Y006248D02*
X018712Y006408D01*
X018592Y006524D02*
X018832Y006524D01*
X018752Y006604D01*
X018832Y006684D01*
X018592Y006684D01*
X018672Y006800D02*
X018672Y006840D01*
X018832Y006840D01*
X018832Y006800D02*
X018832Y006880D01*
X018832Y006984D02*
X018592Y006984D01*
X018592Y007145D01*
X018672Y007261D02*
X018672Y007301D01*
X018832Y007301D01*
X018832Y007261D02*
X018832Y007341D01*
X018712Y007445D02*
X018712Y007605D01*
X018712Y007721D02*
X018712Y007801D01*
X018592Y007721D02*
X018832Y007721D01*
X018832Y007881D01*
X018792Y007997D02*
X018832Y008037D01*
X018832Y008117D01*
X018792Y008157D01*
X018752Y008157D01*
X018712Y008117D01*
X018712Y008037D01*
X018672Y007997D01*
X018632Y007997D01*
X018592Y008037D01*
X018592Y008117D01*
X018632Y008157D01*
X018592Y008273D02*
X018592Y008394D01*
X018632Y008434D01*
X018712Y008434D01*
X018752Y008394D01*
X018752Y008273D01*
X018832Y008273D02*
X018592Y008273D01*
X018632Y008550D02*
X018672Y008550D01*
X018712Y008590D01*
X018712Y008670D01*
X018752Y008710D01*
X018792Y008710D01*
X018832Y008670D01*
X018832Y008590D01*
X018792Y008550D01*
X018752Y008550D01*
X018712Y008590D01*
X018712Y008670D02*
X018672Y008710D01*
X018632Y008710D01*
X018592Y008670D01*
X018592Y008590D01*
X018632Y008550D01*
X018632Y008826D02*
X018592Y008866D01*
X018592Y008946D01*
X018632Y008986D01*
X018672Y008986D01*
X018832Y008826D01*
X018832Y008986D01*
X018792Y009102D02*
X018832Y009142D01*
X018832Y009222D01*
X018792Y009262D01*
X018752Y009262D01*
X018712Y009222D01*
X018712Y009102D01*
X018792Y009102D01*
X018712Y009102D02*
X018632Y009182D01*
X018592Y009262D01*
X018712Y009378D02*
X018712Y009498D01*
X018752Y009538D01*
X018792Y009538D01*
X018832Y009498D01*
X018832Y009418D01*
X018792Y009378D01*
X018712Y009378D01*
X018632Y009458D01*
X018592Y009538D01*
X018712Y009655D02*
X018712Y009815D01*
X018592Y009931D02*
X018592Y010051D01*
X018632Y010091D01*
X018792Y010091D01*
X018832Y010051D01*
X018832Y009931D01*
X018592Y009931D01*
X018592Y010207D02*
X018832Y010207D01*
X018832Y010367D01*
X018752Y010483D02*
X018592Y010483D01*
X018592Y010367D02*
X018592Y010207D01*
X018712Y010207D02*
X018712Y010287D01*
X018752Y010483D02*
X018832Y010563D01*
X018752Y010643D01*
X018592Y010643D01*
X018079Y011059D02*
X018079Y011139D01*
X018039Y011179D01*
X017998Y011179D01*
X017918Y011139D01*
X017918Y011259D01*
X018079Y011259D01*
X017998Y011419D02*
X018039Y011459D01*
X018039Y011659D01*
X018079Y011659D02*
X017998Y011659D01*
X017802Y011619D02*
X017762Y011659D01*
X017682Y011659D01*
X017642Y011619D01*
X017642Y011579D01*
X017682Y011539D01*
X017762Y011539D01*
X017802Y011499D01*
X017802Y011459D01*
X017762Y011419D01*
X017682Y011419D01*
X017642Y011459D01*
X017512Y011489D02*
X017512Y011289D01*
X017510Y011269D01*
X017504Y011251D01*
X017495Y011233D01*
X017483Y011218D01*
X017468Y011206D01*
X017450Y011197D01*
X017432Y011191D01*
X017412Y011189D01*
X017212Y011189D01*
X017012Y011189D01*
X016992Y011191D01*
X016974Y011197D01*
X016956Y011206D01*
X016941Y011218D01*
X016929Y011233D01*
X016920Y011251D01*
X016914Y011269D01*
X016912Y011289D01*
X016912Y011489D01*
X016914Y011509D01*
X016920Y011527D01*
X016929Y011545D01*
X016941Y011560D01*
X016956Y011572D01*
X016974Y011581D01*
X016992Y011587D01*
X017012Y011589D01*
X017212Y011589D01*
X017412Y011589D01*
X017432Y011587D01*
X017450Y011581D01*
X017468Y011572D01*
X017483Y011560D01*
X017495Y011545D01*
X017504Y011527D01*
X017510Y011509D01*
X017512Y011489D01*
X017682Y011259D02*
X017642Y011219D01*
X017642Y011059D01*
X017682Y011019D01*
X017762Y011019D01*
X017802Y011059D01*
X017918Y011059D02*
X017958Y011019D01*
X018039Y011019D01*
X018079Y011059D01*
X017802Y011219D02*
X017762Y011259D01*
X017682Y011259D01*
X017918Y011459D02*
X017958Y011419D01*
X017998Y011419D01*
X018195Y011419D02*
X018355Y011579D01*
X018355Y011619D01*
X018315Y011659D01*
X018235Y011659D01*
X018195Y011619D01*
X018195Y011419D02*
X018355Y011419D01*
X018082Y011917D02*
X018082Y012077D01*
X018082Y011997D02*
X017842Y011997D01*
X017922Y011917D01*
X017882Y012193D02*
X017842Y012233D01*
X017842Y012313D01*
X017882Y012353D01*
X017922Y012353D01*
X017962Y012313D01*
X018002Y012353D01*
X018042Y012353D01*
X018082Y012313D01*
X018082Y012233D01*
X018042Y012193D01*
X017962Y012273D02*
X017962Y012313D01*
X017082Y012313D02*
X016842Y012313D01*
X016962Y012193D01*
X016962Y012353D01*
X017082Y012077D02*
X017082Y011917D01*
X017082Y011997D02*
X016842Y011997D01*
X016922Y011917D01*
X016732Y011506D02*
X016732Y011345D01*
X016572Y011506D01*
X016532Y011506D01*
X016492Y011466D01*
X016492Y011385D01*
X016532Y011345D01*
X016382Y011306D02*
X016382Y011145D01*
X016382Y011225D02*
X016142Y011225D01*
X016222Y011145D01*
X016142Y011029D02*
X016342Y011029D01*
X016382Y010989D01*
X016382Y010909D01*
X016342Y010869D01*
X016142Y010869D01*
X016492Y011069D02*
X016732Y011069D01*
X016732Y011229D01*
X016255Y011409D02*
X016215Y011369D01*
X016135Y011369D01*
X016095Y011409D01*
X016175Y011489D02*
X016215Y011489D01*
X016255Y011449D01*
X016255Y011409D01*
X016215Y011489D02*
X016255Y011529D01*
X016255Y011569D01*
X016215Y011609D01*
X016135Y011609D01*
X016095Y011569D01*
X015898Y011609D02*
X015898Y011369D01*
X015818Y011369D02*
X015979Y011369D01*
X015818Y011529D02*
X015898Y011609D01*
X015702Y011569D02*
X015662Y011609D01*
X015542Y011609D01*
X015542Y011369D01*
X015542Y011449D02*
X015662Y011449D01*
X015702Y011489D01*
X015702Y011569D01*
X015622Y011449D02*
X015702Y011369D01*
X015415Y010909D02*
X015295Y010789D01*
X015455Y010789D01*
X015415Y010669D02*
X015415Y010909D01*
X015098Y010909D02*
X015098Y010669D01*
X015018Y010669D02*
X015179Y010669D01*
X015018Y010829D02*
X015098Y010909D01*
X014902Y010869D02*
X014902Y010789D01*
X014862Y010749D01*
X014742Y010749D01*
X014742Y010669D02*
X014742Y010909D01*
X014862Y010909D01*
X014902Y010869D01*
X014822Y010749D02*
X014902Y010669D01*
X014922Y011917D02*
X014842Y011997D01*
X015082Y011997D01*
X015082Y011917D02*
X015082Y012077D01*
X015042Y012193D02*
X014962Y012193D01*
X014962Y012313D01*
X015002Y012353D01*
X015042Y012353D01*
X015082Y012313D01*
X015082Y012233D01*
X015042Y012193D01*
X014962Y012193D02*
X014882Y012273D01*
X014842Y012353D01*
X014082Y012193D02*
X014042Y012193D01*
X013882Y012353D01*
X013842Y012353D01*
X013842Y012193D01*
X013842Y011997D02*
X014082Y011997D01*
X014082Y011917D02*
X014082Y012077D01*
X013922Y011917D02*
X013842Y011997D01*
X013082Y011997D02*
X012842Y011997D01*
X012922Y011917D01*
X013082Y011917D02*
X013082Y012077D01*
X013042Y012193D02*
X013002Y012193D01*
X012962Y012233D01*
X012962Y012313D01*
X013002Y012353D01*
X013042Y012353D01*
X013082Y012313D01*
X013082Y012233D01*
X013042Y012193D01*
X012962Y012233D02*
X012922Y012193D01*
X012882Y012193D01*
X012842Y012233D01*
X012842Y012313D01*
X012882Y012353D01*
X012922Y012353D01*
X012962Y012313D01*
X012942Y011106D02*
X012982Y011066D01*
X012982Y010985D01*
X012942Y010945D01*
X012862Y011025D02*
X012862Y011066D01*
X012902Y011106D01*
X012942Y011106D01*
X012862Y011066D02*
X012822Y011106D01*
X012782Y011106D01*
X012742Y011066D01*
X012742Y010985D01*
X012782Y010945D01*
X012782Y010829D02*
X012742Y010789D01*
X012742Y010709D01*
X012782Y010669D01*
X012942Y010669D01*
X012982Y010709D01*
X012982Y010789D01*
X012942Y010829D01*
X010379Y010809D02*
X010339Y010769D01*
X010258Y010769D01*
X010218Y010809D01*
X010298Y010889D02*
X010339Y010889D01*
X010379Y010849D01*
X010379Y010809D01*
X010339Y010889D02*
X010379Y010929D01*
X010379Y010969D01*
X010339Y011009D01*
X010258Y011009D01*
X010218Y010969D01*
X010102Y010969D02*
X010102Y010889D01*
X010062Y010849D01*
X009942Y010849D01*
X009942Y010769D02*
X009942Y011009D01*
X010062Y011009D01*
X010102Y010969D01*
X010022Y010849D02*
X010102Y010769D01*
X009906Y010217D02*
X009946Y010177D01*
X009946Y010097D01*
X009906Y010057D01*
X009826Y010057D02*
X009786Y010137D01*
X009786Y010177D01*
X009826Y010217D01*
X009906Y010217D01*
X009826Y010057D02*
X009706Y010057D01*
X009706Y010217D01*
X009706Y009861D02*
X009946Y009861D01*
X009946Y009941D02*
X009946Y009780D01*
X009946Y009664D02*
X009866Y009584D01*
X009866Y009624D02*
X009866Y009504D01*
X009946Y009504D02*
X009706Y009504D01*
X009706Y009624D01*
X009746Y009664D01*
X009826Y009664D01*
X009866Y009624D01*
X009786Y009780D02*
X009706Y009861D01*
X009882Y011917D02*
X009842Y011957D01*
X009842Y012037D01*
X009882Y012077D01*
X009922Y012077D01*
X010082Y011917D01*
X010082Y012077D01*
X010082Y012193D02*
X010082Y012353D01*
X010082Y012273D02*
X009842Y012273D01*
X009922Y012193D01*
X009082Y012193D02*
X008922Y012353D01*
X008882Y012353D01*
X008842Y012313D01*
X008842Y012233D01*
X008882Y012193D01*
X008882Y012077D02*
X008842Y012037D01*
X008842Y011957D01*
X008882Y011917D01*
X008882Y012077D02*
X008922Y012077D01*
X009082Y011917D01*
X009082Y012077D01*
X009082Y012193D02*
X009082Y012353D01*
X015842Y012353D02*
X015842Y012193D01*
X015962Y012193D01*
X015922Y012273D01*
X015922Y012313D01*
X015962Y012353D01*
X016042Y012353D01*
X016082Y012313D01*
X016082Y012233D01*
X016042Y012193D01*
X016082Y012077D02*
X016082Y011917D01*
X016082Y011997D02*
X015842Y011997D01*
X015922Y011917D01*
X017257Y010309D02*
X017217Y010269D01*
X017217Y010109D01*
X017257Y010069D01*
X017337Y010069D01*
X017377Y010109D01*
X017493Y010069D02*
X017654Y010069D01*
X017573Y010069D02*
X017573Y010309D01*
X017493Y010229D01*
X017377Y010269D02*
X017337Y010309D01*
X017257Y010309D01*
X017592Y010419D02*
X017592Y010659D01*
X017592Y010419D02*
X017752Y010419D01*
X017868Y010419D02*
X018029Y010419D01*
X017948Y010419D02*
X017948Y010659D01*
X017868Y010579D01*
X018959Y011319D02*
X018959Y011479D01*
X019039Y011559D01*
X019119Y011479D01*
X019119Y011319D01*
X019235Y011319D02*
X019235Y011559D01*
X019395Y011319D01*
X019395Y011559D01*
X019511Y011559D02*
X019671Y011559D01*
X019591Y011559D02*
X019591Y011319D01*
X019787Y011279D02*
X019947Y011279D01*
X020063Y011359D02*
X020103Y011319D01*
X020184Y011319D01*
X020224Y011359D01*
X020340Y011359D02*
X020380Y011319D01*
X020460Y011319D01*
X020500Y011359D01*
X020500Y011519D01*
X020460Y011559D01*
X020380Y011559D01*
X020340Y011519D01*
X020340Y011359D01*
X020224Y011519D02*
X020184Y011559D01*
X020103Y011559D01*
X020063Y011519D01*
X020063Y011359D01*
X020616Y011319D02*
X020616Y011559D01*
X020776Y011319D01*
X020776Y011559D01*
X019119Y011439D02*
X018959Y011439D01*
X018922Y011917D02*
X018842Y011997D01*
X019082Y011997D01*
X019082Y011917D02*
X019082Y012077D01*
X019082Y012193D02*
X018922Y012353D01*
X018882Y012353D01*
X018842Y012313D01*
X018842Y012233D01*
X018882Y012193D01*
X019082Y012193D02*
X019082Y012353D01*
X016732Y009903D02*
X016732Y009743D01*
X016732Y009823D02*
X016492Y009823D01*
X016572Y009743D01*
X016532Y009627D02*
X016612Y009627D01*
X016652Y009587D01*
X016652Y009467D01*
X016652Y009547D02*
X016732Y009627D01*
X016732Y009467D02*
X016492Y009467D01*
X016492Y009587D01*
X016532Y009627D01*
X016682Y009106D02*
X016682Y008945D01*
X016682Y009025D02*
X016442Y009025D01*
X016522Y008945D01*
X016482Y008829D02*
X016642Y008829D01*
X016682Y008789D01*
X016682Y008709D01*
X016642Y008669D01*
X016482Y008669D01*
X016442Y008709D01*
X016442Y008789D01*
X016482Y008829D01*
X016602Y008749D02*
X016682Y008829D01*
X017405Y007709D02*
X017365Y007669D01*
X017365Y007509D01*
X017405Y007469D01*
X017485Y007469D01*
X017525Y007509D01*
X017641Y007469D02*
X017801Y007629D01*
X017801Y007669D01*
X017761Y007709D01*
X017681Y007709D01*
X017641Y007669D01*
X017525Y007669D02*
X017485Y007709D01*
X017405Y007709D01*
X017641Y007469D02*
X017801Y007469D01*
X018552Y007301D02*
X018592Y007301D01*
X018712Y007064D02*
X018712Y006984D01*
X018592Y006840D02*
X018552Y006840D01*
X018992Y006506D02*
X018992Y006386D01*
X019232Y006386D01*
X019232Y006506D01*
X019192Y006546D01*
X019152Y006546D01*
X019112Y006506D01*
X019112Y006386D01*
X019112Y006506D02*
X019072Y006546D01*
X019032Y006546D01*
X018992Y006506D01*
X019192Y006288D02*
X019232Y006288D01*
X019232Y006248D01*
X019192Y006248D01*
X019192Y006288D01*
X019072Y006132D02*
X019232Y006052D01*
X019072Y005972D01*
X019112Y005856D02*
X019152Y005856D01*
X019152Y005695D01*
X019112Y005695D02*
X019072Y005735D01*
X019072Y005816D01*
X019112Y005856D01*
X019232Y005816D02*
X019232Y005735D01*
X019192Y005695D01*
X019112Y005695D01*
X019112Y005579D02*
X019152Y005539D01*
X019152Y005419D01*
X019232Y005419D02*
X018992Y005419D01*
X018992Y005539D01*
X019032Y005579D01*
X019112Y005579D01*
X019152Y005499D02*
X019232Y005579D01*
X019082Y005056D02*
X019082Y004895D01*
X019082Y004975D02*
X018842Y004975D01*
X018922Y004895D01*
X019082Y004779D02*
X019082Y004619D01*
X019082Y004699D02*
X018842Y004699D01*
X018922Y004619D01*
X018592Y007721D02*
X018592Y007881D01*
D11*
X016062Y007839D02*
X016062Y005339D01*
X014562Y005339D01*
X014562Y007839D01*
X016062Y007839D01*
X015562Y005339D02*
X015560Y005370D01*
X015554Y005401D01*
X015544Y005431D01*
X015531Y005459D01*
X015514Y005486D01*
X015494Y005510D01*
X015471Y005532D01*
X015446Y005550D01*
X015418Y005565D01*
X015389Y005577D01*
X015359Y005585D01*
X015328Y005589D01*
X015296Y005589D01*
X015265Y005585D01*
X015235Y005577D01*
X015206Y005565D01*
X015178Y005550D01*
X015153Y005532D01*
X015130Y005510D01*
X015110Y005486D01*
X015093Y005459D01*
X015080Y005431D01*
X015070Y005401D01*
X015064Y005370D01*
X015062Y005339D01*
X010887Y006798D02*
X010854Y006764D01*
X010720Y006898D01*
X010854Y006898D01*
X010887Y006864D01*
X010887Y006798D01*
X010854Y006764D02*
X010720Y006764D01*
X010687Y006798D01*
X010687Y006864D01*
X010720Y006898D01*
X010771Y007064D02*
X010771Y007164D01*
X010737Y007198D01*
X010670Y007198D01*
X010637Y007164D01*
X010637Y007064D01*
X010837Y007064D01*
X010771Y007131D02*
X010837Y007198D01*
X010804Y007294D02*
X010837Y007328D01*
X010837Y007394D01*
X010804Y007428D01*
X010771Y007428D01*
X010737Y007394D01*
X010737Y007294D01*
X010804Y007294D01*
X010737Y007294D02*
X010670Y007361D01*
X010637Y007428D01*
X010704Y007614D02*
X010637Y007681D01*
X010837Y007681D01*
X010837Y007614D02*
X010837Y007748D01*
X010770Y007914D02*
X010737Y007948D01*
X010737Y008014D01*
X010770Y008048D01*
X010904Y007914D01*
X010937Y007948D01*
X010937Y008014D01*
X010904Y008048D01*
X010770Y008048D01*
X010770Y007914D02*
X010904Y007914D01*
X010787Y008206D02*
X010587Y008206D01*
X010587Y008139D02*
X010587Y008273D01*
X010587Y008369D02*
X010787Y008503D01*
X010787Y008600D02*
X010787Y008700D01*
X010754Y008733D01*
X010620Y008733D01*
X010587Y008700D01*
X010587Y008600D01*
X010787Y008600D01*
X010587Y008503D02*
X010787Y008369D01*
X010804Y008964D02*
X010737Y009031D01*
X010937Y009031D01*
X010937Y008964D02*
X010937Y009098D01*
X010804Y009264D02*
X010670Y009398D01*
X010804Y009398D01*
X010837Y009364D01*
X010837Y009298D01*
X010804Y009264D01*
X010670Y009264D01*
X010637Y009298D01*
X010637Y009364D01*
X010670Y009398D01*
X010704Y009864D02*
X010637Y009931D01*
X010837Y009931D01*
X010837Y009864D02*
X010837Y009998D01*
X009887Y007694D02*
X009687Y007694D01*
X009787Y007594D01*
X009787Y007728D01*
X009787Y007498D02*
X009821Y007464D01*
X009821Y007364D01*
X009887Y007364D02*
X009687Y007364D01*
X009687Y007464D01*
X009720Y007498D01*
X009787Y007498D01*
X009821Y007431D02*
X009887Y007498D01*
X009887Y007058D02*
X009887Y006925D01*
X009887Y006991D02*
X009687Y006991D01*
X009754Y006925D01*
X009887Y006828D02*
X009887Y006694D01*
X009887Y006761D02*
X009687Y006761D01*
X009754Y006694D01*
X009787Y006598D02*
X009821Y006564D01*
X009821Y006464D01*
X009887Y006464D02*
X009687Y006464D01*
X009687Y006564D01*
X009720Y006598D01*
X009787Y006598D01*
X009821Y006531D02*
X009887Y006598D01*
X013670Y010454D02*
X013637Y010487D01*
X013637Y010554D01*
X013670Y010587D01*
X013737Y010684D02*
X013637Y010784D01*
X013837Y010784D01*
X013737Y010817D02*
X013737Y010684D01*
X013804Y010587D02*
X013837Y010554D01*
X013837Y010487D01*
X013804Y010454D01*
X013670Y010454D01*
X014020Y010904D02*
X014154Y010904D01*
X014187Y010937D01*
X014187Y011004D01*
X014154Y011037D01*
X014154Y011134D02*
X014087Y011134D01*
X014087Y011234D01*
X014121Y011267D01*
X014154Y011267D01*
X014187Y011234D01*
X014187Y011167D01*
X014154Y011134D01*
X014087Y011134D02*
X014020Y011201D01*
X013987Y011267D01*
X014020Y011037D02*
X013987Y011004D01*
X013987Y010937D01*
X014020Y010904D01*
D12*
X010262Y008589D02*
X010112Y008589D01*
X009962Y008389D01*
X010262Y008389D01*
X010112Y008589D01*
X009962Y008589D01*
X008812Y005839D02*
X008812Y005689D01*
X008612Y005839D01*
X008612Y005539D01*
X008812Y005689D01*
X008812Y005539D01*
X008531Y000599D02*
X008584Y000546D01*
X008584Y000493D01*
X008531Y000439D01*
X008584Y000386D01*
X008584Y000333D01*
X008531Y000279D01*
X008424Y000279D01*
X008371Y000333D01*
X008477Y000439D02*
X008531Y000439D01*
X008531Y000599D02*
X008424Y000599D01*
X008371Y000546D01*
X008216Y000546D02*
X008216Y000333D01*
X008162Y000279D01*
X008056Y000279D01*
X008002Y000333D01*
X008056Y000439D02*
X008216Y000439D01*
X008216Y000546D02*
X008162Y000599D01*
X008056Y000599D01*
X008002Y000546D01*
X008002Y000493D01*
X008056Y000439D01*
X009107Y000439D02*
X009160Y000493D01*
X009267Y000493D01*
X009321Y000439D01*
X009321Y000386D01*
X009107Y000386D01*
X009107Y000333D02*
X009107Y000439D01*
X009107Y000333D02*
X009160Y000279D01*
X009267Y000279D01*
X009475Y000279D02*
X009475Y000493D01*
X009475Y000386D02*
X009582Y000493D01*
X009636Y000493D01*
X009782Y000493D02*
X009782Y000279D01*
X009782Y000386D02*
X009889Y000493D01*
X009942Y000493D01*
X010089Y000439D02*
X010089Y000333D01*
X010143Y000279D01*
X010249Y000279D01*
X010303Y000333D01*
X010303Y000439D01*
X010249Y000493D01*
X010143Y000493D01*
X010089Y000439D01*
X010458Y000386D02*
X010564Y000493D01*
X010618Y000493D01*
X010764Y000439D02*
X010818Y000493D01*
X010978Y000493D01*
X010925Y000386D02*
X010818Y000386D01*
X010764Y000439D01*
X010764Y000279D02*
X010925Y000279D01*
X010978Y000333D01*
X010925Y000386D01*
X010458Y000279D02*
X010458Y000493D01*
X011501Y000493D02*
X011608Y000493D01*
X011554Y000546D02*
X011554Y000333D01*
X011608Y000279D01*
X011747Y000333D02*
X011800Y000279D01*
X011907Y000279D01*
X011960Y000333D01*
X011960Y000439D01*
X011907Y000493D01*
X011800Y000493D01*
X011747Y000439D01*
X011747Y000333D01*
X012115Y000493D02*
X012222Y000493D01*
X012168Y000546D02*
X012168Y000333D01*
X012222Y000279D01*
X012360Y000333D02*
X012414Y000386D01*
X012574Y000386D01*
X012574Y000439D02*
X012574Y000279D01*
X012414Y000279D01*
X012360Y000333D01*
X012414Y000493D02*
X012520Y000493D01*
X012574Y000439D01*
X012729Y000279D02*
X012835Y000279D01*
X012782Y000279D02*
X012782Y000599D01*
X012729Y000599D01*
X020402Y005481D02*
X020509Y005374D01*
X020722Y005374D01*
X020562Y005374D02*
X020562Y005588D01*
X020509Y005588D02*
X020722Y005588D01*
X020722Y005743D02*
X020402Y005743D01*
X020722Y005956D01*
X020402Y005956D01*
X020402Y006111D02*
X020402Y006324D01*
X020402Y006218D02*
X020722Y006218D01*
X020509Y005588D02*
X020402Y005481D01*
D13*
X007962Y005044D02*
X004663Y005044D01*
X004663Y011934D01*
X007962Y011934D01*
X007962Y005044D01*
X008062Y005389D02*
X008562Y005389D01*
X008862Y005389D02*
X009312Y005389D01*
X009312Y005989D01*
X008862Y005989D01*
X008562Y005989D02*
X008062Y005989D01*
X008062Y005389D01*
X007962Y004489D02*
X008212Y004489D01*
X007962Y004489D02*
X007962Y004239D01*
X007962Y003739D02*
X007962Y003489D01*
X008212Y003489D01*
X008712Y003489D02*
X008962Y003489D01*
X008962Y003739D01*
X008962Y003489D01*
X009212Y003489D01*
X009712Y003489D02*
X009962Y003489D01*
X009962Y003739D01*
X009962Y003489D01*
X010212Y003489D01*
X010712Y003489D02*
X010962Y003489D01*
X010962Y003739D01*
X010962Y003489D01*
X011212Y003489D01*
X011712Y003489D02*
X011962Y003489D01*
X011962Y003739D01*
X011962Y003489D01*
X012212Y003489D01*
X012712Y003489D02*
X012962Y003489D01*
X012962Y003739D01*
X012962Y003489D01*
X013212Y003489D01*
X013712Y003489D02*
X013962Y003489D01*
X013962Y003739D01*
X013962Y003489D01*
X014212Y003489D01*
X014712Y003489D02*
X014962Y003489D01*
X014962Y003739D01*
X014962Y003489D01*
X015212Y003489D01*
X015712Y003489D02*
X015962Y003489D01*
X015962Y003739D01*
X015962Y003489D01*
X016212Y003489D01*
X016712Y003489D02*
X016962Y003489D01*
X016962Y003739D01*
X016962Y003489D01*
X017212Y003489D01*
X017712Y003489D02*
X017962Y003489D01*
X017962Y003739D01*
X017962Y003489D01*
X018212Y003489D01*
X018712Y003489D02*
X018962Y003489D01*
X018962Y003739D01*
X018962Y004239D02*
X018962Y004489D01*
X018712Y004489D01*
X018212Y004489D02*
X017962Y004489D01*
X017962Y004239D01*
X017962Y004489D01*
X017712Y004489D01*
X017212Y004489D02*
X016962Y004489D01*
X016962Y004239D01*
X016962Y004489D01*
X016712Y004489D01*
X016212Y004489D02*
X015962Y004489D01*
X015962Y004239D01*
X015962Y004489D01*
X015712Y004489D01*
X015212Y004489D02*
X014962Y004489D01*
X014962Y004239D01*
X014962Y004489D01*
X014712Y004489D01*
X014212Y004489D02*
X013962Y004489D01*
X013962Y004239D01*
X013962Y004489D01*
X013712Y004489D01*
X013212Y004489D02*
X012962Y004489D01*
X012962Y004239D01*
X012962Y004489D01*
X012712Y004489D01*
X012212Y004489D02*
X011962Y004489D01*
X011962Y004239D01*
X011962Y004489D01*
X011712Y004489D01*
X011212Y004489D02*
X010962Y004489D01*
X010962Y004239D01*
X010962Y004489D01*
X010712Y004489D01*
X010212Y004489D02*
X009962Y004489D01*
X009962Y004239D01*
X009962Y004489D01*
X009712Y004489D01*
X009212Y004489D02*
X008962Y004489D01*
X008962Y004239D01*
X008962Y004489D01*
X008712Y004489D01*
X009312Y005389D02*
X009362Y005439D01*
X009412Y005489D01*
X009412Y005889D01*
X009362Y005939D01*
X009312Y005989D01*
X009362Y005939D02*
X009362Y005439D01*
X010275Y005449D02*
X011850Y005449D01*
X011850Y005567D01*
X011850Y006512D02*
X011850Y006630D01*
X010275Y006630D01*
X010275Y006512D01*
X010275Y005567D02*
X010275Y005449D01*
X010412Y007839D02*
X009812Y007839D01*
X009812Y008339D01*
X009812Y008639D02*
X009812Y009089D01*
X010412Y009089D01*
X010362Y009139D01*
X010312Y009189D01*
X009912Y009189D01*
X009862Y009139D01*
X009812Y009089D01*
X009862Y009139D02*
X010362Y009139D01*
X010412Y009089D02*
X010412Y008639D01*
X010412Y008339D02*
X010412Y007839D01*
X012662Y008639D02*
X012862Y008839D01*
X013262Y008839D01*
X013362Y008939D01*
X014128Y008662D02*
X014128Y008505D01*
X014285Y008505D01*
X015939Y008505D02*
X016096Y008505D01*
X016096Y008662D01*
X016850Y008742D02*
X016850Y009026D01*
X017108Y009047D02*
X017362Y009047D01*
X017362Y009244D01*
X017362Y009047D02*
X017617Y009047D01*
X017598Y008889D02*
X017126Y008889D01*
X017108Y008732D02*
X017362Y008732D01*
X017362Y008535D01*
X017362Y008732D02*
X017617Y008732D01*
X017874Y008742D02*
X017874Y009036D01*
X017430Y009519D02*
X017294Y009519D01*
X017294Y008259D02*
X017430Y008259D01*
X016096Y010316D02*
X016096Y010405D01*
X016028Y010473D01*
X015939Y010473D01*
X016156Y010631D02*
X016158Y010651D01*
X016164Y010670D01*
X016174Y010687D01*
X016186Y010702D01*
X016202Y010714D01*
X016220Y010723D01*
X016239Y010728D01*
X016259Y010729D01*
X016279Y010726D01*
X016297Y010719D01*
X016314Y010708D01*
X016328Y010695D01*
X016340Y010679D01*
X016348Y010660D01*
X016351Y010641D01*
X016351Y010621D01*
X016348Y010602D01*
X016340Y010583D01*
X016328Y010567D01*
X016314Y010554D01*
X016297Y010543D01*
X016279Y010536D01*
X016259Y010533D01*
X016239Y010534D01*
X016220Y010539D01*
X016202Y010548D01*
X016186Y010560D01*
X016174Y010575D01*
X016164Y010592D01*
X016158Y010611D01*
X016156Y010631D01*
X016212Y012489D02*
X015962Y012489D01*
X015962Y012739D01*
X015962Y012489D01*
X015712Y012489D01*
X015212Y012489D02*
X014962Y012489D01*
X014962Y012739D01*
X014962Y012489D01*
X014712Y012489D01*
X014212Y012489D02*
X013962Y012489D01*
X013712Y012489D01*
X013962Y012489D02*
X013962Y012739D01*
X013962Y012489D01*
X013212Y012489D02*
X012962Y012489D01*
X012962Y012739D01*
X012962Y012489D01*
X012712Y012489D01*
X012212Y012489D02*
X011962Y012489D01*
X011712Y012489D01*
X011962Y012489D02*
X011962Y012739D01*
X011962Y012489D01*
X011212Y012489D02*
X010962Y012489D01*
X010962Y012739D01*
X010962Y012489D01*
X010712Y012489D01*
X010212Y012489D02*
X009962Y012489D01*
X009962Y012739D01*
X009962Y012489D01*
X009712Y012489D01*
X009212Y012489D02*
X008962Y012489D01*
X008712Y012489D01*
X008962Y012489D02*
X008962Y012739D01*
X008962Y012489D01*
X008212Y012489D02*
X007962Y012489D01*
X007962Y012739D01*
X007962Y013239D02*
X007962Y013489D01*
X008212Y013489D01*
X008712Y013489D02*
X008962Y013489D01*
X008962Y013239D01*
X008962Y013489D01*
X009212Y013489D01*
X009712Y013489D02*
X009962Y013489D01*
X010212Y013489D01*
X009962Y013489D02*
X009962Y013239D01*
X009962Y013489D01*
X010712Y013489D02*
X010962Y013489D01*
X011212Y013489D01*
X010962Y013489D02*
X010962Y013239D01*
X010962Y013489D01*
X011712Y013489D02*
X011962Y013489D01*
X011962Y013239D01*
X011962Y013489D01*
X012212Y013489D01*
X012712Y013489D02*
X012962Y013489D01*
X013212Y013489D01*
X012962Y013489D02*
X012962Y013239D01*
X012962Y013489D01*
X013712Y013489D02*
X013962Y013489D01*
X013962Y013239D01*
X013962Y013489D01*
X014212Y013489D01*
X014712Y013489D02*
X014962Y013489D01*
X015212Y013489D01*
X014962Y013489D02*
X014962Y013239D01*
X014962Y013489D01*
X015712Y013489D02*
X015962Y013489D01*
X016212Y013489D01*
X015962Y013489D02*
X015962Y013239D01*
X015962Y013489D01*
X016712Y013489D02*
X016962Y013489D01*
X016962Y013239D01*
X016962Y013489D01*
X017212Y013489D01*
X017712Y013489D02*
X017962Y013489D01*
X017962Y013239D01*
X017962Y013489D01*
X018212Y013489D01*
X018712Y013489D02*
X018962Y013489D01*
X018962Y013239D01*
X018962Y012739D02*
X018962Y012489D01*
X018712Y012489D01*
X018212Y012489D02*
X017962Y012489D01*
X017712Y012489D01*
X017962Y012489D02*
X017962Y012739D01*
X017962Y012489D01*
X017212Y012489D02*
X016962Y012489D01*
X016712Y012489D01*
X016962Y012489D02*
X016962Y012739D01*
X016962Y012489D01*
X019500Y012961D02*
X019500Y013030D01*
X020524Y013030D01*
X020524Y012961D01*
X020524Y011918D02*
X020524Y011849D01*
X020298Y011849D01*
X019727Y011849D02*
X019500Y011849D01*
X019500Y011918D01*
X014285Y010473D02*
X014128Y010473D01*
X014128Y010316D01*
X009062Y011139D02*
X009062Y011406D01*
X009062Y011273D02*
X008662Y011273D01*
X008795Y011139D01*
X006783Y009289D02*
X006783Y007689D01*
X004683Y007689D01*
X004683Y009289D02*
X006783Y009289D01*
X005119Y011245D02*
X005121Y011279D01*
X005127Y011312D01*
X005137Y011344D01*
X005151Y011374D01*
X005168Y011403D01*
X005189Y011429D01*
X005213Y011453D01*
X005239Y011474D01*
X005268Y011491D01*
X005298Y011505D01*
X005330Y011515D01*
X005363Y011521D01*
X005397Y011523D01*
X005431Y011521D01*
X005464Y011515D01*
X005496Y011505D01*
X005526Y011491D01*
X005555Y011474D01*
X005581Y011453D01*
X005605Y011429D01*
X005626Y011403D01*
X005643Y011374D01*
X005657Y011344D01*
X005667Y011312D01*
X005673Y011279D01*
X005675Y011245D01*
X005673Y011211D01*
X005667Y011178D01*
X005657Y011146D01*
X005643Y011116D01*
X005626Y011087D01*
X005605Y011061D01*
X005581Y011037D01*
X005555Y011016D01*
X005526Y010999D01*
X005496Y010985D01*
X005464Y010975D01*
X005431Y010969D01*
X005397Y010967D01*
X005363Y010969D01*
X005330Y010975D01*
X005298Y010985D01*
X005268Y010999D01*
X005239Y011016D01*
X005213Y011037D01*
X005189Y011061D01*
X005168Y011087D01*
X005151Y011116D01*
X005137Y011146D01*
X005127Y011178D01*
X005121Y011211D01*
X005119Y011245D01*
D14*
X012262Y007133D03*
D15*
X012262Y007153D02*
X012498Y007704D01*
X012026Y007704D01*
X012262Y007153D01*
M02*
