%
M48
M72
T01C0.0118
T02C0.0157
T03C0.0236
T04C0.0276
T05C0.0400
T06C0.0472
T07C0.0500
%
T01
X98622Y93892
X104122Y97892
X104622Y102892
X103622Y105892
X115122Y100392
X116622Y97892
X114622Y93392
X108622Y87892
X105622Y84392
X105622Y79592
X108622Y76392
X111622Y79592
X106622Y91892
X127122Y87892
X127622Y84892
X127122Y81392
X128622Y75892
X126122Y70392
X142622Y79392
X145122Y77392
X145122Y81392
X152122Y77392
X157122Y77392
X157622Y81392
X161122Y77642
X156122Y71892
X159122Y68392
X151122Y68392
X151122Y63642
X147122Y71892
X149154Y89774
X146004Y92924
X146004Y96861
X149154Y100010
X153091Y100010
X156240Y96861
X156240Y92924
X153091Y89774
X163122Y103392
X173622Y101892
X149622Y107892
X145622Y108892
X142622Y111392
X137122Y102892
X137622Y99892
X129622Y95892
X127622Y93392
X129622Y90392
X129122Y98892
T02
X129122Y112392
X118122Y111892
X98622Y111892
X82622Y110892
X152122Y110142
X160122Y104392
X164122Y96892
X182622Y80892
X175622Y70892
X177122Y56892
X151122Y58392
X206122Y118392
T03
X190122Y124392
X177122Y101892
X165122Y83392
X140122Y106892
X133622Y98142
X133622Y83892
X118122Y76892
X114622Y65892
X128872Y55892
X132122Y63892
X94122Y111892
T04
X124622Y109892
X110622Y63935
X110622Y56849
T05
X114622Y49892
X104622Y49892
X94622Y49892
X84622Y49892
X124622Y49892
X134622Y49892
X144622Y49892
X154622Y49892
X164622Y49892
X174622Y49892
X184622Y49892
X184622Y119892
X174622Y119892
X164622Y119892
X154622Y119892
X144622Y119892
X134622Y119892
X124622Y119892
X114622Y119892
X104622Y119892
X94622Y119892
X84622Y119892
T06
X151122Y94892
T07
X84622Y39892
X94622Y39892
X104622Y39892
X114622Y39892
X124622Y39892
X134622Y39892
X144622Y39892
X154622Y39892
X164622Y39892
X174622Y39892
X184622Y39892
X184622Y129892
X174622Y129892
X164622Y129892
X154622Y129892
X144622Y129892
X134622Y129892
X124622Y129892
X114622Y129892
X104622Y129892
X94622Y129892
X84622Y129892
M30
