G75*
G70*
%OFA0B0*%
%FSLAX24Y24*%
%IPPOS*%
%LPD*%
%AMOC8*
5,1,8,0,0,1.08239X$1,22.5*
%
%ADD10C,0.0100*%
%ADD11C,0.0000*%
D10*
X007962Y003989D02*
X007962Y012989D01*
X020962Y012989D01*
X020962Y003989D01*
X007962Y003989D01*
D11*
X010924Y005685D02*
X010926Y005709D01*
X010932Y005732D01*
X010942Y005754D01*
X010956Y005774D01*
X010973Y005791D01*
X010993Y005805D01*
X011015Y005815D01*
X011038Y005821D01*
X011062Y005823D01*
X011086Y005821D01*
X011109Y005815D01*
X011131Y005805D01*
X011151Y005791D01*
X011168Y005774D01*
X011182Y005754D01*
X011192Y005732D01*
X011198Y005709D01*
X011200Y005685D01*
X011198Y005661D01*
X011192Y005638D01*
X011182Y005616D01*
X011168Y005596D01*
X011151Y005579D01*
X011131Y005565D01*
X011109Y005555D01*
X011086Y005549D01*
X011062Y005547D01*
X011038Y005549D01*
X011015Y005555D01*
X010993Y005565D01*
X010973Y005579D01*
X010956Y005596D01*
X010942Y005616D01*
X010932Y005638D01*
X010926Y005661D01*
X010924Y005685D01*
X010924Y006394D02*
X010926Y006418D01*
X010932Y006441D01*
X010942Y006463D01*
X010956Y006483D01*
X010973Y006500D01*
X010993Y006514D01*
X011015Y006524D01*
X011038Y006530D01*
X011062Y006532D01*
X011086Y006530D01*
X011109Y006524D01*
X011131Y006514D01*
X011151Y006500D01*
X011168Y006483D01*
X011182Y006463D01*
X011192Y006441D01*
X011198Y006418D01*
X011200Y006394D01*
X011198Y006370D01*
X011192Y006347D01*
X011182Y006325D01*
X011168Y006305D01*
X011151Y006288D01*
X011131Y006274D01*
X011109Y006264D01*
X011086Y006258D01*
X011062Y006256D01*
X011038Y006258D01*
X011015Y006264D01*
X010993Y006274D01*
X010973Y006288D01*
X010956Y006305D01*
X010942Y006325D01*
X010932Y006347D01*
X010926Y006370D01*
X010924Y006394D01*
M02*
