G75*
G70*
%OFA0B0*%
%FSLAX24Y24*%
%IPPOS*%
%LPD*%
%AMOC8*
5,1,8,0,0,1.08239X$1,22.5*
%
%ADD10C,0.0080*%
%ADD11R,0.1450X0.0650*%
%ADD12R,0.0709X0.0709*%
%ADD13R,0.0238X0.0238*%
%ADD14C,0.0277*%
%ADD15C,0.0660*%
%ADD16C,0.0860*%
%ADD17C,0.0413*%
%ADD18C,0.0100*%
%ADD19C,0.0400*%
%ADD20C,0.0300*%
%ADD21C,0.0356*%
%ADD22C,0.0200*%
%ADD23C,0.0238*%
%ADD24C,0.0250*%
%ADD25C,0.0050*%
D10*
X008002Y000779D02*
X008216Y000993D01*
X008216Y001046D01*
X008162Y001099D01*
X008056Y001099D01*
X008002Y001046D01*
X008002Y000779D02*
X008216Y000779D01*
X008371Y000779D02*
X008371Y000833D01*
X008584Y001046D01*
X008584Y001099D01*
X008371Y001099D01*
X009107Y000939D02*
X009160Y000993D01*
X009267Y000993D01*
X009321Y000939D01*
X009321Y000886D01*
X009107Y000886D01*
X009107Y000833D02*
X009107Y000939D01*
X009107Y000833D02*
X009160Y000779D01*
X009267Y000779D01*
X009475Y000779D02*
X009475Y000993D01*
X009475Y000886D02*
X009582Y000993D01*
X009636Y000993D01*
X009782Y000993D02*
X009782Y000779D01*
X009782Y000886D02*
X009889Y000993D01*
X009942Y000993D01*
X010089Y000939D02*
X010143Y000993D01*
X010249Y000993D01*
X010303Y000939D01*
X010303Y000833D01*
X010249Y000779D01*
X010143Y000779D01*
X010089Y000833D01*
X010089Y000939D01*
X010458Y000886D02*
X010564Y000993D01*
X010618Y000993D01*
X010764Y000939D02*
X010818Y000993D01*
X010978Y000993D01*
X010925Y000886D02*
X010818Y000886D01*
X010764Y000939D01*
X010764Y000779D02*
X010925Y000779D01*
X010978Y000833D01*
X010925Y000886D01*
X010458Y000779D02*
X010458Y000993D01*
X011501Y000993D02*
X011661Y000993D01*
X011715Y000939D01*
X011715Y000833D01*
X011661Y000779D01*
X011501Y000779D01*
X011501Y001099D01*
X011869Y000939D02*
X011869Y000833D01*
X011923Y000779D01*
X012029Y000779D01*
X012083Y000833D01*
X012083Y000939D01*
X012029Y000993D01*
X011923Y000993D01*
X011869Y000939D01*
X012238Y000993D02*
X012344Y000993D01*
X012291Y001046D02*
X012291Y000833D01*
X012344Y000779D01*
X012536Y000833D02*
X012536Y001046D01*
X012483Y000993D02*
X012590Y000993D01*
X012729Y000939D02*
X012729Y000833D01*
X012782Y000779D01*
X012889Y000779D01*
X012942Y000833D01*
X012942Y000939D01*
X012889Y000993D01*
X012782Y000993D01*
X012729Y000939D01*
X012590Y000779D02*
X012536Y000833D01*
X013097Y000779D02*
X013097Y000993D01*
X013150Y000993D01*
X013204Y000939D01*
X013257Y000993D01*
X013310Y000939D01*
X013310Y000779D01*
X013204Y000779D02*
X013204Y000939D01*
D11*
X008912Y006489D03*
X008912Y007489D03*
X008912Y008489D03*
X008912Y009489D03*
X008912Y010489D03*
D12*
X015112Y009489D03*
D13*
X014915Y008977D03*
X014600Y009292D03*
X014600Y009686D03*
X014915Y010001D03*
X015309Y010001D03*
X015624Y009686D03*
X015624Y009292D03*
X015309Y008977D03*
D14*
X016412Y009689D03*
X016012Y010439D03*
X015212Y011014D03*
X012912Y011239D03*
X011812Y011189D03*
X009862Y011189D03*
X008262Y011089D03*
X015112Y005839D03*
X017562Y007089D03*
X018262Y008089D03*
X017712Y005689D03*
X020612Y011839D03*
D15*
X018462Y011989D03*
X017462Y011989D03*
X016462Y011989D03*
X015462Y011989D03*
X014462Y011989D03*
X013462Y011989D03*
X012462Y011989D03*
X011462Y011989D03*
X010462Y011989D03*
X009462Y011989D03*
X008462Y011989D03*
X008462Y004989D03*
X009462Y004989D03*
X010462Y004989D03*
X011462Y004989D03*
X012462Y004989D03*
X013462Y004989D03*
X014462Y004989D03*
X015462Y004989D03*
X016462Y004989D03*
X017462Y004989D03*
X018462Y004989D03*
D16*
X018462Y003989D03*
X017462Y003989D03*
X016462Y003989D03*
X015462Y003989D03*
X014462Y003989D03*
X013462Y003989D03*
X012462Y003989D03*
X011462Y003989D03*
X010462Y003989D03*
X009462Y003989D03*
X008462Y003989D03*
X008462Y012989D03*
X009462Y012989D03*
X010462Y012989D03*
X011462Y012989D03*
X012462Y012989D03*
X013462Y012989D03*
X014462Y012989D03*
X015462Y012989D03*
X016462Y012989D03*
X017462Y012989D03*
X018462Y012989D03*
D17*
X012462Y010989D03*
D18*
X012337Y010655D02*
X012391Y010633D01*
X012533Y010633D01*
X012664Y010687D01*
X012765Y010787D01*
X012819Y010918D01*
X012819Y011060D01*
X012765Y011191D01*
X012762Y011194D01*
X012762Y011292D01*
X013035Y011564D01*
X013121Y011651D01*
X013190Y011582D01*
X013334Y011523D01*
X013437Y011419D01*
X013437Y010317D01*
X013440Y010314D01*
X013090Y010314D01*
X012987Y010212D01*
X012934Y010158D01*
X012859Y010158D01*
X012760Y010117D01*
X012696Y010053D01*
X012337Y010412D01*
X012337Y010655D01*
X012337Y010637D02*
X012380Y010637D01*
X012337Y010539D02*
X013437Y010539D01*
X013437Y010637D02*
X012545Y010637D01*
X012713Y010736D02*
X013437Y010736D01*
X013437Y010834D02*
X012784Y010834D01*
X012819Y010933D02*
X013437Y010933D01*
X013437Y011031D02*
X012819Y011031D01*
X012790Y011130D02*
X013437Y011130D01*
X013437Y011229D02*
X012762Y011229D01*
X012797Y011327D02*
X013437Y011327D01*
X013431Y011426D02*
X012896Y011426D01*
X012995Y011524D02*
X013331Y011524D01*
X013150Y011623D02*
X013093Y011623D01*
X013437Y010440D02*
X012337Y010440D01*
X012407Y010342D02*
X013437Y010342D01*
X013019Y010243D02*
X012506Y010243D01*
X012604Y010145D02*
X012826Y010145D01*
X013712Y009720D02*
X013816Y009720D01*
X013915Y009761D01*
X013990Y009837D01*
X014031Y009936D01*
X014031Y010011D01*
X014087Y010067D01*
X014087Y010119D01*
X014142Y010064D01*
X014646Y010064D01*
X014646Y010001D01*
X014646Y009955D01*
X014601Y009955D01*
X014601Y009686D01*
X014601Y009417D01*
X014601Y009293D01*
X014600Y009293D01*
X014600Y009417D01*
X014600Y009686D01*
X014331Y009686D01*
X014331Y009505D01*
X014347Y009489D01*
X014331Y009474D01*
X014331Y009293D01*
X014600Y009293D01*
X014600Y009292D01*
X014331Y009292D01*
X014331Y009111D01*
X014419Y009023D01*
X014600Y009023D01*
X014600Y009292D01*
X014601Y009292D01*
X014601Y009023D01*
X014646Y009023D01*
X014646Y008978D01*
X014915Y008978D01*
X014915Y008977D01*
X014916Y008977D01*
X014916Y008978D01*
X015040Y008978D01*
X015309Y008978D01*
X015309Y008977D01*
X015309Y008708D01*
X015490Y008708D01*
X015578Y008796D01*
X015578Y008977D01*
X015309Y008977D01*
X015309Y008977D01*
X015309Y008708D01*
X015128Y008708D01*
X015112Y008724D01*
X015097Y008708D01*
X014916Y008708D01*
X014916Y008977D01*
X015040Y008977D01*
X015309Y008977D01*
X015309Y008978D01*
X015578Y008978D01*
X015578Y009023D01*
X015624Y009023D01*
X015805Y009023D01*
X015893Y009111D01*
X015893Y009292D01*
X015624Y009292D01*
X015624Y009023D01*
X015624Y009292D01*
X015624Y009292D01*
X015624Y009293D01*
X015624Y009293D01*
X015624Y009417D01*
X015624Y009686D01*
X015624Y009686D01*
X015624Y009417D01*
X015624Y009293D01*
X015893Y009293D01*
X015893Y009474D01*
X015877Y009489D01*
X015893Y009505D01*
X015893Y009686D01*
X015624Y009686D01*
X015624Y009686D01*
X015893Y009686D01*
X015893Y009713D01*
X016267Y009339D01*
X016557Y009339D01*
X016762Y009544D01*
X016762Y009834D01*
X016475Y010121D01*
X016540Y010187D01*
X016581Y010286D01*
X016581Y010393D01*
X016540Y010492D01*
X016465Y010567D01*
X016451Y010573D01*
X016385Y010639D01*
X016262Y010762D01*
X016160Y010864D01*
X015637Y010864D01*
X015637Y011264D01*
X016490Y011264D01*
X016635Y011264D01*
X016885Y011514D01*
X017042Y011514D01*
X017117Y011439D01*
X017407Y011439D01*
X017477Y011509D01*
X017558Y011509D01*
X017734Y011582D01*
X017869Y011717D01*
X017942Y011894D01*
X017942Y012085D01*
X017869Y012261D01*
X017812Y012318D01*
X017812Y012519D01*
X017954Y012661D01*
X017962Y012681D01*
X017971Y012661D01*
X018134Y012498D01*
X018284Y012435D01*
X018190Y012396D01*
X018055Y012261D01*
X017982Y012085D01*
X017982Y011894D01*
X018055Y011717D01*
X018190Y011582D01*
X018367Y011509D01*
X018558Y011509D01*
X018734Y011582D01*
X018869Y011717D01*
X018942Y011894D01*
X018942Y012085D01*
X018869Y012261D01*
X018734Y012396D01*
X018640Y012435D01*
X018791Y012498D01*
X018954Y012661D01*
X019007Y012789D01*
X019045Y012789D01*
X020762Y012789D01*
X020762Y011639D01*
X019129Y011639D01*
X019012Y011522D01*
X018829Y011339D01*
X018629Y011339D01*
X018512Y011222D01*
X018512Y011056D01*
X018512Y008240D01*
X018507Y008253D01*
X018426Y008334D01*
X018320Y008378D01*
X018262Y008378D01*
X018205Y008378D01*
X018099Y008334D01*
X018017Y008253D01*
X017973Y008147D01*
X017973Y008089D01*
X017973Y008032D01*
X018017Y007926D01*
X018099Y007844D01*
X018205Y007800D01*
X018262Y007800D01*
X018262Y008089D01*
X018262Y008089D01*
X017973Y008089D01*
X018262Y008089D01*
X018262Y008089D01*
X018262Y007800D01*
X018320Y007800D01*
X018426Y007844D01*
X018507Y007926D01*
X018512Y007938D01*
X018512Y006372D01*
X018512Y006206D01*
X018512Y005469D01*
X018477Y005469D01*
X018407Y005539D01*
X018287Y005539D01*
X018287Y005712D01*
X018185Y005814D01*
X016487Y007512D01*
X016487Y007792D01*
X016487Y007937D01*
X016312Y008112D01*
X016210Y008214D01*
X016022Y008214D01*
X015990Y008292D01*
X015915Y008367D01*
X015816Y008408D01*
X015709Y008408D01*
X015610Y008367D01*
X015534Y008292D01*
X015502Y008214D01*
X014772Y008214D01*
X014740Y008292D01*
X014665Y008367D01*
X014566Y008408D01*
X014459Y008408D01*
X014360Y008367D01*
X014284Y008292D01*
X014250Y008208D01*
X014209Y008208D01*
X014110Y008167D01*
X014034Y008092D01*
X013993Y007993D01*
X013993Y007886D01*
X014034Y007787D01*
X014110Y007711D01*
X014200Y007674D01*
X014187Y007662D01*
X014187Y005762D01*
X013787Y005362D01*
X013787Y005343D01*
X013734Y005396D01*
X013558Y005469D01*
X013367Y005469D01*
X013190Y005396D01*
X013055Y005261D01*
X012982Y005085D01*
X012982Y004964D01*
X012942Y005004D01*
X012942Y005085D01*
X012869Y005261D01*
X012734Y005396D01*
X012558Y005469D01*
X012367Y005469D01*
X012190Y005396D01*
X012055Y005261D01*
X011982Y005085D01*
X011982Y004894D01*
X012055Y004717D01*
X012190Y004582D01*
X012284Y004543D01*
X012134Y004481D01*
X011971Y004318D01*
X011962Y004298D01*
X011954Y004318D01*
X011791Y004481D01*
X011640Y004543D01*
X011734Y004582D01*
X011869Y004717D01*
X011942Y004894D01*
X011942Y005085D01*
X011869Y005261D01*
X011734Y005396D01*
X011558Y005469D01*
X011367Y005469D01*
X011190Y005396D01*
X011055Y005261D01*
X010982Y005085D01*
X010982Y004894D01*
X011055Y004717D01*
X011190Y004582D01*
X011284Y004543D01*
X011134Y004481D01*
X010971Y004318D01*
X010962Y004298D01*
X010954Y004318D01*
X010791Y004481D01*
X010640Y004543D01*
X010734Y004582D01*
X010869Y004717D01*
X010942Y004894D01*
X010942Y005085D01*
X010869Y005261D01*
X010734Y005396D01*
X010558Y005469D01*
X010367Y005469D01*
X010190Y005396D01*
X010055Y005261D01*
X009982Y005085D01*
X009982Y004894D01*
X010055Y004717D01*
X010190Y004582D01*
X010284Y004543D01*
X010134Y004481D01*
X009971Y004318D01*
X009962Y004298D01*
X009954Y004318D01*
X009791Y004481D01*
X009640Y004543D01*
X009734Y004582D01*
X009869Y004717D01*
X009942Y004894D01*
X009942Y004939D01*
X009512Y004939D01*
X009512Y004569D01*
X009512Y004189D01*
X009412Y004189D01*
X009412Y004569D01*
X009412Y004939D01*
X008982Y004939D01*
X008982Y004894D01*
X009055Y004717D01*
X009190Y004582D01*
X009284Y004543D01*
X009134Y004481D01*
X008971Y004318D01*
X008962Y004298D01*
X008954Y004318D01*
X008791Y004481D01*
X008640Y004543D01*
X008734Y004582D01*
X008869Y004717D01*
X008942Y004894D01*
X008942Y004974D01*
X009007Y005039D01*
X009412Y005039D01*
X009412Y004939D01*
X009512Y004939D01*
X009512Y005039D01*
X009942Y005039D01*
X009942Y005085D01*
X009869Y005261D01*
X009734Y005396D01*
X009630Y005439D01*
X009832Y005439D01*
X010037Y005644D01*
X010037Y005644D01*
X010257Y005864D01*
X010462Y006069D01*
X010462Y006744D01*
X010557Y006839D01*
X010717Y006839D01*
X011467Y006839D01*
X012062Y006244D01*
X012267Y006039D01*
X013067Y006039D01*
X013357Y006039D01*
X013712Y006394D01*
X013712Y006684D01*
X013712Y008244D01*
X013712Y009720D01*
X013712Y009652D02*
X014331Y009652D01*
X014331Y009686D02*
X014600Y009686D01*
X014600Y009686D01*
X014601Y009686D01*
X014600Y009686D01*
X014600Y009955D01*
X014419Y009955D01*
X014331Y009867D01*
X014331Y009686D01*
X014331Y009750D02*
X013889Y009750D01*
X013995Y009849D02*
X014331Y009849D01*
X014412Y009947D02*
X014031Y009947D01*
X014066Y010046D02*
X014646Y010046D01*
X014646Y010001D02*
X014915Y010001D01*
X014646Y010001D01*
X014600Y009947D02*
X014601Y009947D01*
X014600Y009849D02*
X014601Y009849D01*
X014600Y009750D02*
X014601Y009750D01*
X014600Y009652D02*
X014601Y009652D01*
X014600Y009553D02*
X014601Y009553D01*
X014600Y009455D02*
X014601Y009455D01*
X014600Y009356D02*
X014601Y009356D01*
X014600Y009258D02*
X014601Y009258D01*
X014600Y009159D02*
X014601Y009159D01*
X014600Y009061D02*
X014601Y009061D01*
X014646Y008977D02*
X014646Y008796D01*
X014734Y008708D01*
X014915Y008708D01*
X014915Y008977D01*
X014646Y008977D01*
X014646Y008962D02*
X013712Y008962D01*
X013712Y009061D02*
X014382Y009061D01*
X014331Y009159D02*
X013712Y009159D01*
X013712Y009258D02*
X014331Y009258D01*
X014331Y009356D02*
X013712Y009356D01*
X013712Y009455D02*
X014331Y009455D01*
X014331Y009553D02*
X013712Y009553D01*
X013712Y008863D02*
X014646Y008863D01*
X014678Y008765D02*
X013712Y008765D01*
X013712Y008666D02*
X018512Y008666D01*
X018512Y008568D02*
X013712Y008568D01*
X013712Y008469D02*
X018512Y008469D01*
X018512Y008371D02*
X018337Y008371D01*
X018262Y008371D02*
X018262Y008371D01*
X018262Y008378D02*
X018262Y008090D01*
X018262Y008090D01*
X018262Y008378D01*
X018187Y008371D02*
X015906Y008371D01*
X015998Y008272D02*
X018037Y008272D01*
X017985Y008174D02*
X016250Y008174D01*
X016349Y008075D02*
X017973Y008075D01*
X017996Y007977D02*
X016447Y007977D01*
X016487Y007878D02*
X018065Y007878D01*
X018262Y007878D02*
X018262Y007878D01*
X018262Y007977D02*
X018262Y007977D01*
X018262Y008075D02*
X018262Y008075D01*
X018262Y008174D02*
X018262Y008174D01*
X018262Y008272D02*
X018262Y008272D01*
X018488Y008272D02*
X018512Y008272D01*
X018512Y007878D02*
X018459Y007878D01*
X018512Y007779D02*
X016487Y007779D01*
X016487Y007681D02*
X018512Y007681D01*
X018512Y007582D02*
X016487Y007582D01*
X016515Y007484D02*
X018512Y007484D01*
X018512Y007385D02*
X016614Y007385D01*
X016712Y007287D02*
X018512Y007287D01*
X018512Y007188D02*
X016811Y007188D01*
X016909Y007090D02*
X018512Y007090D01*
X018512Y006991D02*
X017008Y006991D01*
X017106Y006893D02*
X018512Y006893D01*
X018512Y006794D02*
X017205Y006794D01*
X017303Y006696D02*
X018512Y006696D01*
X018512Y006597D02*
X017402Y006597D01*
X017500Y006498D02*
X018512Y006498D01*
X018512Y006400D02*
X017599Y006400D01*
X017697Y006301D02*
X018512Y006301D01*
X018512Y006203D02*
X017796Y006203D01*
X017895Y006104D02*
X018512Y006104D01*
X018512Y006006D02*
X017993Y006006D01*
X018092Y005907D02*
X018512Y005907D01*
X018512Y005809D02*
X018190Y005809D01*
X018287Y005710D02*
X018512Y005710D01*
X018512Y005612D02*
X018287Y005612D01*
X018433Y005513D02*
X018512Y005513D01*
X017937Y005513D02*
X014783Y005513D01*
X014812Y005484D02*
X014637Y005659D01*
X014637Y006867D01*
X014691Y006920D01*
X014766Y006920D01*
X014865Y006961D01*
X014876Y006973D01*
X014843Y006893D01*
X014843Y006786D01*
X014884Y006687D01*
X014960Y006611D01*
X015059Y006570D01*
X015166Y006570D01*
X015265Y006611D01*
X015293Y006639D01*
X015732Y006639D01*
X015760Y006611D01*
X015859Y006570D01*
X015966Y006570D01*
X016065Y006611D01*
X016140Y006687D01*
X016181Y006786D01*
X016181Y006893D01*
X016140Y006992D01*
X016065Y007067D01*
X015966Y007108D01*
X015870Y007108D01*
X015881Y007136D01*
X015881Y007243D01*
X015840Y007342D01*
X015765Y007417D01*
X015666Y007458D01*
X015559Y007458D01*
X015460Y007417D01*
X015432Y007389D01*
X014893Y007389D01*
X014865Y007417D01*
X014766Y007458D01*
X014659Y007458D01*
X014560Y007417D01*
X014537Y007395D01*
X014537Y007470D01*
X014566Y007470D01*
X014665Y007511D01*
X014693Y007539D01*
X015032Y007539D01*
X015060Y007511D01*
X015159Y007470D01*
X015266Y007470D01*
X015365Y007511D01*
X015440Y007587D01*
X015462Y007640D01*
X015484Y007587D01*
X015560Y007511D01*
X015659Y007470D01*
X015766Y007470D01*
X015865Y007511D01*
X015925Y007571D01*
X015960Y007536D01*
X016059Y007495D01*
X016137Y007495D01*
X016137Y007367D01*
X017937Y005567D01*
X017937Y005359D01*
X017912Y005334D01*
X017912Y005157D01*
X017869Y005261D01*
X017734Y005396D01*
X017558Y005469D01*
X017367Y005469D01*
X017190Y005396D01*
X017055Y005261D01*
X016982Y005085D01*
X016982Y004894D01*
X017055Y004717D01*
X017190Y004582D01*
X017284Y004543D01*
X017134Y004481D01*
X016971Y004318D01*
X016962Y004298D01*
X016954Y004318D01*
X016791Y004481D01*
X016640Y004543D01*
X016734Y004582D01*
X016869Y004717D01*
X016942Y004894D01*
X016942Y005085D01*
X016869Y005261D01*
X016734Y005396D01*
X016558Y005469D01*
X016367Y005469D01*
X016190Y005396D01*
X016055Y005261D01*
X015982Y005085D01*
X015982Y004894D01*
X016055Y004717D01*
X016190Y004582D01*
X016284Y004543D01*
X016134Y004481D01*
X015971Y004318D01*
X015962Y004298D01*
X015954Y004318D01*
X015791Y004481D01*
X015640Y004543D01*
X015734Y004582D01*
X015869Y004717D01*
X015942Y004894D01*
X015942Y005085D01*
X015869Y005261D01*
X015734Y005396D01*
X015558Y005469D01*
X015367Y005469D01*
X015190Y005396D01*
X015055Y005261D01*
X014982Y005085D01*
X014982Y004894D01*
X015055Y004717D01*
X015190Y004582D01*
X015284Y004543D01*
X015134Y004481D01*
X014971Y004318D01*
X014962Y004298D01*
X014954Y004318D01*
X014791Y004481D01*
X014640Y004543D01*
X014734Y004582D01*
X014869Y004717D01*
X014942Y004894D01*
X014942Y005085D01*
X014869Y005261D01*
X014812Y005318D01*
X014812Y005484D01*
X014812Y005414D02*
X015235Y005414D01*
X015110Y005316D02*
X014814Y005316D01*
X014887Y005217D02*
X015037Y005217D01*
X014996Y005119D02*
X014928Y005119D01*
X014942Y005020D02*
X014982Y005020D01*
X014982Y004922D02*
X014942Y004922D01*
X014913Y004823D02*
X015011Y004823D01*
X015052Y004725D02*
X014872Y004725D01*
X014778Y004626D02*
X015146Y004626D01*
X015246Y004528D02*
X014678Y004528D01*
X014843Y004429D02*
X015082Y004429D01*
X014983Y004330D02*
X014941Y004330D01*
X015678Y004528D02*
X016246Y004528D01*
X016146Y004626D02*
X015778Y004626D01*
X015872Y004725D02*
X016052Y004725D01*
X016011Y004823D02*
X015913Y004823D01*
X015942Y004922D02*
X015982Y004922D01*
X015982Y005020D02*
X015942Y005020D01*
X015928Y005119D02*
X015996Y005119D01*
X016037Y005217D02*
X015887Y005217D01*
X015814Y005316D02*
X016110Y005316D01*
X016235Y005414D02*
X015690Y005414D01*
X015843Y004429D02*
X016082Y004429D01*
X015983Y004330D02*
X015941Y004330D01*
X016678Y004528D02*
X017246Y004528D01*
X017146Y004626D02*
X016778Y004626D01*
X016872Y004725D02*
X017052Y004725D01*
X017011Y004823D02*
X016913Y004823D01*
X016942Y004922D02*
X016982Y004922D01*
X016982Y005020D02*
X016942Y005020D01*
X016928Y005119D02*
X016996Y005119D01*
X017037Y005217D02*
X016887Y005217D01*
X016814Y005316D02*
X017110Y005316D01*
X017235Y005414D02*
X016690Y005414D01*
X017400Y006104D02*
X014637Y006104D01*
X014637Y006006D02*
X017498Y006006D01*
X017597Y005907D02*
X014637Y005907D01*
X014637Y005809D02*
X017695Y005809D01*
X017794Y005710D02*
X014637Y005710D01*
X014685Y005612D02*
X017892Y005612D01*
X017937Y005414D02*
X017690Y005414D01*
X017814Y005316D02*
X017912Y005316D01*
X017912Y005217D02*
X017887Y005217D01*
X017082Y004429D02*
X016843Y004429D01*
X016941Y004330D02*
X016983Y004330D01*
X017301Y006203D02*
X014637Y006203D01*
X014637Y006301D02*
X017203Y006301D01*
X017104Y006400D02*
X014637Y006400D01*
X014637Y006498D02*
X017006Y006498D01*
X016907Y006597D02*
X016030Y006597D01*
X016144Y006696D02*
X016808Y006696D01*
X016710Y006794D02*
X016181Y006794D01*
X016181Y006893D02*
X016611Y006893D01*
X016513Y006991D02*
X016140Y006991D01*
X016011Y007090D02*
X016414Y007090D01*
X016316Y007188D02*
X015881Y007188D01*
X015863Y007287D02*
X016217Y007287D01*
X016137Y007385D02*
X015797Y007385D01*
X015799Y007484D02*
X016137Y007484D01*
X015626Y007484D02*
X015299Y007484D01*
X015436Y007582D02*
X015488Y007582D01*
X015212Y007739D02*
X014512Y007739D01*
X014599Y007484D02*
X015126Y007484D01*
X014712Y007189D02*
X015612Y007189D01*
X015912Y006839D02*
X015112Y006839D01*
X014994Y006597D02*
X014637Y006597D01*
X014637Y006696D02*
X014880Y006696D01*
X014843Y006794D02*
X014637Y006794D01*
X014663Y006893D02*
X014843Y006893D01*
X015230Y006597D02*
X015794Y006597D01*
X014187Y006597D02*
X013712Y006597D01*
X013712Y006696D02*
X014187Y006696D01*
X014187Y006794D02*
X013712Y006794D01*
X013712Y006893D02*
X014187Y006893D01*
X014187Y006991D02*
X013712Y006991D01*
X013712Y007090D02*
X014187Y007090D01*
X014187Y007188D02*
X013712Y007188D01*
X013712Y007287D02*
X014187Y007287D01*
X014187Y007385D02*
X013712Y007385D01*
X013712Y007484D02*
X014187Y007484D01*
X014187Y007582D02*
X013712Y007582D01*
X013712Y007681D02*
X014183Y007681D01*
X014041Y007779D02*
X013712Y007779D01*
X013712Y007878D02*
X013996Y007878D01*
X013993Y007977D02*
X013712Y007977D01*
X013712Y008075D02*
X014027Y008075D01*
X014125Y008174D02*
X013712Y008174D01*
X013712Y008272D02*
X014276Y008272D01*
X014368Y008371D02*
X013712Y008371D01*
X014656Y008371D02*
X015618Y008371D01*
X015526Y008272D02*
X014748Y008272D01*
X014915Y008765D02*
X014916Y008765D01*
X014915Y008863D02*
X014916Y008863D01*
X014915Y008962D02*
X014916Y008962D01*
X015309Y008962D02*
X015309Y008962D01*
X015309Y008863D02*
X015309Y008863D01*
X015309Y008765D02*
X015309Y008765D01*
X015547Y008765D02*
X018512Y008765D01*
X018512Y008863D02*
X015578Y008863D01*
X015578Y008962D02*
X018512Y008962D01*
X018512Y009061D02*
X015842Y009061D01*
X015893Y009159D02*
X018512Y009159D01*
X018512Y009258D02*
X015893Y009258D01*
X015893Y009356D02*
X016250Y009356D01*
X016152Y009455D02*
X015893Y009455D01*
X015893Y009553D02*
X016053Y009553D01*
X015955Y009652D02*
X015893Y009652D01*
X015624Y009652D02*
X015624Y009652D01*
X015624Y009686D02*
X015624Y009955D01*
X015651Y009955D01*
X015578Y010028D01*
X015578Y010001D01*
X015309Y010001D01*
X015184Y010001D01*
X014916Y010001D01*
X014916Y010001D01*
X015184Y010001D01*
X015309Y010001D01*
X015309Y010001D01*
X015309Y010001D01*
X015578Y010001D01*
X015578Y009955D01*
X015624Y009955D01*
X015624Y009686D01*
X015624Y009686D01*
X015624Y009750D02*
X015624Y009750D01*
X015624Y009849D02*
X015624Y009849D01*
X015624Y009947D02*
X015624Y009947D01*
X015624Y009553D02*
X015624Y009553D01*
X015624Y009455D02*
X015624Y009455D01*
X015624Y009356D02*
X015624Y009356D01*
X015624Y009258D02*
X015624Y009258D01*
X015624Y009159D02*
X015624Y009159D01*
X015624Y009061D02*
X015624Y009061D01*
X016574Y009356D02*
X018512Y009356D01*
X018512Y009455D02*
X016673Y009455D01*
X016762Y009553D02*
X018512Y009553D01*
X018512Y009652D02*
X016762Y009652D01*
X016762Y009750D02*
X018512Y009750D01*
X018512Y009849D02*
X016747Y009849D01*
X016649Y009947D02*
X018512Y009947D01*
X018512Y010046D02*
X016550Y010046D01*
X016498Y010145D02*
X018512Y010145D01*
X018512Y010243D02*
X016564Y010243D01*
X016581Y010342D02*
X018512Y010342D01*
X018512Y010440D02*
X016562Y010440D01*
X016493Y010539D02*
X018512Y010539D01*
X018512Y010637D02*
X016387Y010637D01*
X016288Y010736D02*
X018512Y010736D01*
X018512Y010834D02*
X016189Y010834D01*
X016697Y011327D02*
X018617Y011327D01*
X018519Y011229D02*
X015637Y011229D01*
X015637Y011130D02*
X018512Y011130D01*
X018512Y011031D02*
X015637Y011031D01*
X015637Y010933D02*
X018512Y010933D01*
X018594Y011524D02*
X019014Y011524D01*
X018916Y011426D02*
X016796Y011426D01*
X017594Y011524D02*
X018331Y011524D01*
X018150Y011623D02*
X017774Y011623D01*
X017871Y011721D02*
X018054Y011721D01*
X018013Y011820D02*
X017912Y011820D01*
X017942Y011918D02*
X017982Y011918D01*
X017982Y012017D02*
X017942Y012017D01*
X017929Y012115D02*
X017995Y012115D01*
X018036Y012214D02*
X017889Y012214D01*
X017818Y012312D02*
X018107Y012312D01*
X018226Y012411D02*
X017812Y012411D01*
X017812Y012510D02*
X018122Y012510D01*
X018023Y012608D02*
X017901Y012608D01*
X018698Y012411D02*
X020762Y012411D01*
X020762Y012312D02*
X018818Y012312D01*
X018889Y012214D02*
X020762Y012214D01*
X020762Y012115D02*
X018929Y012115D01*
X018942Y012017D02*
X020762Y012017D01*
X020762Y011918D02*
X018942Y011918D01*
X018912Y011820D02*
X020762Y011820D01*
X020762Y011721D02*
X018871Y011721D01*
X018774Y011623D02*
X019113Y011623D01*
X018803Y012510D02*
X020762Y012510D01*
X020762Y012608D02*
X018901Y012608D01*
X018973Y012707D02*
X020762Y012707D01*
X014915Y010001D02*
X014915Y010001D01*
X012598Y007656D02*
X012593Y007643D01*
X012593Y007536D01*
X012634Y007437D01*
X012710Y007361D01*
X012729Y007353D01*
X012679Y007303D01*
X012666Y007308D01*
X012559Y007308D01*
X012460Y007267D01*
X012384Y007192D01*
X012343Y007093D01*
X012343Y006986D01*
X012366Y006930D01*
X011962Y007334D01*
X011962Y007334D01*
X011757Y007539D01*
X011112Y007539D01*
X011112Y007540D01*
X011131Y007586D01*
X011131Y007693D01*
X011112Y007739D01*
X011112Y008536D01*
X011112Y008690D01*
X011131Y008736D01*
X011131Y008843D01*
X011112Y008889D01*
X011112Y008893D01*
X011109Y008896D01*
X011090Y008942D01*
X011015Y009017D01*
X010969Y009036D01*
X010966Y009039D01*
X010962Y009039D01*
X010916Y009058D01*
X010899Y009058D01*
X010931Y009136D01*
X010931Y009243D01*
X010890Y009342D01*
X010837Y009395D01*
X010837Y009962D01*
X010735Y010064D01*
X010676Y010123D01*
X010690Y010137D01*
X010731Y010236D01*
X010731Y010343D01*
X010690Y010442D01*
X010621Y010511D01*
X010631Y010536D01*
X010631Y010643D01*
X010612Y010689D01*
X010612Y010693D01*
X010609Y010696D01*
X010590Y010742D01*
X010515Y010817D01*
X010469Y010836D01*
X010466Y010839D01*
X010462Y010839D01*
X010416Y010858D01*
X010309Y010858D01*
X010263Y010839D01*
X010209Y010839D01*
X010062Y010693D01*
X009912Y010543D01*
X009912Y010336D01*
X009912Y009936D01*
X010059Y009789D01*
X010112Y009736D01*
X010112Y009686D01*
X010112Y009489D01*
X010112Y009493D01*
X010109Y009496D01*
X010090Y009542D01*
X010015Y009617D01*
X009969Y009636D01*
X009966Y009639D01*
X009962Y009639D01*
X009916Y009658D01*
X009809Y009658D01*
X009787Y009649D01*
X009787Y009876D01*
X009762Y009901D01*
X009762Y010077D01*
X009787Y010102D01*
X009787Y010439D01*
X008962Y010439D01*
X008962Y010539D01*
X008862Y010539D01*
X008862Y010964D01*
X008162Y010964D01*
X008162Y011610D01*
X008190Y011582D01*
X008367Y011509D01*
X008447Y011509D01*
X008517Y011439D01*
X008765Y011439D01*
X008787Y011417D01*
X008890Y011314D01*
X010090Y011314D01*
X010190Y011214D01*
X010440Y011214D01*
X011379Y010275D01*
X011360Y010267D01*
X011284Y010192D01*
X011243Y010093D01*
X011243Y009986D01*
X011284Y009887D01*
X011360Y009811D01*
X011393Y009797D01*
X011393Y009736D01*
X011434Y009637D01*
X011510Y009561D01*
X011609Y009520D01*
X011716Y009520D01*
X011799Y009555D01*
X011937Y009417D01*
X011937Y008717D01*
X012040Y008614D01*
X012237Y008417D01*
X012237Y008017D01*
X012340Y007914D01*
X012598Y007656D01*
X012573Y007681D02*
X011131Y007681D01*
X011130Y007582D02*
X012593Y007582D01*
X012615Y007484D02*
X011812Y007484D01*
X011812Y007489D02*
X012562Y006739D01*
X012812Y006739D01*
X012912Y006839D01*
X012840Y006887D02*
X012881Y006986D01*
X012881Y007011D01*
X013012Y007142D01*
X013012Y006739D01*
X012557Y006739D01*
X012503Y006793D01*
X012559Y006770D01*
X012666Y006770D01*
X012765Y006811D01*
X012840Y006887D01*
X012843Y006893D02*
X013012Y006893D01*
X013012Y006991D02*
X012881Y006991D01*
X012960Y007090D02*
X013012Y007090D01*
X013012Y006794D02*
X012723Y006794D01*
X012343Y006991D02*
X012305Y006991D01*
X012343Y007090D02*
X012207Y007090D01*
X012108Y007188D02*
X012383Y007188D01*
X012507Y007287D02*
X012009Y007287D01*
X011911Y007385D02*
X012686Y007385D01*
X012474Y007779D02*
X011112Y007779D01*
X011112Y007878D02*
X012376Y007878D01*
X012277Y007977D02*
X011112Y007977D01*
X011112Y008075D02*
X012237Y008075D01*
X012237Y008174D02*
X011112Y008174D01*
X011112Y008272D02*
X012237Y008272D01*
X012237Y008371D02*
X011112Y008371D01*
X011112Y008469D02*
X012185Y008469D01*
X012086Y008568D02*
X011112Y008568D01*
X011112Y008666D02*
X011988Y008666D01*
X011937Y008765D02*
X011131Y008765D01*
X011123Y008863D02*
X011937Y008863D01*
X011937Y008962D02*
X011070Y008962D01*
X010900Y009061D02*
X011937Y009061D01*
X011937Y009159D02*
X010931Y009159D01*
X010925Y009258D02*
X011937Y009258D01*
X011937Y009356D02*
X010876Y009356D01*
X010837Y009455D02*
X011899Y009455D01*
X011801Y009553D02*
X011796Y009553D01*
X011529Y009553D02*
X010837Y009553D01*
X010837Y009652D02*
X011428Y009652D01*
X011393Y009750D02*
X010837Y009750D01*
X010837Y009849D02*
X011322Y009849D01*
X011259Y009947D02*
X010837Y009947D01*
X010753Y010046D02*
X011243Y010046D01*
X011265Y010145D02*
X010693Y010145D01*
X010731Y010243D02*
X011336Y010243D01*
X011312Y010342D02*
X010731Y010342D01*
X010691Y010440D02*
X011214Y010440D01*
X011115Y010539D02*
X010631Y010539D01*
X010631Y010637D02*
X011017Y010637D01*
X010918Y010736D02*
X010593Y010736D01*
X010473Y010834D02*
X010820Y010834D01*
X010721Y010933D02*
X009731Y010933D01*
X009699Y010964D02*
X009787Y010876D01*
X009787Y010539D01*
X008962Y010539D01*
X008962Y010964D01*
X009699Y010964D01*
X009787Y010834D02*
X010204Y010834D01*
X010105Y010736D02*
X009787Y010736D01*
X009787Y010637D02*
X010007Y010637D01*
X009912Y010539D02*
X008962Y010539D01*
X008962Y010637D02*
X008862Y010637D01*
X008862Y010736D02*
X008962Y010736D01*
X008962Y010834D02*
X008862Y010834D01*
X008862Y010933D02*
X008962Y010933D01*
X008877Y011327D02*
X008162Y011327D01*
X008162Y011229D02*
X010175Y011229D01*
X010524Y011130D02*
X008162Y011130D01*
X008162Y011031D02*
X010623Y011031D01*
X011023Y011426D02*
X011531Y011426D01*
X011567Y011389D02*
X011447Y011509D01*
X011367Y011509D01*
X011190Y011582D01*
X011055Y011717D01*
X010982Y011894D01*
X010982Y012085D01*
X011055Y012261D01*
X011190Y012396D01*
X011284Y012435D01*
X011134Y012498D01*
X010971Y012661D01*
X010962Y012681D01*
X010954Y012661D01*
X010791Y012498D01*
X010640Y012435D01*
X010734Y012396D01*
X010869Y012261D01*
X010942Y012085D01*
X010942Y011894D01*
X010869Y011717D01*
X010812Y011660D01*
X010812Y011644D01*
X010808Y011640D01*
X011887Y010562D01*
X011887Y011317D01*
X011815Y011389D01*
X011567Y011389D01*
X011331Y011524D02*
X010925Y011524D01*
X010826Y011623D02*
X011150Y011623D01*
X011054Y011721D02*
X010871Y011721D01*
X010912Y011820D02*
X011013Y011820D01*
X010982Y011918D02*
X010942Y011918D01*
X010942Y012017D02*
X010982Y012017D01*
X010995Y012115D02*
X010929Y012115D01*
X010889Y012214D02*
X011036Y012214D01*
X011107Y012312D02*
X010818Y012312D01*
X010698Y012411D02*
X011226Y012411D01*
X011122Y012510D02*
X010803Y012510D01*
X010901Y012608D02*
X011023Y012608D01*
X011122Y011327D02*
X011877Y011327D01*
X011887Y011229D02*
X011220Y011229D01*
X011319Y011130D02*
X011887Y011130D01*
X011887Y011031D02*
X011417Y011031D01*
X011516Y010933D02*
X011887Y010933D01*
X011887Y010834D02*
X011614Y010834D01*
X011713Y010736D02*
X011887Y010736D01*
X011887Y010637D02*
X011812Y010637D01*
X010098Y009750D02*
X009787Y009750D01*
X009787Y009652D02*
X009793Y009652D01*
X009931Y009652D02*
X010112Y009652D01*
X010112Y009553D02*
X010079Y009553D01*
X010112Y009539D02*
X010112Y009039D01*
X010112Y009061D02*
X009787Y009061D01*
X009787Y009122D02*
X009787Y009129D01*
X009809Y009120D01*
X009916Y009120D01*
X009962Y009139D01*
X009966Y009139D01*
X009969Y009142D01*
X010015Y009161D01*
X010090Y009237D01*
X010109Y009283D01*
X010112Y009286D01*
X010112Y009290D01*
X010112Y008836D01*
X010259Y008689D01*
X010284Y008664D01*
X009941Y008664D01*
X009866Y008739D01*
X009787Y008739D01*
X009787Y008856D01*
X009787Y009122D01*
X009787Y008962D02*
X010112Y008962D01*
X010112Y008863D02*
X009787Y008863D01*
X009787Y008765D02*
X010183Y008765D01*
X010281Y008666D02*
X009939Y008666D01*
X009941Y008314D02*
X010323Y008314D01*
X010334Y008287D01*
X010410Y008211D01*
X010509Y008170D01*
X010612Y008170D01*
X010612Y007739D01*
X010593Y007693D01*
X010593Y007586D01*
X010612Y007540D01*
X010612Y007539D01*
X010267Y007539D01*
X010062Y007334D01*
X009812Y007084D01*
X009812Y007122D01*
X009787Y007147D01*
X009787Y007831D01*
X009812Y007856D01*
X009812Y008122D01*
X009787Y008147D01*
X009787Y008239D01*
X009866Y008239D01*
X009941Y008314D01*
X009899Y008272D02*
X010349Y008272D01*
X010500Y008174D02*
X009787Y008174D01*
X009812Y008075D02*
X010612Y008075D01*
X010612Y007977D02*
X009812Y007977D01*
X009812Y007878D02*
X010612Y007878D01*
X010612Y007779D02*
X009787Y007779D01*
X009787Y007681D02*
X010593Y007681D01*
X010594Y007582D02*
X009787Y007582D01*
X009787Y007484D02*
X010212Y007484D01*
X010113Y007385D02*
X009787Y007385D01*
X009787Y007287D02*
X010015Y007287D01*
X010062Y007334D02*
X010062Y007334D01*
X009916Y007188D02*
X009787Y007188D01*
X009812Y007090D02*
X009818Y007090D01*
X010512Y006794D02*
X011512Y006794D01*
X011611Y006696D02*
X010462Y006696D01*
X010462Y006597D02*
X010859Y006597D01*
X010899Y006637D02*
X010818Y006557D01*
X010774Y006451D01*
X010774Y006336D01*
X010818Y006231D01*
X010899Y006150D01*
X011005Y006106D01*
X011119Y006106D01*
X011225Y006150D01*
X011306Y006231D01*
X011350Y006336D01*
X011350Y006451D01*
X011306Y006557D01*
X011225Y006637D01*
X011119Y006681D01*
X011005Y006681D01*
X010899Y006637D01*
X010794Y006498D02*
X010462Y006498D01*
X010462Y006400D02*
X010774Y006400D01*
X010789Y006301D02*
X010462Y006301D01*
X010462Y006203D02*
X010846Y006203D01*
X010899Y005929D02*
X010818Y005848D01*
X010774Y005742D01*
X010774Y005628D01*
X010818Y005522D01*
X010899Y005441D01*
X011005Y005397D01*
X011119Y005397D01*
X011225Y005441D01*
X011306Y005522D01*
X011350Y005628D01*
X011350Y005742D01*
X011306Y005848D01*
X011225Y005929D01*
X011119Y005973D01*
X011005Y005973D01*
X010899Y005929D01*
X010878Y005907D02*
X010300Y005907D01*
X010201Y005809D02*
X010802Y005809D01*
X010774Y005710D02*
X010103Y005710D01*
X010004Y005612D02*
X010781Y005612D01*
X010827Y005513D02*
X009906Y005513D01*
X009814Y005316D02*
X010110Y005316D01*
X010037Y005217D02*
X009887Y005217D01*
X009928Y005119D02*
X009996Y005119D01*
X009982Y005020D02*
X009512Y005020D01*
X009512Y004922D02*
X009412Y004922D01*
X009412Y005020D02*
X008988Y005020D01*
X008982Y004922D02*
X008942Y004922D01*
X008913Y004823D02*
X009011Y004823D01*
X009052Y004725D02*
X008872Y004725D01*
X008778Y004626D02*
X009146Y004626D01*
X009246Y004528D02*
X008678Y004528D01*
X008843Y004429D02*
X009082Y004429D01*
X008983Y004330D02*
X008941Y004330D01*
X009412Y004330D02*
X009512Y004330D01*
X009512Y004232D02*
X009412Y004232D01*
X009412Y004429D02*
X009512Y004429D01*
X009512Y004528D02*
X009412Y004528D01*
X009412Y004626D02*
X009512Y004626D01*
X009512Y004725D02*
X009412Y004725D01*
X009412Y004823D02*
X009512Y004823D01*
X009778Y004626D02*
X010146Y004626D01*
X010052Y004725D02*
X009872Y004725D01*
X009913Y004823D02*
X010011Y004823D01*
X009982Y004922D02*
X009942Y004922D01*
X009678Y004528D02*
X010246Y004528D01*
X010082Y004429D02*
X009843Y004429D01*
X009941Y004330D02*
X009983Y004330D01*
X010678Y004528D02*
X011246Y004528D01*
X011146Y004626D02*
X010778Y004626D01*
X010872Y004725D02*
X011052Y004725D01*
X011011Y004823D02*
X010913Y004823D01*
X010942Y004922D02*
X010982Y004922D01*
X010982Y005020D02*
X010942Y005020D01*
X010928Y005119D02*
X010996Y005119D01*
X011037Y005217D02*
X010887Y005217D01*
X010814Y005316D02*
X011110Y005316D01*
X011161Y005414D02*
X011235Y005414D01*
X011297Y005513D02*
X013939Y005513D01*
X014037Y005612D02*
X011343Y005612D01*
X011350Y005710D02*
X014136Y005710D01*
X014187Y005809D02*
X011322Y005809D01*
X011247Y005907D02*
X014187Y005907D01*
X014187Y006006D02*
X010399Y006006D01*
X010462Y006104D02*
X012202Y006104D01*
X012104Y006203D02*
X011278Y006203D01*
X011335Y006301D02*
X012005Y006301D01*
X011907Y006400D02*
X011350Y006400D01*
X011330Y006498D02*
X011808Y006498D01*
X011709Y006597D02*
X011266Y006597D01*
X011812Y007489D02*
X011812Y007689D01*
X013422Y006104D02*
X014187Y006104D01*
X014187Y006203D02*
X013521Y006203D01*
X013619Y006301D02*
X014187Y006301D01*
X014187Y006400D02*
X013712Y006400D01*
X013712Y006498D02*
X014187Y006498D01*
X013840Y005414D02*
X013690Y005414D01*
X013235Y005414D02*
X012690Y005414D01*
X012814Y005316D02*
X013110Y005316D01*
X013037Y005217D02*
X012887Y005217D01*
X012928Y005119D02*
X012996Y005119D01*
X012982Y005020D02*
X012942Y005020D01*
X012235Y005414D02*
X011690Y005414D01*
X011814Y005316D02*
X012110Y005316D01*
X012037Y005217D02*
X011887Y005217D01*
X011928Y005119D02*
X011996Y005119D01*
X011982Y005020D02*
X011942Y005020D01*
X011942Y004922D02*
X011982Y004922D01*
X012011Y004823D02*
X011913Y004823D01*
X011872Y004725D02*
X012052Y004725D01*
X012146Y004626D02*
X011778Y004626D01*
X011678Y004528D02*
X012246Y004528D01*
X012082Y004429D02*
X011843Y004429D01*
X011941Y004330D02*
X011983Y004330D01*
X011082Y004429D02*
X010843Y004429D01*
X010941Y004330D02*
X010983Y004330D01*
X010963Y005414D02*
X010690Y005414D01*
X010235Y005414D02*
X009690Y005414D01*
X010010Y009159D02*
X010112Y009159D01*
X010099Y009258D02*
X010112Y009258D01*
X010112Y009290D02*
X010112Y009290D01*
X010112Y009489D02*
X010112Y009489D01*
X010112Y009539D02*
X009912Y009739D01*
X009912Y011039D01*
X009912Y010440D02*
X008962Y010440D01*
X009787Y010342D02*
X009912Y010342D01*
X009912Y010243D02*
X009787Y010243D01*
X009787Y010145D02*
X009912Y010145D01*
X009912Y010046D02*
X009762Y010046D01*
X009762Y009947D02*
X009912Y009947D01*
X009999Y009849D02*
X009787Y009849D01*
X010059Y009789D02*
X010059Y009789D01*
X009012Y009389D02*
X008912Y009489D01*
X008778Y011426D02*
X008162Y011426D01*
X008162Y011524D02*
X008331Y011524D01*
D19*
X008662Y011789D02*
X008462Y011989D01*
X009462Y011989D02*
X009662Y011789D01*
X009412Y011189D02*
X009412Y011039D01*
X009912Y011039D01*
X010462Y011039D01*
X011112Y010389D01*
X011112Y009589D01*
X011462Y009239D01*
X011812Y008889D01*
X011812Y007959D01*
X011812Y007689D01*
X011612Y007189D02*
X012412Y006389D01*
X013212Y006389D01*
X013362Y006539D01*
X013362Y008389D01*
X013362Y009814D01*
X014012Y010689D02*
X014287Y010414D01*
X015212Y010414D01*
X015912Y010414D01*
X015912Y010189D01*
X016412Y009689D01*
X015624Y009686D02*
X015624Y009292D01*
X015624Y009101D01*
X015500Y008977D01*
X015309Y008977D01*
X014915Y008977D01*
X014724Y008977D01*
X014662Y009039D01*
X014600Y009101D01*
X014600Y009292D01*
X014600Y009489D01*
X015112Y009489D01*
X014600Y009489D02*
X014600Y009686D01*
X014600Y009877D01*
X014362Y009039D02*
X013862Y008539D01*
X013862Y006139D01*
X013512Y005789D01*
X012887Y005789D01*
X012262Y005789D01*
X011762Y006289D01*
X011462Y006589D01*
X011612Y007189D02*
X010862Y007189D01*
X010412Y007189D01*
X010112Y006889D01*
X010112Y006214D01*
X009687Y005789D01*
X009262Y005789D01*
X008462Y004989D01*
X009462Y004989D02*
X009587Y004989D01*
X010662Y006064D01*
X010662Y006139D01*
X010662Y006689D01*
X012462Y004989D02*
X012712Y004739D01*
X012887Y005589D02*
X012887Y005789D01*
X014462Y005339D02*
X014462Y004989D01*
X016762Y008089D02*
X018262Y008089D01*
X016762Y008089D02*
X016512Y008339D01*
X015624Y009686D02*
X015624Y009802D01*
X015612Y009814D01*
X015512Y009914D01*
X015262Y011789D02*
X015462Y011989D01*
X015462Y012989D01*
X014462Y011989D02*
X014212Y011739D01*
X013612Y011739D02*
X013462Y011889D01*
X013462Y011989D01*
X012462Y011989D02*
X012462Y011739D01*
X011712Y011739D02*
X011462Y011989D01*
X010462Y011989D02*
X010462Y011789D01*
X009412Y011039D02*
X009412Y010489D01*
X008912Y010489D01*
X016262Y011789D02*
X016462Y011989D01*
X016462Y012989D01*
X017462Y012989D02*
X017462Y011989D01*
X017262Y011789D01*
X018262Y005189D02*
X018462Y004989D01*
D20*
X016512Y008339D02*
X016462Y008389D01*
X016387Y008389D01*
X015799Y008977D01*
X015500Y008977D01*
X014662Y009039D02*
X014362Y009039D01*
X014600Y009877D02*
X014687Y009964D01*
X014915Y009964D01*
X015309Y009964D01*
X015512Y009964D01*
X012462Y010989D02*
X012462Y011239D01*
X011362Y006739D02*
X010662Y006739D01*
X010662Y006689D01*
X010662Y006139D02*
X010762Y006039D01*
X011512Y006039D01*
X011762Y006289D01*
X011462Y006589D02*
X011462Y006639D01*
X011362Y006739D01*
D21*
X011462Y006589D03*
X011812Y007689D03*
X013362Y008389D03*
X013362Y009814D03*
X014012Y010689D03*
X016512Y008339D03*
X017712Y010189D03*
X019012Y012439D03*
X013212Y006389D03*
X012887Y005589D03*
X009412Y011189D03*
D22*
X010162Y010439D02*
X010312Y010589D01*
X010362Y010589D01*
X010162Y010439D02*
X010162Y010039D01*
X010412Y009789D01*
X010362Y009789D01*
X010362Y008939D01*
X010512Y008789D01*
X010712Y008789D01*
X010862Y008639D01*
X010862Y008789D01*
X010712Y008789D01*
X010862Y008639D02*
X010862Y007639D01*
X010862Y007189D01*
X010562Y007959D02*
X010262Y007959D01*
X009762Y008489D02*
X008912Y008489D01*
X009012Y009389D02*
X009862Y009389D01*
X011162Y007959D02*
X011812Y007959D01*
X011462Y009239D02*
X011462Y009339D01*
X014412Y009139D02*
X014712Y008839D01*
X015512Y008839D01*
X015812Y009139D01*
X015812Y009739D01*
X015737Y009814D01*
X015612Y009814D01*
X015512Y009914D02*
X015512Y009964D01*
X015309Y009964D02*
X015309Y010001D01*
X014915Y010001D02*
X014915Y009964D01*
X014412Y009839D02*
X014412Y009139D01*
X015912Y010414D02*
X015937Y010439D01*
X016012Y010439D01*
D23*
X016312Y010339D03*
X017362Y010189D03*
X015762Y008139D03*
X015712Y007739D03*
X016112Y007764D03*
X015612Y007189D03*
X015912Y006839D03*
X015112Y006839D03*
X015112Y006364D03*
X014712Y007189D03*
X014512Y007739D03*
X014262Y007939D03*
X014512Y008139D03*
X015212Y007739D03*
X012962Y009039D03*
X012762Y009339D03*
X012962Y009589D03*
X012912Y009889D03*
X013762Y009989D03*
X013712Y010289D03*
X014562Y010889D03*
X014262Y011139D03*
X014962Y010789D03*
X012762Y008489D03*
X012712Y008789D03*
X012712Y008139D03*
X012862Y007589D03*
X012612Y007039D03*
X011162Y007959D03*
X010862Y007639D03*
X010562Y007959D03*
X010562Y008439D03*
X010862Y008789D03*
X010662Y009189D03*
X010412Y009789D03*
X010462Y010289D03*
X010362Y010589D03*
X009862Y009389D03*
X011462Y009339D03*
X011662Y009789D03*
X011512Y010039D03*
D24*
X015212Y010414D02*
X015257Y010459D01*
X015257Y010969D01*
X015212Y011014D01*
D25*
X014962Y010789D02*
X014862Y010689D01*
X014412Y010689D01*
X014062Y011039D01*
X014062Y011289D01*
X014162Y011389D01*
X014512Y011389D01*
X014912Y011789D01*
X014912Y012239D01*
X014712Y012439D01*
X013162Y012439D01*
X012962Y012239D01*
X012962Y011739D01*
X012462Y011239D01*
X012162Y011439D02*
X012462Y011739D01*
X012162Y011439D02*
X012162Y010339D01*
X012912Y009589D01*
X012962Y009589D01*
X012762Y009339D02*
X012612Y009489D01*
X012612Y009739D01*
X012062Y010289D01*
X012062Y011389D01*
X011712Y011739D01*
X010562Y011489D02*
X012412Y009639D01*
X012412Y009089D01*
X012712Y008789D01*
X012762Y008789D01*
X013062Y008489D01*
X013062Y007439D01*
X012662Y007039D01*
X012612Y007039D01*
X012862Y007589D02*
X012862Y007639D01*
X012412Y008089D01*
X012412Y008489D01*
X012112Y008789D01*
X012112Y009489D01*
X011812Y009789D01*
X011662Y009789D01*
X011712Y010039D02*
X011512Y010039D01*
X011712Y010039D02*
X012212Y009539D01*
X012212Y008839D01*
X012512Y008539D01*
X012512Y008339D01*
X012712Y008139D01*
X012712Y008489D02*
X012762Y008489D01*
X012712Y008489D02*
X012312Y008889D01*
X012312Y009589D01*
X010512Y011389D01*
X010262Y011389D01*
X010162Y011489D01*
X008962Y011489D01*
X008662Y011789D01*
X009662Y011789D02*
X009762Y011789D01*
X009962Y011589D01*
X010212Y011589D01*
X010312Y011489D01*
X010562Y011489D01*
X010462Y011739D02*
X010462Y011789D01*
X010462Y011739D02*
X012512Y009689D01*
X012512Y009289D01*
X012762Y009039D01*
X012962Y009039D01*
X012912Y009889D02*
X013162Y010139D01*
X013562Y010139D01*
X013712Y010289D01*
X013612Y010389D01*
X013612Y011739D01*
X013712Y011239D02*
X014212Y011739D01*
X014262Y011139D02*
X014612Y011139D01*
X015262Y011789D01*
X015462Y011539D02*
X016012Y011539D01*
X016262Y011789D01*
X016562Y011439D02*
X016812Y011689D01*
X017162Y011689D01*
X017262Y011789D01*
X016562Y011439D02*
X015512Y011439D01*
X015462Y011389D01*
X015462Y010739D01*
X015512Y010689D01*
X016087Y010689D01*
X016312Y010464D01*
X016312Y010339D01*
X015412Y011489D02*
X015112Y011489D01*
X014562Y010939D01*
X014562Y010889D01*
X013912Y010389D02*
X013712Y010589D01*
X013712Y011239D01*
X013912Y010389D02*
X013912Y010139D01*
X013762Y009989D01*
X015412Y011489D02*
X015462Y011539D01*
X015762Y008139D02*
X015862Y008039D01*
X016137Y008039D01*
X016312Y007864D01*
X016312Y007439D01*
X018112Y005639D01*
X018112Y005339D01*
X018262Y005189D01*
X016112Y007764D02*
X015937Y007939D01*
X015662Y007939D01*
X015562Y008039D01*
X014612Y008039D01*
X014512Y008139D01*
X014262Y007939D02*
X015512Y007939D01*
X015712Y007739D01*
X014712Y007189D02*
X014462Y006939D01*
X014462Y005339D01*
X014362Y005689D02*
X014362Y007589D01*
X014512Y007739D01*
X014362Y005689D02*
X013962Y005289D01*
X013962Y004839D01*
X013662Y004539D01*
X012912Y004539D01*
X012712Y004739D01*
X010562Y008439D02*
X010512Y008489D01*
X009762Y008489D01*
X010662Y009189D02*
X010662Y009889D01*
X010462Y010089D01*
X010462Y010289D01*
M02*
