G75*
G70*
%OFA0B0*%
%FSLAX24Y24*%
%IPPOS*%
%LPD*%
%AMOC8*
5,1,8,0,0,1.08239X$1,22.5*
%
%ADD10C,0.0080*%
%ADD11C,0.0394*%
%ADD12C,0.1250*%
%ADD13C,0.1000*%
%ADD14R,0.0551X0.0394*%
%ADD15R,0.1200X0.1200*%
%ADD16C,0.1200*%
%ADD17R,0.0400X0.0400*%
%ADD18R,0.0660X0.0660*%
%ADD19C,0.0660*%
%ADD20C,0.0591*%
%ADD21R,0.0700X0.0700*%
%ADD22R,0.0600X0.0600*%
%ADD23C,0.0600*%
%ADD24R,0.0700X0.0900*%
%ADD25R,0.0472X0.0217*%
%ADD26R,0.0630X0.1378*%
%ADD27C,0.0100*%
%ADD28C,0.0600*%
%ADD29C,0.0400*%
%ADD30C,0.0200*%
%ADD31C,0.0356*%
%ADD32C,0.2480*%
%ADD33C,0.0240*%
%ADD34C,0.1200*%
D10*
X002197Y001283D02*
X002410Y001283D01*
X002304Y001283D02*
X002304Y001603D01*
X002197Y001497D01*
X002565Y001550D02*
X002619Y001603D01*
X002725Y001603D01*
X002779Y001550D01*
X002779Y001497D01*
X002725Y001443D01*
X002779Y001390D01*
X002779Y001336D01*
X002725Y001283D01*
X002619Y001283D01*
X002565Y001336D01*
X002672Y001443D02*
X002725Y001443D01*
X002933Y001336D02*
X002987Y001283D01*
X003094Y001283D01*
X003147Y001336D01*
X003147Y001390D01*
X003094Y001443D01*
X003040Y001443D01*
X003094Y001443D02*
X003147Y001497D01*
X003147Y001550D01*
X003094Y001603D01*
X002987Y001603D01*
X002933Y001550D01*
X003670Y001603D02*
X003670Y001283D01*
X003884Y001283D01*
X004038Y001283D02*
X004038Y001497D01*
X004145Y001497D02*
X004199Y001497D01*
X004145Y001497D02*
X004038Y001390D01*
X003884Y001603D02*
X003670Y001603D01*
X003670Y001443D02*
X003777Y001443D01*
X004345Y001390D02*
X004452Y001497D01*
X004505Y001497D01*
X004652Y001443D02*
X004652Y001336D01*
X004706Y001283D01*
X004812Y001283D01*
X004866Y001336D01*
X004866Y001443D01*
X004812Y001497D01*
X004706Y001497D01*
X004652Y001443D01*
X004345Y001497D02*
X004345Y001283D01*
X005020Y001283D02*
X005020Y001497D01*
X005020Y001390D02*
X005127Y001497D01*
X005181Y001497D01*
X005327Y001443D02*
X005381Y001497D01*
X005541Y001497D01*
X005487Y001390D02*
X005381Y001390D01*
X005327Y001443D01*
X005327Y001283D02*
X005487Y001283D01*
X005541Y001336D01*
X005487Y001390D01*
X006064Y001497D02*
X006171Y001497D01*
X006117Y001550D02*
X006117Y001336D01*
X006171Y001283D01*
X006309Y001336D02*
X006363Y001283D01*
X006470Y001283D01*
X006523Y001336D01*
X006523Y001443D01*
X006470Y001497D01*
X006363Y001497D01*
X006309Y001443D01*
X006309Y001336D01*
X006678Y001283D02*
X006838Y001283D01*
X006891Y001336D01*
X006891Y001443D01*
X006838Y001497D01*
X006678Y001497D01*
X006678Y001176D01*
D11*
X005657Y006243D03*
X005657Y022743D03*
X012907Y022743D03*
D12*
X012957Y017843D03*
D13*
X012157Y015493D03*
X007357Y015493D03*
X007357Y020193D03*
X012157Y020193D03*
X019007Y018843D03*
X019007Y016843D03*
X024007Y016843D03*
X024007Y018843D03*
D14*
X015640Y016267D03*
X015640Y015519D03*
X014774Y015893D03*
X014807Y017095D03*
X014807Y018591D03*
D15*
X003807Y019812D03*
X003807Y010177D03*
D16*
X003807Y008209D03*
X003807Y015875D03*
X003807Y017843D03*
D17*
X011557Y011393D03*
X012157Y011393D03*
X012157Y010693D03*
X011557Y010693D03*
X011557Y010093D03*
X012157Y010093D03*
X012157Y009393D03*
X011557Y009393D03*
X013107Y010093D03*
X013807Y010093D03*
X013807Y008193D03*
X013107Y008193D03*
X016307Y015543D03*
X016907Y015543D03*
X016907Y016243D03*
X016307Y016243D03*
X015657Y017493D03*
X015657Y018193D03*
X015657Y018993D03*
X015657Y019693D03*
X016657Y019843D03*
X017257Y019843D03*
X017857Y019843D03*
X017857Y019143D03*
X017257Y019143D03*
X016657Y019143D03*
X018257Y018193D03*
X018257Y017493D03*
D18*
X015707Y021493D03*
X010907Y006493D03*
X005907Y004743D03*
D19*
X006907Y004743D03*
X007907Y004743D03*
X008907Y004743D03*
X009907Y004743D03*
X010907Y004743D03*
X011907Y004743D03*
X012907Y004743D03*
X013907Y004743D03*
X014907Y004743D03*
X015907Y004743D03*
X016907Y004743D03*
X017907Y004743D03*
X018907Y004743D03*
X019907Y004743D03*
X020907Y004743D03*
X020907Y006493D03*
X019907Y006493D03*
X018907Y006493D03*
X017907Y006493D03*
X016907Y006493D03*
X015907Y006493D03*
X014907Y006493D03*
X013907Y006493D03*
X012907Y006493D03*
X011907Y006493D03*
X011907Y013493D03*
X012907Y013493D03*
X013907Y013493D03*
X014907Y013493D03*
X015907Y013493D03*
X016907Y013493D03*
X017907Y013493D03*
X018907Y013493D03*
X019907Y013493D03*
X020907Y013493D03*
X019707Y021493D03*
X018707Y021493D03*
X018707Y022493D03*
X019707Y022493D03*
X017707Y022493D03*
X016707Y022493D03*
X016707Y021493D03*
X017707Y021493D03*
X015707Y022493D03*
X010907Y013493D03*
D20*
X007457Y009754D03*
X007457Y009557D03*
X007457Y009360D03*
X007457Y009163D03*
X007457Y008966D03*
X007457Y008770D03*
X007457Y008573D03*
X006748Y007411D03*
X006551Y007411D03*
X006354Y007411D03*
X006158Y007411D03*
X005961Y007411D03*
X005764Y007411D03*
X005567Y007411D03*
X004898Y008573D03*
X004898Y008770D03*
X004898Y008966D03*
X004898Y009163D03*
X004898Y009360D03*
X004898Y009557D03*
X004898Y009754D03*
X004507Y011943D03*
D21*
X010457Y022493D03*
D22*
X009007Y008693D03*
D23*
X009007Y009693D03*
D24*
X006964Y011943D03*
X005250Y011943D03*
D25*
X012945Y009517D03*
X012945Y008769D03*
X013969Y008769D03*
X013969Y009143D03*
X013969Y009517D03*
D26*
X013929Y011193D03*
X012984Y011193D03*
D27*
X012469Y011693D02*
X012419Y011743D01*
X012207Y011743D01*
X012207Y011443D01*
X012107Y011443D01*
X012107Y011743D01*
X011895Y011743D01*
X011857Y011705D01*
X011819Y011743D01*
X011607Y011743D01*
X011607Y011443D01*
X011807Y011443D01*
X012107Y011443D01*
X012107Y011343D01*
X011807Y011343D01*
X011607Y011343D01*
X011607Y011443D01*
X011507Y011443D01*
X011507Y011743D01*
X011295Y011743D01*
X011207Y011655D01*
X011207Y011443D01*
X011507Y011443D01*
X011507Y011343D01*
X011207Y011343D01*
X011207Y011131D01*
X011245Y011093D01*
X010941Y011093D01*
X010707Y010859D01*
X010707Y010859D01*
X010507Y010659D01*
X010507Y010327D01*
X010507Y007023D01*
X010494Y007023D01*
X010377Y006906D01*
X010377Y006779D01*
X008871Y005273D01*
X008801Y005273D01*
X008607Y005192D01*
X008458Y005043D01*
X008380Y004856D01*
X008314Y005015D01*
X008179Y005150D01*
X008002Y005223D01*
X007957Y005223D01*
X007957Y004793D01*
X007857Y004793D01*
X007857Y005223D01*
X007811Y005223D01*
X007635Y005150D01*
X007500Y005015D01*
X007427Y004839D01*
X007427Y004793D01*
X007857Y004793D01*
X007857Y004693D01*
X007427Y004693D01*
X007427Y004648D01*
X007491Y004493D01*
X007323Y004493D01*
X007387Y004648D01*
X007387Y004693D01*
X006957Y004693D01*
X006957Y004793D01*
X007387Y004793D01*
X007387Y004839D01*
X007314Y005015D01*
X007179Y005150D01*
X007002Y005223D01*
X006957Y005223D01*
X006957Y004793D01*
X006857Y004793D01*
X006857Y005223D01*
X006811Y005223D01*
X006635Y005150D01*
X006500Y005015D01*
X006437Y004863D01*
X006437Y004966D01*
X007814Y006343D01*
X008107Y006636D01*
X008107Y008600D01*
X007957Y008750D01*
X007957Y008956D01*
X007957Y009193D01*
X008907Y009193D01*
X009106Y009193D01*
X009214Y009193D01*
X009290Y009269D01*
X009431Y009410D01*
X009507Y009486D01*
X009507Y009594D01*
X009507Y009793D01*
X009507Y009900D01*
X009431Y009976D01*
X009290Y010117D01*
X009214Y010193D01*
X009106Y010193D01*
X008907Y010193D01*
X007957Y010193D01*
X007957Y010400D01*
X007407Y010950D01*
X007407Y011303D01*
X007514Y011410D01*
X007514Y012476D01*
X007397Y012593D01*
X006531Y012593D01*
X006414Y012476D01*
X006414Y012100D01*
X006407Y012093D01*
X006407Y011243D01*
X004165Y011243D01*
X003900Y010977D01*
X003124Y010977D01*
X003007Y010860D01*
X003007Y009495D01*
X003124Y009377D01*
X004403Y009377D01*
X004403Y009262D01*
X004443Y009163D01*
X004403Y009065D01*
X004403Y008868D01*
X004403Y008674D01*
X004232Y008845D01*
X003956Y008959D01*
X003857Y008959D01*
X003857Y008259D01*
X004511Y008259D01*
X004617Y008153D01*
X004799Y008077D01*
X004996Y008077D01*
X005178Y008153D01*
X005318Y008292D01*
X005393Y008474D01*
X005393Y008671D01*
X005393Y008868D01*
X005393Y009065D01*
X005352Y009163D01*
X005393Y009262D01*
X005393Y009458D01*
X005393Y009655D01*
X005393Y009852D01*
X005318Y010034D01*
X005178Y010174D01*
X005010Y010243D01*
X006700Y010243D01*
X006957Y009986D01*
X006957Y009900D01*
X006957Y008956D01*
X006957Y008750D01*
X006957Y008336D01*
X007107Y008186D01*
X007107Y007753D01*
X007029Y007831D01*
X006847Y007906D01*
X006650Y007906D01*
X006453Y007906D01*
X006256Y007906D01*
X006158Y007866D01*
X006059Y007906D01*
X005862Y007906D01*
X005666Y007906D01*
X005469Y007906D01*
X005287Y007831D01*
X005147Y007692D01*
X005072Y007510D01*
X005072Y007313D01*
X005147Y007131D01*
X005287Y006991D01*
X005349Y006966D01*
X005327Y006957D01*
X005264Y006924D01*
X005264Y006924D01*
X005204Y006885D01*
X005147Y006841D01*
X005095Y006793D01*
X005095Y006793D01*
X005047Y006739D01*
X005005Y006682D01*
X005005Y006682D01*
X004967Y006621D01*
X004967Y006621D01*
X004936Y006556D01*
X004910Y006489D01*
X004891Y006421D01*
X004891Y006421D01*
X004878Y006350D01*
X004872Y006279D01*
X004872Y006207D01*
X004878Y006136D01*
X004891Y006066D01*
X004891Y006066D01*
X004910Y005997D01*
X004910Y005997D01*
X004936Y005930D01*
X004967Y005866D01*
X005005Y005805D01*
X005047Y005747D01*
X005095Y005694D01*
X005147Y005645D01*
X005204Y005601D01*
X005264Y005562D01*
X005327Y005530D01*
X005394Y005503D01*
X005462Y005482D01*
X005525Y005469D01*
X005407Y005350D01*
X005407Y005186D01*
X005377Y005156D01*
X005377Y004493D01*
X002407Y004493D01*
X002407Y013643D01*
X009060Y013643D01*
X009207Y013790D01*
X010010Y014593D01*
X012560Y014593D01*
X012707Y014740D01*
X013057Y015090D01*
X013057Y015093D01*
X014539Y015093D01*
X014774Y015327D01*
X014939Y015493D01*
X014972Y015493D01*
X014976Y015496D01*
X015132Y015496D01*
X015164Y015528D01*
X015164Y015239D01*
X015281Y015122D01*
X015471Y015122D01*
X015474Y015119D01*
X015806Y015119D01*
X015809Y015122D01*
X015998Y015122D01*
X016019Y015143D01*
X016024Y015143D01*
X016589Y015143D01*
X016579Y015118D01*
X016579Y014968D01*
X016623Y014862D01*
X016203Y014443D01*
X015503Y014443D01*
X015357Y014297D01*
X015303Y014243D01*
X012510Y014243D01*
X012303Y014243D01*
X012091Y014243D01*
X011871Y014023D01*
X011801Y014023D01*
X011607Y013942D01*
X011458Y013793D01*
X011407Y013671D01*
X011356Y013793D01*
X011207Y013942D01*
X011012Y014023D01*
X010801Y014023D01*
X010607Y013942D01*
X010458Y013793D01*
X010377Y013599D01*
X010377Y013388D01*
X010458Y013193D01*
X010607Y013044D01*
X010801Y012963D01*
X011012Y012963D01*
X011207Y013044D01*
X011356Y013193D01*
X011407Y013315D01*
X011458Y013193D01*
X011607Y013044D01*
X011801Y012963D01*
X012012Y012963D01*
X012207Y013044D01*
X012356Y013193D01*
X012407Y013315D01*
X012458Y013193D01*
X012607Y013044D01*
X012801Y012963D01*
X013012Y012963D01*
X013207Y013044D01*
X013356Y013193D01*
X013407Y013315D01*
X013458Y013193D01*
X013607Y013044D01*
X013801Y012963D01*
X014012Y012963D01*
X014207Y013044D01*
X014356Y013193D01*
X014407Y013315D01*
X014458Y013193D01*
X014607Y013044D01*
X014801Y012963D01*
X015012Y012963D01*
X015157Y013023D01*
X015157Y008397D01*
X014203Y007443D01*
X014003Y007443D01*
X013857Y007297D01*
X013803Y007243D01*
X013303Y007243D01*
X013091Y007243D01*
X012871Y007023D01*
X012801Y007023D01*
X012607Y006942D01*
X012458Y006793D01*
X012380Y006606D01*
X012314Y006765D01*
X012179Y006900D01*
X012002Y006973D01*
X011957Y006973D01*
X011957Y006543D01*
X011857Y006543D01*
X011857Y006973D01*
X011811Y006973D01*
X011635Y006900D01*
X011500Y006765D01*
X011437Y006613D01*
X011437Y006906D01*
X011320Y007023D01*
X011307Y007023D01*
X011307Y008993D01*
X011391Y008993D01*
X011874Y008993D01*
X011991Y008993D01*
X012357Y008627D01*
X012591Y008393D01*
X012707Y008393D01*
X012707Y007910D01*
X012824Y007793D01*
X013390Y007793D01*
X013492Y007896D01*
X013545Y007843D01*
X013757Y007843D01*
X013757Y008143D01*
X013857Y008143D01*
X013857Y008243D01*
X014157Y008243D01*
X014157Y008455D01*
X014151Y008461D01*
X014288Y008461D01*
X014405Y008578D01*
X014405Y008960D01*
X014355Y009010D01*
X014355Y009139D01*
X013973Y009139D01*
X013973Y009147D01*
X014355Y009147D01*
X014355Y009217D01*
X014381Y009243D01*
X014522Y009243D01*
X014757Y009477D01*
X014757Y010609D01*
X014522Y010843D01*
X014444Y010921D01*
X014444Y011965D01*
X014327Y012082D01*
X013531Y012082D01*
X013457Y012007D01*
X013382Y012082D01*
X012587Y012082D01*
X012469Y011965D01*
X012469Y011693D01*
X012469Y011732D02*
X012430Y011732D01*
X012469Y011831D02*
X007514Y011831D01*
X007514Y011732D02*
X011284Y011732D01*
X011207Y011634D02*
X007514Y011634D01*
X007514Y011535D02*
X011207Y011535D01*
X011207Y011338D02*
X007442Y011338D01*
X007407Y011240D02*
X011207Y011240D01*
X011207Y011141D02*
X007407Y011141D01*
X007407Y011043D02*
X010891Y011043D01*
X010792Y010944D02*
X007413Y010944D01*
X007407Y010950D02*
X007407Y010950D01*
X007511Y010846D02*
X010694Y010846D01*
X010595Y010747D02*
X007610Y010747D01*
X007709Y010648D02*
X010507Y010648D01*
X010507Y010550D02*
X007807Y010550D01*
X007906Y010451D02*
X010507Y010451D01*
X010507Y010353D02*
X007957Y010353D01*
X007957Y010254D02*
X010507Y010254D01*
X010507Y010156D02*
X009251Y010156D01*
X009350Y010057D02*
X010507Y010057D01*
X010507Y009959D02*
X009448Y009959D01*
X009507Y009860D02*
X010507Y009860D01*
X010507Y009762D02*
X009507Y009762D01*
X009507Y009663D02*
X010507Y009663D01*
X010507Y009564D02*
X009507Y009564D01*
X009487Y009466D02*
X010507Y009466D01*
X010507Y009367D02*
X009388Y009367D01*
X009290Y009269D02*
X010507Y009269D01*
X010507Y009170D02*
X007957Y009170D01*
X007957Y009072D02*
X008573Y009072D01*
X008557Y009055D02*
X008645Y009143D01*
X008972Y009143D01*
X008972Y008728D01*
X008972Y008658D01*
X009042Y008658D01*
X009042Y008728D01*
X009457Y008728D01*
X009457Y009055D01*
X009369Y009143D01*
X009042Y009143D01*
X009042Y008728D01*
X008972Y008728D01*
X008557Y008728D01*
X008557Y009055D01*
X008557Y008973D02*
X007957Y008973D01*
X007957Y008875D02*
X008557Y008875D01*
X008557Y008776D02*
X007957Y008776D01*
X008029Y008678D02*
X008972Y008678D01*
X008972Y008658D02*
X008557Y008658D01*
X008557Y008331D01*
X008645Y008243D01*
X008972Y008243D01*
X008972Y008658D01*
X009042Y008658D02*
X009042Y008243D01*
X009369Y008243D01*
X009457Y008331D01*
X009457Y008658D01*
X009042Y008658D01*
X009042Y008678D02*
X010507Y008678D01*
X010507Y008776D02*
X009457Y008776D01*
X009457Y008875D02*
X010507Y008875D01*
X010507Y008973D02*
X009457Y008973D01*
X009440Y009072D02*
X010507Y009072D01*
X010507Y008579D02*
X009457Y008579D01*
X009457Y008481D02*
X010507Y008481D01*
X010507Y008382D02*
X009457Y008382D01*
X009409Y008283D02*
X010507Y008283D01*
X010507Y008185D02*
X008107Y008185D01*
X008107Y008283D02*
X008604Y008283D01*
X008557Y008382D02*
X008107Y008382D01*
X008107Y008481D02*
X008557Y008481D01*
X008557Y008579D02*
X008107Y008579D01*
X008107Y008086D02*
X010507Y008086D01*
X010507Y007988D02*
X008107Y007988D01*
X008107Y007889D02*
X010507Y007889D01*
X010507Y007791D02*
X008107Y007791D01*
X008107Y007692D02*
X010507Y007692D01*
X010507Y007594D02*
X008107Y007594D01*
X008107Y007495D02*
X010507Y007495D01*
X010507Y007397D02*
X008107Y007397D01*
X008107Y007298D02*
X010507Y007298D01*
X010507Y007199D02*
X008107Y007199D01*
X008107Y007101D02*
X010507Y007101D01*
X010473Y007002D02*
X008107Y007002D01*
X008107Y006904D02*
X010377Y006904D01*
X010377Y006805D02*
X008107Y006805D01*
X008107Y006707D02*
X010305Y006707D01*
X010206Y006608D02*
X008079Y006608D01*
X007980Y006510D02*
X010108Y006510D01*
X010009Y006411D02*
X007882Y006411D01*
X007814Y006343D02*
X007814Y006343D01*
X007783Y006313D02*
X009911Y006313D01*
X009812Y006214D02*
X007685Y006214D01*
X007586Y006115D02*
X009714Y006115D01*
X009615Y006017D02*
X007488Y006017D01*
X007389Y005918D02*
X009516Y005918D01*
X009418Y005820D02*
X007291Y005820D01*
X007192Y005721D02*
X009319Y005721D01*
X009221Y005623D02*
X007094Y005623D01*
X006995Y005524D02*
X009122Y005524D01*
X009024Y005426D02*
X006896Y005426D01*
X006798Y005327D02*
X008925Y005327D01*
X008694Y005229D02*
X006699Y005229D01*
X006615Y005130D02*
X006601Y005130D01*
X006516Y005031D02*
X006502Y005031D01*
X006466Y004933D02*
X006437Y004933D01*
X006857Y004933D02*
X006957Y004933D01*
X006957Y005031D02*
X006857Y005031D01*
X006857Y005130D02*
X006957Y005130D01*
X007199Y005130D02*
X007615Y005130D01*
X007516Y005031D02*
X007297Y005031D01*
X007348Y004933D02*
X007466Y004933D01*
X007427Y004834D02*
X007387Y004834D01*
X007383Y004637D02*
X007431Y004637D01*
X007472Y004539D02*
X007342Y004539D01*
X006957Y004736D02*
X007857Y004736D01*
X007857Y004834D02*
X007957Y004834D01*
X007957Y004933D02*
X007857Y004933D01*
X007857Y005031D02*
X007957Y005031D01*
X007957Y005130D02*
X007857Y005130D01*
X008199Y005130D02*
X008544Y005130D01*
X008453Y005031D02*
X008297Y005031D01*
X008348Y004933D02*
X008412Y004933D01*
X006957Y004834D02*
X006857Y004834D01*
X005377Y004834D02*
X002407Y004834D01*
X002407Y004736D02*
X005377Y004736D01*
X005377Y004637D02*
X002407Y004637D01*
X002407Y004539D02*
X005377Y004539D01*
X005377Y004933D02*
X002407Y004933D01*
X002407Y005031D02*
X005377Y005031D01*
X005377Y005130D02*
X002407Y005130D01*
X002407Y005229D02*
X005407Y005229D01*
X005407Y005327D02*
X002407Y005327D01*
X002407Y005426D02*
X005482Y005426D01*
X005340Y005524D02*
X002407Y005524D01*
X002407Y005623D02*
X005176Y005623D01*
X005095Y005694D02*
X005095Y005694D01*
X005070Y005721D02*
X002407Y005721D01*
X002407Y005820D02*
X004995Y005820D01*
X004942Y005918D02*
X002407Y005918D01*
X002407Y006017D02*
X004905Y006017D01*
X004882Y006115D02*
X002407Y006115D01*
X002407Y006214D02*
X004872Y006214D01*
X004872Y006207D02*
X004872Y006207D01*
X004878Y006136D02*
X004878Y006136D01*
X004872Y006279D02*
X004872Y006279D01*
X004875Y006313D02*
X002407Y006313D01*
X002407Y006411D02*
X004889Y006411D01*
X004878Y006350D02*
X004878Y006350D01*
X004910Y006489D02*
X004910Y006489D01*
X004918Y006510D02*
X002407Y006510D01*
X002407Y006608D02*
X004961Y006608D01*
X004936Y006556D02*
X004936Y006556D01*
X005023Y006707D02*
X002407Y006707D01*
X002407Y006805D02*
X005108Y006805D01*
X005147Y006841D02*
X005147Y006841D01*
X005204Y006885D02*
X005204Y006885D01*
X005233Y006904D02*
X002407Y006904D01*
X002407Y007002D02*
X005276Y007002D01*
X005327Y006957D02*
X005327Y006957D01*
X005177Y007101D02*
X002407Y007101D01*
X002407Y007199D02*
X005119Y007199D01*
X005078Y007298D02*
X002407Y007298D01*
X002407Y007397D02*
X005072Y007397D01*
X005072Y007495D02*
X004043Y007495D01*
X003956Y007459D02*
X004232Y007573D01*
X004443Y007784D01*
X004557Y008060D01*
X004557Y008159D01*
X003857Y008159D01*
X003857Y008259D01*
X003757Y008259D01*
X003757Y008959D01*
X003658Y008959D01*
X003382Y008845D01*
X003171Y008634D01*
X003057Y008358D01*
X003057Y008259D01*
X003757Y008259D01*
X003757Y008159D01*
X003857Y008159D01*
X003857Y007459D01*
X003956Y007459D01*
X003857Y007495D02*
X003757Y007495D01*
X003757Y007459D02*
X003757Y008159D01*
X003057Y008159D01*
X003057Y008060D01*
X003171Y007784D01*
X003382Y007573D01*
X003658Y007459D01*
X003757Y007459D01*
X003757Y007594D02*
X003857Y007594D01*
X003857Y007692D02*
X003757Y007692D01*
X003757Y007791D02*
X003857Y007791D01*
X003857Y007889D02*
X003757Y007889D01*
X003757Y007988D02*
X003857Y007988D01*
X003857Y008086D02*
X003757Y008086D01*
X003757Y008185D02*
X002407Y008185D01*
X002407Y008283D02*
X003057Y008283D01*
X003067Y008382D02*
X002407Y008382D01*
X002407Y008481D02*
X003108Y008481D01*
X003148Y008579D02*
X002407Y008579D01*
X002407Y008678D02*
X003215Y008678D01*
X003313Y008776D02*
X002407Y008776D01*
X002407Y008875D02*
X003454Y008875D01*
X003757Y008875D02*
X003857Y008875D01*
X003857Y008776D02*
X003757Y008776D01*
X003757Y008678D02*
X003857Y008678D01*
X003857Y008579D02*
X003757Y008579D01*
X003757Y008481D02*
X003857Y008481D01*
X003857Y008382D02*
X003757Y008382D01*
X003757Y008283D02*
X003857Y008283D01*
X003857Y008185D02*
X004585Y008185D01*
X004557Y008086D02*
X004778Y008086D01*
X005018Y008086D02*
X007107Y008086D01*
X007107Y007988D02*
X004527Y007988D01*
X004486Y007889D02*
X005427Y007889D01*
X005246Y007791D02*
X004445Y007791D01*
X004351Y007692D02*
X005148Y007692D01*
X005107Y007594D02*
X004252Y007594D01*
X003570Y007495D02*
X002407Y007495D01*
X002407Y007594D02*
X003361Y007594D01*
X003263Y007692D02*
X002407Y007692D01*
X002407Y007791D02*
X003168Y007791D01*
X003127Y007889D02*
X002407Y007889D01*
X002407Y007988D02*
X003087Y007988D01*
X003057Y008086D02*
X002407Y008086D01*
X002407Y008973D02*
X004403Y008973D01*
X004403Y008875D02*
X004159Y008875D01*
X004300Y008776D02*
X004403Y008776D01*
X004399Y008678D02*
X004403Y008678D01*
X004405Y009072D02*
X002407Y009072D01*
X002407Y009170D02*
X004440Y009170D01*
X004403Y009269D02*
X002407Y009269D01*
X002407Y009367D02*
X004403Y009367D01*
X005355Y009170D02*
X006957Y009170D01*
X006957Y009072D02*
X005390Y009072D01*
X005393Y008973D02*
X006957Y008973D01*
X006957Y008875D02*
X005393Y008875D01*
X005393Y008776D02*
X006957Y008776D01*
X006957Y008678D02*
X005393Y008678D01*
X005393Y008579D02*
X006957Y008579D01*
X006957Y008481D02*
X005393Y008481D01*
X005355Y008382D02*
X006957Y008382D01*
X007009Y008283D02*
X005309Y008283D01*
X005210Y008185D02*
X007107Y008185D01*
X007107Y007889D02*
X006888Y007889D01*
X007069Y007791D02*
X007107Y007791D01*
X007107Y007070D02*
X007107Y007050D01*
X006431Y006375D01*
X006430Y006385D01*
X006430Y006386D01*
X006414Y006455D01*
X006414Y006455D01*
X006391Y006523D01*
X006363Y006589D01*
X006328Y006652D01*
X006289Y006711D01*
X006243Y006766D01*
X006193Y006818D01*
X006139Y006864D01*
X006080Y006905D01*
X006061Y006917D01*
X006158Y006957D01*
X006256Y006916D01*
X006453Y006916D01*
X006650Y006916D01*
X006847Y006916D01*
X007029Y006991D01*
X007107Y007070D01*
X007059Y007002D02*
X007040Y007002D01*
X006960Y006904D02*
X006082Y006904D01*
X006205Y006805D02*
X006862Y006805D01*
X006763Y006707D02*
X006291Y006707D01*
X006243Y006766D02*
X006243Y006766D01*
X006352Y006608D02*
X006665Y006608D01*
X006566Y006510D02*
X006396Y006510D01*
X006424Y006411D02*
X006468Y006411D01*
X005047Y006739D02*
X005047Y006739D01*
X006101Y007889D02*
X006214Y007889D01*
X006957Y009269D02*
X005393Y009269D01*
X005393Y009367D02*
X006957Y009367D01*
X006957Y009466D02*
X005393Y009466D01*
X005393Y009564D02*
X006957Y009564D01*
X006957Y009663D02*
X005393Y009663D01*
X005393Y009762D02*
X006957Y009762D01*
X006957Y009860D02*
X005390Y009860D01*
X005349Y009959D02*
X006957Y009959D01*
X006886Y010057D02*
X005295Y010057D01*
X005196Y010156D02*
X006787Y010156D01*
X006407Y011338D02*
X002407Y011338D01*
X002407Y011240D02*
X004162Y011240D01*
X004064Y011141D02*
X002407Y011141D01*
X002407Y011043D02*
X003965Y011043D01*
X004750Y011431D02*
X004838Y011343D01*
X005200Y011343D01*
X005200Y011893D01*
X005300Y011893D01*
X005300Y011993D01*
X005750Y011993D01*
X005750Y012455D01*
X005662Y012543D01*
X005300Y012543D01*
X005300Y011993D01*
X005200Y011993D01*
X005200Y012543D01*
X004838Y012543D01*
X004750Y012455D01*
X004750Y011993D01*
X005200Y011993D01*
X005200Y011893D01*
X004750Y011893D01*
X004750Y011431D01*
X004750Y011437D02*
X002407Y011437D01*
X002407Y011535D02*
X004750Y011535D01*
X004750Y011634D02*
X002407Y011634D01*
X002407Y011732D02*
X004750Y011732D01*
X004750Y011831D02*
X002407Y011831D01*
X002407Y011930D02*
X005200Y011930D01*
X005200Y012028D02*
X005300Y012028D01*
X005300Y011930D02*
X006407Y011930D01*
X006407Y012028D02*
X005750Y012028D01*
X005750Y012127D02*
X006414Y012127D01*
X006414Y012225D02*
X005750Y012225D01*
X005750Y012324D02*
X006414Y012324D01*
X006414Y012422D02*
X005750Y012422D01*
X005684Y012521D02*
X006459Y012521D01*
X006407Y011831D02*
X005750Y011831D01*
X005750Y011893D02*
X005300Y011893D01*
X005300Y011343D01*
X005662Y011343D01*
X005750Y011431D01*
X005750Y011893D01*
X005750Y011732D02*
X006407Y011732D01*
X006407Y011634D02*
X005750Y011634D01*
X005750Y011535D02*
X006407Y011535D01*
X006407Y011437D02*
X005750Y011437D01*
X005300Y011437D02*
X005200Y011437D01*
X005200Y011535D02*
X005300Y011535D01*
X005300Y011634D02*
X005200Y011634D01*
X005200Y011732D02*
X005300Y011732D01*
X005300Y011831D02*
X005200Y011831D01*
X005200Y012127D02*
X005300Y012127D01*
X005300Y012225D02*
X005200Y012225D01*
X005200Y012324D02*
X005300Y012324D01*
X005300Y012422D02*
X005200Y012422D01*
X005200Y012521D02*
X005300Y012521D01*
X004815Y012521D02*
X002407Y012521D01*
X002407Y012619D02*
X015157Y012619D01*
X015157Y012521D02*
X007469Y012521D01*
X007514Y012422D02*
X015157Y012422D01*
X015157Y012324D02*
X007514Y012324D01*
X007514Y012225D02*
X015157Y012225D01*
X015157Y012127D02*
X007514Y012127D01*
X007514Y012028D02*
X012533Y012028D01*
X012469Y011930D02*
X007514Y011930D01*
X007514Y011437D02*
X011507Y011437D01*
X011507Y011535D02*
X011607Y011535D01*
X011607Y011437D02*
X012107Y011437D01*
X012107Y011535D02*
X012207Y011535D01*
X012207Y011634D02*
X012107Y011634D01*
X012107Y011732D02*
X012207Y011732D01*
X011884Y011732D02*
X011830Y011732D01*
X011607Y011732D02*
X011507Y011732D01*
X011507Y011634D02*
X011607Y011634D01*
X011680Y013014D02*
X011134Y013014D01*
X011275Y013112D02*
X011538Y013112D01*
X011450Y013211D02*
X011363Y013211D01*
X011404Y013309D02*
X011409Y013309D01*
X011393Y013703D02*
X011420Y013703D01*
X011466Y013802D02*
X011348Y013802D01*
X011249Y013900D02*
X011565Y013900D01*
X011743Y013999D02*
X011071Y013999D01*
X010743Y013999D02*
X009416Y013999D01*
X009318Y013900D02*
X010565Y013900D01*
X010466Y013802D02*
X009219Y013802D01*
X009121Y013703D02*
X010420Y013703D01*
X010379Y013605D02*
X002407Y013605D01*
X002407Y013506D02*
X010377Y013506D01*
X010377Y013408D02*
X002407Y013408D01*
X002407Y013309D02*
X010409Y013309D01*
X010450Y013211D02*
X002407Y013211D01*
X002407Y013112D02*
X010538Y013112D01*
X010680Y013014D02*
X002407Y013014D01*
X002407Y012915D02*
X015157Y012915D01*
X015157Y013014D02*
X015134Y013014D01*
X015157Y012816D02*
X002407Y012816D01*
X002407Y012718D02*
X015157Y012718D01*
X015657Y012718D02*
X016157Y012718D01*
X016157Y012816D02*
X015657Y012816D01*
X015657Y012915D02*
X016157Y012915D01*
X016157Y013014D02*
X016134Y013014D01*
X016157Y013023D02*
X016157Y009097D01*
X015657Y008597D01*
X015657Y013023D01*
X015801Y012963D01*
X016012Y012963D01*
X016157Y013023D01*
X016657Y013023D02*
X016801Y012963D01*
X017012Y012963D01*
X017207Y013044D01*
X017356Y013193D01*
X017407Y013315D01*
X017458Y013193D01*
X017607Y013044D01*
X017801Y012963D01*
X018012Y012963D01*
X018207Y013044D01*
X018356Y013193D01*
X018407Y013315D01*
X018458Y013193D01*
X018607Y013044D01*
X018801Y012963D01*
X019012Y012963D01*
X019207Y013044D01*
X019356Y013193D01*
X019407Y013315D01*
X019458Y013193D01*
X019607Y013044D01*
X019801Y012963D01*
X020012Y012963D01*
X020207Y013044D01*
X020356Y013193D01*
X020407Y013315D01*
X020458Y013193D01*
X020607Y013044D01*
X020801Y012963D01*
X021012Y012963D01*
X021207Y013044D01*
X021356Y013193D01*
X021437Y013388D01*
X021437Y013599D01*
X021356Y013793D01*
X021207Y013942D01*
X021012Y014023D01*
X020801Y014023D01*
X020607Y013942D01*
X020458Y013793D01*
X020407Y013671D01*
X020356Y013793D01*
X020207Y013942D01*
X020012Y014023D01*
X019801Y014023D01*
X019607Y013942D01*
X019458Y013793D01*
X019407Y013671D01*
X019356Y013793D01*
X019207Y013942D01*
X019012Y014023D01*
X018801Y014023D01*
X018607Y013942D01*
X018458Y013793D01*
X018407Y013671D01*
X018356Y013793D01*
X018207Y013942D01*
X018012Y014023D01*
X017801Y014023D01*
X017607Y013942D01*
X017458Y013793D01*
X017457Y013792D01*
X017457Y013809D01*
X017457Y014009D01*
X017416Y014049D01*
X018260Y014893D01*
X018407Y015040D01*
X018407Y016463D01*
X018413Y016447D01*
X018610Y016250D01*
X018868Y016143D01*
X019146Y016143D01*
X019403Y016250D01*
X019600Y016447D01*
X019707Y016704D01*
X019707Y016982D01*
X019600Y017240D01*
X019403Y017437D01*
X019146Y017543D01*
X018868Y017543D01*
X018610Y017437D01*
X018607Y017433D01*
X018607Y017443D01*
X018307Y017443D01*
X018307Y017543D01*
X018607Y017543D01*
X018607Y017755D01*
X018554Y017808D01*
X018657Y017910D01*
X018657Y018141D01*
X018720Y018204D01*
X018868Y018143D01*
X019146Y018143D01*
X019403Y018250D01*
X019600Y018447D01*
X019707Y018704D01*
X019707Y018982D01*
X019600Y019240D01*
X019403Y019437D01*
X019146Y019543D01*
X018868Y019543D01*
X018610Y019437D01*
X018457Y019283D01*
X018457Y020540D01*
X018660Y020743D01*
X018872Y020743D01*
X019107Y020977D01*
X019107Y021144D01*
X019156Y021193D01*
X019207Y021315D01*
X019258Y021193D01*
X019156Y021193D01*
X019258Y021193D02*
X019407Y021044D01*
X019601Y020963D01*
X019812Y020963D01*
X020007Y021044D01*
X020156Y021193D01*
X020237Y021388D01*
X020237Y021599D01*
X020156Y021793D01*
X020007Y021942D01*
X019885Y021993D01*
X020007Y022044D01*
X020156Y022193D01*
X020237Y022388D01*
X020237Y022599D01*
X020156Y022793D01*
X020007Y022942D01*
X019812Y023023D01*
X019601Y023023D01*
X019407Y022942D01*
X019258Y022793D01*
X019207Y022671D01*
X019156Y022793D01*
X019007Y022942D01*
X018812Y023023D01*
X018601Y023023D01*
X018407Y022942D01*
X018258Y022793D01*
X018207Y022671D01*
X018156Y022793D01*
X018007Y022942D01*
X017812Y023023D01*
X017601Y023023D01*
X017407Y022942D01*
X017258Y022793D01*
X017207Y022671D01*
X017156Y022793D01*
X017007Y022942D01*
X016812Y023023D01*
X016601Y023023D01*
X016407Y022942D01*
X016258Y022793D01*
X016180Y022606D01*
X016114Y022765D01*
X015979Y022900D01*
X015802Y022973D01*
X015757Y022973D01*
X015757Y022543D01*
X015657Y022543D01*
X015657Y022973D01*
X015611Y022973D01*
X015435Y022900D01*
X015300Y022765D01*
X015227Y022589D01*
X015227Y022543D01*
X015657Y022543D01*
X015657Y022443D01*
X015227Y022443D01*
X015227Y022398D01*
X015300Y022221D01*
X015435Y022086D01*
X015587Y022023D01*
X015294Y022023D01*
X015177Y021906D01*
X015177Y021080D01*
X015294Y020963D01*
X016120Y020963D01*
X016237Y021080D01*
X016237Y021243D01*
X016258Y021193D01*
X016237Y021193D01*
X016258Y021193D02*
X016307Y021144D01*
X016307Y020977D01*
X016422Y020862D01*
X015857Y020297D01*
X015857Y020093D01*
X015374Y020093D01*
X015257Y019976D01*
X015257Y019647D01*
X015057Y019447D01*
X015057Y019240D01*
X015057Y019147D01*
X014937Y019027D01*
X013605Y020359D01*
X013371Y020593D01*
X013057Y020593D01*
X013057Y020597D01*
X012707Y020947D01*
X012560Y021093D01*
X010010Y021093D01*
X009257Y021847D01*
X009110Y021993D01*
X005891Y021993D01*
X005953Y022015D01*
X005954Y022015D01*
X006018Y022045D01*
X006018Y022045D01*
X006080Y022081D01*
X006080Y022081D01*
X006139Y022122D01*
X006193Y022169D01*
X006243Y022220D01*
X006289Y022275D01*
X006289Y022275D01*
X006328Y022335D01*
X006363Y022397D01*
X006363Y022398D01*
X006391Y022463D01*
X006391Y022463D01*
X006414Y022531D01*
X006430Y022601D01*
X006440Y022672D01*
X006443Y022743D01*
X006440Y022815D01*
X006430Y022885D01*
X006430Y022886D01*
X006414Y022955D01*
X006414Y022955D01*
X006391Y023023D01*
X006391Y023023D01*
X006363Y023089D01*
X006328Y023152D01*
X006289Y023211D01*
X006243Y023266D01*
X006193Y023318D01*
X006139Y023364D01*
X006080Y023405D01*
X006018Y023441D01*
X005953Y023471D01*
X005891Y023493D01*
X012675Y023493D01*
X012644Y023484D01*
X012644Y023484D01*
X012577Y023457D01*
X012514Y023424D01*
X012514Y023424D01*
X012454Y023385D01*
X012397Y023341D01*
X012345Y023293D01*
X012345Y023293D01*
X012297Y023239D01*
X012255Y023182D01*
X012255Y023182D01*
X012217Y023121D01*
X012217Y023121D01*
X012186Y023056D01*
X012160Y022989D01*
X012141Y022921D01*
X012141Y022921D01*
X012128Y022850D01*
X012122Y022779D01*
X012122Y022707D01*
X012128Y022636D01*
X012141Y022566D01*
X012141Y022566D01*
X012160Y022497D01*
X012160Y022497D01*
X012186Y022430D01*
X012217Y022366D01*
X012255Y022305D01*
X012297Y022247D01*
X012345Y022194D01*
X012397Y022145D01*
X012454Y022101D01*
X012514Y022062D01*
X012577Y022030D01*
X012644Y022003D01*
X012712Y021982D01*
X012782Y021967D01*
X012853Y021959D01*
X012853Y021959D01*
X012925Y021957D01*
X012996Y021962D01*
X012996Y021962D01*
X013067Y021974D01*
X013136Y021991D01*
X013203Y022015D01*
X013204Y022015D01*
X013268Y022045D01*
X013268Y022045D01*
X013330Y022081D01*
X013330Y022081D01*
X013389Y022122D01*
X013443Y022169D01*
X013493Y022220D01*
X013539Y022275D01*
X013539Y022275D01*
X013578Y022335D01*
X013613Y022397D01*
X013613Y022398D01*
X013641Y022463D01*
X013641Y022463D01*
X013664Y022531D01*
X013680Y022601D01*
X013690Y022672D01*
X013693Y022743D01*
X013690Y022815D01*
X013680Y022885D01*
X013680Y022886D01*
X013664Y022955D01*
X013641Y023023D01*
X013613Y023089D01*
X013578Y023152D01*
X013539Y023211D01*
X013493Y023266D01*
X013443Y023318D01*
X013389Y023364D01*
X013330Y023405D01*
X013268Y023441D01*
X013203Y023471D01*
X013141Y023493D01*
X024407Y023493D01*
X024407Y019433D01*
X024403Y019437D01*
X024146Y019543D01*
X023868Y019543D01*
X023610Y019437D01*
X023413Y019240D01*
X023307Y018982D01*
X023307Y018704D01*
X023413Y018447D01*
X023610Y018250D01*
X023868Y018143D01*
X024146Y018143D01*
X024403Y018250D01*
X024407Y018253D01*
X024407Y017693D01*
X023703Y017693D01*
X023557Y017547D01*
X023157Y017147D01*
X023157Y016940D01*
X023157Y014697D01*
X020557Y012097D01*
X020557Y011890D01*
X020557Y006893D01*
X020458Y006793D01*
X020407Y006671D01*
X020356Y006793D01*
X020207Y006942D01*
X020012Y007023D01*
X019801Y007023D01*
X019607Y006942D01*
X019458Y006793D01*
X019407Y006671D01*
X019356Y006793D01*
X019207Y006942D01*
X019012Y007023D01*
X018801Y007023D01*
X018607Y006942D01*
X018458Y006793D01*
X018407Y006671D01*
X018356Y006793D01*
X018207Y006942D01*
X018012Y007023D01*
X017801Y007023D01*
X017607Y006942D01*
X017458Y006793D01*
X017407Y006671D01*
X017356Y006793D01*
X017207Y006942D01*
X017012Y007023D01*
X016801Y007023D01*
X016607Y006942D01*
X016458Y006793D01*
X016407Y006671D01*
X016356Y006793D01*
X016207Y006942D01*
X016012Y007023D01*
X015801Y007023D01*
X015607Y006942D01*
X015458Y006793D01*
X015407Y006671D01*
X015356Y006793D01*
X015207Y006942D01*
X015012Y007023D01*
X014801Y007023D01*
X014782Y007015D01*
X016510Y008743D01*
X016657Y008890D01*
X016657Y013023D01*
X016657Y013014D02*
X016680Y013014D01*
X016657Y012915D02*
X021375Y012915D01*
X021277Y012816D02*
X016657Y012816D01*
X016657Y012718D02*
X021178Y012718D01*
X021080Y012619D02*
X016657Y012619D01*
X016657Y012521D02*
X020981Y012521D01*
X020882Y012422D02*
X016657Y012422D01*
X016657Y012324D02*
X020784Y012324D01*
X020685Y012225D02*
X016657Y012225D01*
X016657Y012127D02*
X020587Y012127D01*
X020557Y012028D02*
X016657Y012028D01*
X016657Y011930D02*
X020557Y011930D01*
X020557Y011831D02*
X016657Y011831D01*
X016657Y011732D02*
X020557Y011732D01*
X020557Y011634D02*
X016657Y011634D01*
X016657Y011535D02*
X020557Y011535D01*
X020557Y011437D02*
X016657Y011437D01*
X016657Y011338D02*
X020557Y011338D01*
X020557Y011240D02*
X016657Y011240D01*
X016657Y011141D02*
X020557Y011141D01*
X020557Y011043D02*
X016657Y011043D01*
X016657Y010944D02*
X020557Y010944D01*
X020557Y010846D02*
X016657Y010846D01*
X016657Y010747D02*
X020557Y010747D01*
X020557Y010648D02*
X016657Y010648D01*
X016657Y010550D02*
X020557Y010550D01*
X020557Y010451D02*
X016657Y010451D01*
X016657Y010353D02*
X020557Y010353D01*
X020557Y010254D02*
X016657Y010254D01*
X016657Y010156D02*
X020557Y010156D01*
X020557Y010057D02*
X016657Y010057D01*
X016657Y009959D02*
X020557Y009959D01*
X020557Y009860D02*
X016657Y009860D01*
X016657Y009762D02*
X020557Y009762D01*
X020557Y009663D02*
X016657Y009663D01*
X016657Y009564D02*
X020557Y009564D01*
X020557Y009466D02*
X016657Y009466D01*
X016657Y009367D02*
X020557Y009367D01*
X020557Y009269D02*
X016657Y009269D01*
X016657Y009170D02*
X020557Y009170D01*
X020557Y009072D02*
X016657Y009072D01*
X016657Y008973D02*
X020557Y008973D01*
X020557Y008875D02*
X016642Y008875D01*
X016543Y008776D02*
X020557Y008776D01*
X020557Y008678D02*
X016445Y008678D01*
X016346Y008579D02*
X020557Y008579D01*
X020557Y008481D02*
X016248Y008481D01*
X016149Y008382D02*
X020557Y008382D01*
X020557Y008283D02*
X016051Y008283D01*
X015952Y008185D02*
X020557Y008185D01*
X020557Y008086D02*
X015854Y008086D01*
X015755Y007988D02*
X020557Y007988D01*
X020557Y007889D02*
X015656Y007889D01*
X015558Y007791D02*
X020557Y007791D01*
X020557Y007692D02*
X015459Y007692D01*
X015361Y007594D02*
X020557Y007594D01*
X020557Y007495D02*
X015262Y007495D01*
X015164Y007397D02*
X020557Y007397D01*
X020557Y007298D02*
X015065Y007298D01*
X014967Y007199D02*
X020557Y007199D01*
X020557Y007101D02*
X014868Y007101D01*
X015062Y007002D02*
X015751Y007002D01*
X015568Y006904D02*
X015246Y006904D01*
X015344Y006805D02*
X015469Y006805D01*
X015422Y006707D02*
X015392Y006707D01*
X015407Y006315D02*
X015458Y006193D01*
X015607Y006044D01*
X015801Y005963D01*
X016012Y005963D01*
X016207Y006044D01*
X016356Y006193D01*
X016407Y006315D01*
X016458Y006193D01*
X016607Y006044D01*
X016801Y005963D01*
X017012Y005963D01*
X017031Y005971D01*
X016953Y005893D01*
X013703Y005893D01*
X013557Y005747D01*
X013303Y005493D01*
X013091Y005493D01*
X012871Y005273D01*
X012801Y005273D01*
X012607Y005192D01*
X012458Y005043D01*
X012407Y004921D01*
X012356Y005043D01*
X012207Y005192D01*
X012012Y005273D01*
X011801Y005273D01*
X011607Y005192D01*
X011458Y005043D01*
X011407Y004921D01*
X011356Y005043D01*
X011207Y005192D01*
X011012Y005273D01*
X010801Y005273D01*
X010607Y005192D01*
X010458Y005043D01*
X010407Y004921D01*
X010356Y005043D01*
X010207Y005192D01*
X010012Y005273D01*
X010002Y005273D01*
X010692Y005963D01*
X011320Y005963D01*
X011437Y006080D01*
X011437Y006374D01*
X011500Y006221D01*
X011635Y006086D01*
X011811Y006013D01*
X011857Y006013D01*
X011857Y006443D01*
X011957Y006443D01*
X011957Y006013D01*
X012002Y006013D01*
X012179Y006086D01*
X012314Y006221D01*
X012380Y006381D01*
X012458Y006193D01*
X012607Y006044D01*
X012801Y005963D01*
X013012Y005963D01*
X013207Y006044D01*
X013356Y006193D01*
X013407Y006315D01*
X013458Y006193D01*
X013607Y006044D01*
X013801Y005963D01*
X014012Y005963D01*
X014207Y006044D01*
X014356Y006193D01*
X014407Y006315D01*
X014458Y006193D01*
X014607Y006044D01*
X014801Y005963D01*
X015012Y005963D01*
X015207Y006044D01*
X015356Y006193D01*
X015407Y006315D01*
X015406Y006313D02*
X015408Y006313D01*
X015365Y006214D02*
X015449Y006214D01*
X015535Y006115D02*
X015279Y006115D01*
X015142Y006017D02*
X015672Y006017D01*
X016142Y006017D02*
X016672Y006017D01*
X016535Y006115D02*
X016279Y006115D01*
X016365Y006214D02*
X016449Y006214D01*
X016406Y006313D02*
X016408Y006313D01*
X016392Y006707D02*
X016422Y006707D01*
X016469Y006805D02*
X016344Y006805D01*
X016246Y006904D02*
X016568Y006904D01*
X016751Y007002D02*
X016062Y007002D01*
X017062Y007002D02*
X017751Y007002D01*
X017568Y006904D02*
X017246Y006904D01*
X017344Y006805D02*
X017469Y006805D01*
X017422Y006707D02*
X017392Y006707D01*
X017557Y006143D02*
X017057Y005643D01*
X013807Y005643D01*
X013257Y005093D01*
X012925Y005327D02*
X010056Y005327D01*
X010120Y005229D02*
X010694Y005229D01*
X010544Y005130D02*
X010269Y005130D01*
X010361Y005031D02*
X010453Y005031D01*
X010412Y004933D02*
X010402Y004933D01*
X010155Y005426D02*
X013024Y005426D01*
X013334Y005524D02*
X010254Y005524D01*
X010352Y005623D02*
X013433Y005623D01*
X013531Y005721D02*
X010451Y005721D01*
X010549Y005820D02*
X013630Y005820D01*
X013672Y006017D02*
X013142Y006017D01*
X013279Y006115D02*
X013535Y006115D01*
X013449Y006214D02*
X013365Y006214D01*
X013406Y006313D02*
X013408Y006313D01*
X013257Y006843D02*
X013407Y006993D01*
X013907Y006993D01*
X014107Y007193D01*
X014307Y007193D01*
X015407Y008293D01*
X015407Y013693D01*
X015707Y013993D01*
X016407Y013993D01*
X017757Y015343D01*
X017757Y016443D01*
X016107Y018093D01*
X016107Y020193D01*
X016707Y020793D01*
X016707Y021143D01*
X017207Y020993D02*
X017207Y021993D01*
X017057Y022143D01*
X017166Y022769D02*
X017248Y022769D01*
X017332Y022868D02*
X017082Y022868D01*
X016949Y022966D02*
X017464Y022966D01*
X017949Y022966D02*
X018464Y022966D01*
X018332Y022868D02*
X018082Y022868D01*
X018166Y022769D02*
X018248Y022769D01*
X018057Y022143D02*
X018207Y021993D01*
X018207Y021093D01*
X017257Y020143D01*
X017257Y019843D01*
X016657Y019843D02*
X016657Y019893D01*
X017707Y020943D01*
X017707Y021143D01*
X017207Y020993D02*
X016307Y020093D01*
X016307Y018193D01*
X017957Y016543D01*
X017957Y015243D01*
X016407Y013693D01*
X016407Y008993D01*
X014257Y006843D01*
X014406Y006313D02*
X014408Y006313D01*
X014365Y006214D02*
X014449Y006214D01*
X014535Y006115D02*
X014279Y006115D01*
X014142Y006017D02*
X014672Y006017D01*
X014607Y005443D02*
X017157Y005443D01*
X017357Y005643D01*
X018057Y005643D01*
X018557Y006143D01*
X018422Y006707D02*
X018392Y006707D01*
X018344Y006805D02*
X018469Y006805D01*
X018568Y006904D02*
X018246Y006904D01*
X018062Y007002D02*
X018751Y007002D01*
X019062Y007002D02*
X019751Y007002D01*
X019568Y006904D02*
X019246Y006904D01*
X019344Y006805D02*
X019469Y006805D01*
X019422Y006707D02*
X019392Y006707D01*
X019557Y006143D02*
X018857Y005443D01*
X017457Y005443D01*
X017257Y005243D01*
X015407Y005243D01*
X015257Y005093D01*
X014607Y005443D02*
X014257Y005093D01*
X012694Y005229D02*
X012120Y005229D01*
X012269Y005130D02*
X012544Y005130D01*
X012453Y005031D02*
X012361Y005031D01*
X012402Y004933D02*
X012412Y004933D01*
X011694Y005229D02*
X011120Y005229D01*
X011269Y005130D02*
X011544Y005130D01*
X011453Y005031D02*
X011361Y005031D01*
X011402Y004933D02*
X011412Y004933D01*
X010648Y005918D02*
X016979Y005918D01*
X017557Y005243D02*
X019657Y005243D01*
X020557Y006143D01*
X020422Y006707D02*
X020392Y006707D01*
X020344Y006805D02*
X020469Y006805D01*
X020557Y006904D02*
X020246Y006904D01*
X020062Y007002D02*
X020557Y007002D01*
X017557Y005243D02*
X017207Y004893D01*
X014255Y007495D02*
X011307Y007495D01*
X011307Y007397D02*
X013957Y007397D01*
X013858Y007298D02*
X011307Y007298D01*
X011307Y007199D02*
X013048Y007199D01*
X012949Y007101D02*
X011307Y007101D01*
X011340Y007002D02*
X012751Y007002D01*
X012568Y006904D02*
X012170Y006904D01*
X012274Y006805D02*
X012469Y006805D01*
X012422Y006707D02*
X012338Y006707D01*
X012379Y006608D02*
X012381Y006608D01*
X012352Y006313D02*
X012408Y006313D01*
X012449Y006214D02*
X012307Y006214D01*
X012208Y006115D02*
X012535Y006115D01*
X012672Y006017D02*
X012011Y006017D01*
X011957Y006017D02*
X011857Y006017D01*
X011802Y006017D02*
X011373Y006017D01*
X011437Y006115D02*
X011606Y006115D01*
X011507Y006214D02*
X011437Y006214D01*
X011437Y006313D02*
X011462Y006313D01*
X011437Y006707D02*
X011476Y006707D01*
X011437Y006805D02*
X011540Y006805D01*
X011437Y006904D02*
X011644Y006904D01*
X011857Y006904D02*
X011957Y006904D01*
X011957Y006805D02*
X011857Y006805D01*
X011857Y006707D02*
X011957Y006707D01*
X011957Y006608D02*
X011857Y006608D01*
X011857Y006411D02*
X011957Y006411D01*
X011957Y006313D02*
X011857Y006313D01*
X011857Y006214D02*
X011957Y006214D01*
X011957Y006115D02*
X011857Y006115D01*
X011307Y007594D02*
X014354Y007594D01*
X014452Y007692D02*
X011307Y007692D01*
X011307Y007791D02*
X014551Y007791D01*
X014649Y007889D02*
X014115Y007889D01*
X014157Y007931D02*
X014069Y007843D01*
X013857Y007843D01*
X013857Y008143D01*
X014157Y008143D01*
X014157Y007931D01*
X014157Y007988D02*
X014748Y007988D01*
X014847Y008086D02*
X014157Y008086D01*
X014157Y008283D02*
X015044Y008283D01*
X014945Y008185D02*
X013857Y008185D01*
X013857Y008086D02*
X013757Y008086D01*
X013757Y007988D02*
X013857Y007988D01*
X013857Y007889D02*
X013757Y007889D01*
X013499Y007889D02*
X013486Y007889D01*
X012728Y007889D02*
X011307Y007889D01*
X011307Y007988D02*
X012707Y007988D01*
X012707Y008086D02*
X011307Y008086D01*
X011307Y008185D02*
X012707Y008185D01*
X012707Y008283D02*
X011307Y008283D01*
X011307Y008382D02*
X012707Y008382D01*
X012504Y008481D02*
X011307Y008481D01*
X011307Y008579D02*
X012405Y008579D01*
X012307Y008678D02*
X011307Y008678D01*
X011307Y008776D02*
X012208Y008776D01*
X012110Y008875D02*
X011307Y008875D01*
X011307Y008973D02*
X012011Y008973D01*
X013381Y009443D02*
X013582Y009242D01*
X013582Y009276D01*
X013532Y009326D01*
X013532Y009708D01*
X013567Y009743D01*
X013545Y009743D01*
X013492Y009796D01*
X013390Y009693D01*
X013381Y009693D01*
X013381Y009443D01*
X013381Y009466D02*
X013532Y009466D01*
X013532Y009564D02*
X013381Y009564D01*
X013381Y009663D02*
X013532Y009663D01*
X013526Y009762D02*
X013458Y009762D01*
X013457Y009367D02*
X013532Y009367D01*
X013555Y009269D02*
X013582Y009269D01*
X013677Y009147D02*
X013964Y009147D01*
X013964Y009139D01*
X013685Y009139D01*
X013677Y009147D01*
X014355Y009170D02*
X015157Y009170D01*
X015157Y009072D02*
X014355Y009072D01*
X014392Y008973D02*
X015157Y008973D01*
X015157Y008875D02*
X014405Y008875D01*
X014405Y008776D02*
X015157Y008776D01*
X015157Y008678D02*
X014405Y008678D01*
X014405Y008579D02*
X015157Y008579D01*
X015157Y008481D02*
X014307Y008481D01*
X014157Y008382D02*
X015142Y008382D01*
X015657Y008678D02*
X015738Y008678D01*
X015657Y008776D02*
X015836Y008776D01*
X015935Y008875D02*
X015657Y008875D01*
X015657Y008973D02*
X016033Y008973D01*
X016132Y009072D02*
X015657Y009072D01*
X015657Y009170D02*
X016157Y009170D01*
X016157Y009269D02*
X015657Y009269D01*
X015657Y009367D02*
X016157Y009367D01*
X016157Y009466D02*
X015657Y009466D01*
X015657Y009564D02*
X016157Y009564D01*
X016157Y009663D02*
X015657Y009663D01*
X015657Y009762D02*
X016157Y009762D01*
X016157Y009860D02*
X015657Y009860D01*
X015657Y009959D02*
X016157Y009959D01*
X016157Y010057D02*
X015657Y010057D01*
X015657Y010156D02*
X016157Y010156D01*
X016157Y010254D02*
X015657Y010254D01*
X015657Y010353D02*
X016157Y010353D01*
X016157Y010451D02*
X015657Y010451D01*
X015657Y010550D02*
X016157Y010550D01*
X016157Y010648D02*
X015657Y010648D01*
X015657Y010747D02*
X016157Y010747D01*
X016157Y010846D02*
X015657Y010846D01*
X015657Y010944D02*
X016157Y010944D01*
X016157Y011043D02*
X015657Y011043D01*
X015657Y011141D02*
X016157Y011141D01*
X016157Y011240D02*
X015657Y011240D01*
X015657Y011338D02*
X016157Y011338D01*
X016157Y011437D02*
X015657Y011437D01*
X015657Y011535D02*
X016157Y011535D01*
X016157Y011634D02*
X015657Y011634D01*
X015657Y011732D02*
X016157Y011732D01*
X016157Y011831D02*
X015657Y011831D01*
X015657Y011930D02*
X016157Y011930D01*
X016157Y012028D02*
X015657Y012028D01*
X015657Y012127D02*
X016157Y012127D01*
X016157Y012225D02*
X015657Y012225D01*
X015657Y012324D02*
X016157Y012324D01*
X016157Y012422D02*
X015657Y012422D01*
X015657Y012521D02*
X016157Y012521D01*
X016157Y012619D02*
X015657Y012619D01*
X015657Y013014D02*
X015680Y013014D01*
X014680Y013014D02*
X014134Y013014D01*
X014275Y013112D02*
X014538Y013112D01*
X014450Y013211D02*
X014363Y013211D01*
X014404Y013309D02*
X014409Y013309D01*
X013680Y013014D02*
X013134Y013014D01*
X013275Y013112D02*
X013538Y013112D01*
X013450Y013211D02*
X013363Y013211D01*
X013404Y013309D02*
X013409Y013309D01*
X012680Y013014D02*
X012134Y013014D01*
X012275Y013112D02*
X012538Y013112D01*
X012450Y013211D02*
X012363Y013211D01*
X012404Y013309D02*
X012409Y013309D01*
X012257Y013843D02*
X012407Y013993D01*
X015407Y013993D01*
X015607Y014193D01*
X016307Y014193D01*
X016957Y014843D01*
X016957Y015043D01*
X016613Y014886D02*
X012853Y014886D01*
X012952Y014984D02*
X016579Y014984D01*
X016579Y015083D02*
X013050Y015083D01*
X012754Y014787D02*
X016548Y014787D01*
X016449Y014689D02*
X012656Y014689D01*
X012044Y014196D02*
X009613Y014196D01*
X009515Y014097D02*
X011946Y014097D01*
X010007Y014590D02*
X016350Y014590D01*
X016252Y014492D02*
X009909Y014492D01*
X009810Y014393D02*
X015453Y014393D01*
X015355Y014295D02*
X009712Y014295D01*
X013436Y012028D02*
X013477Y012028D01*
X014381Y012028D02*
X015157Y012028D01*
X015157Y011930D02*
X014444Y011930D01*
X014444Y011831D02*
X015157Y011831D01*
X015157Y011732D02*
X014444Y011732D01*
X014444Y011634D02*
X015157Y011634D01*
X015157Y011535D02*
X014444Y011535D01*
X014444Y011437D02*
X015157Y011437D01*
X015157Y011338D02*
X014444Y011338D01*
X014444Y011240D02*
X015157Y011240D01*
X015157Y011141D02*
X014444Y011141D01*
X014444Y011043D02*
X015157Y011043D01*
X015157Y010944D02*
X014444Y010944D01*
X014520Y010846D02*
X015157Y010846D01*
X015157Y010747D02*
X014619Y010747D01*
X014717Y010648D02*
X015157Y010648D01*
X015157Y010550D02*
X014757Y010550D01*
X014757Y010451D02*
X015157Y010451D01*
X015157Y010353D02*
X014757Y010353D01*
X014757Y010254D02*
X015157Y010254D01*
X015157Y010156D02*
X014757Y010156D01*
X014757Y010057D02*
X015157Y010057D01*
X015157Y009959D02*
X014757Y009959D01*
X014757Y009860D02*
X015157Y009860D01*
X015157Y009762D02*
X014757Y009762D01*
X014757Y009663D02*
X015157Y009663D01*
X015157Y009564D02*
X014757Y009564D01*
X014745Y009466D02*
X015157Y009466D01*
X015157Y009367D02*
X014647Y009367D01*
X014548Y009269D02*
X015157Y009269D01*
X014355Y009217D02*
X014355Y009217D01*
X017134Y013014D02*
X017680Y013014D01*
X017538Y013112D02*
X017275Y013112D01*
X017363Y013211D02*
X017450Y013211D01*
X017409Y013309D02*
X017404Y013309D01*
X017457Y013802D02*
X017466Y013802D01*
X017457Y013900D02*
X017565Y013900D01*
X017457Y013999D02*
X017743Y013999D01*
X017563Y014196D02*
X022656Y014196D01*
X022558Y014097D02*
X017465Y014097D01*
X017662Y014295D02*
X022755Y014295D01*
X022853Y014393D02*
X017760Y014393D01*
X017859Y014492D02*
X022952Y014492D01*
X023050Y014590D02*
X017957Y014590D01*
X018056Y014689D02*
X023149Y014689D01*
X023157Y014787D02*
X018154Y014787D01*
X018253Y014886D02*
X023157Y014886D01*
X023157Y014984D02*
X018352Y014984D01*
X018407Y015083D02*
X023157Y015083D01*
X023157Y015181D02*
X018407Y015181D01*
X018407Y015280D02*
X023157Y015280D01*
X023157Y015379D02*
X018407Y015379D01*
X018407Y015477D02*
X023157Y015477D01*
X023157Y015576D02*
X018407Y015576D01*
X018407Y015674D02*
X023157Y015674D01*
X023157Y015773D02*
X018407Y015773D01*
X018407Y015871D02*
X023157Y015871D01*
X023157Y015970D02*
X018407Y015970D01*
X018407Y016068D02*
X023157Y016068D01*
X023157Y016167D02*
X019203Y016167D01*
X019419Y016265D02*
X023157Y016265D01*
X023157Y016364D02*
X019518Y016364D01*
X019607Y016463D02*
X023157Y016463D01*
X023157Y016561D02*
X019648Y016561D01*
X019688Y016660D02*
X023157Y016660D01*
X023157Y016758D02*
X019707Y016758D01*
X019707Y016857D02*
X023157Y016857D01*
X023157Y016955D02*
X019707Y016955D01*
X019677Y017054D02*
X023157Y017054D01*
X023163Y017152D02*
X019636Y017152D01*
X019589Y017251D02*
X023261Y017251D01*
X023360Y017349D02*
X019490Y017349D01*
X019376Y017448D02*
X023458Y017448D01*
X023557Y017546D02*
X018607Y017546D01*
X018607Y017645D02*
X023655Y017645D01*
X023643Y018236D02*
X019371Y018236D01*
X019488Y018335D02*
X023525Y018335D01*
X023427Y018433D02*
X019587Y018433D01*
X019636Y018532D02*
X023378Y018532D01*
X023337Y018630D02*
X019676Y018630D01*
X019707Y018729D02*
X023307Y018729D01*
X023307Y018828D02*
X019707Y018828D01*
X019707Y018926D02*
X023307Y018926D01*
X023324Y019025D02*
X019689Y019025D01*
X019649Y019123D02*
X023365Y019123D01*
X023406Y019222D02*
X019608Y019222D01*
X019520Y019320D02*
X023494Y019320D01*
X023593Y019419D02*
X019421Y019419D01*
X019208Y019517D02*
X023805Y019517D01*
X024208Y019517D02*
X024407Y019517D01*
X024407Y019616D02*
X018457Y019616D01*
X018457Y019714D02*
X024407Y019714D01*
X024407Y019813D02*
X018457Y019813D01*
X018457Y019912D02*
X024407Y019912D01*
X024407Y020010D02*
X018457Y020010D01*
X018457Y020109D02*
X024407Y020109D01*
X024407Y020207D02*
X018457Y020207D01*
X018457Y020306D02*
X024407Y020306D01*
X024407Y020404D02*
X018457Y020404D01*
X018457Y020503D02*
X024407Y020503D01*
X024407Y020601D02*
X018519Y020601D01*
X018617Y020700D02*
X024407Y020700D01*
X024407Y020798D02*
X018928Y020798D01*
X019026Y020897D02*
X024407Y020897D01*
X024407Y020996D02*
X019890Y020996D01*
X020057Y021094D02*
X024407Y021094D01*
X024407Y021193D02*
X020156Y021193D01*
X020197Y021291D02*
X024407Y021291D01*
X024407Y021390D02*
X020237Y021390D01*
X020237Y021488D02*
X024407Y021488D01*
X024407Y021587D02*
X020237Y021587D01*
X020201Y021685D02*
X024407Y021685D01*
X024407Y021784D02*
X020160Y021784D01*
X020067Y021882D02*
X024407Y021882D01*
X024407Y021981D02*
X019914Y021981D01*
X020043Y022079D02*
X024407Y022079D01*
X024407Y022178D02*
X020141Y022178D01*
X020191Y022277D02*
X024407Y022277D01*
X024407Y022375D02*
X020232Y022375D01*
X020237Y022474D02*
X024407Y022474D01*
X024407Y022572D02*
X020237Y022572D01*
X020207Y022671D02*
X024407Y022671D01*
X024407Y022769D02*
X020166Y022769D01*
X020082Y022868D02*
X024407Y022868D01*
X024407Y022966D02*
X019949Y022966D01*
X019464Y022966D02*
X018949Y022966D01*
X019082Y022868D02*
X019332Y022868D01*
X019248Y022769D02*
X019166Y022769D01*
X019197Y021291D02*
X019217Y021291D01*
X019107Y021094D02*
X019356Y021094D01*
X019523Y020996D02*
X019107Y020996D01*
X018707Y021143D02*
X018207Y020643D01*
X018207Y018893D01*
X017907Y018593D01*
X017907Y016893D01*
X018157Y016643D01*
X018157Y015143D01*
X017057Y014043D01*
X017057Y013843D01*
X018071Y013999D02*
X018743Y013999D01*
X018565Y013900D02*
X018249Y013900D01*
X018348Y013802D02*
X018466Y013802D01*
X018420Y013703D02*
X018393Y013703D01*
X018404Y013309D02*
X018409Y013309D01*
X018450Y013211D02*
X018363Y013211D01*
X018275Y013112D02*
X018538Y013112D01*
X018680Y013014D02*
X018134Y013014D01*
X019134Y013014D02*
X019680Y013014D01*
X019538Y013112D02*
X019275Y013112D01*
X019363Y013211D02*
X019450Y013211D01*
X019409Y013309D02*
X019404Y013309D01*
X019393Y013703D02*
X019420Y013703D01*
X019466Y013802D02*
X019348Y013802D01*
X019249Y013900D02*
X019565Y013900D01*
X019743Y013999D02*
X019071Y013999D01*
X020071Y013999D02*
X020743Y013999D01*
X020565Y013900D02*
X020249Y013900D01*
X020348Y013802D02*
X020466Y013802D01*
X020420Y013703D02*
X020393Y013703D01*
X020404Y013309D02*
X020409Y013309D01*
X020450Y013211D02*
X020363Y013211D01*
X020275Y013112D02*
X020538Y013112D01*
X020680Y013014D02*
X020134Y013014D01*
X021134Y013014D02*
X021474Y013014D01*
X021572Y013112D02*
X021275Y013112D01*
X021363Y013211D02*
X021671Y013211D01*
X021769Y013309D02*
X021404Y013309D01*
X021437Y013408D02*
X021868Y013408D01*
X021966Y013506D02*
X021437Y013506D01*
X021434Y013605D02*
X022065Y013605D01*
X022164Y013703D02*
X021393Y013703D01*
X021348Y013802D02*
X022262Y013802D01*
X022361Y013900D02*
X021249Y013900D01*
X021071Y013999D02*
X022459Y013999D01*
X018810Y016167D02*
X018407Y016167D01*
X018407Y016265D02*
X018595Y016265D01*
X018496Y016364D02*
X018407Y016364D01*
X018407Y016463D02*
X018407Y016463D01*
X018307Y016847D02*
X018157Y016997D01*
X018157Y017143D01*
X018207Y017143D01*
X018207Y017443D01*
X018307Y017443D01*
X018307Y017143D01*
X018373Y017143D01*
X018307Y016982D01*
X018307Y016847D01*
X018307Y016857D02*
X018297Y016857D01*
X018307Y016955D02*
X018198Y016955D01*
X018157Y017054D02*
X018336Y017054D01*
X018307Y017152D02*
X018207Y017152D01*
X018207Y017251D02*
X018307Y017251D01*
X018307Y017349D02*
X018207Y017349D01*
X018307Y017448D02*
X018638Y017448D01*
X018607Y017744D02*
X024407Y017744D01*
X024407Y017842D02*
X018589Y017842D01*
X018657Y017941D02*
X024407Y017941D01*
X024407Y018039D02*
X018657Y018039D01*
X018657Y018138D02*
X024407Y018138D01*
X024407Y018236D02*
X024371Y018236D01*
X024407Y023065D02*
X013623Y023065D01*
X013660Y022966D02*
X015595Y022966D01*
X015657Y022966D02*
X015757Y022966D01*
X015819Y022966D02*
X016464Y022966D01*
X016332Y022868D02*
X016011Y022868D01*
X016109Y022769D02*
X016248Y022769D01*
X016207Y022671D02*
X016153Y022671D01*
X015757Y022671D02*
X015657Y022671D01*
X015657Y022769D02*
X015757Y022769D01*
X015757Y022868D02*
X015657Y022868D01*
X015403Y022868D02*
X013682Y022868D01*
X013690Y022815D02*
X013690Y022815D01*
X013692Y022769D02*
X015304Y022769D01*
X015261Y022671D02*
X013689Y022671D01*
X013690Y022672D02*
X013690Y022672D01*
X013680Y022601D02*
X013680Y022601D01*
X013673Y022572D02*
X015227Y022572D01*
X015236Y022375D02*
X013601Y022375D01*
X013578Y022335D02*
X013578Y022335D01*
X013539Y022277D02*
X015277Y022277D01*
X015343Y022178D02*
X013452Y022178D01*
X013443Y022169D02*
X013443Y022169D01*
X013443Y022169D01*
X013389Y022122D02*
X013389Y022122D01*
X013328Y022079D02*
X015451Y022079D01*
X015252Y021981D02*
X013096Y021981D01*
X013067Y021974D02*
X013067Y021974D01*
X013136Y021991D02*
X013136Y021991D01*
X012925Y021957D02*
X012925Y021957D01*
X012782Y021967D02*
X012782Y021967D01*
X012715Y021981D02*
X009123Y021981D01*
X009221Y021882D02*
X015177Y021882D01*
X015177Y021784D02*
X009320Y021784D01*
X009418Y021685D02*
X015177Y021685D01*
X015177Y021587D02*
X009517Y021587D01*
X009615Y021488D02*
X015177Y021488D01*
X015177Y021390D02*
X009714Y021390D01*
X009812Y021291D02*
X015177Y021291D01*
X015177Y021193D02*
X009911Y021193D01*
X010009Y021094D02*
X015177Y021094D01*
X015262Y020996D02*
X012658Y020996D01*
X012707Y020947D02*
X012707Y020947D01*
X012756Y020897D02*
X016387Y020897D01*
X016359Y020798D02*
X012855Y020798D01*
X012954Y020700D02*
X016260Y020700D01*
X016162Y020601D02*
X013052Y020601D01*
X013461Y020503D02*
X016063Y020503D01*
X015964Y020404D02*
X013559Y020404D01*
X013658Y020306D02*
X015866Y020306D01*
X015857Y020207D02*
X013756Y020207D01*
X013855Y020109D02*
X015857Y020109D01*
X015657Y019693D02*
X015307Y019343D01*
X015307Y019043D01*
X014855Y018591D01*
X014807Y018591D01*
X014840Y019123D02*
X015033Y019123D01*
X015057Y019222D02*
X014742Y019222D01*
X014643Y019320D02*
X015057Y019320D01*
X015057Y019419D02*
X014545Y019419D01*
X014446Y019517D02*
X015128Y019517D01*
X015226Y019616D02*
X014348Y019616D01*
X014249Y019714D02*
X015257Y019714D01*
X015257Y019813D02*
X014151Y019813D01*
X014052Y019912D02*
X015257Y019912D01*
X015291Y020010D02*
X013954Y020010D01*
X013493Y022220D02*
X013493Y022220D01*
X013645Y022474D02*
X015657Y022474D01*
X015657Y022572D02*
X015757Y022572D01*
X016237Y021094D02*
X016307Y021094D01*
X016307Y020996D02*
X016152Y020996D01*
X018457Y019517D02*
X018805Y019517D01*
X018593Y019419D02*
X018457Y019419D01*
X018457Y019320D02*
X018494Y019320D01*
X017703Y018743D02*
X017657Y018697D01*
X017657Y018490D01*
X017657Y017197D01*
X016557Y018297D01*
X016557Y018375D01*
X016582Y018365D01*
X016732Y018365D01*
X016871Y018423D01*
X016977Y018529D01*
X017035Y018668D01*
X017035Y018743D01*
X017540Y018743D01*
X017557Y018760D01*
X017574Y018743D01*
X017703Y018743D01*
X017689Y018729D02*
X017035Y018729D01*
X017019Y018630D02*
X017657Y018630D01*
X017657Y018532D02*
X016979Y018532D01*
X016882Y018433D02*
X017657Y018433D01*
X017657Y018335D02*
X016557Y018335D01*
X016617Y018236D02*
X017657Y018236D01*
X017657Y018138D02*
X016716Y018138D01*
X016814Y018039D02*
X017657Y018039D01*
X017657Y017941D02*
X016913Y017941D01*
X017011Y017842D02*
X017657Y017842D01*
X017657Y017744D02*
X017110Y017744D01*
X017208Y017645D02*
X017657Y017645D01*
X017657Y017546D02*
X017307Y017546D01*
X017406Y017448D02*
X017657Y017448D01*
X017657Y017349D02*
X017504Y017349D01*
X017603Y017251D02*
X017657Y017251D01*
X017088Y016758D02*
X015225Y016758D01*
X015207Y016740D02*
X015282Y016815D01*
X015282Y016893D01*
X015481Y016893D01*
X015681Y017093D01*
X015940Y017093D01*
X016057Y017210D01*
X016057Y017776D01*
X015990Y017843D01*
X015996Y017850D01*
X016003Y017843D01*
X016003Y017843D01*
X017507Y016340D01*
X017507Y015997D01*
X017307Y016197D01*
X017307Y016526D01*
X017190Y016643D01*
X016624Y016643D01*
X016571Y016591D01*
X016569Y016593D01*
X016357Y016593D01*
X016357Y016293D01*
X016257Y016293D01*
X016257Y016593D01*
X016045Y016593D01*
X016022Y016570D01*
X015978Y016614D01*
X015688Y016614D01*
X015688Y016316D01*
X015591Y016316D01*
X015591Y016219D01*
X015214Y016219D01*
X015214Y016208D01*
X015207Y016215D01*
X015207Y016740D01*
X015207Y016660D02*
X017187Y016660D01*
X017272Y016561D02*
X017285Y016561D01*
X017307Y016463D02*
X017384Y016463D01*
X017307Y016364D02*
X017482Y016364D01*
X017507Y016265D02*
X017307Y016265D01*
X017337Y016167D02*
X017507Y016167D01*
X017507Y016068D02*
X017435Y016068D01*
X017407Y015743D02*
X016907Y016243D01*
X016357Y016364D02*
X016257Y016364D01*
X016257Y016293D02*
X015957Y016293D01*
X015957Y016316D01*
X015689Y016316D01*
X015689Y016219D01*
X016065Y016219D01*
X016065Y016193D01*
X016257Y016193D01*
X016257Y016293D01*
X016257Y016265D02*
X015689Y016265D01*
X015591Y016265D02*
X015207Y016265D01*
X015214Y016316D02*
X015591Y016316D01*
X015591Y016614D01*
X015302Y016614D01*
X015214Y016526D01*
X015214Y016316D01*
X015207Y016364D02*
X015214Y016364D01*
X015207Y016463D02*
X015214Y016463D01*
X015207Y016561D02*
X015249Y016561D01*
X015282Y016857D02*
X016990Y016857D01*
X016891Y016955D02*
X015543Y016955D01*
X015642Y017054D02*
X016793Y017054D01*
X016694Y017152D02*
X015999Y017152D01*
X016057Y017251D02*
X016596Y017251D01*
X016497Y017349D02*
X016057Y017349D01*
X016057Y017448D02*
X016399Y017448D01*
X016300Y017546D02*
X016057Y017546D01*
X016057Y017645D02*
X016201Y017645D01*
X016103Y017744D02*
X016057Y017744D01*
X016004Y017842D02*
X015991Y017842D01*
X016257Y016561D02*
X016357Y016561D01*
X016357Y016463D02*
X016257Y016463D01*
X015688Y016463D02*
X015591Y016463D01*
X015591Y016561D02*
X015688Y016561D01*
X015688Y016364D02*
X015591Y016364D01*
X015164Y015477D02*
X014923Y015477D01*
X014825Y015379D02*
X015164Y015379D01*
X015164Y015280D02*
X014726Y015280D01*
X014628Y015181D02*
X015222Y015181D01*
X017407Y015493D02*
X017407Y015743D01*
X010957Y022081D02*
X010869Y021993D01*
X010507Y021993D01*
X010507Y022443D01*
X010507Y022543D01*
X010957Y022543D01*
X010957Y022905D01*
X010869Y022993D01*
X010507Y022993D01*
X010507Y022543D01*
X010407Y022543D01*
X010407Y022993D01*
X010045Y022993D01*
X009957Y022905D01*
X009957Y022543D01*
X010407Y022543D01*
X010407Y022443D01*
X010507Y022443D01*
X010957Y022443D01*
X010957Y022081D01*
X010955Y022079D02*
X012487Y022079D01*
X012362Y022178D02*
X010957Y022178D01*
X010957Y022277D02*
X012275Y022277D01*
X012345Y022194D02*
X012345Y022194D01*
X012213Y022375D02*
X010957Y022375D01*
X010957Y022572D02*
X012140Y022572D01*
X012128Y022636D02*
X012128Y022636D01*
X012125Y022671D02*
X010957Y022671D01*
X010957Y022769D02*
X012122Y022769D01*
X012122Y022779D02*
X012122Y022779D01*
X012128Y022850D02*
X012128Y022850D01*
X012131Y022868D02*
X010957Y022868D01*
X010896Y022966D02*
X012154Y022966D01*
X012160Y022989D02*
X012160Y022989D01*
X012186Y023056D02*
X012186Y023056D01*
X012190Y023065D02*
X006373Y023065D01*
X006410Y022966D02*
X010018Y022966D01*
X009957Y022868D02*
X006432Y022868D01*
X006440Y022815D02*
X006440Y022815D01*
X006442Y022769D02*
X009957Y022769D01*
X009957Y022671D02*
X006439Y022671D01*
X006440Y022672D02*
X006440Y022672D01*
X006430Y022601D02*
X006430Y022601D01*
X006423Y022572D02*
X009957Y022572D01*
X009957Y022443D02*
X009957Y022081D01*
X010045Y021993D01*
X010407Y021993D01*
X010407Y022443D01*
X009957Y022443D01*
X009957Y022375D02*
X006351Y022375D01*
X006328Y022335D02*
X006328Y022335D01*
X006289Y022277D02*
X009957Y022277D01*
X009957Y022178D02*
X006202Y022178D01*
X006193Y022169D02*
X006193Y022169D01*
X006193Y022169D01*
X006139Y022122D02*
X006139Y022122D01*
X006078Y022079D02*
X009958Y022079D01*
X010407Y022079D02*
X010507Y022079D01*
X010507Y022178D02*
X010407Y022178D01*
X010407Y022277D02*
X010507Y022277D01*
X010507Y022375D02*
X010407Y022375D01*
X010407Y022474D02*
X006395Y022474D01*
X006414Y022531D02*
X006414Y022531D01*
X006243Y022220D02*
X006243Y022220D01*
X006320Y023163D02*
X012243Y023163D01*
X012297Y023239D02*
X012297Y023239D01*
X012318Y023262D02*
X006247Y023262D01*
X006243Y023266D02*
X006243Y023266D01*
X006143Y023361D02*
X012422Y023361D01*
X012397Y023341D02*
X012397Y023341D01*
X012454Y023385D02*
X012454Y023385D01*
X012577Y023457D02*
X012577Y023457D01*
X012583Y023459D02*
X005979Y023459D01*
X010407Y022966D02*
X010507Y022966D01*
X010507Y022868D02*
X010407Y022868D01*
X010407Y022769D02*
X010507Y022769D01*
X010507Y022671D02*
X010407Y022671D01*
X010407Y022572D02*
X010507Y022572D01*
X010507Y022474D02*
X012169Y022474D01*
X012122Y022707D02*
X012122Y022707D01*
X013229Y023459D02*
X024407Y023459D01*
X024407Y023361D02*
X013393Y023361D01*
X013493Y023266D02*
X013493Y023266D01*
X013497Y023262D02*
X024407Y023262D01*
X024407Y023163D02*
X013570Y023163D01*
X013664Y022531D02*
X013664Y022531D01*
X004750Y012422D02*
X002407Y012422D01*
X002407Y012324D02*
X004750Y012324D01*
X004750Y012225D02*
X002407Y012225D01*
X002407Y012127D02*
X004750Y012127D01*
X004750Y012028D02*
X002407Y012028D01*
X002407Y010944D02*
X003091Y010944D01*
X003007Y010846D02*
X002407Y010846D01*
X002407Y010747D02*
X003007Y010747D01*
X003007Y010648D02*
X002407Y010648D01*
X002407Y010550D02*
X003007Y010550D01*
X003007Y010451D02*
X002407Y010451D01*
X002407Y010353D02*
X003007Y010353D01*
X003007Y010254D02*
X002407Y010254D01*
X002407Y010156D02*
X003007Y010156D01*
X003007Y010057D02*
X002407Y010057D01*
X002407Y009959D02*
X003007Y009959D01*
X003007Y009860D02*
X002407Y009860D01*
X002407Y009762D02*
X003007Y009762D01*
X003007Y009663D02*
X002407Y009663D01*
X002407Y009564D02*
X003007Y009564D01*
X003035Y009466D02*
X002407Y009466D01*
X008972Y009072D02*
X009042Y009072D01*
X009042Y008973D02*
X008972Y008973D01*
X008972Y008875D02*
X009042Y008875D01*
X009042Y008776D02*
X008972Y008776D01*
X008972Y008579D02*
X009042Y008579D01*
X009042Y008481D02*
X008972Y008481D01*
X008972Y008382D02*
X009042Y008382D01*
X009042Y008283D02*
X008972Y008283D01*
D28*
X007607Y008393D02*
X007607Y006843D01*
X005907Y005143D01*
X005907Y004743D01*
X007607Y008393D02*
X007457Y008543D01*
X007457Y009163D01*
X007457Y009693D01*
X007457Y010193D01*
X006907Y010743D01*
X004373Y010743D01*
X003807Y010177D01*
X004507Y011943D02*
X005250Y011943D01*
X006907Y011886D02*
X006907Y010743D01*
X006907Y011886D02*
X006964Y011943D01*
X007457Y009693D02*
X009007Y009693D01*
X011457Y021493D02*
X013657Y021493D01*
X014657Y022493D01*
X015707Y022493D01*
X011457Y021493D02*
X010457Y022493D01*
D29*
X012157Y020193D02*
X013205Y020193D01*
X014807Y018591D01*
X014807Y018143D01*
X014807Y017095D02*
X014807Y015893D01*
X014774Y015893D01*
X014374Y015493D01*
X012157Y015493D01*
X012257Y013843D02*
X011907Y013493D01*
X012157Y011843D02*
X012157Y011393D01*
X011557Y011393D01*
X011557Y011843D01*
X011557Y010693D02*
X011107Y010693D01*
X010907Y010493D01*
X010907Y006493D01*
X010657Y006493D01*
X008907Y004743D01*
X011907Y006493D02*
X012957Y007543D01*
X013457Y007543D01*
X013807Y007893D01*
X013807Y008193D01*
X014257Y008193D01*
X014557Y008493D01*
X014557Y009043D01*
X014357Y009643D02*
X014357Y010443D01*
X013929Y010871D01*
X013929Y011193D01*
X012984Y011193D02*
X012984Y010693D01*
X012157Y010693D01*
X012157Y010093D01*
X011557Y010093D01*
X011557Y010693D01*
X012157Y010693D01*
X012707Y010093D02*
X012945Y010093D01*
X012945Y009517D01*
X012945Y010093D02*
X013107Y010093D01*
X012157Y009393D02*
X012757Y008793D01*
X012921Y008793D01*
X012945Y008769D01*
X013107Y008607D01*
X013107Y008193D01*
X013257Y006843D02*
X012907Y006493D01*
X013907Y006493D02*
X014257Y006843D01*
X014257Y005093D02*
X013907Y004743D01*
X013257Y005093D02*
X012907Y004743D01*
X014907Y004743D02*
X015257Y005093D01*
X016907Y004743D02*
X017057Y004893D01*
X017207Y004893D01*
X017557Y006143D02*
X017907Y006493D01*
X018557Y006143D02*
X018907Y006493D01*
X019557Y006143D02*
X019907Y006493D01*
X020557Y006143D02*
X020907Y006493D01*
X022207Y006137D02*
X022207Y005743D01*
X023157Y005743D01*
X024107Y005743D01*
X024107Y006137D01*
X023829Y006415D01*
X023550Y006693D01*
X023157Y006693D01*
X023157Y005743D01*
X023157Y004793D01*
X023550Y004793D01*
X023829Y005071D01*
X024107Y005350D01*
X024107Y005743D01*
X023157Y004793D02*
X022763Y004793D01*
X022485Y005071D01*
X022207Y005350D01*
X022207Y005743D01*
X022207Y006137D02*
X022485Y006415D01*
X022763Y006693D01*
X023157Y006693D01*
X016907Y013493D02*
X017057Y013643D01*
X017057Y013843D01*
X015640Y015519D02*
X015664Y015543D01*
X016307Y015543D01*
X016907Y015543D01*
X016307Y016243D02*
X015664Y016243D01*
X015640Y016267D01*
X016707Y021143D02*
X016707Y021493D01*
X017057Y022143D02*
X016707Y022493D01*
X017707Y022493D02*
X018057Y022143D01*
X017707Y021493D02*
X017707Y021143D01*
X018707Y021143D02*
X018707Y021493D01*
X012157Y009393D02*
X011557Y009393D01*
X004050Y021293D02*
X003657Y021293D01*
X003657Y022243D01*
X004607Y022243D01*
X004607Y022637D01*
X004329Y022915D01*
X004050Y023193D01*
X003657Y023193D01*
X003657Y022243D01*
X002707Y022243D01*
X002707Y022637D01*
X002985Y022915D01*
X003263Y023193D01*
X003657Y023193D01*
X004607Y022243D02*
X004607Y021850D01*
X004329Y021571D01*
X004050Y021293D01*
X003657Y021293D02*
X003263Y021293D01*
X002985Y021571D01*
X002707Y021850D01*
X002707Y022243D01*
D30*
X014807Y017095D02*
X014905Y017193D01*
X015357Y017193D01*
X015657Y017493D01*
X015657Y018193D02*
X015657Y018993D01*
X016657Y019143D02*
X016657Y018743D01*
X016657Y019143D02*
X017257Y019143D01*
X017857Y019143D01*
X017857Y019843D02*
X017857Y020243D01*
X013807Y010093D02*
X013807Y010043D01*
X013457Y009693D01*
X013457Y009643D01*
X013457Y009393D01*
X013707Y009143D01*
X013969Y009143D01*
X014457Y009143D01*
X014557Y009043D01*
X014231Y009517D02*
X013969Y009517D01*
X014231Y009517D02*
X014357Y009643D01*
X013969Y008769D02*
X013631Y008769D01*
X013057Y009343D01*
X013057Y009405D01*
X012945Y009517D01*
D31*
X013457Y009643D03*
X012707Y010093D03*
X011107Y010693D03*
X011557Y011843D03*
X012157Y011843D03*
X014907Y009893D03*
X014557Y009043D03*
X014257Y008193D03*
X015907Y009893D03*
X016907Y009893D03*
X017907Y009893D03*
X018907Y009893D03*
X019907Y009893D03*
X023157Y006693D03*
X022485Y006415D03*
X022207Y005743D03*
X022485Y005071D03*
X023157Y004793D03*
X023829Y005071D03*
X024107Y005743D03*
X023829Y006415D03*
X022007Y013893D03*
X022007Y015893D03*
X022007Y017893D03*
X022007Y019893D03*
X023157Y021293D03*
X022485Y021571D03*
X022207Y022243D03*
X022485Y022915D03*
X023157Y023193D03*
X023829Y022915D03*
X024107Y022243D03*
X023829Y021571D03*
X017857Y020243D03*
X016207Y020893D03*
X016657Y018743D03*
X017557Y017443D03*
X016907Y016743D03*
X017407Y015493D03*
X016957Y015043D03*
X016407Y014893D03*
X015407Y014543D03*
X018157Y014393D03*
X018907Y014393D03*
X014807Y018143D03*
X004607Y022243D03*
X004329Y021571D03*
X003657Y021293D03*
X002985Y021571D03*
X002707Y022243D03*
X002985Y022915D03*
X003657Y023193D03*
X004329Y022915D03*
X003657Y006693D03*
X002985Y006415D03*
X002707Y005743D03*
X002985Y005071D03*
X003657Y004793D03*
X004329Y005071D03*
X004607Y005743D03*
X004329Y006415D03*
X006407Y006643D03*
D32*
X003657Y005743D03*
X003657Y022243D03*
X023157Y022243D03*
X023157Y005743D03*
D33*
X018257Y018193D02*
X018907Y018843D01*
X019007Y018843D01*
D34*
X012957Y017843D02*
X009057Y017843D01*
X003807Y017843D01*
X003807Y015875D02*
X006975Y015875D01*
X007357Y015493D01*
X006975Y019812D02*
X003807Y019812D01*
X006975Y019812D02*
X007357Y020193D01*
M02*
