G75*
G70*
%OFA0B0*%
%FSLAX24Y24*%
%IPPOS*%
%LPD*%
%AMOC8*
5,1,8,0,0,1.08239X$1,22.5*
%
%ADD10C,0.0434*%
%ADD11C,0.0500*%
%ADD12C,0.1290*%
%ADD13C,0.1040*%
%ADD14R,0.0591X0.0434*%
%ADD15R,0.1240X0.1240*%
%ADD16C,0.1240*%
%ADD17R,0.0440X0.0440*%
%ADD18R,0.0700X0.0700*%
%ADD19C,0.0700*%
%ADD20C,0.0631*%
%ADD21R,0.0740X0.0740*%
%ADD22R,0.0640X0.0640*%
%ADD23C,0.0640*%
%ADD24R,0.0740X0.0940*%
%ADD25R,0.0512X0.0257*%
%ADD26R,0.0670X0.1418*%
%ADD27C,0.2520*%
D10*
X005657Y006243D03*
X005657Y022743D03*
X012907Y022743D03*
D11*
X012572Y022743D02*
X012574Y022780D01*
X012580Y022816D01*
X012590Y022852D01*
X012604Y022886D01*
X012622Y022918D01*
X012643Y022949D01*
X012667Y022977D01*
X012694Y023002D01*
X012724Y023023D01*
X012756Y023042D01*
X012790Y023057D01*
X012825Y023068D01*
X012861Y023075D01*
X012898Y023078D01*
X012935Y023077D01*
X012971Y023072D01*
X013007Y023063D01*
X013042Y023050D01*
X013074Y023033D01*
X013105Y023013D01*
X013134Y022989D01*
X013160Y022963D01*
X013182Y022934D01*
X013202Y022902D01*
X013217Y022869D01*
X013229Y022834D01*
X013237Y022798D01*
X013241Y022761D01*
X013241Y022725D01*
X013237Y022688D01*
X013229Y022652D01*
X013217Y022617D01*
X013202Y022584D01*
X013182Y022552D01*
X013160Y022523D01*
X013134Y022497D01*
X013105Y022473D01*
X013075Y022453D01*
X013042Y022436D01*
X013007Y022423D01*
X012971Y022414D01*
X012935Y022409D01*
X012898Y022408D01*
X012861Y022411D01*
X012825Y022418D01*
X012790Y022429D01*
X012756Y022444D01*
X012724Y022463D01*
X012694Y022484D01*
X012667Y022509D01*
X012643Y022537D01*
X012622Y022568D01*
X012604Y022600D01*
X012590Y022634D01*
X012580Y022670D01*
X012574Y022706D01*
X012572Y022743D01*
X005322Y022743D02*
X005324Y022780D01*
X005330Y022816D01*
X005340Y022852D01*
X005354Y022886D01*
X005372Y022918D01*
X005393Y022949D01*
X005417Y022977D01*
X005444Y023002D01*
X005474Y023023D01*
X005506Y023042D01*
X005540Y023057D01*
X005575Y023068D01*
X005611Y023075D01*
X005648Y023078D01*
X005685Y023077D01*
X005721Y023072D01*
X005757Y023063D01*
X005792Y023050D01*
X005824Y023033D01*
X005855Y023013D01*
X005884Y022989D01*
X005910Y022963D01*
X005932Y022934D01*
X005952Y022902D01*
X005967Y022869D01*
X005979Y022834D01*
X005987Y022798D01*
X005991Y022761D01*
X005991Y022725D01*
X005987Y022688D01*
X005979Y022652D01*
X005967Y022617D01*
X005952Y022584D01*
X005932Y022552D01*
X005910Y022523D01*
X005884Y022497D01*
X005855Y022473D01*
X005825Y022453D01*
X005792Y022436D01*
X005757Y022423D01*
X005721Y022414D01*
X005685Y022409D01*
X005648Y022408D01*
X005611Y022411D01*
X005575Y022418D01*
X005540Y022429D01*
X005506Y022444D01*
X005474Y022463D01*
X005444Y022484D01*
X005417Y022509D01*
X005393Y022537D01*
X005372Y022568D01*
X005354Y022600D01*
X005340Y022634D01*
X005330Y022670D01*
X005324Y022706D01*
X005322Y022743D01*
X005322Y006243D02*
X005324Y006280D01*
X005330Y006316D01*
X005340Y006352D01*
X005354Y006386D01*
X005372Y006418D01*
X005393Y006449D01*
X005417Y006477D01*
X005444Y006502D01*
X005474Y006523D01*
X005506Y006542D01*
X005540Y006557D01*
X005575Y006568D01*
X005611Y006575D01*
X005648Y006578D01*
X005685Y006577D01*
X005721Y006572D01*
X005757Y006563D01*
X005792Y006550D01*
X005824Y006533D01*
X005855Y006513D01*
X005884Y006489D01*
X005910Y006463D01*
X005932Y006434D01*
X005952Y006402D01*
X005967Y006369D01*
X005979Y006334D01*
X005987Y006298D01*
X005991Y006261D01*
X005991Y006225D01*
X005987Y006188D01*
X005979Y006152D01*
X005967Y006117D01*
X005952Y006084D01*
X005932Y006052D01*
X005910Y006023D01*
X005884Y005997D01*
X005855Y005973D01*
X005825Y005953D01*
X005792Y005936D01*
X005757Y005923D01*
X005721Y005914D01*
X005685Y005909D01*
X005648Y005908D01*
X005611Y005911D01*
X005575Y005918D01*
X005540Y005929D01*
X005506Y005944D01*
X005474Y005963D01*
X005444Y005984D01*
X005417Y006009D01*
X005393Y006037D01*
X005372Y006068D01*
X005354Y006100D01*
X005340Y006134D01*
X005330Y006170D01*
X005324Y006206D01*
X005322Y006243D01*
D12*
X012957Y017843D03*
D13*
X012157Y015493D03*
X007357Y015493D03*
X007357Y020193D03*
X012157Y020193D03*
X019007Y018843D03*
X019007Y016843D03*
X024007Y016843D03*
X024007Y018843D03*
D14*
X015640Y016267D03*
X015640Y015519D03*
X014774Y015893D03*
X014807Y017095D03*
X014807Y018591D03*
D15*
X003807Y019812D03*
X003807Y010177D03*
D16*
X003807Y008209D03*
X003807Y015875D03*
X003807Y017843D03*
D17*
X011557Y011393D03*
X012157Y011393D03*
X012157Y010693D03*
X011557Y010693D03*
X011557Y010093D03*
X012157Y010093D03*
X012157Y009393D03*
X011557Y009393D03*
X013107Y010093D03*
X013807Y010093D03*
X013807Y008193D03*
X013107Y008193D03*
X016307Y015543D03*
X016907Y015543D03*
X016907Y016243D03*
X016307Y016243D03*
X015657Y017493D03*
X015657Y018193D03*
X015657Y018993D03*
X015657Y019693D03*
X016657Y019843D03*
X017257Y019843D03*
X017857Y019843D03*
X017857Y019143D03*
X017257Y019143D03*
X016657Y019143D03*
X018257Y018193D03*
X018257Y017493D03*
D18*
X005907Y004743D03*
X010907Y006493D03*
X015707Y021493D03*
D19*
X016707Y021493D03*
X017707Y021493D03*
X018707Y021493D03*
X019707Y021493D03*
X019707Y022493D03*
X018707Y022493D03*
X017707Y022493D03*
X016707Y022493D03*
X015707Y022493D03*
X015907Y013493D03*
X016907Y013493D03*
X017907Y013493D03*
X018907Y013493D03*
X019907Y013493D03*
X020907Y013493D03*
X014907Y013493D03*
X013907Y013493D03*
X012907Y013493D03*
X011907Y013493D03*
X010907Y013493D03*
X011907Y006493D03*
X012907Y006493D03*
X013907Y006493D03*
X014907Y006493D03*
X015907Y006493D03*
X016907Y006493D03*
X017907Y006493D03*
X018907Y006493D03*
X019907Y006493D03*
X020907Y006493D03*
X020907Y004743D03*
X019907Y004743D03*
X018907Y004743D03*
X017907Y004743D03*
X016907Y004743D03*
X015907Y004743D03*
X014907Y004743D03*
X013907Y004743D03*
X012907Y004743D03*
X011907Y004743D03*
X010907Y004743D03*
X009907Y004743D03*
X008907Y004743D03*
X007907Y004743D03*
X006907Y004743D03*
D20*
X006748Y007411D03*
X006551Y007411D03*
X006354Y007411D03*
X006158Y007411D03*
X005961Y007411D03*
X005764Y007411D03*
X005567Y007411D03*
X004898Y008573D03*
X004898Y008770D03*
X004898Y008966D03*
X004898Y009163D03*
X004898Y009360D03*
X004898Y009557D03*
X004898Y009754D03*
X004507Y011943D03*
X007457Y009754D03*
X007457Y009557D03*
X007457Y009360D03*
X007457Y009163D03*
X007457Y008966D03*
X007457Y008770D03*
X007457Y008573D03*
D21*
X010457Y022493D03*
D22*
X009007Y008693D03*
D23*
X009007Y009693D03*
D24*
X006964Y011943D03*
X005250Y011943D03*
D25*
X012945Y009517D03*
X012945Y008769D03*
X013969Y008769D03*
X013969Y009143D03*
X013969Y009517D03*
D26*
X013929Y011193D03*
X012984Y011193D03*
D27*
X003657Y005743D03*
X003657Y022243D03*
X023157Y022243D03*
X023157Y005743D03*
M02*
