G75*
G70*
%OFA0B0*%
%FSLAX24Y24*%
%IPPOS*%
%LPD*%
%AMOC8*
5,1,8,0,0,1.08239X$1,22.5*
%
%ADD10C,0.0100*%
%ADD11C,0.0394*%
%ADD12R,0.1450X0.0650*%
%ADD13R,0.0230X0.0240*%
%ADD14R,0.0091X0.0315*%
%ADD15R,0.0315X0.0091*%
%ADD16R,0.1417X0.1417*%
%ADD17R,0.0709X0.0709*%
%ADD18R,0.0238X0.0238*%
%ADD19R,0.0750X0.0250*%
%ADD20C,0.0250*%
%ADD21C,0.0277*%
%ADD22R,0.0240X0.0230*%
%ADD23R,0.0400X0.0400*%
%ADD24R,0.1000X0.0300*%
%ADD25R,0.0472X0.0551*%
%ADD26R,0.0315X0.0315*%
%ADD27C,0.0560*%
%ADD28R,0.0610X0.0591*%
%ADD29C,0.0240*%
%ADD30C,0.0300*%
%ADD31C,0.0356*%
%ADD32C,0.0200*%
%ADD33C,0.0238*%
%ADD34C,0.0120*%
%ADD35C,0.0400*%
%ADD36C,0.0050*%
%ADD37C,0.0160*%
D10*
X006785Y004079D02*
X006986Y004079D01*
X007052Y004145D01*
X007052Y004412D01*
X006986Y004479D01*
X006785Y004479D01*
X006785Y004079D01*
X007246Y004079D02*
X007246Y004346D01*
X007379Y004479D01*
X007513Y004346D01*
X007513Y004079D01*
X007513Y004279D02*
X007246Y004279D01*
X008166Y004346D02*
X008166Y004079D01*
X008300Y004079D02*
X008300Y004279D01*
X008367Y004346D01*
X008433Y004279D01*
X008433Y004079D01*
X008627Y004145D02*
X008693Y004212D01*
X008894Y004212D01*
X008894Y004279D02*
X008894Y004079D01*
X008693Y004079D01*
X008627Y004145D01*
X008693Y004346D02*
X008827Y004346D01*
X008894Y004279D01*
X009087Y004279D02*
X009154Y004346D01*
X009287Y004346D01*
X009354Y004279D01*
X009354Y004079D01*
X009547Y004079D02*
X009547Y004346D01*
X009748Y004346D01*
X009814Y004279D01*
X009814Y004079D01*
X010008Y004145D02*
X010008Y004279D01*
X010075Y004346D01*
X010208Y004346D01*
X010275Y004279D01*
X010275Y004212D01*
X010008Y004212D01*
X010008Y004145D02*
X010075Y004079D01*
X010208Y004079D01*
X010929Y004079D02*
X010929Y004479D01*
X011129Y004346D02*
X010929Y004212D01*
X011129Y004079D01*
X011312Y004079D02*
X011312Y004346D01*
X011446Y004346D02*
X011512Y004346D01*
X011446Y004346D02*
X011312Y004212D01*
X011696Y004145D02*
X011696Y004346D01*
X011696Y004145D02*
X011762Y004079D01*
X011963Y004079D01*
X011963Y004012D02*
X011896Y003945D01*
X011829Y003945D01*
X011963Y004012D02*
X011963Y004346D01*
X012156Y004279D02*
X012156Y004145D01*
X012223Y004079D01*
X012423Y004079D01*
X012423Y004012D02*
X012423Y004346D01*
X012223Y004346D01*
X012156Y004279D01*
X012423Y004012D02*
X012356Y003945D01*
X012290Y003945D01*
X012616Y004145D02*
X012683Y004079D01*
X012883Y004079D01*
X013077Y004079D02*
X013077Y004479D01*
X013144Y004346D02*
X013277Y004346D01*
X013344Y004279D01*
X013344Y004079D01*
X013537Y004145D02*
X013537Y004279D01*
X013604Y004346D01*
X013737Y004346D01*
X013804Y004279D01*
X013804Y004212D01*
X013537Y004212D01*
X013537Y004145D02*
X013604Y004079D01*
X013737Y004079D01*
X014064Y004145D02*
X014064Y004412D01*
X013998Y004346D02*
X014131Y004346D01*
X014304Y004279D02*
X014304Y004145D01*
X014371Y004079D01*
X014505Y004079D01*
X014571Y004145D01*
X014571Y004279D01*
X014505Y004346D01*
X014371Y004346D01*
X014304Y004279D01*
X014131Y004079D02*
X014064Y004145D01*
X013144Y004346D02*
X013077Y004279D01*
X012883Y004346D02*
X012683Y004346D01*
X012616Y004279D01*
X012616Y004145D01*
X012523Y004979D02*
X012523Y005179D01*
X012456Y005246D01*
X012256Y005246D01*
X012256Y004979D01*
X012083Y004979D02*
X011949Y004979D01*
X012016Y004979D02*
X012016Y005246D01*
X011949Y005246D01*
X012016Y005379D02*
X012016Y005446D01*
X011756Y005379D02*
X011756Y004979D01*
X011556Y004979D01*
X011489Y005045D01*
X011489Y005179D01*
X011556Y005246D01*
X011756Y005246D01*
X011295Y005179D02*
X011295Y005112D01*
X011029Y005112D01*
X011029Y005045D02*
X011029Y005179D01*
X011095Y005246D01*
X011229Y005246D01*
X011295Y005179D01*
X011229Y004979D02*
X011095Y004979D01*
X011029Y005045D01*
X010375Y005112D02*
X010108Y005112D01*
X010108Y005045D02*
X010108Y005179D01*
X010175Y005246D01*
X010308Y005246D01*
X010375Y005179D01*
X010375Y005112D01*
X010308Y004979D02*
X010175Y004979D01*
X010108Y005045D01*
X009914Y004979D02*
X009914Y005179D01*
X009848Y005246D01*
X009647Y005246D01*
X009647Y004979D01*
X009454Y004979D02*
X009454Y005179D01*
X009387Y005246D01*
X009254Y005246D01*
X009187Y005179D01*
X008994Y005179D02*
X008994Y004979D01*
X008793Y004979D01*
X008727Y005045D01*
X008793Y005112D01*
X008994Y005112D01*
X008994Y005179D02*
X008927Y005246D01*
X008793Y005246D01*
X008533Y005179D02*
X008533Y004979D01*
X008400Y004979D02*
X008400Y005179D01*
X008467Y005246D01*
X008533Y005179D01*
X008400Y005179D02*
X008333Y005246D01*
X008266Y005246D01*
X008266Y004979D01*
X007613Y004979D02*
X007613Y005246D01*
X007479Y005379D01*
X007346Y005246D01*
X007346Y004979D01*
X007346Y005179D02*
X007613Y005179D01*
X007152Y005312D02*
X007152Y005045D01*
X007086Y004979D01*
X006885Y004979D01*
X006885Y005379D01*
X007086Y005379D01*
X007152Y005312D01*
X008166Y004346D02*
X008233Y004346D01*
X008300Y004279D01*
X009087Y004479D02*
X009087Y004079D01*
X009187Y004979D02*
X009187Y005379D01*
X012716Y005246D02*
X012783Y005246D01*
X012783Y004979D01*
X012716Y004979D02*
X012850Y004979D01*
X013023Y005045D02*
X013090Y004979D01*
X013290Y004979D01*
X013484Y005045D02*
X013550Y005112D01*
X013751Y005112D01*
X013751Y005179D02*
X013751Y004979D01*
X013550Y004979D01*
X013484Y005045D01*
X013550Y005246D02*
X013684Y005246D01*
X013751Y005179D01*
X013944Y005246D02*
X014078Y005246D01*
X014011Y005312D02*
X014011Y005045D01*
X014078Y004979D01*
X014251Y005045D02*
X014318Y005112D01*
X014518Y005112D01*
X014518Y005179D02*
X014518Y004979D01*
X014318Y004979D01*
X014251Y005045D01*
X014318Y005246D02*
X014451Y005246D01*
X014518Y005179D01*
X015172Y005179D02*
X015172Y005045D01*
X015238Y004979D01*
X015372Y004979D01*
X015439Y005045D01*
X015439Y005179D01*
X015372Y005246D01*
X015238Y005246D01*
X015172Y005179D01*
X015632Y005246D02*
X015765Y005246D01*
X015699Y005312D02*
X015699Y005045D01*
X015765Y004979D01*
X016399Y004979D02*
X016599Y004979D01*
X016666Y005045D01*
X016666Y005179D01*
X016599Y005246D01*
X016399Y005246D01*
X016399Y004845D01*
X016279Y004546D02*
X016279Y004479D01*
X016279Y004346D02*
X016279Y004012D01*
X016213Y003945D01*
X016146Y003945D01*
X015886Y004079D02*
X015752Y004079D01*
X015686Y004145D01*
X015686Y004279D01*
X015752Y004346D01*
X015886Y004346D01*
X015952Y004279D01*
X015952Y004212D01*
X015686Y004212D01*
X015492Y004279D02*
X015492Y004079D01*
X015359Y004079D02*
X015359Y004279D01*
X015425Y004346D01*
X015492Y004279D01*
X015359Y004279D02*
X015292Y004346D01*
X015225Y004346D01*
X015225Y004079D01*
X016453Y004145D02*
X016453Y004279D01*
X016519Y004346D01*
X016720Y004346D01*
X016720Y004479D02*
X016720Y004079D01*
X016519Y004079D01*
X016453Y004145D01*
X016913Y004145D02*
X016913Y004346D01*
X016913Y004145D02*
X016980Y004079D01*
X017180Y004079D01*
X017180Y004346D01*
X017834Y004479D02*
X017834Y004079D01*
X017834Y004212D02*
X018034Y004346D01*
X018217Y004346D02*
X018217Y004079D01*
X018217Y004212D02*
X018351Y004346D01*
X018418Y004346D01*
X018601Y004346D02*
X018668Y004346D01*
X018668Y004079D01*
X018734Y004079D02*
X018601Y004079D01*
X018908Y004079D02*
X019108Y004079D01*
X019175Y004145D01*
X019108Y004212D01*
X018975Y004212D01*
X018908Y004279D01*
X018975Y004346D01*
X019175Y004346D01*
X019368Y004346D02*
X019502Y004346D01*
X019435Y004412D02*
X019435Y004145D01*
X019502Y004079D01*
X019675Y004145D02*
X019742Y004212D01*
X019942Y004212D01*
X019942Y004279D02*
X019942Y004079D01*
X019742Y004079D01*
X019675Y004145D01*
X019742Y004346D02*
X019875Y004346D01*
X019942Y004279D01*
X020136Y004479D02*
X020202Y004479D01*
X020202Y004079D01*
X020136Y004079D02*
X020269Y004079D01*
X020442Y004145D02*
X020509Y004212D01*
X020709Y004212D01*
X020709Y004279D02*
X020709Y004079D01*
X020509Y004079D01*
X020442Y004145D01*
X020509Y004346D02*
X020643Y004346D01*
X020709Y004279D01*
X021363Y004346D02*
X021430Y004346D01*
X021430Y004079D01*
X021363Y004079D02*
X021497Y004079D01*
X021430Y004479D02*
X021430Y004546D01*
X021116Y004979D02*
X020916Y004979D01*
X020849Y005045D01*
X020916Y005112D01*
X021116Y005112D01*
X021116Y005179D02*
X021116Y004979D01*
X021116Y005179D02*
X021050Y005246D01*
X020916Y005246D01*
X020656Y005179D02*
X020656Y004979D01*
X020656Y005179D02*
X020589Y005246D01*
X020389Y005246D01*
X020389Y004979D01*
X019735Y005112D02*
X019468Y005112D01*
X019468Y005045D02*
X019468Y005179D01*
X019535Y005246D01*
X019668Y005246D01*
X019735Y005179D01*
X019735Y005112D01*
X019668Y004979D02*
X019535Y004979D01*
X019468Y005045D01*
X019295Y004979D02*
X019228Y005045D01*
X019228Y005312D01*
X019161Y005246D02*
X019295Y005246D01*
X018968Y005179D02*
X018968Y005112D01*
X018701Y005112D01*
X018701Y005045D02*
X018701Y005179D01*
X018768Y005246D01*
X018901Y005246D01*
X018968Y005179D01*
X018901Y004979D02*
X018768Y004979D01*
X018701Y005045D01*
X018508Y005045D02*
X018508Y005246D01*
X018508Y005045D02*
X018441Y004979D01*
X018374Y005045D01*
X018307Y004979D01*
X018241Y005045D01*
X018241Y005246D01*
X018047Y005179D02*
X017981Y005246D01*
X017847Y005246D01*
X017780Y005179D01*
X017780Y005045D01*
X017847Y004979D01*
X017981Y004979D01*
X018047Y005045D01*
X018047Y005179D01*
X017587Y005246D02*
X017387Y005246D01*
X017320Y005179D01*
X017320Y005045D01*
X017387Y004979D01*
X017587Y004979D01*
X017587Y005379D01*
X017127Y005179D02*
X017127Y004979D01*
X016926Y004979D01*
X016860Y005045D01*
X016926Y005112D01*
X017127Y005112D01*
X017127Y005179D02*
X017060Y005246D01*
X016926Y005246D01*
X017000Y006429D02*
X017000Y006521D01*
X016743Y006521D01*
X016743Y006536D01*
X016966Y006536D01*
X016973Y006529D01*
X018097Y006529D01*
X018185Y006616D01*
X018185Y007041D01*
X018147Y007079D01*
X018147Y007079D01*
X018239Y007079D01*
X018385Y007225D01*
X018385Y007331D01*
X018558Y007504D01*
X018660Y007606D01*
X018660Y007619D01*
X018682Y007610D01*
X018789Y007610D01*
X018810Y007619D01*
X018810Y007306D01*
X018913Y007204D01*
X019235Y006881D01*
X019235Y006775D01*
X019382Y006629D01*
X019385Y006629D01*
X019385Y006616D01*
X019473Y006529D01*
X020597Y006529D01*
X020685Y006616D01*
X020685Y007041D01*
X020647Y007079D01*
X020685Y007116D01*
X020685Y007541D01*
X020647Y007579D01*
X020685Y007616D01*
X020685Y008041D01*
X020647Y008079D01*
X020685Y008116D01*
X020685Y008304D01*
X020061Y008304D01*
X020061Y008354D01*
X020685Y008354D01*
X020685Y008541D01*
X020612Y008614D01*
X020628Y008614D01*
X020628Y008871D01*
X020643Y008871D01*
X020643Y008886D01*
X020785Y008886D01*
X020785Y008871D01*
X020643Y008871D01*
X020643Y008614D01*
X020785Y008614D01*
X020785Y007311D01*
X020785Y007146D01*
X020785Y006429D01*
X017000Y006429D01*
X016743Y006429D02*
X016743Y006521D01*
X016728Y006521D01*
X016728Y006429D01*
X016743Y006429D01*
X016743Y006524D02*
X020785Y006524D01*
X020785Y006623D02*
X020685Y006623D01*
X020685Y006721D02*
X020785Y006721D01*
X020785Y006820D02*
X020685Y006820D01*
X020685Y006918D02*
X020785Y006918D01*
X020785Y007017D02*
X020685Y007017D01*
X020684Y007116D02*
X020785Y007116D01*
X020785Y007214D02*
X020685Y007214D01*
X020685Y007313D02*
X020785Y007313D01*
X020785Y007411D02*
X020685Y007411D01*
X020685Y007510D02*
X020785Y007510D01*
X020785Y007608D02*
X020677Y007608D01*
X020685Y007707D02*
X020785Y007707D01*
X020785Y007805D02*
X020685Y007805D01*
X020685Y007904D02*
X020785Y007904D01*
X020785Y008002D02*
X020685Y008002D01*
X020670Y008101D02*
X020785Y008101D01*
X020785Y008200D02*
X020685Y008200D01*
X020685Y008298D02*
X020785Y008298D01*
X020785Y008397D02*
X020685Y008397D01*
X020685Y008495D02*
X020785Y008495D01*
X020785Y008594D02*
X020632Y008594D01*
X020628Y008692D02*
X020643Y008692D01*
X020643Y008791D02*
X020628Y008791D01*
X020060Y008614D02*
X020060Y008354D01*
X020010Y008354D01*
X020010Y008629D01*
X019654Y008629D01*
X019654Y008732D01*
X019613Y008831D01*
X019565Y008880D01*
X019604Y008975D01*
X019604Y009020D01*
X019820Y009020D01*
X019820Y009395D01*
X019920Y009395D01*
X019920Y009020D01*
X019965Y009020D01*
X019965Y008701D01*
X020053Y008614D01*
X020060Y008614D01*
X020060Y008594D02*
X020010Y008594D01*
X020010Y008495D02*
X020060Y008495D01*
X020060Y008397D02*
X020010Y008397D01*
X020010Y008354D02*
X019454Y008354D01*
X019454Y008325D01*
X019445Y008304D01*
X020010Y008304D01*
X020010Y008354D01*
X019975Y008692D02*
X019654Y008692D01*
X019630Y008791D02*
X019965Y008791D01*
X019965Y008889D02*
X019569Y008889D01*
X019604Y008988D02*
X019965Y008988D01*
X019920Y009086D02*
X019820Y009086D01*
X019820Y009185D02*
X019920Y009185D01*
X019920Y009284D02*
X019820Y009284D01*
X019820Y009382D02*
X019920Y009382D01*
X019820Y009396D02*
X019604Y009396D01*
X019604Y009432D01*
X019578Y009495D01*
X019820Y009495D01*
X019820Y009396D01*
X019820Y009481D02*
X019584Y009481D01*
X019335Y009029D02*
X019035Y009329D01*
X019035Y009740D01*
X019100Y009740D01*
X019100Y009937D02*
X019252Y009937D01*
X019331Y010133D02*
X019585Y009879D01*
X020165Y009879D01*
X020500Y009544D01*
X020500Y009446D01*
X020456Y009871D02*
X020441Y009886D01*
X020450Y009886D01*
X020450Y010262D01*
X020550Y010262D01*
X020550Y009886D01*
X020785Y009886D01*
X020785Y009871D01*
X020456Y009871D01*
X020452Y009875D02*
X020785Y009875D01*
X020550Y009973D02*
X020450Y009973D01*
X020450Y010072D02*
X020550Y010072D01*
X020550Y010170D02*
X020450Y010170D01*
X019870Y010312D02*
X019685Y010312D01*
X019685Y010329D01*
X019684Y010330D01*
X019100Y010330D01*
X019100Y010133D02*
X019331Y010133D01*
X019334Y010527D02*
X019435Y010629D01*
X019340Y010724D01*
X019100Y010724D01*
X019100Y010921D02*
X019452Y010921D01*
X019535Y011004D01*
X019928Y011011D02*
X019928Y011269D01*
X019928Y011421D01*
X019943Y011421D01*
X019943Y011269D01*
X019943Y011011D01*
X019928Y011011D01*
X019928Y011057D02*
X019943Y011057D01*
X019943Y011156D02*
X019928Y011156D01*
X019928Y011254D02*
X019943Y011254D01*
X019943Y011353D02*
X019928Y011353D01*
X020205Y011164D02*
X020205Y011069D01*
X020517Y011069D01*
X020535Y011051D01*
X020553Y011069D01*
X020728Y011069D01*
X020728Y010811D01*
X020743Y010811D01*
X020743Y011069D01*
X020785Y011069D01*
X020785Y011279D01*
X020605Y011279D01*
X020605Y011251D01*
X020517Y011164D01*
X020452Y011164D01*
X020447Y011159D01*
X020224Y011159D01*
X020219Y011164D01*
X020205Y011164D01*
X020205Y011156D02*
X020785Y011156D01*
X020785Y011254D02*
X020605Y011254D01*
X020542Y011057D02*
X020529Y011057D01*
X020728Y011057D02*
X020743Y011057D01*
X020743Y010959D02*
X020728Y010959D01*
X020728Y010860D02*
X020743Y010860D01*
X020743Y010796D02*
X020743Y010737D01*
X020728Y010737D01*
X020728Y010796D01*
X020743Y010796D01*
X020743Y010762D02*
X020728Y010762D01*
X019334Y010527D02*
X019100Y010527D01*
X018394Y010429D02*
X018378Y010413D01*
X018378Y010379D01*
X018186Y010379D01*
X018186Y010479D01*
X018378Y010479D01*
X018378Y010444D01*
X018394Y010429D01*
X018378Y010466D02*
X018186Y010466D01*
X018185Y010479D02*
X018185Y010671D01*
X018151Y010671D01*
X018135Y010687D01*
X018120Y010671D01*
X018085Y010671D01*
X018085Y010479D01*
X018185Y010479D01*
X018185Y010565D02*
X018085Y010565D01*
X018085Y010479D02*
X017893Y010479D01*
X017893Y010444D01*
X017877Y010429D01*
X017893Y010413D01*
X017893Y010379D01*
X018085Y010379D01*
X018085Y010479D01*
X018085Y010466D02*
X017893Y010466D01*
X018085Y010378D02*
X018085Y010186D01*
X018120Y010186D01*
X018135Y010170D01*
X018151Y010186D01*
X018185Y010186D01*
X018185Y010378D01*
X018085Y010378D01*
X018085Y010367D02*
X018185Y010367D01*
X018185Y010269D02*
X018085Y010269D01*
X018135Y010170D02*
X018136Y010170D01*
X017171Y010133D02*
X016740Y010133D01*
X016735Y010129D01*
X016913Y009937D02*
X017171Y009937D01*
X017171Y009740D02*
X017066Y009740D01*
X017035Y009709D01*
X016913Y009937D02*
X016805Y009829D01*
X016735Y009829D01*
X016685Y009779D01*
X016934Y010330D02*
X017171Y010330D01*
X016934Y010330D02*
X016835Y010429D01*
X016735Y010429D01*
X016685Y010479D01*
X016735Y010724D02*
X017171Y010724D01*
X016735Y010724D02*
X016735Y010829D01*
X017085Y011529D02*
X016985Y011629D01*
X016935Y011629D01*
X016935Y011879D01*
X017285Y011729D02*
X017485Y011729D01*
X017643Y011571D01*
X017643Y011393D01*
X017840Y011393D02*
X017840Y011624D01*
X017690Y011774D01*
X017985Y011829D02*
X018037Y011777D01*
X018037Y011393D01*
X018234Y011393D02*
X018234Y011627D01*
X018335Y011729D01*
X018431Y011633D01*
X018431Y011393D01*
X018824Y011393D02*
X018824Y011329D01*
X019035Y011329D01*
X019035Y011118D01*
X019100Y011118D01*
X018185Y010663D02*
X018085Y010663D01*
X017085Y011529D02*
X017285Y011729D01*
X016928Y012271D02*
X016785Y012271D01*
X016785Y012279D01*
X016485Y012279D01*
X016485Y012379D01*
X016670Y012379D01*
X016670Y012286D01*
X016928Y012286D01*
X016928Y012271D01*
X016670Y012338D02*
X016485Y012338D01*
X016035Y012329D02*
X016035Y012379D01*
X015635Y012779D01*
X015535Y012779D01*
X015585Y012829D01*
X015585Y012579D02*
X015435Y012579D01*
X015185Y012829D01*
X014535Y012829D01*
X014535Y012729D01*
X014285Y012379D02*
X015335Y012379D01*
X015535Y012179D01*
X015785Y012129D02*
X015785Y012379D01*
X015585Y012579D01*
X015855Y012841D02*
X015855Y012929D01*
X016315Y012929D01*
X016315Y012836D01*
X016578Y012836D01*
X016578Y012821D01*
X016315Y012821D01*
X016315Y012679D01*
X016173Y012679D01*
X016096Y012601D01*
X015855Y012841D01*
X015866Y012831D02*
X016578Y012831D01*
X016315Y012733D02*
X015964Y012733D01*
X016063Y012634D02*
X016129Y012634D01*
X015785Y012129D02*
X015885Y012029D01*
X017255Y012874D02*
X017255Y012929D01*
X018184Y012929D01*
X018148Y012840D01*
X018148Y012726D01*
X018191Y012620D01*
X018272Y012539D01*
X018378Y012495D01*
X018493Y012495D01*
X018598Y012539D01*
X018679Y012620D01*
X018723Y012726D01*
X018723Y012840D01*
X018686Y012929D01*
X019615Y012929D01*
X019606Y012879D01*
X019606Y012879D01*
X019606Y012874D01*
X019371Y012874D01*
X019371Y012479D01*
X019271Y012479D01*
X019271Y012874D01*
X018954Y012874D01*
X018866Y012786D01*
X018866Y012479D01*
X019271Y012479D01*
X019271Y012379D01*
X018866Y012379D01*
X018866Y012071D01*
X018889Y012049D01*
X018723Y012049D01*
X018723Y012132D01*
X018679Y012237D01*
X018598Y012318D01*
X018493Y012362D01*
X018378Y012362D01*
X018272Y012318D01*
X018235Y012281D01*
X018235Y012282D01*
X018232Y012285D01*
X018213Y012331D01*
X018138Y012407D01*
X018092Y012426D01*
X018089Y012429D01*
X018085Y012429D01*
X018039Y012448D01*
X018005Y012448D01*
X018005Y012786D01*
X017917Y012874D01*
X017255Y012874D01*
X017960Y012831D02*
X018148Y012831D01*
X018148Y012733D02*
X018005Y012733D01*
X018005Y012634D02*
X018186Y012634D01*
X018281Y012535D02*
X018005Y012535D01*
X018065Y012437D02*
X019271Y012437D01*
X019271Y012535D02*
X019371Y012535D01*
X019371Y012634D02*
X019271Y012634D01*
X019271Y012733D02*
X019371Y012733D01*
X019371Y012831D02*
X019271Y012831D01*
X018911Y012831D02*
X018723Y012831D01*
X018723Y012733D02*
X018866Y012733D01*
X018866Y012634D02*
X018685Y012634D01*
X018590Y012535D02*
X018866Y012535D01*
X018866Y012338D02*
X018550Y012338D01*
X018677Y012240D02*
X018866Y012240D01*
X018866Y012141D02*
X018719Y012141D01*
X018321Y012338D02*
X018206Y012338D01*
X019776Y012301D02*
X019776Y012071D01*
X019754Y012049D01*
X020047Y012049D01*
X020052Y012044D01*
X020117Y012044D01*
X020135Y012026D01*
X020153Y012044D01*
X020219Y012044D01*
X020224Y012049D01*
X020248Y012049D01*
X020219Y012052D01*
X020219Y012052D01*
X020153Y012066D01*
X020153Y012066D01*
X020089Y012085D01*
X020089Y012085D01*
X020027Y012110D01*
X020027Y012110D01*
X019967Y012141D01*
X019776Y012141D01*
X019776Y012240D02*
X019835Y012240D01*
X019858Y012218D02*
X019911Y012177D01*
X019967Y012141D01*
X019967Y012141D01*
X019911Y012177D02*
X019911Y012177D01*
X019858Y012218D02*
X019858Y012218D01*
X019809Y012264D01*
X019809Y012264D01*
X019809Y012264D01*
X019776Y012301D01*
X020118Y012043D02*
X020152Y012043D01*
X018824Y009464D02*
X018824Y009268D01*
X018627Y009271D02*
X018627Y009464D01*
X018431Y009464D02*
X018431Y009283D01*
X018234Y009260D02*
X018234Y009464D01*
X018037Y009464D02*
X018037Y009227D01*
X017840Y009224D02*
X017840Y009464D01*
X017643Y009464D02*
X017643Y009221D01*
X017446Y009279D02*
X017446Y009464D01*
X017446Y009279D02*
X017235Y009279D01*
X015535Y007879D02*
X015335Y007679D01*
X015335Y007349D01*
X015085Y007099D01*
X015085Y006929D01*
X015235Y006779D01*
X015785Y006779D01*
X015935Y006629D01*
X016385Y006629D01*
X016685Y006929D01*
X016735Y006929D01*
X016735Y006529D02*
X016635Y006429D01*
X015785Y006429D01*
X015735Y006479D01*
X015635Y006479D01*
X015635Y006529D01*
X015628Y006521D02*
X015643Y006521D01*
X015643Y006429D01*
X015628Y006429D01*
X015628Y006521D01*
X015085Y006929D02*
X014235Y006929D01*
X014135Y006829D01*
X012783Y005446D02*
X012783Y005379D01*
X013023Y005179D02*
X013023Y005045D01*
X013023Y005179D02*
X013090Y005246D01*
X013290Y005246D01*
X017834Y004212D02*
X018034Y004079D01*
X018668Y004479D02*
X018668Y004546D01*
X021770Y005379D02*
X022037Y005379D01*
X021904Y005379D02*
X021904Y004979D01*
X022230Y004979D02*
X022497Y005379D01*
X022691Y005379D02*
X022891Y005379D01*
X022958Y005312D01*
X022958Y005045D01*
X022891Y004979D01*
X022691Y004979D01*
X022691Y005379D01*
X022497Y004979D02*
X022230Y005379D01*
X022130Y004479D02*
X022130Y004145D01*
X022197Y004079D01*
X022331Y004079D01*
X022397Y004145D01*
X022397Y004479D01*
X022591Y004346D02*
X022724Y004479D01*
X022724Y004079D01*
X022591Y004079D02*
X022858Y004079D01*
X023611Y004979D02*
X023812Y004979D01*
X023878Y005045D01*
X023812Y005112D01*
X023678Y005112D01*
X023611Y005179D01*
X023678Y005246D01*
X023878Y005246D01*
X024072Y005246D02*
X024072Y005045D01*
X024139Y004979D01*
X024205Y005045D01*
X024272Y004979D01*
X024339Y005045D01*
X024339Y005246D01*
X024532Y005179D02*
X024599Y005246D01*
X024732Y005246D01*
X024799Y005179D01*
X024799Y005112D01*
X024532Y005112D01*
X024532Y005045D02*
X024532Y005179D01*
X024532Y005045D02*
X024599Y004979D01*
X024732Y004979D01*
X025059Y005045D02*
X025059Y005312D01*
X024993Y005246D02*
X025126Y005246D01*
X025299Y005179D02*
X025299Y005045D01*
X025366Y004979D01*
X025500Y004979D01*
X025566Y005045D01*
X025566Y005179D01*
X025500Y005246D01*
X025366Y005246D01*
X025299Y005179D01*
X025126Y004979D02*
X025059Y005045D01*
X025760Y005045D02*
X025760Y005179D01*
X025826Y005246D01*
X026027Y005246D01*
X026027Y005379D02*
X026027Y004979D01*
X025826Y004979D01*
X025760Y005045D01*
X026220Y004979D02*
X026354Y004979D01*
X026287Y004979D02*
X026287Y005246D01*
X026220Y005246D01*
X026287Y005379D02*
X026287Y005446D01*
X026527Y005179D02*
X026527Y005045D01*
X026594Y004979D01*
X026727Y004979D01*
X026794Y005045D01*
X026794Y005179D01*
X026727Y005246D01*
X026594Y005246D01*
X026527Y005179D01*
X026987Y005179D02*
X026987Y005045D01*
X027054Y004979D01*
X027254Y004979D01*
X027254Y005379D01*
X027254Y005246D02*
X027054Y005246D01*
X026987Y005179D01*
X027448Y005045D02*
X027514Y005112D01*
X027715Y005112D01*
X027715Y005179D02*
X027715Y004979D01*
X027514Y004979D01*
X027448Y005045D01*
X027514Y005246D02*
X027648Y005246D01*
X027715Y005179D01*
X028368Y005179D02*
X028635Y005179D01*
X029289Y005179D02*
X029289Y005045D01*
X029356Y004979D01*
X029556Y004979D01*
X029556Y004912D02*
X029556Y005246D01*
X029356Y005246D01*
X029289Y005179D01*
X029556Y004912D02*
X029489Y004845D01*
X029423Y004845D01*
X029750Y005045D02*
X029816Y004979D01*
X029950Y004979D01*
X030016Y005045D01*
X030016Y005179D01*
X029950Y005246D01*
X029816Y005246D01*
X029750Y005179D01*
X029750Y005045D01*
X030210Y004979D02*
X030210Y005246D01*
X030343Y005246D02*
X030410Y005246D01*
X030343Y005246D02*
X030210Y005112D01*
X030594Y005112D02*
X030860Y005112D01*
X030860Y005179D01*
X030794Y005246D01*
X030660Y005246D01*
X030594Y005179D01*
X030594Y005045D01*
X030660Y004979D01*
X030794Y004979D01*
X031514Y005246D02*
X031648Y004979D01*
X031781Y005246D01*
X031975Y005379D02*
X032041Y005379D01*
X032041Y004979D01*
X031975Y004979D02*
X032108Y004979D01*
X032281Y004979D02*
X032415Y004979D01*
X032348Y004979D02*
X032348Y005246D01*
X032281Y005246D01*
X032348Y005379D02*
X032348Y005446D01*
X032655Y005246D02*
X032789Y005246D01*
X032855Y005179D01*
X032855Y004979D01*
X032655Y004979D01*
X032588Y005045D01*
X032655Y005112D01*
X032855Y005112D01*
X033049Y005246D02*
X033182Y004979D01*
X033316Y005246D01*
X033509Y005179D02*
X033509Y005045D01*
X033576Y004979D01*
X033709Y004979D01*
X033776Y005045D01*
X033776Y005179D01*
X033709Y005246D01*
X033576Y005246D01*
X033509Y005179D01*
X034430Y005246D02*
X034430Y004979D01*
X034430Y005246D02*
X034630Y005246D01*
X034697Y005179D01*
X034697Y004979D01*
X034890Y005045D02*
X034957Y005112D01*
X035157Y005112D01*
X035157Y005179D02*
X035157Y004979D01*
X034957Y004979D01*
X034890Y005045D01*
X034957Y005246D02*
X035090Y005246D01*
X035157Y005179D01*
X035811Y005246D02*
X035944Y005246D01*
X035878Y005312D02*
X035878Y005045D01*
X035944Y004979D01*
X036118Y005045D02*
X036184Y004979D01*
X036318Y004979D01*
X036385Y005045D01*
X036385Y005179D01*
X036318Y005246D01*
X036184Y005246D01*
X036118Y005179D01*
X036118Y005045D01*
X036578Y004979D02*
X036778Y004979D01*
X036845Y005045D01*
X036845Y005179D01*
X036778Y005246D01*
X036578Y005246D01*
X036578Y004845D01*
X019385Y006623D02*
X018185Y006623D01*
X018185Y006721D02*
X019289Y006721D01*
X019235Y006820D02*
X018185Y006820D01*
X018185Y006918D02*
X019198Y006918D01*
X019100Y007017D02*
X018185Y007017D01*
X018276Y007116D02*
X019001Y007116D01*
X018902Y007214D02*
X018374Y007214D01*
X018385Y007313D02*
X018810Y007313D01*
X018810Y007411D02*
X018465Y007411D01*
X018564Y007510D02*
X018810Y007510D01*
X018810Y007608D02*
X018660Y007608D01*
X014285Y012379D02*
X013935Y012729D01*
D11*
X020335Y012779D03*
X021535Y006829D03*
D12*
X014435Y007679D03*
X014435Y008679D03*
X014435Y009679D03*
X014435Y010679D03*
X014435Y011679D03*
D13*
X015535Y011779D03*
X015535Y012179D03*
X015535Y011379D03*
X015535Y010979D03*
X016935Y011879D03*
X016935Y012279D03*
X019535Y011779D03*
X019535Y011379D03*
X015535Y009079D03*
X015535Y008679D03*
X015535Y008279D03*
X015535Y007879D03*
X015585Y007479D03*
X015585Y007079D03*
X016735Y006929D03*
X016735Y006529D03*
X016735Y007879D03*
X016735Y008279D03*
D14*
X017446Y009464D03*
X017643Y009464D03*
X017840Y009464D03*
X018037Y009464D03*
X018234Y009464D03*
X018431Y009464D03*
X018627Y009464D03*
X018824Y009464D03*
X018824Y011393D03*
X018627Y011393D03*
X018431Y011393D03*
X018234Y011393D03*
X018037Y011393D03*
X017840Y011393D03*
X017643Y011393D03*
X017446Y011393D03*
D15*
X017171Y011118D03*
X017171Y010921D03*
X017171Y010724D03*
X017171Y010527D03*
X017171Y010330D03*
X017171Y010133D03*
X017171Y009937D03*
X017171Y009740D03*
X019100Y009740D03*
X019100Y009937D03*
X019100Y010133D03*
X019100Y010330D03*
X019100Y010527D03*
X019100Y010724D03*
X019100Y010921D03*
X019100Y011118D03*
D16*
X018135Y010429D03*
D17*
X018135Y010429D03*
D18*
X017624Y010626D03*
X017624Y010232D03*
X017939Y009917D03*
X018332Y009917D03*
X018647Y010232D03*
X018647Y010626D03*
X018332Y010940D03*
X017939Y010940D03*
D19*
X021035Y011779D03*
D20*
X021285Y011779D02*
X023685Y011779D01*
X023685Y011329D01*
X022135Y011329D01*
X022135Y010879D01*
X023685Y010879D01*
X023685Y010429D01*
X022135Y010429D01*
X022135Y009979D01*
X023685Y009979D01*
X023685Y009529D01*
X022135Y009529D01*
X022135Y009079D01*
X023685Y009079D01*
X023685Y007529D01*
X021285Y009029D02*
X021285Y011779D01*
D21*
X019435Y010629D03*
X019035Y011329D03*
X018335Y011729D03*
X021285Y009029D03*
D22*
X020635Y008879D03*
X020235Y008879D03*
X020335Y010804D03*
X020735Y010804D03*
X019935Y011004D03*
X019535Y011004D03*
X019935Y011429D03*
X020335Y011429D03*
X020335Y011779D03*
X019935Y011779D03*
X016985Y012829D03*
X016585Y012829D03*
X015585Y012829D03*
X015185Y012829D03*
X016285Y010479D03*
X016685Y010479D03*
X016485Y010129D03*
X016085Y010129D03*
X016285Y009779D03*
X016685Y009779D03*
X016685Y009429D03*
X016285Y009429D03*
X015635Y006529D03*
X015235Y006529D03*
D23*
X016435Y011629D03*
X016435Y012329D03*
D24*
X017535Y008329D03*
X017535Y007829D03*
X017535Y007329D03*
X017535Y006829D03*
X020035Y006829D03*
X020035Y007329D03*
X020035Y007829D03*
X020035Y008329D03*
D25*
X019870Y009446D03*
X020500Y009446D03*
X020500Y010312D03*
X019870Y010312D03*
D26*
X014535Y012729D03*
X013935Y012729D03*
X013935Y006629D03*
X014535Y006629D03*
D27*
X016135Y007029D03*
X016135Y007829D03*
X016135Y008629D03*
D28*
X017550Y012429D03*
X019321Y012429D03*
D29*
X019535Y011779D02*
X018685Y011779D01*
X019535Y011779D02*
X019935Y011779D01*
X020335Y011779D02*
X021035Y011779D01*
X020335Y011779D02*
X020335Y011429D01*
X019935Y011429D02*
X019935Y011379D01*
X019935Y011129D01*
X019935Y011004D01*
X019935Y011379D02*
X019535Y011379D01*
X015535Y011379D02*
X015535Y011679D01*
X015535Y011779D01*
X016735Y007879D02*
X016785Y007829D01*
X016735Y007279D02*
X016735Y006929D01*
X016935Y006929D01*
X017035Y006829D01*
X017535Y006829D01*
X014135Y006829D02*
X013935Y006629D01*
D30*
X016785Y007829D02*
X017535Y007829D01*
X019735Y008329D02*
X019735Y008979D01*
X019735Y009446D01*
X019870Y009446D01*
X020635Y008879D02*
X020785Y008879D01*
X020035Y008329D02*
X019735Y008329D01*
X016735Y010829D02*
X016735Y011529D01*
X017085Y011529D01*
X016435Y011679D02*
X015535Y011679D01*
X016485Y010829D02*
X016735Y010829D01*
D31*
X017085Y011529D03*
X018635Y012429D03*
X020735Y011229D03*
X019735Y008979D03*
X018735Y007179D03*
X018335Y006579D03*
X019135Y006579D03*
X016735Y007279D03*
X016085Y012779D03*
D32*
X016435Y012779D02*
X016435Y012829D01*
X016585Y012829D01*
X016985Y012829D02*
X016985Y012679D01*
X016935Y012279D02*
X016435Y012279D01*
X016435Y012329D01*
X017550Y012429D02*
X017800Y012179D01*
X017985Y012179D01*
X019935Y011129D02*
X020735Y011129D01*
X020735Y011229D01*
X020735Y010804D01*
X020735Y010779D02*
X020735Y010629D01*
X020785Y010629D01*
X020785Y010129D01*
X020500Y010129D01*
X020500Y010312D01*
X020500Y009446D02*
X020500Y009274D01*
X020235Y009009D01*
X020235Y008879D01*
X020785Y008529D02*
X020785Y007329D01*
X020035Y007329D02*
X019435Y007329D01*
X019485Y006879D02*
X019985Y006879D01*
X020035Y006829D01*
X018335Y006579D02*
X018235Y006479D01*
X016735Y006479D01*
X016735Y006529D01*
X015585Y007079D02*
X015535Y007029D01*
X015335Y007029D01*
X015235Y006529D02*
X014635Y006529D01*
X014535Y006629D01*
X015585Y007479D02*
X015785Y007479D01*
X015835Y007429D01*
X016085Y007829D02*
X016135Y007829D01*
X016085Y007829D02*
X015635Y008279D01*
X015535Y008279D01*
X015535Y008679D01*
X015535Y009079D02*
X015535Y009279D01*
X015335Y009479D01*
X014635Y009479D01*
X014435Y009679D01*
X015835Y010229D02*
X015935Y010129D01*
X016085Y010129D01*
X015985Y009829D02*
X016035Y009779D01*
X016285Y009779D01*
X016685Y009779D02*
X016685Y009429D01*
X016485Y009129D02*
X016285Y009329D01*
X016285Y009429D01*
X016485Y010129D02*
X016735Y010129D01*
X016285Y010479D02*
X016235Y010479D01*
X016085Y010629D01*
X015535Y010779D02*
X015535Y010979D01*
X015535Y010779D02*
X015435Y010679D01*
X014435Y010679D01*
X016735Y008379D02*
X016785Y008429D01*
X016735Y008379D02*
X016735Y008279D01*
X017535Y007329D02*
X018135Y007329D01*
X019385Y007879D02*
X019985Y007879D01*
X020035Y007829D01*
D33*
X019385Y007879D03*
X019185Y008379D03*
X019385Y008679D03*
X019335Y009029D03*
X018685Y008679D03*
X017985Y008679D03*
X017685Y008779D03*
X017435Y008979D03*
X017235Y009279D03*
X017035Y009579D03*
X016735Y010129D03*
X015985Y009829D03*
X015835Y010229D03*
X016085Y010629D03*
X016485Y010829D03*
X016035Y011329D03*
X015885Y012029D03*
X016035Y012329D03*
X017985Y012179D03*
X017985Y011829D03*
X018085Y012879D03*
X018835Y012879D03*
X019785Y012229D03*
X020185Y011129D03*
X019335Y009379D03*
X020785Y008529D03*
X020785Y007929D03*
X020785Y007329D03*
X018735Y007879D03*
X018235Y008129D03*
X016485Y009129D03*
X015835Y007429D03*
X015335Y007029D03*
D34*
X020855Y008954D02*
X020855Y010659D01*
X020735Y010779D01*
X020735Y010804D01*
X018685Y011779D02*
X018627Y011721D01*
X018627Y011393D01*
X019621Y012129D02*
X020485Y012129D01*
X019621Y012129D02*
X019321Y012429D01*
D35*
X017085Y011529D02*
X016935Y011679D01*
X016435Y011679D01*
X016435Y011629D01*
X016435Y012329D02*
X016435Y012779D01*
X016085Y012779D01*
X015535Y011679D02*
X014435Y011679D01*
D36*
X015435Y010679D02*
X015435Y009679D01*
X015735Y009379D01*
X015735Y008479D01*
X015985Y008229D01*
X016285Y008229D01*
X016785Y008729D01*
X017635Y008729D01*
X017685Y008779D01*
X017835Y008579D02*
X017935Y008679D01*
X017985Y008679D01*
X017835Y008579D02*
X016935Y008579D01*
X016785Y008429D01*
X016435Y008879D02*
X017285Y008879D01*
X017385Y008979D01*
X017435Y008979D01*
X017643Y009221D02*
X017935Y008929D01*
X018085Y008929D01*
X018235Y008779D01*
X018235Y008479D01*
X018485Y008229D01*
X018485Y007679D01*
X018135Y007329D01*
X018735Y007879D02*
X018735Y007929D01*
X018635Y008029D01*
X018635Y008229D01*
X018335Y008529D01*
X018335Y008829D01*
X018135Y009029D01*
X018035Y009029D01*
X017840Y009224D01*
X018037Y009227D02*
X018135Y009129D01*
X018185Y009129D01*
X018435Y008879D01*
X018435Y008579D01*
X018985Y008029D01*
X018985Y007379D01*
X019485Y006879D01*
X019435Y007329D02*
X019085Y007679D01*
X019085Y008129D01*
X018935Y008279D01*
X018935Y008779D01*
X018431Y009283D01*
X018627Y009271D02*
X019135Y008763D01*
X019135Y008429D01*
X019185Y008379D01*
X019385Y008679D02*
X018824Y009240D01*
X018824Y009268D01*
X019335Y009379D02*
X019385Y009429D01*
X019385Y009804D01*
X019252Y009937D01*
X018234Y009260D02*
X018234Y009230D01*
X018685Y008779D01*
X018685Y008679D01*
X016435Y008879D02*
X015585Y009729D01*
X015585Y010379D01*
X015835Y010629D01*
X015835Y011179D01*
X015985Y011329D01*
X016035Y011329D01*
X017135Y012029D02*
X017235Y011929D01*
X017535Y011929D01*
X017690Y011774D01*
X017135Y012029D02*
X017135Y012529D01*
X016985Y012679D01*
D37*
X019870Y010464D02*
X020210Y010804D01*
X020335Y010804D01*
X019870Y010464D02*
X019870Y010312D01*
X017035Y009709D02*
X017035Y009579D01*
X017535Y008329D02*
X017985Y008329D01*
X018185Y008129D01*
X018235Y008129D01*
M02*
