%
M48
M72
T01C0.0118
T02C0.0157
T03C0.0236
T04C0.0276
T05C0.0320
T06C0.0472
%
T01
X153354Y70287
X158354Y74287
X176854Y87787
X179854Y86787
X174354Y89787
X172354Y92787
X170354Y95787
X167354Y101287
X159854Y98287
X158354Y102287
X160854Y106287
X164854Y108287
X160354Y113287
X158854Y120287
X160354Y123287
X179854Y121787
X179854Y118287
X179385Y109405
X183322Y109405
X186472Y106255
X186472Y102318
X183322Y99169
X179385Y99169
X176235Y102318
X176235Y106255
X193354Y93787
X193354Y90287
X193854Y86787
X191854Y83787
X193854Y78787
X187354Y78787
X182354Y81287
X186854Y86787
X207854Y85287
X207854Y79287
X207854Y73287
X164854Y91287
X201854Y111287
X197854Y122287
X188354Y128787
X180854Y128787
T02
X183354Y117287
X190354Y113287
X194354Y106287
X212854Y90287
T03
X197354Y89787
X187354Y71787
X191354Y65787
X183354Y65787
X167354Y72787
X207354Y112287
X186354Y124287
X170854Y115287
X160854Y127787
T04
X184354Y127830
X184354Y120743
T05
X161354Y86287
X161354Y78287
X161354Y70287
T06
X181354Y104287
M30
