G75*
G70*
%OFA0B0*%
%FSLAX24Y24*%
%IPPOS*%
%LPD*%
%AMOC8*
5,1,8,0,0,1.08239X$1,22.5*
%
%ADD10R,0.1490X0.0690*%
%ADD11R,0.0749X0.0749*%
%ADD12R,0.0278X0.0278*%
%ADD13C,0.0317*%
%ADD14R,0.0240X0.0340*%
%ADD15C,0.0060*%
%ADD16R,0.0340X0.0240*%
%ADD17C,0.0600*%
%ADD18C,0.0316*%
%ADD19R,0.1240X0.0440*%
D10*
X014435Y007679D03*
X014435Y008679D03*
X014435Y009679D03*
X014435Y010679D03*
X014435Y011679D03*
D11*
X018135Y010429D03*
D12*
X017624Y010626D03*
X017624Y010232D03*
X017939Y009917D03*
X018332Y009917D03*
X018647Y010232D03*
X018647Y010626D03*
X018332Y010940D03*
X017939Y010940D03*
D13*
X021285Y009029D03*
D14*
X016135Y009479D03*
X015835Y009479D03*
X015535Y009479D03*
X015535Y010979D03*
X015835Y010979D03*
X016135Y010979D03*
D15*
X015985Y010819D02*
X015985Y011139D01*
X015685Y011139D02*
X015685Y010819D01*
X015745Y010379D02*
X015426Y010379D01*
X015426Y010079D02*
X015745Y010079D01*
X015685Y009639D02*
X015685Y009319D01*
X015985Y009319D02*
X015985Y009639D01*
D16*
X015585Y009929D03*
X015585Y010229D03*
X015585Y010529D03*
D17*
X016135Y008629D03*
X016135Y007829D03*
X016135Y007029D03*
D18*
X018435Y012074D03*
X018435Y012783D03*
D19*
X017135Y012779D03*
X020285Y012779D03*
X020285Y006579D03*
X017135Y006579D03*
M02*
