G75*
G70*
%OFA0B0*%
%FSLAX24Y24*%
%IPPOS*%
%LPD*%
%AMOC8*
5,1,8,0,0,1.08239X$1,22.5*
%
%ADD10C,0.0434*%
%ADD11C,0.0500*%
%ADD12R,0.1490X0.0690*%
%ADD13R,0.0270X0.0280*%
%ADD14R,0.0131X0.0355*%
%ADD15R,0.0355X0.0131*%
%ADD16R,0.1457X0.1457*%
%ADD17R,0.0749X0.0749*%
%ADD18R,0.0278X0.0278*%
%ADD19R,0.0790X0.0290*%
%ADD20C,0.0317*%
%ADD21C,0.0300*%
%ADD22R,0.0280X0.0270*%
%ADD23R,0.0440X0.0440*%
%ADD24R,0.1040X0.0340*%
%ADD25R,0.0512X0.0591*%
%ADD26R,0.0340X0.0240*%
%ADD27C,0.0060*%
%ADD28C,0.0700*%
%ADD29C,0.0900*%
%ADD30R,0.0591X0.0434*%
%ADD31R,0.0240X0.0340*%
%ADD32R,0.0473X0.0906*%
%ADD33R,0.0434X0.0473*%
%ADD34R,0.0650X0.0631*%
%ADD35C,0.0316*%
%ADD36C,0.0453*%
D10*
X006912Y012989D03*
X020312Y004639D03*
D11*
X019977Y004639D02*
X019979Y004676D01*
X019985Y004712D01*
X019995Y004748D01*
X020009Y004782D01*
X020027Y004814D01*
X020048Y004845D01*
X020072Y004873D01*
X020099Y004898D01*
X020129Y004919D01*
X020161Y004938D01*
X020195Y004953D01*
X020230Y004964D01*
X020266Y004971D01*
X020303Y004974D01*
X020340Y004973D01*
X020376Y004968D01*
X020412Y004959D01*
X020447Y004946D01*
X020479Y004929D01*
X020510Y004909D01*
X020539Y004885D01*
X020565Y004859D01*
X020587Y004830D01*
X020607Y004798D01*
X020622Y004765D01*
X020634Y004730D01*
X020642Y004694D01*
X020646Y004657D01*
X020646Y004621D01*
X020642Y004584D01*
X020634Y004548D01*
X020622Y004513D01*
X020607Y004480D01*
X020587Y004448D01*
X020565Y004419D01*
X020539Y004393D01*
X020510Y004369D01*
X020480Y004349D01*
X020447Y004332D01*
X020412Y004319D01*
X020376Y004310D01*
X020340Y004305D01*
X020303Y004304D01*
X020266Y004307D01*
X020230Y004314D01*
X020195Y004325D01*
X020161Y004340D01*
X020129Y004359D01*
X020099Y004380D01*
X020072Y004405D01*
X020048Y004433D01*
X020027Y004464D01*
X020009Y004496D01*
X019995Y004530D01*
X019985Y004566D01*
X019979Y004602D01*
X019977Y004639D01*
X006577Y012989D02*
X006579Y013026D01*
X006585Y013062D01*
X006595Y013098D01*
X006609Y013132D01*
X006627Y013164D01*
X006648Y013195D01*
X006672Y013223D01*
X006699Y013248D01*
X006729Y013269D01*
X006761Y013288D01*
X006795Y013303D01*
X006830Y013314D01*
X006866Y013321D01*
X006903Y013324D01*
X006940Y013323D01*
X006976Y013318D01*
X007012Y013309D01*
X007047Y013296D01*
X007079Y013279D01*
X007110Y013259D01*
X007139Y013235D01*
X007165Y013209D01*
X007187Y013180D01*
X007207Y013148D01*
X007222Y013115D01*
X007234Y013080D01*
X007242Y013044D01*
X007246Y013007D01*
X007246Y012971D01*
X007242Y012934D01*
X007234Y012898D01*
X007222Y012863D01*
X007207Y012830D01*
X007187Y012798D01*
X007165Y012769D01*
X007139Y012743D01*
X007110Y012719D01*
X007080Y012699D01*
X007047Y012682D01*
X007012Y012669D01*
X006976Y012660D01*
X006940Y012655D01*
X006903Y012654D01*
X006866Y012657D01*
X006830Y012664D01*
X006795Y012675D01*
X006761Y012690D01*
X006729Y012709D01*
X006699Y012730D01*
X006672Y012755D01*
X006648Y012783D01*
X006627Y012814D01*
X006609Y012846D01*
X006595Y012880D01*
X006585Y012916D01*
X006579Y012952D01*
X006577Y012989D01*
D12*
X008912Y010489D03*
X008912Y009489D03*
X008912Y008489D03*
X008912Y007489D03*
X008912Y006489D03*
D13*
X010112Y009389D03*
X010112Y009789D03*
X010112Y010189D03*
X010112Y010589D03*
X013012Y008589D03*
X013012Y008189D03*
X013212Y007289D03*
X013212Y006889D03*
X013212Y006039D03*
X013212Y005639D03*
X016612Y010439D03*
X016612Y010839D03*
X013762Y011039D03*
X013762Y011439D03*
D14*
X014423Y010454D03*
X014620Y010454D03*
X014817Y010454D03*
X015014Y010454D03*
X015211Y010454D03*
X015407Y010454D03*
X015604Y010454D03*
X015801Y010454D03*
X015801Y008525D03*
X015604Y008525D03*
X015407Y008525D03*
X015211Y008525D03*
X015014Y008525D03*
X014817Y008525D03*
X014620Y008525D03*
X014423Y008525D03*
D15*
X014148Y008800D03*
X014148Y008997D03*
X014148Y009194D03*
X014148Y009391D03*
X014148Y009588D03*
X014148Y009784D03*
X014148Y009981D03*
X014148Y010178D03*
X016077Y010178D03*
X016077Y009981D03*
X016077Y009784D03*
X016077Y009588D03*
X016077Y009391D03*
X016077Y009194D03*
X016077Y008997D03*
X016077Y008800D03*
D16*
X015112Y009489D03*
D17*
X015112Y009489D03*
D18*
X014915Y008977D03*
X014600Y009292D03*
X014600Y009686D03*
X014915Y010001D03*
X015309Y010001D03*
X015624Y009686D03*
X015624Y009292D03*
X015309Y008977D03*
D19*
X018012Y010839D03*
D20*
X018262Y008089D03*
D21*
X018262Y010839D01*
X020662Y010839D01*
X020662Y010389D01*
X019112Y010389D01*
X019112Y009939D01*
X020662Y009939D01*
X020662Y009489D01*
X019112Y009489D01*
X019112Y009039D01*
X020662Y009039D01*
X020662Y008589D01*
X019112Y008589D01*
X019112Y008139D01*
X020662Y008139D01*
X020662Y006589D01*
D22*
X017787Y007914D03*
X017387Y007914D03*
X017387Y009864D03*
X017787Y009864D03*
X017412Y010489D03*
X017412Y010839D03*
X017012Y010839D03*
X017012Y010489D03*
X017012Y010064D03*
X016612Y010064D03*
X015362Y011439D03*
X014962Y011439D03*
X014962Y011089D03*
X014562Y011089D03*
X014562Y011439D03*
X014162Y011439D03*
X013262Y010139D03*
X012862Y010139D03*
X012462Y010139D03*
X012062Y010139D03*
X012062Y009789D03*
X012062Y009439D03*
X012462Y009439D03*
X012462Y009789D03*
X012462Y009089D03*
X012462Y008739D03*
X012062Y008739D03*
X012062Y009089D03*
X013512Y008039D03*
X013912Y008039D03*
X010462Y007589D03*
X010462Y007239D03*
X010462Y006889D03*
X010062Y006889D03*
X010062Y007239D03*
X010062Y007589D03*
D23*
X010112Y008139D03*
X010112Y008839D03*
X009062Y005689D03*
X008362Y005689D03*
X013262Y010639D03*
X013262Y011339D03*
D24*
X014062Y007339D03*
X014062Y006839D03*
X014062Y006339D03*
X014062Y005839D03*
X016562Y005839D03*
X016562Y006339D03*
X016562Y006839D03*
X016562Y007339D03*
D25*
X017047Y008456D03*
X017677Y008456D03*
X017677Y009322D03*
X017047Y009322D03*
D26*
X012262Y007539D03*
X012262Y007239D03*
X011162Y007339D03*
X011162Y007039D03*
X011162Y007639D03*
X011162Y008189D03*
X011162Y008489D03*
X011162Y008789D03*
X011162Y009339D03*
X011162Y009639D03*
X011162Y009939D03*
D27*
X011322Y009789D02*
X011002Y009789D01*
X011002Y009489D02*
X011322Y009489D01*
X011322Y008639D02*
X011002Y008639D01*
X011002Y008339D02*
X011322Y008339D01*
X011322Y007489D02*
X011002Y007489D01*
X011002Y007189D02*
X011322Y007189D01*
D28*
X011462Y004989D03*
X010462Y004989D03*
X009462Y004989D03*
X008462Y004989D03*
X012462Y004989D03*
X013462Y004989D03*
X014462Y004989D03*
X015462Y004989D03*
X016462Y004989D03*
X017462Y004989D03*
X018462Y004989D03*
X018462Y011989D03*
X017462Y011989D03*
X016462Y011989D03*
X015462Y011989D03*
X014462Y011989D03*
X013462Y011989D03*
X012462Y011989D03*
X011462Y011989D03*
X010462Y011989D03*
X009462Y011989D03*
X008462Y011989D03*
D29*
X008462Y003989D03*
X009462Y003989D03*
X010462Y003989D03*
X011462Y003989D03*
X012462Y003989D03*
X013462Y003989D03*
X014462Y003989D03*
X015462Y003989D03*
X016462Y003989D03*
X017462Y003989D03*
X018462Y003989D03*
X018462Y012989D03*
X017462Y012989D03*
X016462Y012989D03*
X015462Y012989D03*
X014462Y012989D03*
X013462Y012989D03*
X012462Y012989D03*
X011462Y012989D03*
X010462Y012989D03*
X009462Y012989D03*
X008462Y012989D03*
D30*
X012262Y008137D03*
X012262Y006641D03*
D31*
X017062Y011389D03*
X017362Y011389D03*
D32*
X019422Y012439D03*
X020603Y012439D03*
D33*
X020012Y011849D03*
D34*
X011948Y006039D03*
X010176Y006039D03*
D35*
X011062Y005685D03*
X011062Y006394D03*
D36*
X012462Y010989D03*
M02*
