G75*
G70*
%OFA0B0*%
%FSLAX24Y24*%
%IPPOS*%
%LPD*%
%AMOC8*
5,1,8,0,0,1.08239X$1,22.5*
%
%ADD10C,0.0434*%
%ADD11C,0.0500*%
%ADD12C,0.1290*%
%ADD13C,0.1040*%
%ADD14R,0.0749X0.0611*%
%ADD15O,0.1930X0.0985*%
%ADD16R,0.0591X0.0434*%
%ADD17R,0.0440X0.0440*%
%ADD18R,0.1490X0.0690*%
%ADD19C,0.0631*%
%ADD20R,0.0740X0.0740*%
%ADD21R,0.0640X0.0640*%
%ADD22C,0.0640*%
%ADD23R,0.0740X0.0940*%
%ADD24R,0.0512X0.0257*%
%ADD25R,0.0670X0.1418*%
%ADD26R,0.0700X0.0700*%
%ADD27C,0.0700*%
%ADD28R,0.0611X0.0749*%
%ADD29R,0.0440X0.0140*%
%ADD30R,0.0571X0.0571*%
%ADD31C,0.0571*%
%ADD32R,0.1460X0.0690*%
%ADD33C,0.0640*%
%ADD34C,0.0925*%
%ADD35C,0.1339*%
%ADD36C,0.2638*%
%ADD37R,0.0650X0.0631*%
%ADD38C,0.0316*%
%ADD39C,0.2520*%
D10*
X009377Y008943D03*
X009377Y022543D03*
X025527Y022543D03*
D11*
X025192Y022543D02*
X025194Y022580D01*
X025200Y022616D01*
X025210Y022652D01*
X025224Y022686D01*
X025242Y022718D01*
X025263Y022749D01*
X025287Y022777D01*
X025314Y022802D01*
X025344Y022823D01*
X025376Y022842D01*
X025410Y022857D01*
X025445Y022868D01*
X025481Y022875D01*
X025518Y022878D01*
X025555Y022877D01*
X025591Y022872D01*
X025627Y022863D01*
X025662Y022850D01*
X025694Y022833D01*
X025725Y022813D01*
X025754Y022789D01*
X025780Y022763D01*
X025802Y022734D01*
X025822Y022702D01*
X025837Y022669D01*
X025849Y022634D01*
X025857Y022598D01*
X025861Y022561D01*
X025861Y022525D01*
X025857Y022488D01*
X025849Y022452D01*
X025837Y022417D01*
X025822Y022384D01*
X025802Y022352D01*
X025780Y022323D01*
X025754Y022297D01*
X025725Y022273D01*
X025695Y022253D01*
X025662Y022236D01*
X025627Y022223D01*
X025591Y022214D01*
X025555Y022209D01*
X025518Y022208D01*
X025481Y022211D01*
X025445Y022218D01*
X025410Y022229D01*
X025376Y022244D01*
X025344Y022263D01*
X025314Y022284D01*
X025287Y022309D01*
X025263Y022337D01*
X025242Y022368D01*
X025224Y022400D01*
X025210Y022434D01*
X025200Y022470D01*
X025194Y022506D01*
X025192Y022543D01*
X009042Y022543D02*
X009044Y022580D01*
X009050Y022616D01*
X009060Y022652D01*
X009074Y022686D01*
X009092Y022718D01*
X009113Y022749D01*
X009137Y022777D01*
X009164Y022802D01*
X009194Y022823D01*
X009226Y022842D01*
X009260Y022857D01*
X009295Y022868D01*
X009331Y022875D01*
X009368Y022878D01*
X009405Y022877D01*
X009441Y022872D01*
X009477Y022863D01*
X009512Y022850D01*
X009544Y022833D01*
X009575Y022813D01*
X009604Y022789D01*
X009630Y022763D01*
X009652Y022734D01*
X009672Y022702D01*
X009687Y022669D01*
X009699Y022634D01*
X009707Y022598D01*
X009711Y022561D01*
X009711Y022525D01*
X009707Y022488D01*
X009699Y022452D01*
X009687Y022417D01*
X009672Y022384D01*
X009652Y022352D01*
X009630Y022323D01*
X009604Y022297D01*
X009575Y022273D01*
X009545Y022253D01*
X009512Y022236D01*
X009477Y022223D01*
X009441Y022214D01*
X009405Y022209D01*
X009368Y022208D01*
X009331Y022211D01*
X009295Y022218D01*
X009260Y022229D01*
X009226Y022244D01*
X009194Y022263D01*
X009164Y022284D01*
X009137Y022309D01*
X009113Y022337D01*
X009092Y022368D01*
X009074Y022400D01*
X009060Y022434D01*
X009050Y022470D01*
X009044Y022506D01*
X009042Y022543D01*
X009042Y008943D02*
X009044Y008980D01*
X009050Y009016D01*
X009060Y009052D01*
X009074Y009086D01*
X009092Y009118D01*
X009113Y009149D01*
X009137Y009177D01*
X009164Y009202D01*
X009194Y009223D01*
X009226Y009242D01*
X009260Y009257D01*
X009295Y009268D01*
X009331Y009275D01*
X009368Y009278D01*
X009405Y009277D01*
X009441Y009272D01*
X009477Y009263D01*
X009512Y009250D01*
X009544Y009233D01*
X009575Y009213D01*
X009604Y009189D01*
X009630Y009163D01*
X009652Y009134D01*
X009672Y009102D01*
X009687Y009069D01*
X009699Y009034D01*
X009707Y008998D01*
X009711Y008961D01*
X009711Y008925D01*
X009707Y008888D01*
X009699Y008852D01*
X009687Y008817D01*
X009672Y008784D01*
X009652Y008752D01*
X009630Y008723D01*
X009604Y008697D01*
X009575Y008673D01*
X009545Y008653D01*
X009512Y008636D01*
X009477Y008623D01*
X009441Y008614D01*
X009405Y008609D01*
X009368Y008608D01*
X009331Y008611D01*
X009295Y008618D01*
X009260Y008629D01*
X009226Y008644D01*
X009194Y008663D01*
X009164Y008684D01*
X009137Y008709D01*
X009113Y008737D01*
X009092Y008768D01*
X009074Y008800D01*
X009060Y008834D01*
X009050Y008870D01*
X009044Y008906D01*
X009042Y008943D01*
D12*
X016277Y007793D03*
D13*
X017077Y010143D03*
X021877Y010143D03*
X021877Y005443D03*
X017077Y005443D03*
D14*
X014427Y006831D03*
X014427Y008756D03*
D15*
X024379Y007793D03*
X024379Y005793D03*
X024379Y009793D03*
D16*
X015360Y017693D03*
X014494Y017319D03*
X014494Y018067D03*
X013594Y010117D03*
X013594Y009369D03*
X014460Y009743D03*
D17*
X012927Y009393D03*
X012927Y010093D03*
X012927Y010693D03*
X012927Y011393D03*
X011777Y011293D03*
X011077Y011293D03*
X010127Y011643D03*
X010127Y012243D03*
X010127Y012843D03*
X011077Y012893D03*
X011777Y012893D03*
X014277Y014243D03*
X014977Y014243D03*
X016027Y013243D03*
X016627Y013243D03*
X016627Y012543D03*
X016027Y012543D03*
X016027Y011943D03*
X016627Y011943D03*
X016627Y011243D03*
X016027Y011243D03*
X015127Y012393D03*
X014427Y012393D03*
X011777Y009693D03*
X011077Y009693D03*
X011077Y008093D03*
X011777Y008093D03*
X012677Y007543D03*
X013377Y007543D03*
X009427Y011643D03*
X009427Y012243D03*
X009427Y012843D03*
X013177Y017343D03*
X013777Y017343D03*
X013777Y018043D03*
X013177Y018043D03*
X013527Y018793D03*
X014127Y018793D03*
X014127Y019493D03*
X013527Y019493D03*
X014127Y020093D03*
X014827Y020093D03*
X016077Y018143D03*
X016777Y018143D03*
X016777Y017543D03*
X016777Y016843D03*
X019227Y017143D03*
X019227Y017843D03*
X019827Y017843D03*
X020527Y017843D03*
X021127Y017843D03*
X021127Y017143D03*
X023877Y019393D03*
X023877Y020093D03*
X022027Y024143D03*
X021327Y024143D03*
X020727Y024143D03*
X020027Y024143D03*
X019127Y024143D03*
X019127Y024743D03*
X019127Y025343D03*
X018427Y025343D03*
X018427Y024743D03*
X018427Y024143D03*
X020677Y026143D03*
X021377Y026143D03*
X022627Y025493D03*
X022627Y024893D03*
X023327Y024893D03*
X023327Y025493D03*
X023927Y025543D03*
X023927Y024843D03*
X007627Y006043D03*
X007627Y005343D03*
D18*
X007017Y006893D03*
X007017Y007893D03*
X007017Y008893D03*
X007017Y009893D03*
X007017Y010893D03*
D19*
X021727Y013533D03*
X021727Y013729D03*
X021727Y013926D03*
X021727Y014123D03*
X021727Y014320D03*
X021727Y014517D03*
X021727Y014714D03*
X022436Y015875D03*
X022633Y015875D03*
X022829Y015875D03*
X023026Y015875D03*
X023223Y015875D03*
X023420Y015875D03*
X023617Y015875D03*
X024286Y014714D03*
X024286Y014517D03*
X024286Y014320D03*
X024286Y014123D03*
X024286Y013926D03*
X024286Y013729D03*
X024286Y013533D03*
D20*
X006877Y004843D03*
D21*
X018527Y013543D03*
X023427Y022193D03*
D22*
X023427Y023193D03*
X022677Y024243D03*
X018527Y012543D03*
D23*
X023970Y017043D03*
X025684Y017043D03*
D24*
X018539Y016919D03*
X018539Y017293D03*
X018539Y017667D03*
X017515Y017667D03*
X017515Y017293D03*
X017515Y016919D03*
X015139Y013717D03*
X015139Y012969D03*
X014115Y012969D03*
X014115Y013343D03*
X014115Y013717D03*
D25*
X014155Y011343D03*
X015100Y011343D03*
X017555Y018693D03*
X018500Y018693D03*
D26*
X021077Y022793D03*
D27*
X020077Y022793D03*
X019077Y022793D03*
X018077Y022793D03*
X017077Y022793D03*
X016077Y022793D03*
X015077Y022793D03*
X014077Y022793D03*
X013077Y022793D03*
X012077Y022793D03*
X011077Y022793D03*
X011077Y015793D03*
X012077Y015793D03*
X013077Y015793D03*
X014077Y015793D03*
X015077Y015793D03*
X016077Y015793D03*
X017077Y015793D03*
X018077Y015793D03*
X019077Y015793D03*
X020077Y015793D03*
X021077Y015793D03*
D28*
X021140Y018993D03*
X019214Y018993D03*
X016840Y018993D03*
X014914Y018993D03*
D29*
X020161Y024749D03*
X020161Y024946D03*
X020161Y025143D03*
X020161Y025340D03*
X020161Y025537D03*
X021893Y025537D03*
X021893Y025340D03*
X021893Y025143D03*
X021893Y024946D03*
X021893Y024749D03*
D30*
X024577Y024399D03*
D31*
X024577Y025187D03*
D32*
X007017Y023893D03*
X007017Y022893D03*
X007017Y021893D03*
X007017Y020893D03*
X007017Y019893D03*
X007017Y018893D03*
X007017Y017893D03*
X007017Y016893D03*
X007017Y015893D03*
X007017Y014893D03*
D33*
X025267Y018853D03*
X025267Y020633D03*
D34*
X024287Y021123D03*
X024287Y018363D03*
D35*
X020389Y020901D03*
X009366Y020901D03*
X009366Y009877D03*
D36*
X011992Y005542D03*
X011992Y025227D03*
D37*
X010263Y007693D03*
X008491Y007693D03*
D38*
X009377Y007339D03*
X009377Y008047D03*
D39*
X009327Y005593D03*
X014637Y025183D03*
M02*
