%
M48
M72
T01C0.0236
T02C0.0276
T03C0.0340
T04C0.0354
T05C0.0394
T06C0.0400
T07C0.0510
T08C0.0590
T09C0.0630
T10C0.0710
T11C0.1299
T12C0.2598
%
T01
X80771Y68931
X86554Y62649
X93271Y65431
X99988Y62649
X102771Y55931
X99988Y49214
X93271Y46431
X86554Y49214
X83771Y55931
X80271Y82431
X80271Y88931
X105771Y87931
X117771Y100931
X124771Y93931
X143271Y102931
X134771Y116931
X124271Y112931
X117771Y116931
X121771Y128931
X124771Y132431
X120271Y137431
X120771Y142431
X112271Y147431
X101271Y132431
X89771Y128431
X89771Y122431
X82771Y116431
X74271Y116431
X78771Y125431
X73771Y130431
X72271Y135931
X72771Y142431
X65271Y128931
X80271Y158931
X80271Y168931
X80271Y178931
X80271Y188931
X80271Y198931
X80271Y208931
X83771Y223431
X117771Y192931
X112271Y186931
X121271Y175931
X127771Y173431
X131771Y184431
X126771Y201931
X145271Y212431
X157271Y212431
X167271Y212431
X160771Y201681
X160771Y191931
X163771Y168431
X157271Y141931
X171771Y135431
X176771Y143431
X185271Y141431
X196771Y141431
X190771Y130431
X170271Y112431
X155271Y123931
X146271Y128431
X132771Y142431
X105271Y111931
X144271Y74931
X136771Y46431
X224271Y121931
X235771Y121931
X227771Y152431
X221271Y164931
X216771Y178431
X205271Y171431
X198271Y171431
X201771Y185431
X215271Y196431
X229771Y214931
X220271Y236431
X213271Y236431
X214271Y249431
X205771Y247431
X206771Y257431
X217771Y261431
X226271Y258931
X195271Y247431
X195271Y241431
X195771Y232931
X185771Y232931
X175771Y232931
X181771Y217431
X189771Y206431
X192271Y201431
X146371Y242331
X139654Y245114
X136871Y251831
X139654Y258549
X146371Y261331
X153088Y258549
X155871Y251831
X153088Y245114
X110771Y172431
X255271Y177431
T02
X93771Y80475
X93771Y73388
T03
X185271Y125431
X185271Y135431
X234271Y221931
X234271Y231931
X226771Y242431
T04
X245771Y243994
X245771Y251869
T05
X236169Y158750
X234200Y158750
X232231Y158750
X230263Y158750
X228294Y158750
X226326Y158750
X224357Y158750
X217271Y147136
X217271Y145168
X217271Y143199
X217271Y141231
X217271Y139262
X217271Y137294
X217271Y135325
X242861Y135325
X242861Y137294
X242861Y139262
X242861Y141231
X242861Y143199
X242861Y145168
X242861Y147136
T06
X68771Y48431
X110771Y157931
X120771Y157931
X130771Y157931
X140771Y157931
X150771Y157931
X160771Y157931
X170771Y157931
X180771Y157931
X190771Y157931
X200771Y157931
X210771Y157931
X252671Y188531
X252671Y206331
X210771Y227931
X200771Y227931
X190771Y227931
X180771Y227931
X170771Y227931
X160771Y227931
X150771Y227931
X140771Y227931
X130771Y227931
X120771Y227931
X110771Y227931
T07
X170771Y101431
X218771Y101431
X218771Y54431
X170771Y54431
T08
X242871Y183631
X242871Y211231
T09
X243791Y97931
X243791Y77931
X243791Y57931
T10
X162771Y77931
T11
X93657Y98770
X93271Y55931
X93657Y209006
X146371Y251831
X203893Y209006
T12
X119917Y252274
X119917Y55424
M30
