G75*
G70*
%OFA0B0*%
%FSLAX24Y24*%
%IPPOS*%
%LPD*%
%AMOC8*
5,1,8,0,0,1.08239X$1,22.5*
%
%ADD10C,0.1290*%
%ADD11C,0.1040*%
%ADD12O,0.1930X0.0985*%
%ADD13R,0.1490X0.0690*%
%ADD14C,0.0631*%
%ADD15R,0.0740X0.0740*%
%ADD16R,0.0640X0.0640*%
%ADD17C,0.0640*%
%ADD18R,0.0700X0.0700*%
%ADD19C,0.0700*%
%ADD20R,0.0571X0.0571*%
%ADD21C,0.0571*%
%ADD22R,0.0240X0.0340*%
%ADD23R,0.0340X0.0240*%
%ADD24R,0.1460X0.0690*%
%ADD25C,0.0640*%
%ADD26C,0.0925*%
%ADD27C,0.1339*%
%ADD28C,0.2638*%
%ADD29C,0.0316*%
%ADD30C,0.2520*%
D10*
X016277Y007793D03*
D11*
X017077Y010143D03*
X021877Y010143D03*
X021877Y005443D03*
X017077Y005443D03*
D12*
X024379Y005793D03*
X024379Y007793D03*
X024379Y009793D03*
D13*
X007017Y009893D03*
X007017Y010893D03*
X007017Y008893D03*
X007017Y007893D03*
X007017Y006893D03*
D14*
X021727Y013533D03*
X021727Y013729D03*
X021727Y013926D03*
X021727Y014123D03*
X021727Y014320D03*
X021727Y014517D03*
X021727Y014714D03*
X022436Y015875D03*
X022633Y015875D03*
X022829Y015875D03*
X023026Y015875D03*
X023223Y015875D03*
X023420Y015875D03*
X023617Y015875D03*
X024286Y014714D03*
X024286Y014517D03*
X024286Y014320D03*
X024286Y014123D03*
X024286Y013926D03*
X024286Y013729D03*
X024286Y013533D03*
D15*
X006877Y004843D03*
D16*
X018527Y013543D03*
X023427Y022193D03*
D17*
X023427Y023193D03*
X022677Y024243D03*
X018527Y012543D03*
D18*
X021077Y022793D03*
D19*
X020077Y022793D03*
X019077Y022793D03*
X018077Y022793D03*
X017077Y022793D03*
X016077Y022793D03*
X015077Y022793D03*
X014077Y022793D03*
X013077Y022793D03*
X012077Y022793D03*
X011077Y022793D03*
X011077Y015793D03*
X012077Y015793D03*
X013077Y015793D03*
X014077Y015793D03*
X015077Y015793D03*
X016077Y015793D03*
X017077Y015793D03*
X018077Y015793D03*
X019077Y015793D03*
X020077Y015793D03*
X021077Y015793D03*
D20*
X024577Y024399D03*
D21*
X024577Y025187D03*
D22*
X021827Y024143D03*
X021527Y024143D03*
D23*
X020177Y019143D03*
X020177Y018843D03*
D24*
X007017Y018893D03*
X007017Y017893D03*
X007017Y016893D03*
X007017Y015893D03*
X007017Y014893D03*
X007017Y019893D03*
X007017Y020893D03*
X007017Y021893D03*
X007017Y022893D03*
X007017Y023893D03*
D25*
X025267Y020633D03*
X025267Y018853D03*
D26*
X024287Y018363D03*
X024287Y021123D03*
D27*
X020389Y020901D03*
X009366Y020901D03*
X009366Y009877D03*
D28*
X011992Y005542D03*
X011992Y025227D03*
D29*
X009377Y008047D03*
X009377Y007339D03*
D30*
X009327Y005593D03*
X014637Y025183D03*
M02*
